<?xml version="1.0" encoding="UTF-8" standalone="no"?>
<svg xmlns="http://www.w3.org/2000/svg" version="1.2" baseProfile="tiny" viewBox="0.00 0.00 150.00 150.00">
<g stroke-width="2.00" fill="none" stroke-linecap="butt">
<path stroke="#b77c52" vector-effect="non-scaling-stroke" d="
  M 35.9707 6.3822
  A 0.43 0.43 0.0 0 0 35.5333 5.9597
  L 30.8940 6.0407
  A 0.43 0.43 0.0 0 0 30.4716 6.4782
  L 30.5093 8.6378
  A 0.43 0.43 0.0 0 0 30.9467 9.0603
  L 35.5860 8.9793
  A 0.43 0.43 0.0 0 0 36.0084 8.5418
  L 35.9707 6.3822"
/>
<path stroke="#b77c52" vector-effect="non-scaling-stroke" d="
  M 48.0021 6.5838
  A 0.61 0.61 0.0 0 0 47.3868 5.9791
  L 42.5870 6.0210
  A 0.61 0.61 0.0 0 0 41.9823 6.6363
  L 41.9979 8.4162
  A 0.61 0.61 0.0 0 0 42.6132 9.0209
  L 47.4130 8.9790
  A 0.61 0.61 0.0 0 0 48.0177 8.3637
  L 48.0021 6.5838"
/>
<path stroke="#b77c52" vector-effect="non-scaling-stroke" d="
  M 59.9998 6.6533
  A 0.68 0.68 0.0 0 0 59.3115 5.9816
  L 54.6518 6.0386
  A 0.68 0.68 0.0 0 0 53.9802 6.7268
  L 54.0002 8.3667
  A 0.68 0.68 0.0 0 0 54.6885 9.0384
  L 59.3482 8.9814
  A 0.68 0.68 0.0 0 0 60.0198 8.2932
  L 59.9998 6.6533"
/>
<path stroke="#b77c52" vector-effect="non-scaling-stroke" d="
  M 72.0021 6.5838
  A 0.61 0.61 0.0 0 0 71.3868 5.9791
  L 66.5870 6.0210
  A 0.61 0.61 0.0 0 0 65.9823 6.6363
  L 65.9979 8.4162
  A 0.61 0.61 0.0 0 0 66.6132 9.0209
  L 71.4130 8.9790
  A 0.61 0.61 0.0 0 0 72.0177 8.3637
  L 72.0021 6.5838"
/>
<path stroke="#b77c52" vector-effect="non-scaling-stroke" d="
  M 83.9909 6.6285
  A 0.65 0.65 0.0 0 0 83.3342 5.9854
  L 78.6144 6.0348
  A 0.65 0.65 0.0 0 0 77.9713 6.6916
  L 77.9891 8.3915
  A 0.65 0.65 0.0 0 0 78.6458 9.0346
  L 83.3656 8.9852
  A 0.65 0.65 0.0 0 0 84.0087 8.3284
  L 83.9909 6.6285"
/>
<path stroke="#b77c52" vector-effect="non-scaling-stroke" d="
  M 95.9890 6.6980
  A 0.73 0.73 0.0 0 0 95.2488 5.9783
  L 90.6893 6.0420
  A 0.73 0.73 0.0 0 0 89.9695 6.7821
  L 89.9910 8.3220
  A 0.73 0.73 0.0 0 0 90.7312 9.0417
  L 95.2907 8.9780
  A 0.73 0.73 0.0 0 0 96.0105 8.2379
  L 95.9890 6.6980"
/>
<path stroke="#b77c52" vector-effect="non-scaling-stroke" d="
  M 108.0051 6.7989
  A 0.80 0.80 0.0 0 0 107.1995 6.0045
  L 102.7597 6.0355
  A 0.80 0.80 0.0 0 0 101.9653 6.8411
  L 101.9749 8.2211
  A 0.80 0.80 0.0 0 0 102.7805 9.0155
  L 107.2203 8.9845
  A 0.80 0.80 0.0 0 0 108.0147 8.1789
  L 108.0051 6.7989"
/>
<path stroke="#b77c52" vector-effect="non-scaling-stroke" d="
  M 119.5263 6.4404
  A 0.44 0.44 0.0 0 0 119.0847 6.0019
  L 114.4448 6.0181
  A 0.44 0.44 0.0 0 0 114.0063 6.4596
  L 114.0137 8.5796
  A 0.44 0.44 0.0 0 0 114.4553 9.0181
  L 119.0952 9.0019
  A 0.44 0.44 0.0 0 0 119.5337 8.5604
  L 119.5263 6.4404"
/>
<path stroke="#b77c52" vector-effect="non-scaling-stroke" d="
  M 25.1468 7.4694
  A 0.43 0.43 0.0 0 0 24.5838 7.2396
  L 20.7304 8.8595
  A 0.43 0.43 0.0 0 0 20.5006 9.4225
  L 21.3532 11.4506
  A 0.43 0.43 0.0 0 0 21.9162 11.6804
  L 25.7696 10.0605
  A 0.43 0.43 0.0 0 0 25.9994 9.4975
  L 25.1468 7.4694"
/>
<path stroke="#b77c52" vector-effect="non-scaling-stroke" d="
  M 129.4846 9.6368
  A 0.57 0.57 0.0 0 0 129.1852 8.8884
  L 125.5087 7.3126
  A 0.57 0.57 0.0 0 0 124.7602 7.6120
  L 124.0354 9.3032
  A 0.57 0.57 0.0 0 0 124.3348 10.0516
  L 128.0113 11.6274
  A 0.57 0.57 0.0 0 0 128.7598 11.3280
  L 129.4846 9.6368"
/>
<path stroke="#b77c52" vector-effect="non-scaling-stroke" d="
  M 15.9365 12.4174
  A 0.29 0.29 0.0 0 0 15.5264 12.4124
  L 12.4203 15.4435
  A 0.29 0.29 0.0 0 0 12.4153 15.8536
  L 14.0635 17.5426
  A 0.29 0.29 0.0 0 0 14.4736 17.5476
  L 17.5797 14.5165
  A 0.29 0.29 0.0 0 0 17.5847 14.1064
  L 15.9365 12.4174"
/>
<path stroke="#b77c52" vector-effect="non-scaling-stroke" d="
  M 134.5633 12.4503
  A 0.33 0.33 0.0 0 0 134.0966 12.4503
  L 132.4703 14.0766
  A 0.33 0.33 0.0 0 0 132.4703 14.5433
  L 135.4967 17.5697
  A 0.33 0.33 0.0 0 0 135.9634 17.5697
  L 137.5897 15.9434
  A 0.33 0.33 0.0 0 0 137.5897 15.4767
  L 134.5633 12.4503"
/>
<path stroke="#b77c52" vector-effect="non-scaling-stroke" d="
  M 120.59 42.65
  Q 120.61 36.37 114.26 36.52
  Q 106.15 36.71 96.96 36.53
  Q 96.39 36.52 96.22 35.98
  C 89.42 14.32 60.80 14.17 53.80 35.98
  Q 53.62 36.54 53.03 36.55
  Q 43.82 36.69 35.46 36.56
  Q 29.34 36.47 29.41 42.58
  Q 29.41 43.21 28.79 43.27
  Q 26.99 43.43 25.11 43.31
  Q 22.57 43.15 22.59 45.57
  Q 22.68 56.75 22.79 68.84
  A 1.42 1.41 -89.1 0 0 24.14 70.24
  L 25.29 70.29
  Q 26.01 70.32 26.01 71.04
  L 25.96 113.49
  A 0.76 0.75 2.8 0 1 25.13 114.24
  Q 22.49 113.97 22.63 116.60
  Q 22.80 119.76 22.77 122.77
  A 1.46 1.46 0.0 0 0 24.23 124.25
  L 125.85 124.25
  A 1.38 1.38 0.0 0 0 127.23 122.90
  L 127.37 115.82
  A 1.60 1.60 0.0 0 0 125.54 114.20
  Q 124.97 114.28 124.41 114.17
  Q 123.86 114.05 123.86 113.49
  L 123.86 71.02
  Q 123.86 70.06 124.80 70.25
  Q 126.03 70.51 126.84 69.81
  Q 127.23 69.47 127.23 68.97
  Q 127.29 56.47 127.38 45.50
  Q 127.40 43.46 125.36 43.41
  L 121.21 43.29
  Q 120.58 43.28 120.59 42.65"
/>
<path stroke="#b77c52" vector-effect="non-scaling-stroke" d="
  M 11.6884 21.9161
  A 0.42 0.42 0.0 0 0 11.4755 21.3616
  L 9.5388 20.4993
  A 0.42 0.42 0.0 0 0 8.9843 20.7122
  L 7.2516 24.6039
  A 0.42 0.42 0.0 0 0 7.4645 25.1584
  L 9.4012 26.0207
  A 0.42 0.42 0.0 0 0 9.9557 25.8078
  L 11.6884 21.9161"
/>
<path stroke="#b77c52" vector-effect="non-scaling-stroke" d="
  M 141.1681 20.8068
  A 0.48 0.48 0.0 0 0 140.5400 20.5492
  L 138.6027 21.3596
  A 0.48 0.48 0.0 0 0 138.3451 21.9877
  L 139.9119 25.7332
  A 0.48 0.48 0.0 0 0 140.5400 25.9908
  L 142.4773 25.1804
  A 0.48 0.48 0.0 0 0 142.7349 24.5523
  L 141.1681 20.8068"
/>
<path stroke="#b77c52" vector-effect="non-scaling-stroke" d="
  M 9.0252 30.8258
  A 0.36 0.36 0.0 0 0 8.6689 30.4621
  L 6.3891 30.4382
  A 0.36 0.36 0.0 0 0 6.0253 30.7944
  L 5.9748 35.6142
  A 0.36 0.36 0.0 0 0 6.3311 35.9779
  L 8.6109 36.0018
  A 0.36 0.36 0.0 0 0 8.9747 35.6456
  L 9.0252 30.8258"
/>
<path stroke="#b77c52" vector-effect="non-scaling-stroke" d="
  M 143.9613 30.7766
  A 0.29 0.29 0.0 0 0 143.6668 30.4912
  L 141.2271 30.5295
  A 0.29 0.29 0.0 0 0 140.9417 30.8240
  L 141.0187 35.7234
  A 0.29 0.29 0.0 0 0 141.3132 36.0088
  L 143.7529 35.9705
  A 0.29 0.29 0.0 0 0 144.0383 35.6760
  L 143.9613 30.7766"
/>
<path stroke="#b77c52" vector-effect="non-scaling-stroke" d="
  M 9.00 42.58
  A 0.59 0.59 0.0 0 0 8.41 41.99
  L 6.59 41.99
  A 0.59 0.59 0.0 0 0 6.00 42.58
  L 6.00 47.40
  A 0.59 0.59 0.0 0 0 6.59 47.99
  L 8.41 47.99
  A 0.59 0.59 0.0 0 0 9.00 47.40
  L 9.00 42.58"
/>
<path stroke="#b77c52" vector-effect="non-scaling-stroke" d="
  M 144.00 42.34
  A 0.35 0.35 0.0 0 0 143.65 41.99
  L 141.35 41.99
  A 0.35 0.35 0.0 0 0 141.00 42.34
  L 141.00 47.64
  A 0.35 0.35 0.0 0 0 141.35 47.99
  L 143.65 47.99
  A 0.35 0.35 0.0 0 0 144.00 47.64
  L 144.00 42.34"
/>
<path stroke="#b77c52" vector-effect="non-scaling-stroke" d="
  M 8.9838 54.6596
  A 0.69 0.69 0.0 0 0 8.2890 53.9744
  L 6.6690 53.9857
  A 0.69 0.69 0.0 0 0 5.9838 54.6805
  L 6.0162 59.3204
  A 0.69 0.69 0.0 0 0 6.7110 60.0056
  L 8.3310 59.9943
  A 0.69 0.69 0.0 0 0 9.0162 59.2995
  L 8.9838 54.6596"
/>
<path stroke="#b77c52" vector-effect="non-scaling-stroke" d="
  M 143.9822 54.4396
  A 0.45 0.45 0.0 0 0 143.5290 53.9927
  L 141.4291 54.0074
  A 0.45 0.45 0.0 0 0 140.9822 54.4605
  L 141.0178 59.5604
  A 0.45 0.45 0.0 0 0 141.4710 60.0073
  L 143.5709 59.9926
  A 0.45 0.45 0.0 0 0 144.0178 59.5395
  L 143.9822 54.4396"
/>
<path stroke="#b77c52" vector-effect="non-scaling-stroke" d="
  M 8.9801 66.6970
  A 0.74 0.74 0.0 0 0 8.2337 65.9635
  L 6.7138 65.9767
  A 0.74 0.74 0.0 0 0 5.9802 66.7232
  L 6.0199 71.2630
  A 0.74 0.74 0.0 0 0 6.7663 71.9965
  L 8.2862 71.9833
  A 0.74 0.74 0.0 0 0 9.0198 71.2368
  L 8.9801 66.6970"
/>
<path stroke="#b77c52" vector-effect="non-scaling-stroke" d="
  M 144.01 66.59
  A 0.60 0.60 0.0 0 0 143.41 65.99
  L 141.61 65.99
  A 0.60 0.60 0.0 0 0 141.01 66.59
  L 141.01 71.39
  A 0.60 0.60 0.0 0 0 141.61 71.99
  L 143.41 71.99
  A 0.60 0.60 0.0 0 0 144.01 71.39
  L 144.01 66.59"
/>
<path stroke="#b77c52" vector-effect="non-scaling-stroke" d="
  M 8.9804 78.7370
  A 0.78 0.78 0.0 0 0 8.1936 77.9638
  L 6.7537 77.9764
  A 0.78 0.78 0.0 0 0 5.9805 78.7632
  L 6.0196 83.2430
  A 0.78 0.78 0.0 0 0 6.8064 84.0162
  L 8.2463 84.0036
  A 0.78 0.78 0.0 0 0 9.0195 83.2168
  L 8.9804 78.7370"
/>
<path stroke="#b77c52" vector-effect="non-scaling-stroke" d="
  M 143.9978 78.6622
  A 0.68 0.68 0.0 0 0 143.3143 77.9857
  L 141.6743 77.9943
  A 0.68 0.68 0.0 0 0 140.9979 78.6779
  L 141.0222 83.3178
  A 0.68 0.68 0.0 0 0 141.7057 83.9943
  L 143.3457 83.9857
  A 0.68 0.68 0.0 0 0 144.0221 83.3021
  L 143.9978 78.6622"
/>
<path stroke="#b77c52" vector-effect="non-scaling-stroke" d="
  M 8.9765 90.7344
  A 0.77 0.77 0.0 0 0 8.1984 89.9725
  L 6.7385 89.9878
  A 0.77 0.77 0.0 0 0 5.9766 90.7658
  L 6.0235 95.2456
  A 0.77 0.77 0.0 0 0 6.8016 96.0075
  L 8.2615 95.9922
  A 0.77 0.77 0.0 0 0 9.0234 95.2142
  L 8.9765 90.7344"
/>
<path stroke="#b77c52" vector-effect="non-scaling-stroke" d="
  M 143.9978 90.6622
  A 0.68 0.68 0.0 0 0 143.3143 89.9857
  L 141.6743 89.9943
  A 0.68 0.68 0.0 0 0 140.9979 90.6779
  L 141.0222 95.3178
  A 0.68 0.68 0.0 0 0 141.7057 95.9943
  L 143.3457 95.9857
  A 0.68 0.68 0.0 0 0 144.0221 95.3021
  L 143.9978 90.6622"
/>
<path stroke="#b77c52" vector-effect="non-scaling-stroke" d="
  M 8.9814 102.6417
  A 0.68 0.68 0.0 0 0 8.2932 101.9701
  L 6.6333 101.9904
  A 0.68 0.68 0.0 0 0 5.9616 102.6786
  L 6.0186 107.3383
  A 0.68 0.68 0.0 0 0 6.7068 108.0099
  L 8.3667 107.9896
  A 0.68 0.68 0.0 0 0 9.0384 107.3014
  L 8.9814 102.6417"
/>
<path stroke="#b77c52" vector-effect="non-scaling-stroke" d="
  M 144.00 102.50
  A 0.50 0.50 0.0 0 0 143.50 102.00
  L 141.50 102.00
  A 0.50 0.50 0.0 0 0 141.00 102.50
  L 141.00 107.50
  A 0.50 0.50 0.0 0 0 141.50 108.00
  L 143.50 108.00
  A 0.50 0.50 0.0 0 0 144.00 107.50
  L 144.00 102.50"
/>
<path stroke="#b77c52" vector-effect="non-scaling-stroke" d="
  M 8.9852 114.4012
  A 0.42 0.42 0.0 0 0 8.5572 113.9894
  L 6.3576 114.0316
  A 0.42 0.42 0.0 0 0 5.9457 114.4596
  L 6.0348 119.0988
  A 0.42 0.42 0.0 0 0 6.4628 119.5106
  L 8.6624 119.4684
  A 0.42 0.42 0.0 0 0 9.0743 119.0404
  L 8.9852 114.4012"
/>
<path stroke="#b77c52" vector-effect="non-scaling-stroke" d="
  M 143.9985 114.3353
  A 0.33 0.33 0.0 0 0 143.6696 114.0041
  L 141.3296 113.9959
  A 0.33 0.33 0.0 0 0 140.9985 114.3248
  L 140.9815 119.1847
  A 0.33 0.33 0.0 0 0 141.3104 119.5159
  L 143.6504 119.5241
  A 0.33 0.33 0.0 0 0 143.9815 119.1952
  L 143.9985 114.3353"
/>
<path stroke="#b77c52" vector-effect="non-scaling-stroke" d="
  M 10.0654 124.2155
  A 0.43 0.43 0.0 0 0 9.5019 123.9867
  L 7.4569 124.8505
  A 0.43 0.43 0.0 0 0 7.2281 125.4140
  L 8.8546 129.2645
  A 0.43 0.43 0.0 0 0 9.4181 129.4933
  L 11.4631 128.6295
  A 0.43 0.43 0.0 0 0 11.6919 128.0660
  L 10.0654 124.2155"
/>
<path stroke="#b77c52" vector-effect="non-scaling-stroke" d="
  M 142.7089 125.4365
  A 0.48 0.48 0.0 0 0 142.4613 124.8045
  L 140.6285 124.0038
  A 0.48 0.48 0.0 0 0 139.9965 124.2514
  L 138.3311 128.0635
  A 0.48 0.48 0.0 0 0 138.5787 128.6955
  L 140.4115 129.4962
  A 0.48 0.48 0.0 0 0 141.0435 129.2486
  L 142.7089 125.4365"
/>
<path stroke="#b77c52" vector-effect="non-scaling-stroke" d="
  M 14.5136 132.4494
  A 0.32 0.32 0.0 0 0 14.0611 132.4486
  L 12.4319 134.0722
  A 0.32 0.32 0.0 0 0 12.4311 134.5247
  L 15.4664 137.5706
  A 0.32 0.32 0.0 0 0 15.9189 137.5714
  L 17.5481 135.9478
  A 0.32 0.32 0.0 0 0 17.5489 135.4953
  L 14.5136 132.4494"
/>
<path stroke="#b77c52" vector-effect="non-scaling-stroke" d="
  M 135.9090 132.4383
  A 0.27 0.27 0.0 0 0 135.5272 132.4356
  L 132.4085 135.5110
  A 0.27 0.27 0.0 0 0 132.4058 135.8929
  L 134.0910 137.6017
  A 0.27 0.27 0.0 0 0 134.4728 137.6044
  L 137.5915 134.5290
  A 0.27 0.27 0.0 0 0 137.5942 134.1471
  L 135.9090 132.4383"
/>
<path stroke="#b77c52" vector-effect="non-scaling-stroke" d="
  M 25.9789 140.6425
  A 0.50 0.50 0.0 0 0 25.7174 139.9855
  L 21.9334 138.3559
  A 0.50 0.50 0.0 0 0 21.2764 138.6173
  L 20.5011 140.4175
  A 0.50 0.50 0.0 0 0 20.7626 141.0745
  L 24.5466 142.7041
  A 0.50 0.50 0.0 0 0 25.2036 142.4427
  L 25.9789 140.6425"
/>
<path stroke="#b77c52" vector-effect="non-scaling-stroke" d="
  M 128.6407 138.5586
  A 0.44 0.44 0.0 0 0 128.0646 138.3235
  L 124.2296 139.9356
  A 0.44 0.44 0.0 0 0 123.9945 140.5117
  L 124.8393 142.5214
  A 0.44 0.44 0.0 0 0 125.4154 142.7565
  L 129.2504 141.1444
  A 0.44 0.44 0.0 0 0 129.4855 140.5683
  L 128.6407 138.5586"
/>
<path stroke="#b77c52" vector-effect="non-scaling-stroke" d="
  M 119.4826 141.4084
  A 0.50 0.50 0.0 0 0 118.9697 140.9216
  L 114.4712 141.0394
  A 0.50 0.50 0.0 0 0 113.9845 141.5523
  L 114.0374 143.5716
  A 0.50 0.50 0.0 0 0 114.5503 144.0584
  L 119.0488 143.9406
  A 0.50 0.50 0.0 0 0 119.5355 143.4277
  L 119.4826 141.4084"
/>
<path stroke="#b77c52" vector-effect="non-scaling-stroke" d="
  M 35.9938 141.3996
  A 0.40 0.40 0.0 0 0 35.5952 140.9982
  L 30.8753 140.9818
  A 0.40 0.40 0.0 0 0 30.4739 141.3804
  L 30.4662 143.5804
  A 0.40 0.40 0.0 0 0 30.8648 143.9818
  L 35.5847 143.9982
  A 0.40 0.40 0.0 0 0 35.9861 143.5996
  L 35.9938 141.3996"
/>
<path stroke="#b77c52" vector-effect="non-scaling-stroke" d="
  M 48.0182 141.9694
  A 0.99 0.99 0.0 0 0 47.0248 140.9829
  L 42.9448 140.9971
  A 0.99 0.99 0.0 0 0 41.9582 141.9906
  L 41.9618 143.0106
  A 0.99 0.99 0.0 0 0 42.9552 143.9971
  L 47.0352 143.9829
  A 0.99 0.99 0.0 0 0 48.0218 142.9894
  L 48.0182 141.9694"
/>
<path stroke="#b77c52" vector-effect="non-scaling-stroke" d="
  M 60.0115 141.9872
  A 1.04 1.04 0.0 0 0 58.9535 140.9655
  L 54.9741 141.0350
  A 1.04 1.04 0.0 0 0 53.9524 142.0930
  L 53.9685 143.0128
  A 1.04 1.04 0.0 0 0 55.0265 144.0345
  L 59.0059 143.9650
  A 1.04 1.04 0.0 0 0 60.0276 142.9070
  L 60.0115 141.9872"
/>
<path stroke="#b77c52" vector-effect="non-scaling-stroke" d="
  M 72.0215 141.9872
  A 1.04 1.04 0.0 0 0 70.9635 140.9655
  L 66.9841 141.0350
  A 1.04 1.04 0.0 0 0 65.9624 142.0930
  L 65.9785 143.0128
  A 1.04 1.04 0.0 0 0 67.0365 144.0345
  L 71.0159 143.9650
  A 1.04 1.04 0.0 0 0 72.0376 142.9070
  L 72.0215 141.9872"
/>
<path stroke="#b77c52" vector-effect="non-scaling-stroke" d="
  M 84.0160 142.0136
  A 1.04 1.04 0.0 0 0 82.9669 140.9827
  L 78.9871 141.0174
  A 1.04 1.04 0.0 0 0 77.9562 142.0665
  L 77.9640 142.9664
  A 1.04 1.04 0.0 0 0 79.0131 143.9973
  L 82.9929 143.9626
  A 1.04 1.04 0.0 0 0 84.0238 142.9135
  L 84.0160 142.0136"
/>
<path stroke="#b77c52" vector-effect="non-scaling-stroke" d="
  M 96.0213 141.9772
  A 1.03 1.03 0.0 0 0 94.9735 140.9653
  L 90.9741 141.0351
  A 1.03 1.03 0.0 0 0 89.9623 142.0830
  L 89.9787 143.0228
  A 1.03 1.03 0.0 0 0 91.0265 144.0347
  L 95.0259 143.9649
  A 1.03 1.03 0.0 0 0 96.0377 142.9170
  L 96.0213 141.9772"
/>
<path stroke="#b77c52" vector-effect="non-scaling-stroke" d="
  M 108.0233 141.9230
  A 0.97 0.97 0.0 0 0 107.0415 140.9649
  L 102.9218 141.0153
  A 0.97 0.97 0.0 0 0 101.9638 141.9971
  L 101.9767 143.0570
  A 0.97 0.97 0.0 0 0 102.9585 144.0151
  L 107.0782 143.9647
  A 0.97 0.97 0.0 0 0 108.0362 142.9829
  L 108.0233 141.9230"
/>
<path stroke="#b77c52" vector-effect="non-scaling-stroke" d="
  M 93.56 41.63
  A 18.55 18.55 0.0 0 0 75.01 23.08
  A 18.55 18.55 0.0 0 0 56.46 41.63
  A 18.55 18.55 0.0 0 0 75.01 60.18
  A 18.55 18.55 0.0 0 0 93.56 41.63"
/>
<path stroke="#b77c52" vector-effect="non-scaling-stroke" d="
  M 52.57 43.25
  A 0.62 0.62 0.0 0 0 53.19 42.62
  L 53.13 40.42
  A 0.62 0.62 0.0 0 0 52.50 39.81
  L 33.56 40.11
  A 0.62 0.62 0.0 0 0 32.96 40.64
  L 32.67 42.54
  A 0.62 0.62 0.0 0 0 33.28 43.25
  L 52.57 43.25"
/>
<path stroke="#b77c52" vector-effect="non-scaling-stroke" d="
  M 97.78 39.93
  A 0.94 0.94 0.0 0 0 96.85 40.89
  L 96.89 42.34
  A 0.94 0.94 0.0 0 0 97.83 43.25
  L 116.62 43.25
  A 0.94 0.94 0.0 0 0 117.44 41.86
  L 116.63 40.35
  A 0.94 0.94 0.0 0 0 115.80 39.85
  L 97.78 39.93"
/>
<path stroke="#b77c52" vector-effect="non-scaling-stroke" d="
  M 55.28 51.80
  A 0.27 0.26 -18.5 0 0 55.48 51.41
  Q 54.27 49.32 53.90 47.24
  Q 53.78 46.60 53.13 46.60
  L 26.69 46.61
  Q 26.00 46.61 26.00 47.31
  L 26.00 53.75
  A 0.26 0.26 0.0 0 0 26.40 53.97
  Q 34.00 49.14 39.79 54.68
  C 42.82 57.58 46.59 57.56 49.56 54.58
  Q 51.91 52.24 55.28 51.80"
/>
<path stroke="#b77c52" vector-effect="non-scaling-stroke" d="
  M 110.03 54.88
  C 113.99 51.08 118.71 50.76 123.18 53.86
  Q 123.81 54.30 123.82 53.53
  L 123.89 47.00
  Q 123.90 46.61 123.50 46.61
  L 96.81 46.60
  Q 96.42 46.60 96.30 46.96
  L 94.73 51.48
  A 0.29 0.28 14.8 0 0 94.95 51.85
  Q 98.30 52.45 100.79 54.91
  C 103.41 57.50 107.44 57.37 110.03 54.88"
/>
<path stroke="#b77c52" vector-effect="non-scaling-stroke" d="
  M 111.95 57.57
  C 107.88 61.44 101.74 60.78 97.93 56.94
  Q 95.82 54.80 92.72 55.16
  A 1.42 1.40 -71.9 0 0 91.83 55.62
  C 82.64 66.09 67.38 66.32 58.22 55.64
  Q 57.88 55.23 57.35 55.16
  C 52.83 54.57 51.76 58.30 48.19 59.54
  Q 44.13 60.95 40.40 59.16
  C 38.07 58.05 36.64 55.76 34.00 55.26
  Q 30.40 54.57 27.24 57.90
  C 25.27 59.97 26.05 63.63 26.03 66.20
  Q 26.02 66.87 26.70 66.87
  L 123.25 66.88
  Q 123.87 66.88 123.87 66.25
  L 123.87 59.79
  A 1.74 1.69 -66.2 0 0 123.45 58.66
  Q 117.67 52.13 111.95 57.57"
/>
<path stroke="#b77c52" vector-effect="non-scaling-stroke" d="
  M 33.29 74.21
  Q 34.30 73.63 35.39 73.63
  Q 56.09 73.79 78.51 73.75
  A 1.49 1.49 0.0 0 1 80.00 75.24
  L 80.00 113.57
  Q 80.00 114.13 80.57 114.13
  L 119.94 114.12
  Q 120.50 114.12 120.50 113.56
  L 120.50 70.75
  Q 120.50 70.25 120.00 70.25
  L 29.75 70.25
  A 0.38 0.38 0.0 0 0 29.37 70.63
  L 29.37 113.87
  A 0.24 0.24 0.0 0 0 29.61 114.11
  L 32.70 114.16
  Q 32.89 114.16 32.89 113.98
  L 32.72 75.19
  A 1.13 1.12 75.5 0 1 33.29 74.21"
/>
<path stroke="#b77c52" vector-effect="non-scaling-stroke" d="
  M 54.75 77.41
  A 0.40 0.40 0.0 0 0 54.35 77.01
  L 36.51 77.01
  A 0.40 0.40 0.0 0 0 36.11 77.41
  L 36.11 113.73
  A 0.40 0.40 0.0 0 0 36.51 114.13
  L 54.35 114.13
  A 0.40 0.40 0.0 0 0 54.75 113.73
  L 54.75 77.41"
/>
<path stroke="#b77c52" vector-effect="non-scaling-stroke" d="
  M 76.63 77.38
  A 0.37 0.37 0.0 0 0 76.26 77.01
  L 58.48 77.01
  A 0.37 0.37 0.0 0 0 58.11 77.38
  L 58.11 113.76
  A 0.37 0.37 0.0 0 0 58.48 114.13
  L 76.26 114.13
  A 0.37 0.37 0.0 0 0 76.63 113.76
  L 76.63 77.38"
/>
<path stroke="#b77c52" vector-effect="non-scaling-stroke" d="
  M 123.89 117.84
  A 0.34 0.34 0.0 0 0 123.55 117.50
  L 26.35 117.50
  A 0.34 0.34 0.0 0 0 26.01 117.84
  L 26.01 120.54
  A 0.34 0.34 0.0 0 0 26.35 120.88
  L 123.55 120.88
  A 0.34 0.34 0.0 0 0 123.89 120.54
  L 123.89 117.84"
/>
<path stroke="#b77c52" vector-effect="non-scaling-stroke" d="
  M 74.9298 36.5295
  A 5.03 3.37 90.8 0 0 78.3697 31.5471
  A 5.03 3.37 90.8 0 0 75.0702 26.4705
  A 5.03 3.37 90.8 0 0 71.6303 31.4529
  A 5.03 3.37 90.8 0 0 74.9298 36.5295"
/>
<path stroke="#b77c52" vector-effect="non-scaling-stroke" d="
  M 67.9196 40.6369
  A 5.09 3.38 60.2 0 0 68.3230 34.5402
  A 5.09 3.38 60.2 0 0 62.8604 31.8031
  A 5.09 3.38 60.2 0 0 62.4570 37.8998
  A 5.09 3.38 60.2 0 0 67.9196 40.6369"
/>
<path stroke="#b77c52" vector-effect="non-scaling-stroke" d="
  M 82.0658 40.6557
  A 5.09 3.40 119.6 0 0 87.5363 37.9094
  A 5.09 3.40 119.6 0 0 87.0942 31.8043
  A 5.09 3.40 119.6 0 0 81.6237 34.5506
  A 5.09 3.40 119.6 0 0 82.0658 40.6557"
/>
<path stroke="#b77c52" vector-effect="non-scaling-stroke" d="
  M 68.42 41.44
  C 66.82 43.33 64.57 46.17 64.90 48.75
  C 65.82 55.78 71.74 55.31 77.25 55.20
  C 84.24 55.06 87.40 49.23 83.25 43.45
  Q 81.24 40.66 79.94 39.83
  C 75.86 37.24 71.47 37.86 68.42 41.44"
/>
<path stroke="#b77c52" vector-effect="non-scaling-stroke" d="
  M 68.64 46.98
  C 67.40 49.28 69.28 51.80 71.86 51.78
  Q 75.28 51.77 78.31 51.68
  C 81.44 51.59 82.65 48.74 81.03 46.23
  C 76.77 39.59 72.20 40.39 68.64 46.98"
/>
<path stroke="#b77c52" vector-effect="non-scaling-stroke" d="
  M 117.1467 75.1995
  A 1.53 1.53 0.0 0 0 115.6194 73.6668
  L 84.9395 73.6133
  A 1.53 1.53 0.0 0 0 83.4068 75.1406
  L 83.3533 105.8205
  A 1.53 1.53 0.0 0 0 84.8806 107.3532
  L 115.5605 107.4067
  A 1.53 1.53 0.0 0 0 117.0932 105.8794
  L 117.1467 75.1995"
/>
<path stroke="#b77c52" vector-effect="non-scaling-stroke" d="
  M 113.75 77.42
  A 0.42 0.42 0.0 0 0 113.33 77.00
  L 87.17 77.00
  A 0.42 0.42 0.0 0 0 86.75 77.42
  L 86.75 103.58
  A 0.42 0.42 0.0 0 0 87.17 104.00
  L 113.33 104.00
  A 0.42 0.42 0.0 0 0 113.75 103.58
  L 113.75 77.42"
/>
<path stroke="#b77c52" vector-effect="non-scaling-stroke" d="
  M 100.2340 87.1795
  A 4.20 3.33 90.9 0 0 103.6296 83.0323
  A 4.20 3.33 90.9 0 0 100.3660 78.7805
  A 4.20 3.33 90.9 0 0 96.9704 82.9277
  A 4.20 3.33 90.9 0 0 100.2340 87.1795"
/>
<path stroke="#b77c52" vector-effect="non-scaling-stroke" d="
  M 104.6749 89.7320
  A 4.16 3.40 132.4 0 0 109.9907 88.9526
  A 4.16 3.40 132.4 0 0 110.2851 83.5880
  A 4.16 3.40 132.4 0 0 104.9693 84.3674
  A 4.16 3.40 132.4 0 0 104.6749 89.7320"
/>
<path stroke="#b77c52" vector-effect="non-scaling-stroke" d="
  M 95.8648 89.8014
  A 4.14 3.32 48.1 0 0 95.5711 84.5028
  A 4.14 3.32 48.1 0 0 90.3352 83.6386
  A 4.14 3.32 48.1 0 0 90.6289 88.9372
  A 4.14 3.32 48.1 0 0 95.8648 89.8014"
/>
<path stroke="#b77c52" vector-effect="non-scaling-stroke" d="
  M 106.63 97.42
  Q 108.16 93.70 104.49 90.61
  Q 100.76 87.47 96.78 90.22
  Q 94.47 91.82 93.86 93.83
  C 92.76 97.47 95.29 100.60 99.01 100.74
  C 102.06 100.86 105.27 100.73 106.63 97.42"
/>
<path stroke="#b77c52" vector-effect="non-scaling-stroke" d="
  M 101.93 97.31
  A 1.84 1.84 0.0 0 0 103.27 94.25
  Q 102.37 93.22 101.22 92.44
  Q 100.73 92.11 100.16 92.26
  Q 97.87 92.84 97.09 94.91
  A 1.83 1.82 -80.3 0 0 98.84 97.39
  L 101.93 97.31"
/>
</g>
<path fill="#704520" d="
  M 24.56 0.00
  L 125.52 0.00
  Q 146.62 3.58 150.00 24.55
  L 150.00 125.54
  Q 146.41 146.63 125.44 150.00
  L 24.47 150.00
  Q 3.38 146.42 0.00 125.44
  L 0.00 97.00
  L 0.00 73.88
  L 0.00 24.48
  Q 3.58 3.37 24.56 0.00
  Z
  M 35.9707 6.3822
  A 0.43 0.43 0.0 0 0 35.5333 5.9597
  L 30.8940 6.0407
  A 0.43 0.43 0.0 0 0 30.4716 6.4782
  L 30.5093 8.6378
  A 0.43 0.43 0.0 0 0 30.9467 9.0603
  L 35.5860 8.9793
  A 0.43 0.43 0.0 0 0 36.0084 8.5418
  L 35.9707 6.3822
  Z
  M 48.0021 6.5838
  A 0.61 0.61 0.0 0 0 47.3868 5.9791
  L 42.5870 6.0210
  A 0.61 0.61 0.0 0 0 41.9823 6.6363
  L 41.9979 8.4162
  A 0.61 0.61 0.0 0 0 42.6132 9.0209
  L 47.4130 8.9790
  A 0.61 0.61 0.0 0 0 48.0177 8.3637
  L 48.0021 6.5838
  Z
  M 59.9998 6.6533
  A 0.68 0.68 0.0 0 0 59.3115 5.9816
  L 54.6518 6.0386
  A 0.68 0.68 0.0 0 0 53.9802 6.7268
  L 54.0002 8.3667
  A 0.68 0.68 0.0 0 0 54.6885 9.0384
  L 59.3482 8.9814
  A 0.68 0.68 0.0 0 0 60.0198 8.2932
  L 59.9998 6.6533
  Z
  M 72.0021 6.5838
  A 0.61 0.61 0.0 0 0 71.3868 5.9791
  L 66.5870 6.0210
  A 0.61 0.61 0.0 0 0 65.9823 6.6363
  L 65.9979 8.4162
  A 0.61 0.61 0.0 0 0 66.6132 9.0209
  L 71.4130 8.9790
  A 0.61 0.61 0.0 0 0 72.0177 8.3637
  L 72.0021 6.5838
  Z
  M 83.9909 6.6285
  A 0.65 0.65 0.0 0 0 83.3342 5.9854
  L 78.6144 6.0348
  A 0.65 0.65 0.0 0 0 77.9713 6.6916
  L 77.9891 8.3915
  A 0.65 0.65 0.0 0 0 78.6458 9.0346
  L 83.3656 8.9852
  A 0.65 0.65 0.0 0 0 84.0087 8.3284
  L 83.9909 6.6285
  Z
  M 95.9890 6.6980
  A 0.73 0.73 0.0 0 0 95.2488 5.9783
  L 90.6893 6.0420
  A 0.73 0.73 0.0 0 0 89.9695 6.7821
  L 89.9910 8.3220
  A 0.73 0.73 0.0 0 0 90.7312 9.0417
  L 95.2907 8.9780
  A 0.73 0.73 0.0 0 0 96.0105 8.2379
  L 95.9890 6.6980
  Z
  M 108.0051 6.7989
  A 0.80 0.80 0.0 0 0 107.1995 6.0045
  L 102.7597 6.0355
  A 0.80 0.80 0.0 0 0 101.9653 6.8411
  L 101.9749 8.2211
  A 0.80 0.80 0.0 0 0 102.7805 9.0155
  L 107.2203 8.9845
  A 0.80 0.80 0.0 0 0 108.0147 8.1789
  L 108.0051 6.7989
  Z
  M 119.5263 6.4404
  A 0.44 0.44 0.0 0 0 119.0847 6.0019
  L 114.4448 6.0181
  A 0.44 0.44 0.0 0 0 114.0063 6.4596
  L 114.0137 8.5796
  A 0.44 0.44 0.0 0 0 114.4553 9.0181
  L 119.0952 9.0019
  A 0.44 0.44 0.0 0 0 119.5337 8.5604
  L 119.5263 6.4404
  Z
  M 25.1468 7.4694
  A 0.43 0.43 0.0 0 0 24.5838 7.2396
  L 20.7304 8.8595
  A 0.43 0.43 0.0 0 0 20.5006 9.4225
  L 21.3532 11.4506
  A 0.43 0.43 0.0 0 0 21.9162 11.6804
  L 25.7696 10.0605
  A 0.43 0.43 0.0 0 0 25.9994 9.4975
  L 25.1468 7.4694
  Z
  M 129.4846 9.6368
  A 0.57 0.57 0.0 0 0 129.1852 8.8884
  L 125.5087 7.3126
  A 0.57 0.57 0.0 0 0 124.7602 7.6120
  L 124.0354 9.3032
  A 0.57 0.57 0.0 0 0 124.3348 10.0516
  L 128.0113 11.6274
  A 0.57 0.57 0.0 0 0 128.7598 11.3280
  L 129.4846 9.6368
  Z
  M 15.9365 12.4174
  A 0.29 0.29 0.0 0 0 15.5264 12.4124
  L 12.4203 15.4435
  A 0.29 0.29 0.0 0 0 12.4153 15.8536
  L 14.0635 17.5426
  A 0.29 0.29 0.0 0 0 14.4736 17.5476
  L 17.5797 14.5165
  A 0.29 0.29 0.0 0 0 17.5847 14.1064
  L 15.9365 12.4174
  Z
  M 134.5633 12.4503
  A 0.33 0.33 0.0 0 0 134.0966 12.4503
  L 132.4703 14.0766
  A 0.33 0.33 0.0 0 0 132.4703 14.5433
  L 135.4967 17.5697
  A 0.33 0.33 0.0 0 0 135.9634 17.5697
  L 137.5897 15.9434
  A 0.33 0.33 0.0 0 0 137.5897 15.4767
  L 134.5633 12.4503
  Z
  M 120.59 42.65
  Q 120.61 36.37 114.26 36.52
  Q 106.15 36.71 96.96 36.53
  Q 96.39 36.52 96.22 35.98
  C 89.42 14.32 60.80 14.17 53.80 35.98
  Q 53.62 36.54 53.03 36.55
  Q 43.82 36.69 35.46 36.56
  Q 29.34 36.47 29.41 42.58
  Q 29.41 43.21 28.79 43.27
  Q 26.99 43.43 25.11 43.31
  Q 22.57 43.15 22.59 45.57
  Q 22.68 56.75 22.79 68.84
  A 1.42 1.41 -89.1 0 0 24.14 70.24
  L 25.29 70.29
  Q 26.01 70.32 26.01 71.04
  L 25.96 113.49
  A 0.76 0.75 2.8 0 1 25.13 114.24
  Q 22.49 113.97 22.63 116.60
  Q 22.80 119.76 22.77 122.77
  A 1.46 1.46 0.0 0 0 24.23 124.25
  L 125.85 124.25
  A 1.38 1.38 0.0 0 0 127.23 122.90
  L 127.37 115.82
  A 1.60 1.60 0.0 0 0 125.54 114.20
  Q 124.97 114.28 124.41 114.17
  Q 123.86 114.05 123.86 113.49
  L 123.86 71.02
  Q 123.86 70.06 124.80 70.25
  Q 126.03 70.51 126.84 69.81
  Q 127.23 69.47 127.23 68.97
  Q 127.29 56.47 127.38 45.50
  Q 127.40 43.46 125.36 43.41
  L 121.21 43.29
  Q 120.58 43.28 120.59 42.65
  Z
  M 11.6884 21.9161
  A 0.42 0.42 0.0 0 0 11.4755 21.3616
  L 9.5388 20.4993
  A 0.42 0.42 0.0 0 0 8.9843 20.7122
  L 7.2516 24.6039
  A 0.42 0.42 0.0 0 0 7.4645 25.1584
  L 9.4012 26.0207
  A 0.42 0.42 0.0 0 0 9.9557 25.8078
  L 11.6884 21.9161
  Z
  M 141.1681 20.8068
  A 0.48 0.48 0.0 0 0 140.5400 20.5492
  L 138.6027 21.3596
  A 0.48 0.48 0.0 0 0 138.3451 21.9877
  L 139.9119 25.7332
  A 0.48 0.48 0.0 0 0 140.5400 25.9908
  L 142.4773 25.1804
  A 0.48 0.48 0.0 0 0 142.7349 24.5523
  L 141.1681 20.8068
  Z
  M 9.0252 30.8258
  A 0.36 0.36 0.0 0 0 8.6689 30.4621
  L 6.3891 30.4382
  A 0.36 0.36 0.0 0 0 6.0253 30.7944
  L 5.9748 35.6142
  A 0.36 0.36 0.0 0 0 6.3311 35.9779
  L 8.6109 36.0018
  A 0.36 0.36 0.0 0 0 8.9747 35.6456
  L 9.0252 30.8258
  Z
  M 143.9613 30.7766
  A 0.29 0.29 0.0 0 0 143.6668 30.4912
  L 141.2271 30.5295
  A 0.29 0.29 0.0 0 0 140.9417 30.8240
  L 141.0187 35.7234
  A 0.29 0.29 0.0 0 0 141.3132 36.0088
  L 143.7529 35.9705
  A 0.29 0.29 0.0 0 0 144.0383 35.6760
  L 143.9613 30.7766
  Z
  M 9.00 42.58
  A 0.59 0.59 0.0 0 0 8.41 41.99
  L 6.59 41.99
  A 0.59 0.59 0.0 0 0 6.00 42.58
  L 6.00 47.40
  A 0.59 0.59 0.0 0 0 6.59 47.99
  L 8.41 47.99
  A 0.59 0.59 0.0 0 0 9.00 47.40
  L 9.00 42.58
  Z
  M 144.00 42.34
  A 0.35 0.35 0.0 0 0 143.65 41.99
  L 141.35 41.99
  A 0.35 0.35 0.0 0 0 141.00 42.34
  L 141.00 47.64
  A 0.35 0.35 0.0 0 0 141.35 47.99
  L 143.65 47.99
  A 0.35 0.35 0.0 0 0 144.00 47.64
  L 144.00 42.34
  Z
  M 8.9838 54.6596
  A 0.69 0.69 0.0 0 0 8.2890 53.9744
  L 6.6690 53.9857
  A 0.69 0.69 0.0 0 0 5.9838 54.6805
  L 6.0162 59.3204
  A 0.69 0.69 0.0 0 0 6.7110 60.0056
  L 8.3310 59.9943
  A 0.69 0.69 0.0 0 0 9.0162 59.2995
  L 8.9838 54.6596
  Z
  M 143.9822 54.4396
  A 0.45 0.45 0.0 0 0 143.5290 53.9927
  L 141.4291 54.0074
  A 0.45 0.45 0.0 0 0 140.9822 54.4605
  L 141.0178 59.5604
  A 0.45 0.45 0.0 0 0 141.4710 60.0073
  L 143.5709 59.9926
  A 0.45 0.45 0.0 0 0 144.0178 59.5395
  L 143.9822 54.4396
  Z
  M 8.9801 66.6970
  A 0.74 0.74 0.0 0 0 8.2337 65.9635
  L 6.7138 65.9767
  A 0.74 0.74 0.0 0 0 5.9802 66.7232
  L 6.0199 71.2630
  A 0.74 0.74 0.0 0 0 6.7663 71.9965
  L 8.2862 71.9833
  A 0.74 0.74 0.0 0 0 9.0198 71.2368
  L 8.9801 66.6970
  Z
  M 144.01 66.59
  A 0.60 0.60 0.0 0 0 143.41 65.99
  L 141.61 65.99
  A 0.60 0.60 0.0 0 0 141.01 66.59
  L 141.01 71.39
  A 0.60 0.60 0.0 0 0 141.61 71.99
  L 143.41 71.99
  A 0.60 0.60 0.0 0 0 144.01 71.39
  L 144.01 66.59
  Z
  M 8.9804 78.7370
  A 0.78 0.78 0.0 0 0 8.1936 77.9638
  L 6.7537 77.9764
  A 0.78 0.78 0.0 0 0 5.9805 78.7632
  L 6.0196 83.2430
  A 0.78 0.78 0.0 0 0 6.8064 84.0162
  L 8.2463 84.0036
  A 0.78 0.78 0.0 0 0 9.0195 83.2168
  L 8.9804 78.7370
  Z
  M 143.9978 78.6622
  A 0.68 0.68 0.0 0 0 143.3143 77.9857
  L 141.6743 77.9943
  A 0.68 0.68 0.0 0 0 140.9979 78.6779
  L 141.0222 83.3178
  A 0.68 0.68 0.0 0 0 141.7057 83.9943
  L 143.3457 83.9857
  A 0.68 0.68 0.0 0 0 144.0221 83.3021
  L 143.9978 78.6622
  Z
  M 8.9765 90.7344
  A 0.77 0.77 0.0 0 0 8.1984 89.9725
  L 6.7385 89.9878
  A 0.77 0.77 0.0 0 0 5.9766 90.7658
  L 6.0235 95.2456
  A 0.77 0.77 0.0 0 0 6.8016 96.0075
  L 8.2615 95.9922
  A 0.77 0.77 0.0 0 0 9.0234 95.2142
  L 8.9765 90.7344
  Z
  M 143.9978 90.6622
  A 0.68 0.68 0.0 0 0 143.3143 89.9857
  L 141.6743 89.9943
  A 0.68 0.68 0.0 0 0 140.9979 90.6779
  L 141.0222 95.3178
  A 0.68 0.68 0.0 0 0 141.7057 95.9943
  L 143.3457 95.9857
  A 0.68 0.68 0.0 0 0 144.0221 95.3021
  L 143.9978 90.6622
  Z
  M 8.9814 102.6417
  A 0.68 0.68 0.0 0 0 8.2932 101.9701
  L 6.6333 101.9904
  A 0.68 0.68 0.0 0 0 5.9616 102.6786
  L 6.0186 107.3383
  A 0.68 0.68 0.0 0 0 6.7068 108.0099
  L 8.3667 107.9896
  A 0.68 0.68 0.0 0 0 9.0384 107.3014
  L 8.9814 102.6417
  Z
  M 144.00 102.50
  A 0.50 0.50 0.0 0 0 143.50 102.00
  L 141.50 102.00
  A 0.50 0.50 0.0 0 0 141.00 102.50
  L 141.00 107.50
  A 0.50 0.50 0.0 0 0 141.50 108.00
  L 143.50 108.00
  A 0.50 0.50 0.0 0 0 144.00 107.50
  L 144.00 102.50
  Z
  M 8.9852 114.4012
  A 0.42 0.42 0.0 0 0 8.5572 113.9894
  L 6.3576 114.0316
  A 0.42 0.42 0.0 0 0 5.9457 114.4596
  L 6.0348 119.0988
  A 0.42 0.42 0.0 0 0 6.4628 119.5106
  L 8.6624 119.4684
  A 0.42 0.42 0.0 0 0 9.0743 119.0404
  L 8.9852 114.4012
  Z
  M 143.9985 114.3353
  A 0.33 0.33 0.0 0 0 143.6696 114.0041
  L 141.3296 113.9959
  A 0.33 0.33 0.0 0 0 140.9985 114.3248
  L 140.9815 119.1847
  A 0.33 0.33 0.0 0 0 141.3104 119.5159
  L 143.6504 119.5241
  A 0.33 0.33 0.0 0 0 143.9815 119.1952
  L 143.9985 114.3353
  Z
  M 10.0654 124.2155
  A 0.43 0.43 0.0 0 0 9.5019 123.9867
  L 7.4569 124.8505
  A 0.43 0.43 0.0 0 0 7.2281 125.4140
  L 8.8546 129.2645
  A 0.43 0.43 0.0 0 0 9.4181 129.4933
  L 11.4631 128.6295
  A 0.43 0.43 0.0 0 0 11.6919 128.0660
  L 10.0654 124.2155
  Z
  M 142.7089 125.4365
  A 0.48 0.48 0.0 0 0 142.4613 124.8045
  L 140.6285 124.0038
  A 0.48 0.48 0.0 0 0 139.9965 124.2514
  L 138.3311 128.0635
  A 0.48 0.48 0.0 0 0 138.5787 128.6955
  L 140.4115 129.4962
  A 0.48 0.48 0.0 0 0 141.0435 129.2486
  L 142.7089 125.4365
  Z
  M 14.5136 132.4494
  A 0.32 0.32 0.0 0 0 14.0611 132.4486
  L 12.4319 134.0722
  A 0.32 0.32 0.0 0 0 12.4311 134.5247
  L 15.4664 137.5706
  A 0.32 0.32 0.0 0 0 15.9189 137.5714
  L 17.5481 135.9478
  A 0.32 0.32 0.0 0 0 17.5489 135.4953
  L 14.5136 132.4494
  Z
  M 135.9090 132.4383
  A 0.27 0.27 0.0 0 0 135.5272 132.4356
  L 132.4085 135.5110
  A 0.27 0.27 0.0 0 0 132.4058 135.8929
  L 134.0910 137.6017
  A 0.27 0.27 0.0 0 0 134.4728 137.6044
  L 137.5915 134.5290
  A 0.27 0.27 0.0 0 0 137.5942 134.1471
  L 135.9090 132.4383
  Z
  M 25.9789 140.6425
  A 0.50 0.50 0.0 0 0 25.7174 139.9855
  L 21.9334 138.3559
  A 0.50 0.50 0.0 0 0 21.2764 138.6173
  L 20.5011 140.4175
  A 0.50 0.50 0.0 0 0 20.7626 141.0745
  L 24.5466 142.7041
  A 0.50 0.50 0.0 0 0 25.2036 142.4427
  L 25.9789 140.6425
  Z
  M 128.6407 138.5586
  A 0.44 0.44 0.0 0 0 128.0646 138.3235
  L 124.2296 139.9356
  A 0.44 0.44 0.0 0 0 123.9945 140.5117
  L 124.8393 142.5214
  A 0.44 0.44 0.0 0 0 125.4154 142.7565
  L 129.2504 141.1444
  A 0.44 0.44 0.0 0 0 129.4855 140.5683
  L 128.6407 138.5586
  Z
  M 119.4826 141.4084
  A 0.50 0.50 0.0 0 0 118.9697 140.9216
  L 114.4712 141.0394
  A 0.50 0.50 0.0 0 0 113.9845 141.5523
  L 114.0374 143.5716
  A 0.50 0.50 0.0 0 0 114.5503 144.0584
  L 119.0488 143.9406
  A 0.50 0.50 0.0 0 0 119.5355 143.4277
  L 119.4826 141.4084
  Z
  M 35.9938 141.3996
  A 0.40 0.40 0.0 0 0 35.5952 140.9982
  L 30.8753 140.9818
  A 0.40 0.40 0.0 0 0 30.4739 141.3804
  L 30.4662 143.5804
  A 0.40 0.40 0.0 0 0 30.8648 143.9818
  L 35.5847 143.9982
  A 0.40 0.40 0.0 0 0 35.9861 143.5996
  L 35.9938 141.3996
  Z
  M 48.0182 141.9694
  A 0.99 0.99 0.0 0 0 47.0248 140.9829
  L 42.9448 140.9971
  A 0.99 0.99 0.0 0 0 41.9582 141.9906
  L 41.9618 143.0106
  A 0.99 0.99 0.0 0 0 42.9552 143.9971
  L 47.0352 143.9829
  A 0.99 0.99 0.0 0 0 48.0218 142.9894
  L 48.0182 141.9694
  Z
  M 60.0115 141.9872
  A 1.04 1.04 0.0 0 0 58.9535 140.9655
  L 54.9741 141.0350
  A 1.04 1.04 0.0 0 0 53.9524 142.0930
  L 53.9685 143.0128
  A 1.04 1.04 0.0 0 0 55.0265 144.0345
  L 59.0059 143.9650
  A 1.04 1.04 0.0 0 0 60.0276 142.9070
  L 60.0115 141.9872
  Z
  M 72.0215 141.9872
  A 1.04 1.04 0.0 0 0 70.9635 140.9655
  L 66.9841 141.0350
  A 1.04 1.04 0.0 0 0 65.9624 142.0930
  L 65.9785 143.0128
  A 1.04 1.04 0.0 0 0 67.0365 144.0345
  L 71.0159 143.9650
  A 1.04 1.04 0.0 0 0 72.0376 142.9070
  L 72.0215 141.9872
  Z
  M 84.0160 142.0136
  A 1.04 1.04 0.0 0 0 82.9669 140.9827
  L 78.9871 141.0174
  A 1.04 1.04 0.0 0 0 77.9562 142.0665
  L 77.9640 142.9664
  A 1.04 1.04 0.0 0 0 79.0131 143.9973
  L 82.9929 143.9626
  A 1.04 1.04 0.0 0 0 84.0238 142.9135
  L 84.0160 142.0136
  Z
  M 96.0213 141.9772
  A 1.03 1.03 0.0 0 0 94.9735 140.9653
  L 90.9741 141.0351
  A 1.03 1.03 0.0 0 0 89.9623 142.0830
  L 89.9787 143.0228
  A 1.03 1.03 0.0 0 0 91.0265 144.0347
  L 95.0259 143.9649
  A 1.03 1.03 0.0 0 0 96.0377 142.9170
  L 96.0213 141.9772
  Z
  M 108.0233 141.9230
  A 0.97 0.97 0.0 0 0 107.0415 140.9649
  L 102.9218 141.0153
  A 0.97 0.97 0.0 0 0 101.9638 141.9971
  L 101.9767 143.0570
  A 0.97 0.97 0.0 0 0 102.9585 144.0151
  L 107.0782 143.9647
  A 0.97 0.97 0.0 0 0 108.0362 142.9829
  L 108.0233 141.9230
  Z"
/>
<rect fill="#fdb384" x="-2.75" y="-1.51" transform="translate(33.24,7.51) rotate(-1.0)" width="5.50" height="3.02" rx="0.43"/>
<rect fill="#fdb384" x="-3.01" y="-1.50" transform="translate(45.00,7.50) rotate(-0.5)" width="6.02" height="3.00" rx="0.61"/>
<rect fill="#fdb384" x="-3.01" y="-1.50" transform="translate(57.00,7.51) rotate(-0.7)" width="6.02" height="3.00" rx="0.68"/>
<rect fill="#fdb384" x="-3.01" y="-1.50" transform="translate(69.00,7.50) rotate(-0.5)" width="6.02" height="3.00" rx="0.61"/>
<rect fill="#fdb384" x="-3.01" y="-1.50" transform="translate(80.99,7.51) rotate(-0.6)" width="6.02" height="3.00" rx="0.65"/>
<rect fill="#fdb384" x="-3.01" y="-1.50" transform="translate(92.99,7.51) rotate(-0.8)" width="6.02" height="3.00" rx="0.73"/>
<rect fill="#fdb384" x="-3.02" y="-1.49" transform="translate(104.99,7.51) rotate(-0.4)" width="6.04" height="2.98" rx="0.80"/>
<rect fill="#fdb384" x="-2.76" y="-1.50" transform="translate(116.77,7.51) rotate(-0.2)" width="5.52" height="3.00" rx="0.44"/>
<rect fill="#fdb384" x="-2.52" y="-1.53" transform="translate(23.25,9.46) rotate(-22.8)" width="5.04" height="3.06" rx="0.43"/>
<rect fill="#fdb384" x="-2.57" y="-1.49" transform="translate(126.76,9.47) rotate(23.2)" width="5.14" height="2.98" rx="0.57"/>
<rect fill="#fdb384" x="-2.46" y="-1.47" transform="translate(15.00,14.98) rotate(-44.3)" width="4.92" height="2.94" rx="0.29"/>
<rect fill="#fdb384" x="-1.48" y="-2.47" transform="translate(135.03,15.01) rotate(-45.0)" width="2.96" height="4.94" rx="0.33"/>
<path fill="#fdb384" d="
  M 121.21 43.29
  L 125.36 43.41
  Q 127.40 43.46 127.38 45.50
  Q 127.29 56.47 127.23 68.97
  Q 127.23 69.47 126.84 69.81
  Q 126.03 70.51 124.80 70.25
  Q 123.86 70.06 123.86 71.02
  L 123.86 113.49
  Q 123.86 114.05 124.41 114.17
  Q 124.97 114.28 125.54 114.20
  A 1.60 1.60 0.0 0 1 127.37 115.82
  L 127.23 122.90
  A 1.38 1.38 0.0 0 1 125.85 124.25
  L 24.23 124.25
  A 1.46 1.46 0.0 0 1 22.77 122.77
  Q 22.80 119.76 22.63 116.60
  Q 22.49 113.97 25.13 114.24
  A 0.76 0.75 2.8 0 0 25.96 113.49
  L 26.01 71.04
  Q 26.01 70.32 25.29 70.29
  L 24.14 70.24
  A 1.42 1.41 -89.1 0 1 22.79 68.84
  Q 22.68 56.75 22.59 45.57
  Q 22.57 43.15 25.11 43.31
  Q 26.99 43.43 28.79 43.27
  Q 29.41 43.21 29.41 42.58
  Q 29.34 36.47 35.46 36.56
  Q 43.82 36.69 53.03 36.55
  Q 53.62 36.54 53.80 35.98
  C 60.80 14.17 89.42 14.32 96.22 35.98
  Q 96.39 36.52 96.96 36.53
  Q 106.15 36.71 114.26 36.52
  Q 120.61 36.37 120.59 42.65
  Q 120.58 43.28 121.21 43.29
  Z
  M 93.56 41.63
  A 18.55 18.55 0.0 0 0 75.01 23.08
  A 18.55 18.55 0.0 0 0 56.46 41.63
  A 18.55 18.55 0.0 0 0 75.01 60.18
  A 18.55 18.55 0.0 0 0 93.56 41.63
  Z
  M 52.57 43.25
  A 0.62 0.62 0.0 0 0 53.19 42.62
  L 53.13 40.42
  A 0.62 0.62 0.0 0 0 52.50 39.81
  L 33.56 40.11
  A 0.62 0.62 0.0 0 0 32.96 40.64
  L 32.67 42.54
  A 0.62 0.62 0.0 0 0 33.28 43.25
  L 52.57 43.25
  Z
  M 97.78 39.93
  A 0.94 0.94 0.0 0 0 96.85 40.89
  L 96.89 42.34
  A 0.94 0.94 0.0 0 0 97.83 43.25
  L 116.62 43.25
  A 0.94 0.94 0.0 0 0 117.44 41.86
  L 116.63 40.35
  A 0.94 0.94 0.0 0 0 115.80 39.85
  L 97.78 39.93
  Z
  M 55.28 51.80
  A 0.27 0.26 -18.5 0 0 55.48 51.41
  Q 54.27 49.32 53.90 47.24
  Q 53.78 46.60 53.13 46.60
  L 26.69 46.61
  Q 26.00 46.61 26.00 47.31
  L 26.00 53.75
  A 0.26 0.26 0.0 0 0 26.40 53.97
  Q 34.00 49.14 39.79 54.68
  C 42.82 57.58 46.59 57.56 49.56 54.58
  Q 51.91 52.24 55.28 51.80
  Z
  M 110.03 54.88
  C 113.99 51.08 118.71 50.76 123.18 53.86
  Q 123.81 54.30 123.82 53.53
  L 123.89 47.00
  Q 123.90 46.61 123.50 46.61
  L 96.81 46.60
  Q 96.42 46.60 96.30 46.96
  L 94.73 51.48
  A 0.29 0.28 14.8 0 0 94.95 51.85
  Q 98.30 52.45 100.79 54.91
  C 103.41 57.50 107.44 57.37 110.03 54.88
  Z
  M 111.95 57.57
  C 107.88 61.44 101.74 60.78 97.93 56.94
  Q 95.82 54.80 92.72 55.16
  A 1.42 1.40 -71.9 0 0 91.83 55.62
  C 82.64 66.09 67.38 66.32 58.22 55.64
  Q 57.88 55.23 57.35 55.16
  C 52.83 54.57 51.76 58.30 48.19 59.54
  Q 44.13 60.95 40.40 59.16
  C 38.07 58.05 36.64 55.76 34.00 55.26
  Q 30.40 54.57 27.24 57.90
  C 25.27 59.97 26.05 63.63 26.03 66.20
  Q 26.02 66.87 26.70 66.87
  L 123.25 66.88
  Q 123.87 66.88 123.87 66.25
  L 123.87 59.79
  A 1.74 1.69 -66.2 0 0 123.45 58.66
  Q 117.67 52.13 111.95 57.57
  Z
  M 33.29 74.21
  Q 34.30 73.63 35.39 73.63
  Q 56.09 73.79 78.51 73.75
  A 1.49 1.49 0.0 0 1 80.00 75.24
  L 80.00 113.57
  Q 80.00 114.13 80.57 114.13
  L 119.94 114.12
  Q 120.50 114.12 120.50 113.56
  L 120.50 70.75
  Q 120.50 70.25 120.00 70.25
  L 29.75 70.25
  A 0.38 0.38 0.0 0 0 29.37 70.63
  L 29.37 113.87
  A 0.24 0.24 0.0 0 0 29.61 114.11
  L 32.70 114.16
  Q 32.89 114.16 32.89 113.98
  L 32.72 75.19
  A 1.13 1.12 75.5 0 1 33.29 74.21
  Z
  M 54.75 77.41
  A 0.40 0.40 0.0 0 0 54.35 77.01
  L 36.51 77.01
  A 0.40 0.40 0.0 0 0 36.11 77.41
  L 36.11 113.73
  A 0.40 0.40 0.0 0 0 36.51 114.13
  L 54.35 114.13
  A 0.40 0.40 0.0 0 0 54.75 113.73
  L 54.75 77.41
  Z
  M 76.63 77.38
  A 0.37 0.37 0.0 0 0 76.26 77.01
  L 58.48 77.01
  A 0.37 0.37 0.0 0 0 58.11 77.38
  L 58.11 113.76
  A 0.37 0.37 0.0 0 0 58.48 114.13
  L 76.26 114.13
  A 0.37 0.37 0.0 0 0 76.63 113.76
  L 76.63 77.38
  Z
  M 123.89 117.84
  A 0.34 0.34 0.0 0 0 123.55 117.50
  L 26.35 117.50
  A 0.34 0.34 0.0 0 0 26.01 117.84
  L 26.01 120.54
  A 0.34 0.34 0.0 0 0 26.35 120.88
  L 123.55 120.88
  A 0.34 0.34 0.0 0 0 123.89 120.54
  L 123.89 117.84
  Z"
/>
<rect fill="#fdb384" x="-1.48" y="-2.55" transform="translate(9.47,23.26) rotate(24.0)" width="2.96" height="5.10" rx="0.42"/>
<rect fill="#fdb384" x="-1.53" y="-2.51" transform="translate(140.54,23.27) rotate(-22.7)" width="3.06" height="5.02" rx="0.48"/>
<path fill="#704520" d="
  M 93.56 41.63
  A 18.55 18.55 0.0 0 1 75.01 60.18
  A 18.55 18.55 0.0 0 1 56.46 41.63
  A 18.55 18.55 0.0 0 1 75.01 23.08
  A 18.55 18.55 0.0 0 1 93.56 41.63
  Z
  M 74.9298 36.5295
  A 5.03 3.37 90.8 0 0 78.3697 31.5471
  A 5.03 3.37 90.8 0 0 75.0702 26.4705
  A 5.03 3.37 90.8 0 0 71.6303 31.4529
  A 5.03 3.37 90.8 0 0 74.9298 36.5295
  Z
  M 67.9196 40.6369
  A 5.09 3.38 60.2 0 0 68.3230 34.5402
  A 5.09 3.38 60.2 0 0 62.8604 31.8031
  A 5.09 3.38 60.2 0 0 62.4570 37.8998
  A 5.09 3.38 60.2 0 0 67.9196 40.6369
  Z
  M 82.0658 40.6557
  A 5.09 3.40 119.6 0 0 87.5363 37.9094
  A 5.09 3.40 119.6 0 0 87.0942 31.8043
  A 5.09 3.40 119.6 0 0 81.6237 34.5506
  A 5.09 3.40 119.6 0 0 82.0658 40.6557
  Z
  M 68.42 41.44
  C 66.82 43.33 64.57 46.17 64.90 48.75
  C 65.82 55.78 71.74 55.31 77.25 55.20
  C 84.24 55.06 87.40 49.23 83.25 43.45
  Q 81.24 40.66 79.94 39.83
  C 75.86 37.24 71.47 37.86 68.42 41.44
  Z"
/>
<ellipse fill="#fdb384" cx="0.00" cy="0.00" transform="translate(75.00,31.50) rotate(90.8)" rx="5.03" ry="3.37"/>
<rect fill="#fdb384" x="-1.50" y="-2.77" transform="translate(7.50,33.22) rotate(0.6)" width="3.00" height="5.54" rx="0.36"/>
<rect fill="#fdb384" x="-1.51" y="-2.74" transform="translate(142.49,33.25) rotate(-0.9)" width="3.02" height="5.48" rx="0.29"/>
<ellipse fill="#fdb384" cx="0.00" cy="0.00" transform="translate(65.39,36.22) rotate(60.2)" rx="5.09" ry="3.38"/>
<ellipse fill="#fdb384" cx="0.00" cy="0.00" transform="translate(84.58,36.23) rotate(119.6)" rx="5.09" ry="3.40"/>
<path fill="#fdb384" d="
  M 64.90 48.75
  C 64.57 46.17 66.82 43.33 68.42 41.44
  C 71.47 37.86 75.86 37.24 79.94 39.83
  Q 81.24 40.66 83.25 43.45
  C 87.40 49.23 84.24 55.06 77.25 55.20
  C 71.74 55.31 65.82 55.78 64.90 48.75
  Z
  M 68.64 46.98
  C 67.40 49.28 69.28 51.80 71.86 51.78
  Q 75.28 51.77 78.31 51.68
  C 81.44 51.59 82.65 48.74 81.03 46.23
  C 76.77 39.59 72.20 40.39 68.64 46.98
  Z"
/>
<path fill="#704520" d="
  M 52.57 43.25
  L 33.28 43.25
  A 0.62 0.62 0.0 0 1 32.67 42.54
  L 32.96 40.64
  A 0.62 0.62 0.0 0 1 33.56 40.11
  L 52.50 39.81
  A 0.62 0.62 0.0 0 1 53.13 40.42
  L 53.19 42.62
  A 0.62 0.62 0.0 0 1 52.57 43.25
  Z"
/>
<path fill="#704520" d="
  M 97.78 39.93
  L 115.80 39.85
  A 0.94 0.94 0.0 0 1 116.63 40.35
  L 117.44 41.86
  A 0.94 0.94 0.0 0 1 116.62 43.25
  L 97.83 43.25
  A 0.94 0.94 0.0 0 1 96.89 42.34
  L 96.85 40.89
  A 0.94 0.94 0.0 0 1 97.78 39.93
  Z"
/>
<path fill="#704520" d="
  M 68.64 46.98
  C 72.20 40.39 76.77 39.59 81.03 46.23
  C 82.65 48.74 81.44 51.59 78.31 51.68
  Q 75.28 51.77 71.86 51.78
  C 69.28 51.80 67.40 49.28 68.64 46.98
  Z"
/>
<rect fill="#fdb384" x="6.00" y="41.99" width="3.00" height="6.00" rx="0.59"/>
<rect fill="#fdb384" x="141.00" y="41.99" width="3.00" height="6.00" rx="0.35"/>
<path fill="#704520" d="
  M 55.28 51.80
  Q 51.91 52.24 49.56 54.58
  C 46.59 57.56 42.82 57.58 39.79 54.68
  Q 34.00 49.14 26.40 53.97
  A 0.26 0.26 0.0 0 1 26.00 53.75
  L 26.00 47.31
  Q 26.00 46.61 26.69 46.61
  L 53.13 46.60
  Q 53.78 46.60 53.90 47.24
  Q 54.27 49.32 55.48 51.41
  A 0.27 0.26 -18.5 0 1 55.28 51.80
  Z"
/>
<path fill="#704520" d="
  M 123.18 53.86
  C 118.71 50.76 113.99 51.08 110.03 54.88
  C 107.44 57.37 103.41 57.50 100.79 54.91
  Q 98.30 52.45 94.95 51.85
  A 0.29 0.28 14.8 0 1 94.73 51.48
  L 96.30 46.96
  Q 96.42 46.60 96.81 46.60
  L 123.50 46.61
  Q 123.90 46.61 123.89 47.00
  L 123.82 53.53
  Q 123.81 54.30 123.18 53.86
  Z"
/>
<rect fill="#fdb384" x="-1.50" y="-3.01" transform="translate(7.50,56.99) rotate(-0.4)" width="3.00" height="6.02" rx="0.69"/>
<rect fill="#fdb384" x="-1.50" y="-3.00" transform="translate(142.50,57.00) rotate(-0.4)" width="3.00" height="6.00" rx="0.45"/>
<path fill="#704520" d="
  M 97.93 56.94
  C 101.74 60.78 107.88 61.44 111.95 57.57
  Q 117.67 52.13 123.45 58.66
  A 1.74 1.69 -66.2 0 1 123.87 59.79
  L 123.87 66.25
  Q 123.87 66.88 123.25 66.88
  L 26.70 66.87
  Q 26.02 66.87 26.03 66.20
  C 26.05 63.63 25.27 59.97 27.24 57.90
  Q 30.40 54.57 34.00 55.26
  C 36.64 55.76 38.07 58.05 40.40 59.16
  Q 44.13 60.95 48.19 59.54
  C 51.76 58.30 52.83 54.57 57.35 55.16
  Q 57.88 55.23 58.22 55.64
  C 67.38 66.32 82.64 66.09 91.83 55.62
  A 1.42 1.40 -71.9 0 1 92.72 55.16
  Q 95.82 54.80 97.93 56.94
  Z"
/>
<rect fill="#fdb384" x="-1.50" y="-3.01" transform="translate(7.50,68.98) rotate(-0.5)" width="3.00" height="6.02" rx="0.74"/>
<rect fill="#fdb384" x="141.01" y="65.99" width="3.00" height="6.00" rx="0.60"/>
<path fill="#704520" d="
  M 33.29 74.21
  A 1.13 1.12 75.5 0 0 32.72 75.19
  L 32.89 113.98
  Q 32.89 114.16 32.70 114.16
  L 29.61 114.11
  A 0.24 0.24 0.0 0 1 29.37 113.87
  L 29.37 70.63
  A 0.38 0.38 0.0 0 1 29.75 70.25
  L 120.00 70.25
  Q 120.50 70.25 120.50 70.75
  L 120.50 113.56
  Q 120.50 114.12 119.94 114.12
  L 80.57 114.13
  Q 80.00 114.13 80.00 113.57
  L 80.00 75.24
  A 1.49 1.49 0.0 0 0 78.51 73.75
  Q 56.09 73.79 35.39 73.63
  Q 34.30 73.63 33.29 74.21
  Z
  M 117.1467 75.1995
  A 1.53 1.53 0.0 0 0 115.6194 73.6668
  L 84.9395 73.6133
  A 1.53 1.53 0.0 0 0 83.4068 75.1406
  L 83.3533 105.8205
  A 1.53 1.53 0.0 0 0 84.8806 107.3532
  L 115.5605 107.4067
  A 1.53 1.53 0.0 0 0 117.0932 105.8794
  L 117.1467 75.1995
  Z"
/>
<path fill="#fdb384" d="
  M 117.0932 105.8794
  A 1.53 1.53 0.0 0 1 115.5605 107.4067
  L 84.8806 107.3532
  A 1.53 1.53 0.0 0 1 83.3533 105.8205
  L 83.4068 75.1406
  A 1.53 1.53 0.0 0 1 84.9395 73.6133
  L 115.6194 73.6668
  A 1.53 1.53 0.0 0 1 117.1467 75.1995
  L 117.0932 105.8794
  Z
  M 113.75 77.42
  A 0.42 0.42 0.0 0 0 113.33 77.00
  L 87.17 77.00
  A 0.42 0.42 0.0 0 0 86.75 77.42
  L 86.75 103.58
  A 0.42 0.42 0.0 0 0 87.17 104.00
  L 113.33 104.00
  A 0.42 0.42 0.0 0 0 113.75 103.58
  L 113.75 77.42
  Z"
/>
<rect fill="#704520" x="36.11" y="77.01" width="18.64" height="37.12" rx="0.40"/>
<rect fill="#704520" x="58.11" y="77.01" width="18.52" height="37.12" rx="0.37"/>
<path fill="#704520" d="
  M 113.75 103.58
  A 0.42 0.42 0.0 0 1 113.33 104.00
  L 87.17 104.00
  A 0.42 0.42 0.0 0 1 86.75 103.58
  L 86.75 77.42
  A 0.42 0.42 0.0 0 1 87.17 77.00
  L 113.33 77.00
  A 0.42 0.42 0.0 0 1 113.75 77.42
  L 113.75 103.58
  Z
  M 100.2340 87.1795
  A 4.20 3.33 90.9 0 0 103.6296 83.0323
  A 4.20 3.33 90.9 0 0 100.3660 78.7805
  A 4.20 3.33 90.9 0 0 96.9704 82.9277
  A 4.20 3.33 90.9 0 0 100.2340 87.1795
  Z
  M 104.6749 89.7320
  A 4.16 3.40 132.4 0 0 109.9907 88.9526
  A 4.16 3.40 132.4 0 0 110.2851 83.5880
  A 4.16 3.40 132.4 0 0 104.9693 84.3674
  A 4.16 3.40 132.4 0 0 104.6749 89.7320
  Z
  M 95.8648 89.8014
  A 4.14 3.32 48.1 0 0 95.5711 84.5028
  A 4.14 3.32 48.1 0 0 90.3352 83.6386
  A 4.14 3.32 48.1 0 0 90.6289 88.9372
  A 4.14 3.32 48.1 0 0 95.8648 89.8014
  Z
  M 106.63 97.42
  Q 108.16 93.70 104.49 90.61
  Q 100.76 87.47 96.78 90.22
  Q 94.47 91.82 93.86 93.83
  C 92.76 97.47 95.29 100.60 99.01 100.74
  C 102.06 100.86 105.27 100.73 106.63 97.42
  Z"
/>
<rect fill="#fdb384" x="-1.50" y="-3.02" transform="translate(7.50,80.99) rotate(-0.5)" width="3.00" height="6.04" rx="0.78"/>
<rect fill="#fdb384" x="-1.50" y="-3.00" transform="translate(142.51,80.99) rotate(-0.3)" width="3.00" height="6.00" rx="0.68"/>
<ellipse fill="#fdb384" cx="0.00" cy="0.00" transform="translate(100.30,82.98) rotate(90.9)" rx="4.20" ry="3.33"/>
<ellipse fill="#fdb384" cx="0.00" cy="0.00" transform="translate(107.48,86.66) rotate(132.4)" rx="4.16" ry="3.40"/>
<ellipse fill="#fdb384" cx="0.00" cy="0.00" transform="translate(93.10,86.72) rotate(48.1)" rx="4.14" ry="3.32"/>
<path fill="#fdb384" d="
  M 106.63 97.42
  C 105.27 100.73 102.06 100.86 99.01 100.74
  C 95.29 100.60 92.76 97.47 93.86 93.83
  Q 94.47 91.82 96.78 90.22
  Q 100.76 87.47 104.49 90.61
  Q 108.16 93.70 106.63 97.42
  Z
  M 101.93 97.31
  A 1.84 1.84 0.0 0 0 103.27 94.25
  Q 102.37 93.22 101.22 92.44
  Q 100.73 92.11 100.16 92.26
  Q 97.87 92.84 97.09 94.91
  A 1.83 1.82 -80.3 0 0 98.84 97.39
  L 101.93 97.31
  Z"
/>
<rect fill="#fdb384" x="-1.50" y="-3.01" transform="translate(7.50,92.99) rotate(-0.6)" width="3.00" height="6.02" rx="0.77"/>
<rect fill="#fdb384" x="-1.50" y="-3.00" transform="translate(142.51,92.99) rotate(-0.3)" width="3.00" height="6.00" rx="0.68"/>
<path fill="#704520" d="
  M 101.93 97.31
  L 98.84 97.39
  A 1.83 1.82 -80.3 0 1 97.09 94.91
  Q 97.87 92.84 100.16 92.26
  Q 100.73 92.11 101.22 92.44
  Q 102.37 93.22 103.27 94.25
  A 1.84 1.84 0.0 0 1 101.93 97.31
  Z"
/>
<rect fill="#fdb384" x="-1.51" y="-3.01" transform="translate(7.50,104.99) rotate(-0.7)" width="3.02" height="6.02" rx="0.68"/>
<rect fill="#fdb384" x="141.00" y="102.00" width="3.00" height="6.00" rx="0.50"/>
<rect fill="#fdb384" x="-1.52" y="-2.74" transform="translate(7.51,116.75) rotate(-1.1)" width="3.04" height="5.48" rx="0.42"/>
<rect fill="#fdb384" x="-1.50" y="-2.76" transform="translate(142.49,116.76) rotate(0.2)" width="3.00" height="5.52" rx="0.33"/>
<rect fill="#704520" x="26.01" y="117.50" width="97.88" height="3.38" rx="0.34"/>
<rect fill="#fdb384" x="-1.54" y="-2.52" transform="translate(9.46,126.74) rotate(-22.9)" width="3.08" height="5.04" rx="0.43"/>
<rect fill="#fdb384" x="-1.48" y="-2.56" transform="translate(140.52,126.75) rotate(23.6)" width="2.96" height="5.12" rx="0.48"/>
<rect fill="#fdb384" x="-1.47" y="-2.47" transform="translate(14.99,135.01) rotate(-44.9)" width="2.94" height="4.94" rx="0.32"/>
<rect fill="#fdb384" x="-2.46" y="-1.47" transform="translate(135.00,135.02) rotate(-44.6)" width="4.92" height="2.94" rx="0.27"/>
<rect fill="#fdb384" x="-2.56" y="-1.48" transform="translate(23.24,140.53) rotate(23.3)" width="5.12" height="2.96" rx="0.50"/>
<rect fill="#fdb384" x="-2.52" y="-1.53" transform="translate(126.74,140.54) rotate(-22.8)" width="5.04" height="3.06" rx="0.44"/>
<rect fill="#fdb384" x="-2.75" y="-1.51" transform="translate(116.76,142.49) rotate(-1.5)" width="5.50" height="3.02" rx="0.50"/>
<rect fill="#fdb384" x="-2.76" y="-1.50" transform="translate(33.23,142.49) rotate(0.2)" width="5.52" height="3.00" rx="0.40"/>
<rect fill="#fdb384" x="-3.03" y="-1.50" transform="translate(44.99,142.49) rotate(-0.2)" width="6.06" height="3.00" rx="0.99"/>
<rect fill="#fdb384" x="-3.03" y="-1.50" transform="translate(56.99,142.50) rotate(-1.0)" width="6.06" height="3.00" rx="1.04"/>
<rect fill="#fdb384" x="-3.03" y="-1.50" transform="translate(69.00,142.50) rotate(-1.0)" width="6.06" height="3.00" rx="1.04"/>
<rect fill="#fdb384" x="-3.03" y="-1.49" transform="translate(80.99,142.49) rotate(-0.5)" width="6.06" height="2.98" rx="1.04"/>
<rect fill="#fdb384" x="-3.03" y="-1.50" transform="translate(93.00,142.50) rotate(-1.0)" width="6.06" height="3.00" rx="1.03"/>
<rect fill="#fdb384" x="-3.03" y="-1.50" transform="translate(105.00,142.49) rotate(-0.7)" width="6.06" height="3.00" rx="0.97"/>
</svg>
