<?xml version="1.0" encoding="UTF-8" standalone="no"?>
<svg xmlns="http://www.w3.org/2000/svg" version="1.2" baseProfile="tiny" viewBox="0.00 0.00 512.00 512.00">
<path fill="#000000" d="
  M 253.52 0.00
  L 258.57 0.00
  Q 270.46 1.34 279.39 10.10
  Q 311.18 41.31 342.90 72.44
  A 1.11 1.10 -22.7 0 0 343.67 72.75
  Q 375.45 72.72 407.37 72.76
  Q 416.02 72.77 420.04 73.83
  C 434.68 77.65 443.99 90.70 444.13 105.75
  Q 444.22 114.37 444.20 123.01
  C 444.18 130.22 434.61 133.35 430.58 127.29
  Q 429.27 125.32 429.23 121.38
  C 429.13 109.76 432.01 94.58 418.44 89.20
  Q 414.73 87.73 406.37 87.73
  Q 254.90 87.75 103.44 87.74
  C 94.70 87.74 87.63 90.12 84.30 98.35
  Q 82.76 102.16 82.77 111.84
  Q 82.81 173.19 82.78 234.50
  A 0.41 0.41 0.0 0 0 82.90 234.79
  L 218.69 370.31
  Q 219.06 370.68 219.51 370.44
  Q 229.89 364.89 240.26 359.32
  Q 256.35 350.68 272.34 359.41
  Q 282.43 364.91 292.41 370.46
  A 0.77 0.76 -52.8 0 0 293.32 370.33
  L 428.83 235.09
  A 1.33 1.33 0.0 0 0 429.22 234.15
  Q 429.22 194.82 429.13 155.50
  C 429.11 145.07 444.14 144.54 444.20 155.76
  Q 444.24 163.48 444.19 171.34
  A 1.23 1.23 0.0 0 0 444.55 172.21
  Q 454.71 182.17 464.85 192.14
  C 476.66 203.76 483.34 209.66 483.35 225.00
  Q 483.44 347.25 483.42 469.50
  Q 483.42 484.18 481.91 489.36
  C 478.19 502.10 466.77 510.57 453.45 512.00
  L 369.18 512.00
  Q 362.53 510.25 362.78 504.26
  C 363.05 497.80 368.39 496.99 374.03 496.99
  Q 410.13 497.01 446.24 496.99
  Q 454.59 496.99 458.06 495.49
  Q 464.77 492.58 467.74 484.71
  A 0.84 0.83 24.8 0 0 467.36 483.69
  Q 367.26 428.66 266.85 373.51
  C 260.73 370.15 254.54 368.38 248.64 371.62
  Q 146.63 427.68 44.58 483.75
  Q 44.11 484.01 44.28 484.52
  Q 46.96 492.54 53.75 495.44
  Q 57.40 497.00 67.46 497.00
  Q 202.05 496.99 336.65 497.00
  C 346.71 497.00 348.38 509.31 338.67 512.00
  L 58.39 512.00
  C 44.41 510.52 32.63 500.98 29.47 487.25
  Q 28.59 483.46 28.59 473.17
  Q 28.57 407.63 28.59 342.09
  C 28.59 332.63 43.55 332.16 43.56 342.50
  Q 43.59 404.67 43.59 466.76
  A 0.26 0.25 -14.6 0 0 43.97 466.98
  L 204.83 378.58
  Q 205.41 378.26 204.94 377.79
  L 45.16 218.31
  A 0.37 0.37 0.0 0 0 44.54 218.46
  Q 43.68 221.25 43.67 224.25
  Q 43.59 266.62 43.59 309.00
  C 43.59 319.67 28.67 319.57 28.65 309.25
  Q 28.58 267.00 28.62 224.75
  Q 28.64 210.21 38.94 200.19
  Q 53.25 186.26 67.44 172.20
  A 1.19 1.18 -22.2 0 0 67.80 171.35
  Q 67.77 138.63 67.81 106.01
  C 67.83 91.05 77.07 77.96 91.52 73.95
  Q 95.76 72.77 105.09 72.76
  Q 136.79 72.72 168.42 72.75
  A 0.97 0.94 -66.3 0 0 169.08 72.48
  Q 201.53 40.65 234.00 8.75
  Q 241.63 1.26 253.52 0.00
  Z
  M 268.12 20.13
  C 261.00 13.15 250.56 13.51 243.57 20.34
  Q 217.12 46.17 190.82 72.27
  Q 190.34 72.74 191.01 72.74
  L 320.98 72.74
  A 0.34 0.34 0.0 0 0 321.22 72.16
  Q 294.77 46.21 268.12 20.13
  Z
  M 67.23 219.12
  A 0.32 0.32 0.0 0 0 67.77 218.89
  L 67.82 193.65
  A 0.32 0.32 0.0 0 0 67.27 193.42
  L 54.51 206.02
  A 0.32 0.32 0.0 0 0 54.51 206.47
  L 67.23 219.12
  Z
  M 444.21 218.89
  A 0.33 0.33 0.0 0 0 444.77 219.13
  L 457.51 206.43
  A 0.33 0.33 0.0 0 0 457.51 205.96
  L 444.77 193.43
  A 0.33 0.33 0.0 0 0 444.21 193.67
  L 444.21 218.89
  Z
  M 467.76 466.78
  Q 468.42 467.14 468.42 466.39
  Q 468.45 345.72 468.39 224.75
  Q 468.39 221.47 467.48 218.49
  A 0.39 0.38 58.9 0 0 466.84 218.33
  L 306.93 377.94
  A 0.33 0.32 36.8 0 0 307.01 378.45
  L 467.76 466.78
  Z"
/>
<path fill="#000000" d="
  M 271.31 170.23
  Q 272.02 170.73 272.04 169.86
  Q 272.15 162.81 276.58 160.65
  C 282.19 157.90 287.46 162.16 287.39 168.00
  Q 287.08 196.45 287.02 224.89
  C 287.00 231.12 289.39 237.40 296.75 236.08
  Q 306.54 234.33 310.76 224.51
  Q 324.27 193.10 303.16 167.59
  C 269.21 126.56 202.90 146.52 196.34 199.04
  C 192.00 233.81 217.98 263.36 252.22 266.62
  Q 257.35 267.11 259.12 268.24
  C 263.38 270.96 262.81 278.88 257.97 280.98
  Q 255.92 281.87 251.94 281.61
  C 201.02 278.29 168.13 227.45 185.73 179.74
  C 194.04 157.23 213.17 139.86 236.23 133.40
  C 275.85 122.30 316.92 145.24 328.70 184.01
  C 334.87 204.28 328.99 238.14 307.67 248.42
  C 301.03 251.61 292.14 252.37 285.49 249.16
  C 280.25 246.63 278.01 243.41 274.76 238.70
  Q 274.45 238.24 274.05 238.63
  C 262.48 249.92 245.47 250.92 232.97 240.73
  C 213.39 224.75 211.64 190.69 230.71 173.45
  C 241.98 163.26 258.77 161.44 271.31 170.23
  Z
  M 258.81 231.33
  C 273.82 223.89 276.03 197.33 265.95 185.56
  Q 261.01 179.79 254.00 179.53
  C 242.82 179.11 234.54 189.15 232.81 199.50
  Q 231.08 209.83 235.14 219.39
  C 239.01 228.50 249.02 236.18 258.81 231.33
  Z"
/>
</svg>
