<svg width="37" height="37" viewBox="0 0 37 37" fill="none" xmlns="http://www.w3.org/2000/svg">
<path d="M37 18.5C37 28.7173 28.7173 37 18.5 37C8.28273 37 0 28.7173 0 18.5C0 8.28273 8.28273 0 18.5 0C28.7173 0 37 8.28273 37 18.5Z" fill="#FDB384"/>
<path d="M27.906 16.5938C27.6782 16.5938 27.2423 16.6659 27.2423 16.6659L9.67541 16.6219C9.67541 16.6219 8.26541 17.1 7.79291 17.6428C7.78218 17.4902 7.77687 17.3373 7.77697 17.1844V13.3688C7.77669 11.7867 8.34313 10.2568 9.37365 9.05636C10.4042 7.85593 11.8306 7.06433 13.3945 6.825C13.4202 6.30009 13.6465 5.80509 14.0266 5.44222C14.4068 5.07934 14.9117 4.87629 15.4373 4.875H20.8842C26.0592 4.875 30.2592 9.075 30.2592 14.25V17.1844C30.259 17.3502 30.2528 17.5159 30.2404 17.6812C29.9546 17.3402 29.5974 17.066 29.1941 16.8781C28.7907 16.6902 28.351 16.5931 27.906 16.5938ZM11.9113 22.8937L6.28635 26.6719C5.77072 27.0187 5.73322 27.7688 6.21135 28.1719L9.20197 30.8062C9.87697 31.4062 10.9363 31.125 11.2457 30.2812L13.4207 24.1969L11.9113 22.8937ZM26.152 22.8937L31.777 26.6719C32.2926 27.0187 32.3301 27.7688 31.852 28.1719L28.8613 30.8062C28.1863 31.4062 27.127 31.125 26.8176 30.2812L24.6426 24.1969L26.152 22.8937Z" fill="#212121"/>
<path d="M13.1406 19.6406C13.1406 20.4487 12.8196 21.2237 12.2482 21.7951C11.6768 22.3665 10.9018 22.6875 10.0938 22.6875C9.28567 22.6875 8.51068 22.3665 7.93928 21.7951C7.36788 21.2237 7.04688 20.4487 7.04688 19.6406C7.04688 18.8325 7.36788 18.0576 7.93928 17.4862C8.51068 16.9148 9.28567 16.5938 10.0938 16.5938C10.9018 16.5938 11.6768 16.9148 12.2482 17.4862C12.8196 18.0576 13.1406 18.8325 13.1406 19.6406ZM30.9531 19.6406C30.9531 20.4487 30.6321 21.2237 30.0607 21.7951C29.4893 22.3665 28.7143 22.6875 27.9062 22.6875C27.0982 22.6875 26.3232 22.3665 25.7518 21.7951C25.1804 21.2237 24.8594 20.4487 24.8594 19.6406C24.8594 18.8325 25.1804 18.0576 25.7518 17.4862C26.3232 16.9148 27.0982 16.5938 27.9062 16.5938C28.7143 16.5938 29.4893 16.9148 30.0607 17.4862C30.6321 18.0576 30.9531 18.8325 30.9531 19.6406Z" fill="#F4C6AD"/>
<path d="M21.652 15.1875C20.0356 15.1875 18.4547 14.7136 17.105 13.8242C15.7552 12.9349 14.6959 11.6693 14.0582 10.1841C13.51 12.2012 12.3184 13.9843 10.6645 15.2625C10.2129 15.6131 9.86999 16.0844 9.67539 16.6219C9.60883 16.6313 9.54414 16.6425 9.47852 16.6556L9.65852 21.9516C9.88258 27.4444 13.9926 31.125 18.9998 31.125C23.9966 31.125 28.117 27.4444 28.341 21.9516L28.521 16.6556C28.0988 16.5691 27.663 16.5726 27.2423 16.666C26.8134 16.1979 26.2915 15.8246 25.71 15.57C25.1285 15.3154 24.5002 15.1851 23.8654 15.1875H21.652Z" fill="#FFD7C2"/>
<path d="M19.0129 24.9122C18.0286 24.9158 17.0582 24.68 16.1854 24.225C16.1248 24.1923 16.055 24.1808 15.9872 24.1924C15.9193 24.2039 15.8573 24.2378 15.8109 24.2887C15.7645 24.3396 15.7365 24.4045 15.7313 24.4732C15.7262 24.5418 15.7441 24.6102 15.7822 24.6675C16.1287 25.2098 16.6062 25.6562 17.1707 25.9654C17.7351 26.2746 18.3683 26.4367 19.0119 26.4367C19.6555 26.4367 20.2888 26.2746 20.8532 25.9654C21.4176 25.6562 21.8951 25.2098 22.2416 24.6675C22.4104 24.404 22.1197 24.0844 21.8394 24.225C20.9685 24.6841 19.9974 24.9202 19.0129 24.9122Z" fill="#990839"/>
<path d="M19.0027 23.625C19.6308 23.625 20.1933 23.3016 20.5214 22.8066C20.8214 22.3594 20.5027 21.75 19.9683 21.75H18.0277C17.4933 21.75 17.1745 22.3594 17.4745 22.8066C17.812 23.3016 18.3745 23.625 19.0027 23.625Z" fill="#E5AF93"/>
<path d="M11.7052 20.3156C11.8622 19.6886 12.2243 19.1322 12.7339 18.7347C13.2435 18.3372 13.8714 18.1215 14.5177 18.1218C15.9239 18.1218 17.1052 19.125 17.3771 20.4562C17.4333 20.7468 17.1989 21.0187 16.8989 21.0187H12.2677C11.8927 21.0187 11.6114 20.6718 11.7052 20.3156ZM26.3302 20.3156C26.1732 19.6886 25.8111 19.1322 25.3014 18.7347C24.7918 18.3372 24.164 18.1215 23.5177 18.1218C22.1114 18.1218 20.9396 19.125 20.6583 20.4562C20.6021 20.7468 20.8364 21.0187 21.1364 21.0187H25.7677C26.1427 21.0187 26.4239 20.6718 26.3302 20.3156Z" fill="white"/>
<path d="M13.0928 20.5313C13.0928 19.5094 13.9271 18.675 14.949 18.675C15.9709 18.675 16.8053 19.5094 16.7959 20.5313C16.7959 20.7001 16.7771 20.8594 16.7303 21.0188H13.1584C13.1209 20.8688 13.0928 20.7001 13.0928 20.5313ZM24.9521 20.5313C24.9521 19.5094 24.1178 18.675 23.0959 18.675C22.0646 18.675 21.2396 19.5094 21.249 20.5313C21.249 20.7001 21.2678 20.8594 21.3146 21.0188H24.8865C24.924 20.8688 24.9521 20.7001 24.9521 20.5313Z" fill="#7D4533"/>
<path d="M14.949 19.4719C15.5303 19.4719 16.0084 19.95 16.0084 20.5313C16.0084 20.7094 15.9615 20.8782 15.8865 21.0188H14.0115C13.9365 20.8782 13.8896 20.7094 13.8896 20.5313C13.8896 19.95 14.3678 19.4719 14.949 19.4719ZM23.0959 19.4719C22.5146 19.4719 22.0365 19.95 22.0365 20.5313C22.0365 20.7094 22.074 20.8782 22.1584 21.0188H24.0334C24.1084 20.8782 24.1553 20.7094 24.1553 20.5313C24.1553 19.95 23.6771 19.4719 23.0959 19.4719Z" fill="black"/>
<path d="M14.6396 19.8C14.6396 19.8431 14.6312 19.8858 14.6147 19.9256C14.5982 19.9654 14.574 20.0016 14.5435 20.0321C14.5131 20.0625 14.4769 20.0867 14.4371 20.1032C14.3973 20.1197 14.3546 20.1282 14.3115 20.1282C14.2684 20.1282 14.2258 20.1197 14.186 20.1032C14.1461 20.0867 14.11 20.0625 14.0795 20.0321C14.049 20.0016 14.0249 19.9654 14.0084 19.9256C13.9919 19.8858 13.9834 19.8431 13.9834 19.8C13.9834 19.713 14.018 19.6296 14.0795 19.568C14.141 19.5065 14.2245 19.4719 14.3115 19.4719C14.3985 19.4719 14.482 19.5065 14.5435 19.568C14.6051 19.6296 14.6396 19.713 14.6396 19.8ZM22.8428 19.8C22.8428 19.8431 22.8343 19.8858 22.8178 19.9256C22.8013 19.9654 22.7771 20.0016 22.7467 20.0321C22.7162 20.0625 22.68 20.0867 22.6402 20.1032C22.6004 20.1197 22.5577 20.1282 22.5146 20.1282C22.4716 20.1282 22.4289 20.1197 22.3891 20.1032C22.3493 20.0867 22.3131 20.0625 22.2826 20.0321C22.2522 20.0016 22.228 19.9654 22.2115 19.9256C22.195 19.8858 22.1865 19.8431 22.1865 19.8C22.1865 19.713 22.2211 19.6296 22.2826 19.568C22.3442 19.5065 22.4276 19.4719 22.5146 19.4719C22.6017 19.4719 22.6851 19.5065 22.7467 19.568C22.8082 19.6296 22.8428 19.713 22.8428 19.8Z" fill="white"/>
<path d="M13.2867 17.2228C13.7761 17.0494 14.4755 16.9172 15.4017 17.0044C15.5256 17.016 15.649 16.9781 15.7448 16.8988C15.8406 16.8195 15.901 16.7054 15.9127 16.5815C15.9244 16.4577 15.8864 16.3343 15.8071 16.2385C15.7278 16.1427 15.6137 16.0823 15.4899 16.0706C14.4277 15.9703 13.5905 16.1203 12.9727 16.3397C12.858 16.3831 12.7648 16.4698 12.7133 16.5811C12.6618 16.6924 12.6559 16.8195 12.697 16.9351C12.7381 17.0507 12.8229 17.1456 12.9332 17.1993C13.0434 17.2531 13.1704 17.2615 13.2867 17.2228ZM25.0617 16.3397C24.4449 16.1203 23.6067 15.9703 22.5455 16.0706C22.4842 16.0764 22.4246 16.0942 22.3702 16.123C22.3158 16.1518 22.2675 16.1911 22.2283 16.2385C22.189 16.286 22.1595 16.3407 22.1414 16.3995C22.1232 16.4584 22.1169 16.5202 22.1227 16.5815C22.1285 16.6429 22.1463 16.7024 22.1751 16.7569C22.2039 16.8113 22.2431 16.8595 22.2906 16.8988C22.338 16.938 22.3927 16.9676 22.4516 16.9857C22.5105 17.0038 22.5723 17.0101 22.6336 17.0044C23.5589 16.9172 24.2592 17.0484 24.7477 17.2228C24.806 17.2449 24.8681 17.2551 24.9305 17.2529C24.9928 17.2506 25.054 17.236 25.1106 17.2098C25.1672 17.1836 25.218 17.1464 25.26 17.1003C25.302 17.0542 25.3344 17.0002 25.3553 16.9415C25.3762 16.8827 25.3852 16.8204 25.3817 16.7581C25.3782 16.6959 25.3623 16.6349 25.335 16.5789C25.3076 16.5229 25.2694 16.4728 25.2225 16.4318C25.1756 16.3907 25.1209 16.3594 25.0617 16.3397Z" fill="#212121"/>
</svg>
