<?xml version="1.0" encoding="UTF-8" standalone="no"?>
<svg xmlns="http://www.w3.org/2000/svg" version="1.2" baseProfile="tiny" viewBox="0.00 0.00 156.00 156.00">
<g stroke-width="2.00" fill="none" stroke-linecap="butt">
<path stroke="#b77c52" vector-effect="non-scaling-stroke" d="
  M 106.99 40.42
  L 60.47 64.80
  Q 59.90 65.10 59.33 64.81
  L 47.29 58.76
  Q 46.23 58.23 47.37 57.89
  L 58.46 54.56
  A 1.08 1.05 -86.0 0 0 59.13 53.96
  Q 59.40 53.32 59.17 52.85
  Q 58.58 51.68 57.33 52.06
  Q 49.67 54.33 42.43 56.54
  Q 41.97 56.68 41.65 57.02
  Q 41.09 57.60 41.50 58.49
  A 1.23 1.21 -89.5 0 0 42.06 59.07
  L 58.05 67.26
  Q 58.54 67.51 58.60 68.05
  L 61.47 93.51
  A 1.38 1.38 0.0 0 0 63.82 94.33
  L 78.54 79.41
  Q 79.02 78.92 79.62 79.24
  L 94.96 87.43
  A 1.27 1.27 0.0 0 0 96.69 86.88
  L 122.66 34.95
  A 1.35 1.35 0.0 0 0 121.07 33.06
  L 64.41 49.96
  Q 62.97 50.39 63.63 51.74
  L 63.77 52.02
  Q 64.17 52.84 65.05 52.58
  L 106.88 40.15
  Q 108.29 39.74 106.99 40.42"
/>
<path stroke="#b77c52" vector-effect="non-scaling-stroke" d="
  M 53.53 106.66
  L 59.09 100.91
  A 1.32 1.32 0.0 0 0 59.14 99.12
  Q 58.86 98.80 58.50 98.60
  A 1.14 1.14 0.0 0 0 57.08 98.92
  Q 54.53 102.26 51.20 104.99
  A 0.53 0.53 0.0 0 1 50.49 104.96
  C 47.88 102.34 44.44 99.61 40.63 99.26
  C 28.14 98.13 25.88 117.28 39.68 114.87
  Q 45.00 113.93 50.38 109.17
  A 0.63 0.62 -42.9 0 1 51.23 109.20
  C 63.32 121.13 77.40 120.97 88.36 108.06
  C 94.20 101.17 100.58 95.23 110.27 96.13
  C 116.62 96.72 122.02 102.83 119.49 109.33
  C 117.03 115.67 109.16 117.22 103.22 116.50
  Q 100.25 116.14 97.12 116.17
  C 91.87 116.21 84.49 118.62 85.55 125.02
  Q 85.64 125.56 86.13 125.79
  Q 86.73 126.07 87.35 125.95
  A 0.89 0.89 0.0 0 0 88.07 125.08
  C 88.01 116.60 101.50 119.25 106.50 119.33
  C 112.19 119.43 118.96 116.90 121.54 111.45
  C 124.63 104.89 121.47 97.24 114.87 94.59
  C 103.18 89.90 93.19 98.04 86.10 106.42
  C 76.40 117.87 64.06 117.99 53.54 107.64
  Q 53.05 107.15 53.53 106.66"
/>
<path stroke="#b77c52" vector-effect="non-scaling-stroke" d="
  M 100.29 51.04
  Q 99.48 49.98 100.53 49.17
  Q 104.09 46.43 107.68 43.47
  Q 108.84 42.51 107.51 43.21
  L 61.53 67.32
  A 0.45 0.44 -16.7 0 0 61.29 67.76
  L 63.55 87.48
  Q 63.65 88.34 64.01 87.55
  Q 66.87 81.29 70.08 74.30
  Q 70.83 72.66 72.06 71.69
  Q 83.59 62.52 95.00 53.56
  A 1.13 1.11 26.4 0 1 95.76 53.31
  Q 96.56 53.35 96.89 53.87
  Q 97.59 54.99 96.56 55.81
  L 74.94 72.91
  Q 74.42 73.32 75.00 73.63
  L 94.39 84.08
  A 0.60 0.60 0.0 0 0 95.22 83.82
  L 117.10 40.06
  Q 117.52 39.22 116.78 39.80
  L 102.01 51.48
  Q 101.14 52.16 100.48 51.29
  L 100.29 51.04"
/>
<path stroke="#b77c52" vector-effect="non-scaling-stroke" d="
  M 72.53 75.57
  L 68.00 85.33
  Q 67.08 87.33 68.60 85.74
  L 76.28 77.75
  A 0.21 0.21 0.0 0 0 76.23 77.42
  L 72.84 75.54
  Q 72.60 75.41 72.53 75.57"
/>
<path stroke="#b77c52" vector-effect="non-scaling-stroke" d="
  M 48.54 106.74
  C 44.38 102.72 38.43 99.12 33.63 104.94
  C 31.28 107.77 32.68 111.28 36.09 112.07
  C 40.45 113.09 45.15 110.09 48.52 107.32
  Q 48.85 107.05 48.54 106.74"
/>
</g>
<path fill="#704520" d="
  M 73.88 0.00
  L 81.77 0.00
  Q 119.71 2.79 141.44 32.54
  Q 154.37 50.24 156.00 73.65
  L 156.00 81.77
  Q 153.18 119.94 123.17 141.66
  Q 105.24 154.63 81.62 156.00
  L 74.42 156.00
  Q 40.45 153.77 18.85 128.89
  Q 1.63 109.05 0.00 81.61
  L 0.00 74.27
  Q 1.35 51.32 13.86 33.60
  Q 35.43 3.03 73.88 0.00
  Z
  M 106.99 40.42
  L 60.47 64.80
  Q 59.90 65.10 59.33 64.81
  L 47.29 58.76
  Q 46.23 58.23 47.37 57.89
  L 58.46 54.56
  A 1.08 1.05 -86.0 0 0 59.13 53.96
  Q 59.40 53.32 59.17 52.85
  Q 58.58 51.68 57.33 52.06
  Q 49.67 54.33 42.43 56.54
  Q 41.97 56.68 41.65 57.02
  Q 41.09 57.60 41.50 58.49
  A 1.23 1.21 -89.5 0 0 42.06 59.07
  L 58.05 67.26
  Q 58.54 67.51 58.60 68.05
  L 61.47 93.51
  A 1.38 1.38 0.0 0 0 63.82 94.33
  L 78.54 79.41
  Q 79.02 78.92 79.62 79.24
  L 94.96 87.43
  A 1.27 1.27 0.0 0 0 96.69 86.88
  L 122.66 34.95
  A 1.35 1.35 0.0 0 0 121.07 33.06
  L 64.41 49.96
  Q 62.97 50.39 63.63 51.74
  L 63.77 52.02
  Q 64.17 52.84 65.05 52.58
  L 106.88 40.15
  Q 108.29 39.74 106.99 40.42
  Z
  M 53.53 106.66
  L 59.09 100.91
  A 1.32 1.32 0.0 0 0 59.14 99.12
  Q 58.86 98.80 58.50 98.60
  A 1.14 1.14 0.0 0 0 57.08 98.92
  Q 54.53 102.26 51.20 104.99
  A 0.53 0.53 0.0 0 1 50.49 104.96
  C 47.88 102.34 44.44 99.61 40.63 99.26
  C 28.14 98.13 25.88 117.28 39.68 114.87
  Q 45.00 113.93 50.38 109.17
  A 0.63 0.62 -42.9 0 1 51.23 109.20
  C 63.32 121.13 77.40 120.97 88.36 108.06
  C 94.20 101.17 100.58 95.23 110.27 96.13
  C 116.62 96.72 122.02 102.83 119.49 109.33
  C 117.03 115.67 109.16 117.22 103.22 116.50
  Q 100.25 116.14 97.12 116.17
  C 91.87 116.21 84.49 118.62 85.55 125.02
  Q 85.64 125.56 86.13 125.79
  Q 86.73 126.07 87.35 125.95
  A 0.89 0.89 0.0 0 0 88.07 125.08
  C 88.01 116.60 101.50 119.25 106.50 119.33
  C 112.19 119.43 118.96 116.90 121.54 111.45
  C 124.63 104.89 121.47 97.24 114.87 94.59
  C 103.18 89.90 93.19 98.04 86.10 106.42
  C 76.40 117.87 64.06 117.99 53.54 107.64
  Q 53.05 107.15 53.53 106.66
  Z"
/>
<path fill="#fdb384" d="
  M 106.88 40.15
  L 65.05 52.58
  Q 64.17 52.84 63.77 52.02
  L 63.63 51.74
  Q 62.97 50.39 64.41 49.96
  L 121.07 33.06
  A 1.35 1.35 0.0 0 1 122.66 34.95
  L 96.69 86.88
  A 1.27 1.27 0.0 0 1 94.96 87.43
  L 79.62 79.24
  Q 79.02 78.92 78.54 79.41
  L 63.82 94.33
  A 1.38 1.38 0.0 0 1 61.47 93.51
  L 58.60 68.05
  Q 58.54 67.51 58.05 67.26
  L 42.06 59.07
  A 1.23 1.21 -89.5 0 1 41.50 58.49
  Q 41.09 57.60 41.65 57.02
  Q 41.97 56.68 42.43 56.54
  Q 49.67 54.33 57.33 52.06
  Q 58.58 51.68 59.17 52.85
  Q 59.40 53.32 59.13 53.96
  A 1.08 1.05 -86.0 0 1 58.46 54.56
  L 47.37 57.89
  Q 46.23 58.23 47.29 58.76
  L 59.33 64.81
  Q 59.90 65.10 60.47 64.80
  L 106.99 40.42
  Q 108.29 39.74 106.88 40.15
  Z
  M 100.29 51.04
  Q 99.48 49.98 100.53 49.17
  Q 104.09 46.43 107.68 43.47
  Q 108.84 42.51 107.51 43.21
  L 61.53 67.32
  A 0.45 0.44 -16.7 0 0 61.29 67.76
  L 63.55 87.48
  Q 63.65 88.34 64.01 87.55
  Q 66.87 81.29 70.08 74.30
  Q 70.83 72.66 72.06 71.69
  Q 83.59 62.52 95.00 53.56
  A 1.13 1.11 26.4 0 1 95.76 53.31
  Q 96.56 53.35 96.89 53.87
  Q 97.59 54.99 96.56 55.81
  L 74.94 72.91
  Q 74.42 73.32 75.00 73.63
  L 94.39 84.08
  A 0.60 0.60 0.0 0 0 95.22 83.82
  L 117.10 40.06
  Q 117.52 39.22 116.78 39.80
  L 102.01 51.48
  Q 101.14 52.16 100.48 51.29
  L 100.29 51.04
  Z
  M 72.53 75.57
  L 68.00 85.33
  Q 67.08 87.33 68.60 85.74
  L 76.28 77.75
  A 0.21 0.21 0.0 0 0 76.23 77.42
  L 72.84 75.54
  Q 72.60 75.41 72.53 75.57
  Z"
/>
<path fill="#704520" d="
  M 100.29 51.04
  L 100.48 51.29
  Q 101.14 52.16 102.01 51.48
  L 116.78 39.80
  Q 117.52 39.22 117.10 40.06
  L 95.22 83.82
  A 0.60 0.60 0.0 0 1 94.39 84.08
  L 75.00 73.63
  Q 74.42 73.32 74.94 72.91
  L 96.56 55.81
  Q 97.59 54.99 96.89 53.87
  Q 96.56 53.35 95.76 53.31
  A 1.13 1.11 26.4 0 0 95.00 53.56
  Q 83.59 62.52 72.06 71.69
  Q 70.83 72.66 70.08 74.30
  Q 66.87 81.29 64.01 87.55
  Q 63.65 88.34 63.55 87.48
  L 61.29 67.76
  A 0.45 0.44 -16.7 0 1 61.53 67.32
  L 107.51 43.21
  Q 108.84 42.51 107.68 43.47
  Q 104.09 46.43 100.53 49.17
  Q 99.48 49.98 100.29 51.04
  Z"
/>
<path fill="#704520" d="
  M 68.00 85.33
  L 72.53 75.57
  Q 72.60 75.41 72.84 75.54
  L 76.23 77.42
  A 0.21 0.21 0.0 0 1 76.28 77.75
  L 68.60 85.74
  Q 67.08 87.33 68.00 85.33
  Z"
/>
<path fill="#fdb384" d="
  M 53.54 107.64
  C 64.06 117.99 76.40 117.87 86.10 106.42
  C 93.19 98.04 103.18 89.90 114.87 94.59
  C 121.47 97.24 124.63 104.89 121.54 111.45
  C 118.96 116.90 112.19 119.43 106.50 119.33
  C 101.50 119.25 88.01 116.60 88.07 125.08
  A 0.89 0.89 0.0 0 1 87.35 125.95
  Q 86.73 126.07 86.13 125.79
  Q 85.64 125.56 85.55 125.02
  C 84.49 118.62 91.87 116.21 97.12 116.17
  Q 100.25 116.14 103.22 116.50
  C 109.16 117.22 117.03 115.67 119.49 109.33
  C 122.02 102.83 116.62 96.72 110.27 96.13
  C 100.58 95.23 94.20 101.17 88.36 108.06
  C 77.40 120.97 63.32 121.13 51.23 109.20
  A 0.63 0.62 -42.9 0 0 50.38 109.17
  Q 45.00 113.93 39.68 114.87
  C 25.88 117.28 28.14 98.13 40.63 99.26
  C 44.44 99.61 47.88 102.34 50.49 104.96
  A 0.53 0.53 0.0 0 0 51.20 104.99
  Q 54.53 102.26 57.08 98.92
  A 1.14 1.14 0.0 0 1 58.50 98.60
  Q 58.86 98.80 59.14 99.12
  A 1.32 1.32 0.0 0 1 59.09 100.91
  L 53.53 106.66
  Q 53.05 107.15 53.54 107.64
  Z
  M 48.54 106.74
  C 44.38 102.72 38.43 99.12 33.63 104.94
  C 31.28 107.77 32.68 111.28 36.09 112.07
  C 40.45 113.09 45.15 110.09 48.52 107.32
  Q 48.85 107.05 48.54 106.74
  Z"
/>
<path fill="#704520" d="
  M 33.63 104.94
  C 38.43 99.12 44.38 102.72 48.54 106.74
  Q 48.85 107.05 48.52 107.32
  C 45.15 110.09 40.45 113.09 36.09 112.07
  C 32.68 111.28 31.28 107.77 33.63 104.94
  Z"
/>
</svg>
