<svg width="360" height="164" viewBox="0 0 360 164" fill="none" xmlns="http://www.w3.org/2000/svg">
<path d="M0 134C0 150.569 13.4315 164 30 164H330C346.569 164 360 150.569 360 134V0H0V134Z" fill="#FCF2F1"/>
<mask id="path-2-inside-1_214_27" fill="white">
<path d="M0 134C0 150.569 13.4315 164 30 164H180V0H0V134Z"/>
</mask>
<path d="M0 134C0 155.539 17.4609 173 39 173H180V155H30C13.4315 155 0 145.598 0 134ZM180 0H0H180ZM0 0V164V0ZM180 164V0V164Z" fill="#F6CDC7" mask="url(#path-2-inside-1_214_27)"/>
</svg>
