<?xml version="1.0" encoding="UTF-8" standalone="no"?>
<svg xmlns="http://www.w3.org/2000/svg" version="1.2" baseProfile="tiny" viewBox="0.00 0.00 1080.00 987.00">
<g stroke-width="2.00" fill="none" stroke-linecap="butt">
<path stroke="#e4a69c" vector-effect="non-scaling-stroke" d="
  M 243.16 116.48
  Q 242.95 116.79 242.25 116.80
  Q 232.12 116.98 222.76 116.98
  Q 145.17 116.96 65.47 117.06
  Q 52.44 117.08 45.60 115.56
  Q 26.08 111.23 13.10 95.40
  Q 2.94 83.01 0.00 65.51"
/>
<path stroke="#e4a69c" vector-effect="non-scaling-stroke" d="
  M 242.96 303.01
  Q 154.94 302.99 67.00 302.99
  Q 52.82 302.99 47.10 304.13
  C 23.86 308.73 5.54 327.00 1.11 350.50
  Q 0.64 352.99 0.00 355.44"
/>
<path stroke="#e6aca3" vector-effect="non-scaling-stroke" d="
  M 267.13 184.19
  A 16.84 16.84 0.0 0 0 250.29 167.35
  A 16.84 16.84 0.0 0 0 233.45 184.19
  A 16.84 16.84 0.0 0 0 250.29 201.03
  A 16.84 16.84 0.0 0 0 267.13 184.19"
/>
<path stroke="#e6aca3" vector-effect="non-scaling-stroke" d="
  M 230.01 197.90
  A 13.83 13.83 0.0 0 0 216.18 184.07
  A 13.83 13.83 0.0 0 0 202.35 197.90
  A 13.83 13.83 0.0 0 0 216.18 211.73
  A 13.83 13.83 0.0 0 0 230.01 197.90"
/>
<path stroke="#e6aca3" vector-effect="non-scaling-stroke" d="
  M 297.37 197.90
  A 13.70 13.70 0.0 0 0 283.67 184.20
  A 13.70 13.70 0.0 0 0 269.97 197.90
  A 13.70 13.70 0.0 0 0 283.67 211.60
  A 13.70 13.70 0.0 0 0 297.37 197.90"
/>
<path stroke="#e6aca3" vector-effect="non-scaling-stroke" d="
  M 234.71 233.38
  C 233.49 241.08 234.27 251.56 239.38 258.02
  C 242.34 261.76 247.31 261.78 248.86 256.70
  Q 249.39 254.97 249.92 253.32
  Q 250.20 252.45 250.31 253.35
  Q 250.50 255.03 251.14 256.71
  C 253.88 263.82 259.78 260.32 262.25 255.76
  C 265.75 249.30 266.45 240.57 265.31 233.40
  Q 265.15 232.34 265.93 233.07
  Q 269.07 235.96 271.95 234.32
  C 275.57 232.25 275.57 226.66 274.87 223.09
  Q 272.42 210.44 262.82 201.31
  Q 262.43 200.94 261.96 201.20
  C 260.59 201.98 259.30 202.83 257.85 203.40
  Q 247.39 207.46 238.05 201.13
  Q 237.66 200.86 237.31 201.19
  C 230.48 207.66 223.49 219.56 225.12 229.40
  C 225.93 234.28 229.95 236.92 234.12 233.07
  Q 234.87 232.37 234.71 233.38"
/>
<path stroke="#e6aca3" vector-effect="non-scaling-stroke" d="
  M 216.55 255.00
  C 217.69 263.54 224.42 261.36 226.90 255.39
  Q 229.94 248.06 228.89 239.46
  Q 228.80 238.79 228.16 238.58
  C 217.99 235.23 220.56 221.21 224.07 213.59
  Q 224.42 212.85 223.68 213.19
  Q 214.81 217.36 206.34 211.81
  A 0.49 0.48 -50.2 0 0 205.74 211.87
  C 200.00 217.40 193.71 227.98 195.97 236.10
  C 196.94 239.61 200.31 240.56 203.06 238.13
  Q 203.79 237.48 203.64 238.45
  Q 202.13 247.96 205.79 255.98
  C 207.21 259.09 212.32 263.62 214.80 258.41
  Q 215.58 256.79 216.08 254.97
  Q 216.40 253.84 216.55 255.00"
/>
<path stroke="#e6aca3" vector-effect="non-scaling-stroke" d="
  M 297.09 238.14
  C 298.81 239.93 301.63 240.08 303.16 237.95
  C 305.30 234.97 304.58 230.02 303.54 226.68
  Q 300.89 218.22 294.47 211.98
  A 0.69 0.69 0.0 0 0 293.60 211.89
  Q 285.05 217.37 276.33 213.08
  Q 275.68 212.77 275.98 213.42
  C 279.42 221.05 282.04 233.90 272.95 238.31
  Q 272.55 238.50 272.11 238.52
  Q 271.25 238.54 271.16 239.40
  Q 270.05 249.80 274.11 257.19
  C 275.43 259.61 278.96 262.29 281.43 259.73
  Q 283.24 257.84 283.65 254.80
  Q 283.78 253.81 284.08 254.77
  Q 284.38 255.73 284.58 256.76
  C 285.07 259.33 287.14 261.38 289.79 260.52
  C 296.76 258.24 297.24 244.22 296.45 238.45
  Q 296.29 237.30 297.09 238.14"
/>
<path stroke="#ecb368" vector-effect="non-scaling-stroke" d="
  M 693.85 548.52
  Q 691.42 535.16 688.93 521.27
  Q 686.83 509.55 682.74 498.80
  Q 678.86 488.63 673.56 480.91
  Q 664.98 468.40 650.31 459.50
  Q 646.73 457.33 647.93 461.34
  Q 651.37 472.87 650.62 484.49
  C 649.47 502.31 644.04 518.89 636.41 535.36
  Q 628.34 552.79 619.76 569.19
  Q 608.80 590.14 608.32 613.29
  C 608.20 619.22 602.86 619.61 598.68 617.48
  Q 597.46 616.86 597.13 615.56
  Q 585.43 569.82 593.67 526.15
  Q 594.73 520.49 597.77 510.24
  Q 601.56 497.43 603.14 481.74
  Q 605.00 463.41 595.41 448.69"
/>
<path stroke="#e4a69c" vector-effect="non-scaling-stroke" d="
  M 1080.00 166.50
  Q 1079.37 168.88 1078.92 171.33
  C 1073.94 198.46 1049.76 219.00 1022.25 219.00
  Q 937.82 219.01 853.26 218.99"
/>
<path stroke="#e4a69c" vector-effect="non-scaling-stroke" d="
  M 1080.00 456.98
  Q 1076.64 435.38 1061.96 421.32
  C 1051.55 411.34 1037.13 405.00 1022.75 405.00
  Q 938.09 404.99 853.26 405.01"
/>
<path stroke="#e6aca3" vector-effect="non-scaling-stroke" d="
  M 948.87 345.20
  Q 948.89 312.86 948.86 280.52
  C 948.86 276.62 949.15 273.01 944.51 273.01
  Q 913.52 272.98 879.32 273.01
  A 4.20 4.20 0.0 0 0 875.13 277.21
  L 875.13 345.25
  A 0.62 0.62 0.0 0 1 874.50 345.87
  L 867.58 345.84
  Q 867.00 345.84 867.00 346.42
  L 867.00 353.25
  Q 867.00 354.00 867.75 354.00
  L 956.25 354.00
  Q 957.00 354.00 957.00 353.25
  L 957.00 346.55
  Q 957.00 345.85 956.30 345.86
  L 949.55 345.88
  Q 948.87 345.88 948.87 345.20"
/>
<path stroke="#e6aca3" vector-effect="non-scaling-stroke" d="
  M 907.54 305.37
  A 0.33 0.33 0.0 0 1 907.87 305.70
  L 907.85 313.17
  A 0.33 0.33 0.0 0 0 908.18 313.50
  L 915.83 313.49
  A 0.33 0.33 0.0 0 0 916.16 313.16
  L 916.12 305.71
  A 0.33 0.33 0.0 0 1 916.45 305.38
  L 923.93 305.40
  A 0.33 0.33 0.0 0 0 924.26 305.07
  L 924.25 297.58
  A 0.33 0.33 0.0 0 0 923.92 297.25
  L 916.46 297.25
  A 0.33 0.33 0.0 0 1 916.13 296.92
  L 916.15 289.58
  A 0.33 0.33 0.0 0 0 915.82 289.25
  L 908.21 289.26
  A 0.33 0.33 0.0 0 0 907.88 289.59
  L 907.86 296.92
  A 0.33 0.33 0.0 0 1 907.53 297.25
  L 900.08 297.25
  A 0.33 0.33 0.0 0 0 899.75 297.58
  L 899.74 305.06
  A 0.33 0.33 0.0 0 0 900.07 305.39
  L 907.54 305.37"
/>
<path stroke="#e6aca3" vector-effect="non-scaling-stroke" d="
  M 919.71 329.75
  A 0.41 0.41 0.0 0 1 920.12 330.16
  L 920.12 345.47
  A 0.41 0.41 0.0 0 0 920.53 345.88
  L 927.97 345.87
  A 0.41 0.41 0.0 0 0 928.38 345.46
  L 928.38 322.03
  A 0.41 0.41 0.0 0 0 927.97 321.62
  L 896.04 321.62
  A 0.41 0.41 0.0 0 0 895.63 322.03
  L 895.61 345.47
  A 0.41 0.41 0.0 0 0 896.02 345.88
  L 903.44 345.87
  A 0.41 0.41 0.0 0 0 903.85 345.46
  L 903.87 330.16
  A 0.41 0.41 0.0 0 1 904.28 329.75
  L 919.71 329.75"
/>
<path stroke="#fcdcb4" vector-effect="non-scaling-stroke" d="
  M 242.98 322.36
  Q 226.39 333.57 215.48 350.78
  Q 203.25 370.06 197.78 392.08
  Q 196.87 395.73 195.44 406.05
  Q 194.45 413.19 192.76 420.01"
/>
<path stroke="#ecc9a5" vector-effect="non-scaling-stroke" d="
  M 0.84 371.97
  L 0.00 367.60"
/>
<path stroke="#bb8946" vector-effect="non-scaling-stroke" d="
  M 253.77 318.46
  Q 257.29 341.90 253.74 365.05
  A 1.18 1.17 -67.7 0 0 254.21 366.18
  Q 264.93 373.92 267.08 387.08
  A 0.91 0.91 0.0 0 0 268.30 387.78
  Q 280.64 383.18 293.52 380.31
  Q 294.25 380.14 294.56 379.36"
/>
<path stroke="#bb8946" vector-effect="non-scaling-stroke" d="
  M 344.42 377.18
  Q 344.22 376.95 344.33 377.27
  Q 344.37 377.38 344.49 377.38
  L 358.72 377.98
  Q 359.26 378.00 359.61 377.58
  Q 378.68 354.78 383.62 324.98
  A 2.06 2.05 89.8 0 1 385.29 323.29
  C 389.05 322.65 389.05 326.57 388.94 329.04
  Q 388.73 333.66 387.48 338.79
  Q 384.75 350.03 380.75 360.32
  A 0.73 0.73 0.0 0 0 381.05 361.21
  Q 396.02 370.40 393.02 387.38
  Q 392.39 390.95 388.53 392.01
  Q 387.95 392.17 387.56 391.71
  Q 385.40 389.15 385.90 385.80
  Q 387.62 374.32 378.71 367.16
  A 0.78 0.78 0.0 0 0 377.57 367.34
  L 368.68 380.98
  Q 368.35 381.48 368.35 382.09
  Q 368.36 384.13 367.10 385.81
  A 1.24 1.24 0.0 0 1 366.22 386.30
  Q 358.29 387.03 350.66 387.10
  Q 330.68 387.30 308.96 387.31
  C 295.34 387.32 281.50 388.46 268.29 392.96
  Q 267.74 393.15 267.49 393.67
  C 266.38 396.04 264.96 400.66 261.40 398.40
  A 2.62 2.61 -77.1 0 1 260.20 396.48
  C 259.28 388.68 257.57 380.07 252.18 374.39
  A 0.50 0.50 0.0 0 0 251.34 374.60
  C 247.84 386.98 241.96 398.21 233.45 407.85
  C 232.34 409.11 229.29 411.79 227.45 410.95
  C 225.48 410.05 224.77 408.37 225.60 406.30
  Q 228.80 398.26 230.37 395.66
  Q 242.79 375.15 246.50 353.50
  Q 249.38 336.74 248.81 318.77"
/>
<path stroke="#bb8946" vector-effect="non-scaling-stroke" d="
  M 427.82 422.94
  C 427.76 423.44 427.65 423.91 427.25 424.24
  Q 403.30 443.87 381.34 464.12
  Q 379.11 466.18 380.65 468.80
  Q 380.86 469.17 381.22 469.40
  Q 383.16 470.64 384.32 469.70
  Q 405.56 452.56 423.10 437.85
  Q 424.92 436.33 426.05 436.04"
/>
<path stroke="#bb8946" vector-effect="non-scaling-stroke" d="
  M 436.01 442.67
  Q 436.21 443.07 436.00 443.20
  Q 413.38 457.42 394.12 473.04
  A 2.36 2.35 -8.9 0 0 393.46 473.94
  Q 392.63 475.92 394.01 476.59
  Q 396.37 477.73 398.01 476.60
  Q 418.49 462.35 440.50 449.99"
/>
<path stroke="#ecb368" vector-effect="non-scaling-stroke" d="
  M 440.50 449.99
  Q 440.32 459.09 444.23 466.86"
/>
<path stroke="#bb8946" vector-effect="non-scaling-stroke" d="
  M 444.23 466.86
  C 437.00 468.75 397.67 479.75 398.20 488.57
  Q 398.24 489.22 398.89 489.25
  Q 403.05 489.44 406.09 488.14
  Q 421.75 481.42 437.49 476.54
  Q 440.39 475.64 447.37 474.56"
/>
<path stroke="#ecb368" vector-effect="non-scaling-stroke" d="
  M 447.37 474.56
  Q 454.41 490.28 454.60 507.05
  Q 454.67 513.73 453.24 522.40
  Q 451.40 533.55 450.13 537.52
  Q 447.63 545.28 445.28 552.95
  Q 435.38 585.12 435.74 617.18
  Q 435.77 619.73 436.13 622.52
  C 436.70 626.93 441.50 628.49 445.18 628.18
  Q 445.78 628.13 446.21 627.72
  Q 447.66 626.34 448.16 624.19
  Q 451.71 609.06 458.83 595.04
  C 465.46 581.98 473.62 570.14 482.05 557.99
  C 487.91 549.53 493.78 540.79 498.11 531.44
  C 509.06 507.78 513.18 482.79 510.85 456.74
  Q 510.40 451.79 510.01 446.73"
/>
<path stroke="#ecb368" vector-effect="non-scaling-stroke" d="
  M 518.85 447.09
  Q 523.42 467.38 524.57 473.00
  Q 526.76 483.72 525.70 494.54
  C 525.07 500.97 522.66 507.70 519.90 513.63
  Q 515.94 522.13 512.45 530.53
  C 504.35 550.03 506.24 572.70 516.57 591.22
  C 519.98 597.33 528.76 596.13 529.88 589.06
  Q 533.75 564.57 544.65 542.84
  C 547.00 538.16 550.31 533.23 553.57 529.18
  Q 560.49 520.60 567.02 511.80
  C 580.09 494.19 584.86 470.27 582.92 448.52"
/>
<path stroke="#bb8946" vector-effect="non-scaling-stroke" d="
  M 697.91 632.07
  L 692.57 655.00"
/>
<path stroke="#ecb368" vector-effect="non-scaling-stroke" d="
  M 692.57 655.00
  Q 658.70 663.29 631.38 683.86
  C 621.22 691.51 612.20 699.60 606.08 710.60
  C 598.13 724.89 610.85 728.43 621.59 724.93
  Q 629.16 722.46 637.60 717.64
  Q 642.90 714.61 647.75 713.29
  Q 653.48 711.73 658.25 711.43
  Q 668.94 710.75 683.74 711.49"
/>
<path stroke="#bb8946" vector-effect="non-scaling-stroke" d="
  M 683.74 711.49
  L 680.62 723.03"
/>
<path stroke="#ecb368" vector-effect="non-scaling-stroke" d="
  M 680.62 723.03
  Q 672.68 723.51 667.60 726.10
  Q 648.91 735.62 627.98 753.33
  C 625.04 755.82 624.15 758.17 625.96 761.71
  Q 627.06 763.86 629.50 764.06
  Q 647.16 765.51 666.01 766.62
  Q 667.89 766.73 670.17 766.84"
/>
<path stroke="#bb8946" vector-effect="non-scaling-stroke" d="
  M 670.17 766.84
  Q 666.21 781.76 661.35 796.31
  Q 657.42 808.08 651.09 821.53
  Q 648.28 827.53 644.77 830.67
  Q 637.94 836.81 631.00 838.54
  Q 622.10 840.75 615.43 841.04
  Q 608.69 841.33 614.16 837.39
  L 622.11 831.66
  A 1.71 1.70 55.2 0 0 622.52 829.33
  Q 620.98 827.05 618.19 827.75
  C 610.37 829.72 605.60 834.26 602.02 841.09
  Q 601.71 841.70 601.02 841.73
  L 589.46 842.33
  Q 587.79 842.42 587.98 840.76
  C 589.43 828.22 599.83 825.47 610.42 824.48
  A 2.10 2.09 2.6 0 0 612.28 822.78
  C 612.76 820.18 608.75 818.77 606.82 818.66
  C 590.92 817.75 580.40 826.71 578.00 842.11
  A 0.76 0.76 0.0 0 1 577.24 842.76
  L 570.76 842.73
  A 0.76 0.75 85.5 0 1 570.02 842.09
  C 568.27 829.82 574.59 820.04 585.64 815.10
  Q 595.14 810.86 606.39 812.31
  Q 610.51 812.84 611.28 808.93
  Q 615.33 788.50 614.64 767.33
  Q 614.45 761.76 613.00 756.87
  A 1.57 1.57 0.0 0 0 611.48 755.75
  L 607.10 755.76
  A 1.13 1.11 -83.5 0 0 606.01 756.64
  L 604.92 761.47
  A 1.03 1.03 0.0 0 1 603.87 762.27
  Q 586.26 761.45 571.14 753.04
  Q 548.30 740.33 533.18 717.81
  C 522.71 702.22 519.68 684.33 524.46 665.90
  Q 524.77 664.71 523.56 664.50
  L 520.96 664.06
  Q 519.88 663.87 519.47 664.88
  C 508.76 691.17 515.82 718.71 534.76 739.18
  A 0.67 0.67 0.0 0 1 534.58 740.24
  Q 518.40 748.71 500.00 748.71
  Q 477.51 748.72 454.97 749.02
  C 453.36 749.05 451.67 748.59 450.12 748.18
  A 0.86 0.86 0.0 0 1 449.52 747.09
  Q 456.92 723.20 460.60 699.76
  Q 464.22 676.71 479.14 657.55
  A 2.15 2.14 -58.1 0 0 478.39 654.31
  C 474.40 652.35 466.17 659.15 463.38 661.94"
/>
<path stroke="#ecb368" vector-effect="non-scaling-stroke" d="
  M 463.38 661.94
  Q 431.37 656.17 399.01 660.78
  Q 394.71 661.40 389.22 662.60
  A 2.02 2.02 0.0 0 0 388.13 663.24
  Q 383.63 668.21 388.21 672.90
  C 392.32 677.11 397.17 678.88 403.56 680.88
  Q 427.15 688.24 448.85 700.10"
/>
<path stroke="#bb8946" vector-effect="non-scaling-stroke" d="
  M 448.85 700.10
  Q 447.12 709.76 445.31 719.20
  Q 442.37 734.55 441.14 738.17
  C 436.73 751.14 428.41 759.79 416.65 767.33
  Q 408.98 772.25 401.55 776.52
  Q 400.78 776.96 400.22 776.28
  L 392.07 766.50
  A 1.22 1.22 0.0 0 0 390.61 766.17
  L 387.40 767.69
  Q 386.40 768.17 386.68 769.23
  Q 389.21 778.81 392.40 788.31
  C 393.88 792.72 394.73 797.42 395.17 802.18
  Q 395.33 803.98 394.79 805.65
  Q 394.14 807.64 392.32 806.60
  C 383.41 801.49 380.42 794.10 376.64 784.71
  C 375.23 781.20 369.43 779.96 369.99 785.42
  Q 372.12 806.15 390.22 815.11
  A 2.03 2.03 0.0 0 1 390.32 818.69
  C 383.94 822.29 376.11 812.42 372.89 808.03
  Q 368.81 802.46 364.89 797.93
  C 364.05 796.96 362.29 795.77 360.97 796.48
  Q 359.05 797.51 359.84 799.65
  Q 364.65 812.64 374.80 823.03
  Q 375.00 823.23 374.93 823.52
  A 0.38 0.37 -67.8 0 1 374.37 823.76
  Q 351.08 809.25 335.45 786.80
  Q 328.01 776.11 325.53 764.15"
/>
<path stroke="#ecb368" vector-effect="non-scaling-stroke" d="
  M 325.53 764.15
  Q 332.56 762.65 337.99 760.42
  Q 345.84 757.21 355.78 752.56
  Q 359.44 750.85 358.31 747.42
  C 357.89 746.18 356.66 745.21 355.48 744.80
  Q 344.48 740.96 333.24 736.90"
/>
<path stroke="#bb8946" vector-effect="non-scaling-stroke" d="
  M 333.24 736.90
  C 341.60 726.27 352.23 718.99 362.18 710.15
  Q 376.02 697.88 378.35 681.62
  Q 378.72 679.06 377.16 677.31
  C 375.49 675.43 373.18 677.02 372.68 679.08
  Q 369.67 691.41 361.39 699.42
  Q 360.54 700.24 360.58 699.07
  Q 361.44 675.83 362.94 652.25
  Q 363.46 643.96 365.59 634.67"
/>
<path stroke="#ecb368" vector-effect="non-scaling-stroke" d="
  M 365.59 634.67
  Q 389.56 621.98 413.09 608.81
  C 417.40 606.40 424.53 601.77 426.34 597.32
  Q 428.68 591.59 421.69 589.84
  Q 415.64 588.33 407.97 587.94
  Q 397.46 587.42 388.07 591.11
  Q 388.02 591.13 381.34 594.43
  Q 378.03 596.06 374.31 597.21"
/>
<path stroke="#bb8946" vector-effect="non-scaling-stroke" d="
  M 374.31 597.21
  C 382.30 576.03 393.00 557.40 405.58 538.42
  Q 406.43 537.13 406.53 536.35
  C 406.83 533.94 403.44 533.00 401.71 533.40
  Q 400.48 533.68 398.72 535.23
  C 385.11 547.28 375.04 562.83 367.80 579.78
  C 354.95 609.86 350.20 642.42 348.06 676.34
  C 347.38 687.05 347.95 697.79 350.33 708.30
  Q 350.51 709.09 349.70 709.10
  Q 337.79 709.23 325.71 709.30
  Q 293.77 709.49 262.50 699.88
  C 227.78 689.22 201.97 665.89 192.01 629.97
  C 185.99 608.30 185.49 584.82 187.03 561.99
  C 187.32 557.66 183.35 558.89 180.72 558.76"
/>
<path stroke="#bb8946" vector-effect="non-scaling-stroke" d="
  M 176.57 532.25
  Q 179.33 530.40 180.49 530.04
  Q 210.35 520.82 240.65 509.75
  Q 243.13 508.84 242.81 506.22
  Q 242.75 505.76 242.47 505.33
  Q 241.48 503.83 239.77 504.33
  Q 205.86 514.21 172.00 524.17
  Q 171.55 524.31 171.24 524.01"
/>
<path stroke="#bb8946" vector-effect="non-scaling-stroke" d="
  M 170.33 508.13
  Q 171.24 507.12 172.23 506.90
  Q 188.50 503.36 204.56 499.23
  Q 217.35 495.94 224.20 494.70
  Q 239.48 491.93 255.22 491.59
  A 1.58 1.58 0.0 0 0 256.69 489.54
  C 256.04 487.45 254.01 486.80 252.01 486.71
  Q 242.92 486.26 231.97 486.98
  Q 224.91 487.45 212.29 490.02
  Q 193.90 493.75 170.00 497.66
  Q 168.86 497.85 168.47 497.24"
/>
<path stroke="#bb8946" vector-effect="non-scaling-stroke" d="
  M 172.78 472.63
  Q 172.34 470.97 174.50 471.01
  Q 216.10 471.93 256.76 476.11
  Q 258.26 476.26 258.54 474.79
  L 258.61 474.44
  Q 259.05 472.13 256.74 471.71
  Q 216.17 464.37 175.25 463.00
  Q 174.37 462.97 174.02 462.26"
/>
<path stroke="#bb8946" vector-effect="non-scaling-stroke" d="
  M 366.5794 440.8952
  A 6.34 6.34 0.0 0 0 360.4990 434.3059
  L 359.7196 434.2746
  A 6.34 6.34 0.0 0 0 353.1303 440.3550
  L 352.6206 453.0448
  A 6.34 6.34 0.0 0 0 358.7010 459.6341
  L 359.4804 459.6654
  A 6.34 6.34 0.0 0 0 366.0697 453.5850
  L 366.5794 440.8952"
/>
<path stroke="#bb8946" vector-effect="non-scaling-stroke" d="
  M 293.5997 450.0908
  A 6.18 6.18 0.0 0 0 287.6168 443.7197
  L 286.7572 443.6927
  A 6.18 6.18 0.0 0 0 280.3862 449.6756
  L 279.9803 462.5892
  A 6.18 6.18 0.0 0 0 285.9632 468.9603
  L 286.8228 468.9873
  A 6.18 6.18 0.0 0 0 293.1938 463.0044
  L 293.5997 450.0908"
/>
<path stroke="#bb8946" vector-effect="non-scaling-stroke" d="
  M 331.88 497.07
  A 0.35 0.35 0.0 0 1 332.44 497.11
  Q 336.73 503.74 341.37 509.42
  C 343.06 511.51 348.01 517.08 350.64 514.23
  C 352.14 512.61 351.33 510.10 349.90 508.76
  Q 342.73 502.04 337.28 494.01
  A 1.35 1.34 39.3 0 1 337.15 492.72
  L 344.66 474.75
  Q 344.84 474.32 344.70 473.87
  C 343.95 471.46 341.93 470.23 339.50 470.60
  Q 325.67 472.71 313.34 475.45
  C 311.66 475.82 310.62 477.38 311.15 479.08
  C 313.62 487.06 318.59 490.87 325.06 495.25
  A 1.02 1.01 -61.3 0 1 325.42 496.49
  L 317.64 514.70
  A 2.09 2.06 -43.6 0 0 317.59 516.21
  Q 318.16 517.83 319.31 518.04
  Q 322.00 518.55 323.12 516.05
  Q 327.00 507.36 331.20 498.11
  Q 331.46 497.54 331.88 497.07"
/>
<path stroke="#bb8946" vector-effect="non-scaling-stroke" d="
  M 345.39 522.10
  C 342.02 525.22 337.66 526.14 333.27 524.49
  Q 330.05 523.28 329.67 526.57
  Q 329.65 526.70 329.67 526.83
  Q 330.12 530.13 333.15 531.23
  Q 342.02 534.42 348.24 528.49
  Q 351.29 525.57 349.04 522.46
  A 2.46 2.45 50.5 0 0 345.39 522.10"
/>
<path stroke="#ecb368" vector-effect="non-scaling-stroke" d="
  M 382.44 737.90
  Q 392.43 739.00 399.83 741.79
  C 408.19 744.94 415.50 750.67 424.62 752.37
  Q 433.51 754.03 433.61 745.86
  Q 433.66 741.60 432.60 737.68
  Q 431.67 734.28 428.27 730.36
  Q 417.20 717.60 402.27 713.31
  C 390.21 709.84 377.04 710.76 366.45 716.43
  Q 359.81 719.98 353.02 722.91
  C 351.25 723.68 344.77 724.47 346.47 727.91
  Q 348.10 731.19 351.96 732.18
  Q 368.07 736.31 382.44 737.90"
/>
<path stroke="#ecc9a5" vector-effect="non-scaling-stroke" d="
  M 1080.00 468.23
  L 1079.19 474.24"
/>
<path stroke="#e4a69c" vector-effect="non-scaling-stroke" d="
  M 1080.00 492.61
  Q 1078.98 498.82 1078.17 502.00
  C 1072.64 523.81 1054.85 540.48 1033.01 544.86
  Q 1027.24 546.01 1012.76 546.01
  Q 946.18 545.99 879.44 545.99"
/>
<path stroke="#ab7738" vector-effect="non-scaling-stroke" d="
  M 458.77 440.79
  Q 457.66 440.61 457.28 440.82
  Q 448.76 445.34 440.50 449.99"
/>
<path stroke="#ab7738" vector-effect="non-scaling-stroke" d="
  M 447.37 474.56
  C 453.06 473.51 462.88 471.08 464.24 464.30
  A 2.34 2.22 -73.3 0 0 462.93 461.70
  Q 462.46 461.50 461.62 461.73
  Q 452.96 464.18 444.23 466.86"
/>
<path stroke="#e4a69c" vector-effect="non-scaling-stroke" d="
  M 1080.00 783.98
  Q 1076.93 763.86 1063.85 750.16
  Q 1050.88 736.56 1032.68 733.08
  Q 1026.90 731.98 1012.75 731.98
  Q 948.53 732.00 880.25 732.13
  Q 879.90 732.13 879.41 732.23"
/>
<path stroke="#e6aca3" vector-effect="non-scaling-stroke" d="
  M 870.51 675.14
  Q 872.74 672.25 876.40 672.25
  L 941.25 672.25
  A 3.75 3.75 0.0 0 0 945.00 668.50
  L 945.00 595.06
  Q 945.00 591.02 940.96 591.02
  Q 907.35 590.97 876.50 590.95
  C 868.09 590.94 861.00 597.37 861.00 605.95
  Q 861.01 644.79 860.99 683.16
  A 3.83 3.82 90.0 0 0 864.81 686.99
  Q 898.58 687.02 933.47 686.98
  C 938.50 686.97 938.63 679.66 933.60 679.65
  Q 902.85 679.60 870.67 679.65
  Q 867.04 679.66 869.26 676.78
  Q 870.28 675.45 870.51 675.14"
/>
<path stroke="#ab7738" vector-effect="non-scaling-stroke" d="
  M 374.31 597.21
  Q 367.88 614.88 365.59 634.67"
/>
<path stroke="#ab7738" vector-effect="non-scaling-stroke" d="
  M 333.24 736.90
  Q 324.44 749.12 325.53 764.15"
/>
<path stroke="#ab7738" vector-effect="non-scaling-stroke" d="
  M 448.85 700.10
  Q 451.31 679.12 463.38 661.94"
/>
<path stroke="#ab7738" vector-effect="non-scaling-stroke" d="
  M 670.17 766.84
  Q 677.30 745.23 680.62 723.03"
/>
<path stroke="#ab7738" vector-effect="non-scaling-stroke" d="
  M 683.74 711.49
  L 692.57 655.00"
/>
<path stroke="#a3532e" vector-effect="non-scaling-stroke" d="
  M 342.04 809.15
  Q 339.69 806.62 337.18 804.08
  C 335.83 802.71 333.59 802.56 333.23 804.80
  Q 328.79 832.91 303.79 847.03
  C 287.68 856.13 249.79 855.78 249.60 829.20
  C 249.53 818.95 255.70 809.05 263.34 802.22
  C 264.56 801.12 265.29 799.52 264.64 797.89
  Q 252.64 767.95 244.57 734.18
  C 242.28 724.58 241.11 715.55 240.55 705.72
  Q 240.44 703.71 239.16 703.01
  Q 231.99 699.08 224.88 694.60
  Q 217.27 689.80 210.92 683.97"
/>
<path stroke="#bba084" vector-effect="non-scaling-stroke" d="
  M 210.92 683.97
  Q 189.19 663.06 182.29 633.98
  Q 178.02 615.99 178.34 597.50
  Q 178.60 582.22 180.23 567.00"
/>
<path stroke="#ab7738" vector-effect="non-scaling-stroke" d="
  M 285.90 811.55
  C 281.68 813.49 278.42 815.90 277.25 820.79
  Q 274.63 831.73 277.52 842.93
  A 1.75 1.75 0.0 0 0 279.20 844.25
  Q 292.51 844.42 303.04 836.61
  C 310.85 830.81 319.56 821.44 322.38 811.70
  Q 324.67 803.76 325.27 796.02
  C 325.41 794.27 325.91 792.69 324.89 791.05
  Q 318.70 781.14 316.38 771.39
  C 312.17 753.68 318.65 737.78 330.61 724.69
  Q 332.12 723.04 329.89 723.18
  C 322.65 723.62 315.43 723.55 308.14 722.58
  Q 278.15 718.56 249.11 708.93
  A 0.49 0.49 0.0 0 0 248.48 709.49
  C 254.48 740.47 264.50 770.79 274.63 800.28
  C 275.40 802.52 274.27 804.93 272.31 806.15
  Q 256.03 816.21 258.30 836.23
  A 1.52 1.51 -78.3 0 0 259.04 837.36
  L 265.39 841.08
  A 0.98 0.98 0.0 0 0 266.86 840.07
  Q 265.65 832.95 266.49 826.18
  C 267.40 818.78 271.14 810.24 278.35 807.61
  Q 282.84 805.97 286.24 810.05
  Q 287.05 811.03 285.90 811.55"
/>
<path stroke="#ab7738" vector-effect="non-scaling-stroke" d="
  M 459.15 796.95
  Q 460.44 799.53 457.99 800.91
  Q 449.25 805.86 450.33 816.61
  C 450.46 817.88 451.20 819.03 452.59 819.08
  Q 475.08 819.91 494.12 817.42
  C 503.25 816.22 511.79 812.06 516.71 804.09
  Q 518.92 800.50 520.32 793.56
  Q 523.98 775.41 528.05 757.96
  A 1.43 1.42 -0.3 0 0 526.32 756.26
  C 508.83 760.54 489.73 759.88 471.39 758.75
  A 2.07 2.06 6.3 0 0 469.23 760.47
  Q 466.75 775.44 456.01 786.49
  Q 452.77 789.82 449.31 793.04
  Q 444.98 797.08 443.39 800.17
  C 441.98 802.91 438.89 811.19 440.37 814.09
  A 0.44 0.44 0.0 0 0 441.15 814.09
  Q 443.03 810.36 444.06 806.53
  C 445.20 802.28 448.21 798.98 451.81 796.90
  Q 453.03 796.19 454.41 795.91
  Q 458.24 795.12 459.15 796.95"
/>
<path stroke="#e4a69c" vector-effect="non-scaling-stroke" d="
  M 210.92 683.97
  Q 134.80 684.04 59.00 684.07
  C 32.14 684.08 8.11 666.02 1.76 639.56
  Q 0.82 635.62 0.00 631.61"
/>
<path stroke="#e6aca3" vector-effect="non-scaling-stroke" d="
  M 900.7624 623.9884
  A 7.69 5.13 75.6 0 0 903.8188 615.2642
  A 7.69 5.13 75.6 0 0 896.9376 609.0916
  A 7.69 5.13 75.6 0 0 893.8812 617.8158
  A 7.69 5.13 75.6 0 0 900.7624 623.9884"
/>
<path stroke="#e6aca3" vector-effect="non-scaling-stroke" d="
  M 910.8611 623.9586
  A 7.68 5.15 104.7 0 0 917.7914 617.8369
  A 7.68 5.15 104.7 0 0 914.7589 609.1014
  A 7.68 5.15 104.7 0 0 907.8286 615.2231
  A 7.68 5.15 104.7 0 0 910.8611 623.9586"
/>
<path stroke="#e6aca3" vector-effect="non-scaling-stroke" d="
  M 891.8578 632.7507
  A 7.46 5.27 58.5 0 0 892.4534 623.6364
  A 7.46 5.27 58.5 0 0 884.0622 620.0293
  A 7.46 5.27 58.5 0 0 883.4666 629.1436
  A 7.46 5.27 58.5 0 0 891.8578 632.7507"
/>
<path stroke="#e6aca3" vector-effect="non-scaling-stroke" d="
  M 920.1394 632.6932
  A 7.44 5.27 121.8 0 0 928.5389 629.1471
  A 7.44 5.27 121.8 0 0 927.9806 620.0468
  A 7.44 5.27 121.8 0 0 919.5811 623.5929
  A 7.44 5.27 121.8 0 0 920.1394 632.6932"
/>
<path stroke="#e6aca3" vector-effect="non-scaling-stroke" d="
  M 907.03 648.49
  C 912.19 649.25 920.19 654.39 923.19 646.72
  C 924.20 644.15 922.50 641.33 920.56 639.74
  Q 915.70 635.80 912.58 631.09
  C 908.87 625.51 903.54 624.55 899.40 630.48
  C 897.35 633.42 895.26 636.29 892.23 638.26
  C 888.44 640.73 886.13 644.44 889.57 648.66
  C 894.21 654.35 901.16 647.62 907.03 648.49"
/>
<path stroke="#e4a69c" vector-effect="non-scaling-stroke" d="
  M 195.20 870.31
  Q 194.85 870.15 194.50 870.15
  Q 132.51 869.99 67.50 869.97
  Q 53.18 869.97 47.49 871.05
  C 24.09 875.48 5.57 893.89 1.11 917.51
  Q 0.63 920.01 0.00 922.47"
/>
<path stroke="#e6aca3" vector-effect="non-scaling-stroke" d="
  M 143.96 741.76
  C 140.75 750.43 142.45 764.89 153.85 765.58
  C 161.38 766.04 166.05 760.29 166.55 752.96
  C 166.91 747.62 168.02 727.13 158.97 729.10
  Q 147.74 731.55 143.96 741.76"
/>
<path stroke="#e6aca3" vector-effect="non-scaling-stroke" d="
  M 199.57 742.72
  C 197.34 735.70 191.22 729.85 183.68 729.07
  C 174.80 728.16 176.31 749.43 176.83 754.34
  C 178.07 766.16 193.19 770.27 198.69 759.26
  Q 202.43 751.78 199.57 742.72"
/>
<path stroke="#e6aca3" vector-effect="non-scaling-stroke" d="
  M 128.58 767.37
  C 124.56 772.86 125.65 781.38 128.64 787.27
  C 132.61 795.10 143.29 794.01 146.34 785.83
  Q 148.48 780.07 144.22 775.18
  Q 139.30 769.52 132.66 766.40
  C 131.08 765.66 129.68 765.87 128.58 767.37"
/>
<path stroke="#e6aca3" vector-effect="non-scaling-stroke" d="
  M 198.23 776.00
  C 195.24 779.58 195.81 785.29 198.30 788.62
  C 202.87 794.73 211.82 793.57 214.98 786.57
  C 217.51 780.98 218.74 771.85 214.13 766.88
  C 210.81 763.30 200.56 773.21 198.23 776.00"
/>
<path stroke="#e6aca3" vector-effect="non-scaling-stroke" d="
  M 171.20 822.33
  A 1.11 1.11 0.0 0 1 172.14 822.33
  Q 182.28 827.17 193.31 824.92
  Q 198.79 823.80 202.45 818.95
  C 207.32 812.51 205.97 801.98 197.33 799.25
  C 192.08 797.59 188.65 794.57 186.99 788.99
  C 185.71 784.72 185.53 779.33 182.52 775.92
  C 175.53 768.00 162.57 769.65 158.60 779.53
  C 157.70 781.77 157.34 784.55 156.93 786.96
  Q 155.88 793.11 151.18 796.73
  C 149.07 798.35 146.49 798.73 144.14 799.92
  Q 140.00 802.03 138.81 805.99
  Q 136.00 815.28 143.15 821.56
  Q 146.05 824.10 149.54 824.84
  Q 160.87 827.25 171.20 822.33"
/>
<path stroke="#ecc9a5" vector-effect="non-scaling-stroke" d="
  M 1080.00 796.45
  Q 1078.99 798.37 1079.10 800.86"
/>
<path stroke="#e6aca3" vector-effect="non-scaling-stroke" d="
  M 166.49 807.75
  A 0.36 0.36 0.0 0 1 166.85 808.11
  L 166.88 815.78
  A 0.36 0.36 0.0 0 0 167.24 816.14
  L 176.03 816.15
  A 0.36 0.36 0.0 0 0 176.39 815.79
  L 176.37 808.11
  A 0.36 0.36 0.0 0 1 176.73 807.75
  L 184.64 807.75
  A 0.36 0.36 0.0 0 0 185.00 807.39
  L 184.99 799.71
  A 0.36 0.36 0.0 0 0 184.63 799.35
  L 176.74 799.40
  A 0.36 0.36 0.0 0 1 176.38 799.04
  L 176.39 791.23
  A 0.36 0.36 0.0 0 0 176.03 790.87
  L 167.23 790.87
  A 0.36 0.36 0.0 0 0 166.87 791.23
  L 166.88 799.03
  A 0.36 0.36 0.0 0 1 166.52 799.39
  L 158.00 799.36
  A 0.36 0.36 0.0 0 0 157.64 799.72
  L 157.60 807.39
  A 0.36 0.36 0.0 0 0 157.96 807.75
  L 166.49 807.75"
/>
<path stroke="#ecc9a5" vector-effect="non-scaling-stroke" d="
  M 0.54 938.91
  Q 0.89 936.67 0.00 934.61"
/>
</g>
<path fill="#fcf2f1" d="
  M 54.65 0.00
  L 241.75 0.00
  Q 243.00 0.21 243.00 1.75
  Q 243.01 58.75 243.07 115.75
  Q 243.07 116.10 243.16 116.48
  Q 242.95 116.79 242.25 116.80
  Q 232.12 116.98 222.76 116.98
  Q 145.17 116.96 65.47 117.06
  Q 52.44 117.08 45.60 115.56
  Q 26.08 111.23 13.10 95.40
  Q 2.94 83.01 0.00 65.51
  L 0.00 51.54
  Q 3.93 27.67 21.48 13.21
  Q 35.49 1.67 54.65 0.00
  Z"
/>
<path fill="#cc5946" d="
  M 0.00 65.51
  Q 2.94 83.01 13.10 95.40
  Q 26.08 111.23 45.60 115.56
  Q 52.44 117.08 65.47 117.06
  Q 145.17 116.96 222.76 116.98
  Q 232.12 116.98 242.25 116.80
  Q 242.95 116.79 243.16 116.48
  Q 243.23 116.59 243.34 116.74
  A 0.53 0.50 -16.8 0 0 243.76 116.95
  Q 311.07 117.12 379.81 116.92
  Q 392.10 116.88 398.51 118.15
  C 422.24 122.87 440.98 141.26 445.75 164.84
  Q 447.23 172.16 447.09 184.97
  Q 446.81 211.14 447.09 237.18
  Q 447.21 248.43 445.63 255.54
  Q 440.11 280.40 418.45 294.04
  Q 409.10 299.92 398.43 301.92
  Q 392.68 303.00 378.50 303.00
  Q 310.75 303.00 243.00 303.00
  Q 242.98 303.00 242.96 303.01
  Q 154.94 302.99 67.00 302.99
  Q 52.82 302.99 47.10 304.13
  C 23.86 308.73 5.54 327.00 1.11 350.50
  Q 0.64 352.99 0.00 355.44
  L 0.00 65.51
  Z
  M 267.13 184.19
  A 16.84 16.84 0.0 0 0 250.29 167.35
  A 16.84 16.84 0.0 0 0 233.45 184.19
  A 16.84 16.84 0.0 0 0 250.29 201.03
  A 16.84 16.84 0.0 0 0 267.13 184.19
  Z
  M 230.01 197.90
  A 13.83 13.83 0.0 0 0 216.18 184.07
  A 13.83 13.83 0.0 0 0 202.35 197.90
  A 13.83 13.83 0.0 0 0 216.18 211.73
  A 13.83 13.83 0.0 0 0 230.01 197.90
  Z
  M 297.37 197.90
  A 13.70 13.70 0.0 0 0 283.67 184.20
  A 13.70 13.70 0.0 0 0 269.97 197.90
  A 13.70 13.70 0.0 0 0 283.67 211.60
  A 13.70 13.70 0.0 0 0 297.37 197.90
  Z
  M 234.71 233.38
  C 233.49 241.08 234.27 251.56 239.38 258.02
  C 242.34 261.76 247.31 261.78 248.86 256.70
  Q 249.39 254.97 249.92 253.32
  Q 250.20 252.45 250.31 253.35
  Q 250.50 255.03 251.14 256.71
  C 253.88 263.82 259.78 260.32 262.25 255.76
  C 265.75 249.30 266.45 240.57 265.31 233.40
  Q 265.15 232.34 265.93 233.07
  Q 269.07 235.96 271.95 234.32
  C 275.57 232.25 275.57 226.66 274.87 223.09
  Q 272.42 210.44 262.82 201.31
  Q 262.43 200.94 261.96 201.20
  C 260.59 201.98 259.30 202.83 257.85 203.40
  Q 247.39 207.46 238.05 201.13
  Q 237.66 200.86 237.31 201.19
  C 230.48 207.66 223.49 219.56 225.12 229.40
  C 225.93 234.28 229.95 236.92 234.12 233.07
  Q 234.87 232.37 234.71 233.38
  Z
  M 216.55 255.00
  C 217.69 263.54 224.42 261.36 226.90 255.39
  Q 229.94 248.06 228.89 239.46
  Q 228.80 238.79 228.16 238.58
  C 217.99 235.23 220.56 221.21 224.07 213.59
  Q 224.42 212.85 223.68 213.19
  Q 214.81 217.36 206.34 211.81
  A 0.49 0.48 -50.2 0 0 205.74 211.87
  C 200.00 217.40 193.71 227.98 195.97 236.10
  C 196.94 239.61 200.31 240.56 203.06 238.13
  Q 203.79 237.48 203.64 238.45
  Q 202.13 247.96 205.79 255.98
  C 207.21 259.09 212.32 263.62 214.80 258.41
  Q 215.58 256.79 216.08 254.97
  Q 216.40 253.84 216.55 255.00
  Z
  M 297.09 238.14
  C 298.81 239.93 301.63 240.08 303.16 237.95
  C 305.30 234.97 304.58 230.02 303.54 226.68
  Q 300.89 218.22 294.47 211.98
  A 0.69 0.69 0.0 0 0 293.60 211.89
  Q 285.05 217.37 276.33 213.08
  Q 275.68 212.77 275.98 213.42
  C 279.42 221.05 282.04 233.90 272.95 238.31
  Q 272.55 238.50 272.11 238.52
  Q 271.25 238.54 271.16 239.40
  Q 270.05 249.80 274.11 257.19
  C 275.43 259.61 278.96 262.29 281.43 259.73
  Q 283.24 257.84 283.65 254.80
  Q 283.78 253.81 284.08 254.77
  Q 284.38 255.73 284.58 256.76
  C 285.07 259.33 287.14 261.38 289.79 260.52
  C 296.76 258.24 297.24 244.22 296.45 238.45
  Q 296.29 237.30 297.09 238.14
  Z"
/>
<path fill="#dca059" d="
  M 693.85 548.52
  Q 691.42 535.16 688.93 521.27
  Q 686.83 509.55 682.74 498.80
  Q 678.86 488.63 673.56 480.91
  Q 664.98 468.40 650.31 459.50
  Q 646.73 457.33 647.93 461.34
  Q 651.37 472.87 650.62 484.49
  C 649.47 502.31 644.04 518.89 636.41 535.36
  Q 628.34 552.79 619.76 569.19
  Q 608.80 590.14 608.32 613.29
  C 608.20 619.22 602.86 619.61 598.68 617.48
  Q 597.46 616.86 597.13 615.56
  Q 585.43 569.82 593.67 526.15
  Q 594.73 520.49 597.77 510.24
  Q 601.56 497.43 603.14 481.74
  Q 605.00 463.41 595.41 448.69
  Q 613.14 448.55 634.74 453.47
  Q 637.16 454.02 638.08 451.50
  Q 644.63 433.49 648.24 416.40
  Q 650.31 406.57 651.07 396.17
  Q 652.15 381.27 647.93 365.50
  Q 642.08 343.66 633.22 322.95
  Q 626.12 306.34 618.99 289.44
  Q 607.61 262.44 604.42 233.66
  Q 599.99 193.70 614.47 154.77
  Q 621.19 136.69 632.67 117.99
  C 639.92 106.19 649.58 94.17 662.81 90.92
  C 676.36 87.58 690.96 92.87 699.27 103.88
  C 706.48 113.43 708.84 127.11 706.40 138.74
  Q 705.14 144.74 702.49 151.48
  Q 696.67 166.29 690.36 180.46
  Q 687.34 187.25 685.31 198.18
  Q 677.10 242.47 690.04 285.66
  C 699.53 317.34 712.14 347.84 721.80 379.37
  C 736.25 426.49 739.16 478.70 713.54 522.42
  Q 710.06 528.36 704.13 535.84
  Q 699.04 542.25 693.85 548.52
  Z"
/>
<path fill="#fcf2f1" d="
  M 1080.00 153.52
  L 1080.00 166.50
  Q 1079.37 168.88 1078.92 171.33
  C 1073.94 198.46 1049.76 219.00 1022.25 219.00
  Q 937.82 219.01 853.26 218.99
  L 853.27 102.30
  A 0.32 0.31 0.0 0 1 853.59 101.99
  Q 932.85 102.06 1014.73 101.94
  Q 1026.92 101.92 1033.65 103.34
  Q 1058.11 108.51 1071.58 130.24
  Q 1077.49 139.78 1080.00 153.52
  Z"
/>
<path fill="#cc5946" d="
  M 1080.00 166.50
  L 1080.00 456.98
  Q 1076.64 435.38 1061.96 421.32
  C 1051.55 411.34 1037.13 405.00 1022.75 405.00
  Q 938.09 404.99 853.26 405.01
  Q 853.24 405.01 853.21 405.01
  Q 831.96 405.00 812.00 405.00
  Q 798.17 405.01 792.08 403.80
  C 768.59 399.13 749.97 380.50 745.23 356.87
  Q 743.86 350.02 743.92 341.05
  Q 744.11 312.14 743.93 283.01
  Q 743.87 273.74 745.13 267.51
  C 749.98 243.51 768.51 224.76 792.32 220.15
  Q 798.30 219.00 812.26 219.00
  Q 832.30 219.00 853.24 218.99
  Q 853.25 218.99 853.26 218.99
  Q 937.82 219.01 1022.25 219.00
  C 1049.76 219.00 1073.94 198.46 1078.92 171.33
  Q 1079.37 168.88 1080.00 166.50
  Z
  M 948.87 345.20
  Q 948.89 312.86 948.86 280.52
  C 948.86 276.62 949.15 273.01 944.51 273.01
  Q 913.52 272.98 879.32 273.01
  A 4.20 4.20 0.0 0 0 875.13 277.21
  L 875.13 345.25
  A 0.62 0.62 0.0 0 1 874.50 345.87
  L 867.58 345.84
  Q 867.00 345.84 867.00 346.42
  L 867.00 353.25
  Q 867.00 354.00 867.75 354.00
  L 956.25 354.00
  Q 957.00 354.00 957.00 353.25
  L 957.00 346.55
  Q 957.00 345.85 956.30 345.86
  L 949.55 345.88
  Q 948.87 345.88 948.87 345.20
  Z"
/>
<circle fill="#ffffff" cx="250.29" cy="184.19" r="16.84"/>
<circle fill="#ffffff" cx="216.18" cy="197.90" r="13.83"/>
<circle fill="#ffffff" cx="283.67" cy="197.90" r="13.70"/>
<path fill="#ffffff" d="
  M 234.71 233.38
  Q 234.87 232.37 234.12 233.07
  C 229.95 236.92 225.93 234.28 225.12 229.40
  C 223.49 219.56 230.48 207.66 237.31 201.19
  Q 237.66 200.86 238.05 201.13
  Q 247.39 207.46 257.85 203.40
  C 259.30 202.83 260.59 201.98 261.96 201.20
  Q 262.43 200.94 262.82 201.31
  Q 272.42 210.44 274.87 223.09
  C 275.57 226.66 275.57 232.25 271.95 234.32
  Q 269.07 235.96 265.93 233.07
  Q 265.15 232.34 265.31 233.40
  C 266.45 240.57 265.75 249.30 262.25 255.76
  C 259.78 260.32 253.88 263.82 251.14 256.71
  Q 250.50 255.03 250.31 253.35
  Q 250.20 252.45 249.92 253.32
  Q 249.39 254.97 248.86 256.70
  C 247.31 261.78 242.34 261.76 239.38 258.02
  C 234.27 251.56 233.49 241.08 234.71 233.38
  Z"
/>
<path fill="#ffffff" d="
  M 216.08 254.97
  Q 215.58 256.79 214.80 258.41
  C 212.32 263.62 207.21 259.09 205.79 255.98
  Q 202.13 247.96 203.64 238.45
  Q 203.79 237.48 203.06 238.13
  C 200.31 240.56 196.94 239.61 195.97 236.10
  C 193.71 227.98 200.00 217.40 205.74 211.87
  A 0.49 0.48 -50.2 0 1 206.34 211.81
  Q 214.81 217.36 223.68 213.19
  Q 224.42 212.85 224.07 213.59
  C 220.56 221.21 217.99 235.23 228.16 238.58
  Q 228.80 238.79 228.89 239.46
  Q 229.94 248.06 226.90 255.39
  C 224.42 261.36 217.69 263.54 216.55 255.00
  Q 216.40 253.84 216.08 254.97
  Z"
/>
<path fill="#ffffff" d="
  M 296.45 238.45
  C 297.24 244.22 296.76 258.24 289.79 260.52
  C 287.14 261.38 285.07 259.33 284.58 256.76
  Q 284.38 255.73 284.08 254.77
  Q 283.78 253.81 283.65 254.80
  Q 283.24 257.84 281.43 259.73
  C 278.96 262.29 275.43 259.61 274.11 257.19
  Q 270.05 249.80 271.16 239.40
  Q 271.25 238.54 272.11 238.52
  Q 272.55 238.50 272.95 238.31
  C 282.04 233.90 279.42 221.05 275.98 213.42
  Q 275.68 212.77 276.33 213.08
  Q 285.05 217.37 293.60 211.89
  A 0.69 0.69 0.0 0 1 294.47 211.98
  Q 300.89 218.22 303.54 226.68
  C 304.58 230.02 305.30 234.97 303.16 237.95
  C 301.63 240.08 298.81 239.93 297.09 238.14
  Q 296.29 237.30 296.45 238.45
  Z"
/>
<path fill="#ffffff" d="
  M 949.55 345.88
  L 956.30 345.86
  Q 957.00 345.85 957.00 346.55
  L 957.00 353.25
  Q 957.00 354.00 956.25 354.00
  L 867.75 354.00
  Q 867.00 354.00 867.00 353.25
  L 867.00 346.42
  Q 867.00 345.84 867.58 345.84
  L 874.50 345.87
  A 0.62 0.62 0.0 0 0 875.13 345.25
  L 875.13 277.21
  A 4.20 4.20 0.0 0 1 879.32 273.01
  Q 913.52 272.98 944.51 273.01
  C 949.15 273.01 948.86 276.62 948.86 280.52
  Q 948.89 312.86 948.87 345.20
  Q 948.87 345.88 949.55 345.88
  Z
  M 907.54 305.37
  A 0.33 0.33 0.0 0 1 907.87 305.70
  L 907.85 313.17
  A 0.33 0.33 0.0 0 0 908.18 313.50
  L 915.83 313.49
  A 0.33 0.33 0.0 0 0 916.16 313.16
  L 916.12 305.71
  A 0.33 0.33 0.0 0 1 916.45 305.38
  L 923.93 305.40
  A 0.33 0.33 0.0 0 0 924.26 305.07
  L 924.25 297.58
  A 0.33 0.33 0.0 0 0 923.92 297.25
  L 916.46 297.25
  A 0.33 0.33 0.0 0 1 916.13 296.92
  L 916.15 289.58
  A 0.33 0.33 0.0 0 0 915.82 289.25
  L 908.21 289.26
  A 0.33 0.33 0.0 0 0 907.88 289.59
  L 907.86 296.92
  A 0.33 0.33 0.0 0 1 907.53 297.25
  L 900.08 297.25
  A 0.33 0.33 0.0 0 0 899.75 297.58
  L 899.74 305.06
  A 0.33 0.33 0.0 0 0 900.07 305.39
  L 907.54 305.37
  Z
  M 919.71 329.75
  A 0.41 0.41 0.0 0 1 920.12 330.16
  L 920.12 345.47
  A 0.41 0.41 0.0 0 0 920.53 345.88
  L 927.97 345.87
  A 0.41 0.41 0.0 0 0 928.38 345.46
  L 928.38 322.03
  A 0.41 0.41 0.0 0 0 927.97 321.62
  L 896.04 321.62
  A 0.41 0.41 0.0 0 0 895.63 322.03
  L 895.61 345.47
  A 0.41 0.41 0.0 0 0 896.02 345.88
  L 903.44 345.87
  A 0.41 0.41 0.0 0 0 903.85 345.46
  L 903.87 330.16
  A 0.41 0.41 0.0 0 1 904.28 329.75
  L 919.71 329.75
  Z"
/>
<path fill="#cc5946" d="
  M 907.54 305.37
  L 900.07 305.39
  A 0.33 0.33 0.0 0 1 899.74 305.06
  L 899.75 297.58
  A 0.33 0.33 0.0 0 1 900.08 297.25
  L 907.53 297.25
  A 0.33 0.33 0.0 0 0 907.86 296.92
  L 907.88 289.59
  A 0.33 0.33 0.0 0 1 908.21 289.26
  L 915.82 289.25
  A 0.33 0.33 0.0 0 1 916.15 289.58
  L 916.13 296.92
  A 0.33 0.33 0.0 0 0 916.46 297.25
  L 923.92 297.25
  A 0.33 0.33 0.0 0 1 924.25 297.58
  L 924.26 305.07
  A 0.33 0.33 0.0 0 1 923.93 305.40
  L 916.45 305.38
  A 0.33 0.33 0.0 0 0 916.12 305.71
  L 916.16 313.16
  A 0.33 0.33 0.0 0 1 915.83 313.49
  L 908.18 313.50
  A 0.33 0.33 0.0 0 1 907.85 313.17
  L 907.87 305.70
  A 0.33 0.33 0.0 0 0 907.54 305.37
  Z"
/>
<path fill="#fcf2f1" d="
  M 242.96 303.01
  L 242.98 322.36
  Q 226.39 333.57 215.48 350.78
  Q 203.25 370.06 197.78 392.08
  Q 196.87 395.73 195.44 406.05
  Q 194.45 413.19 192.76 420.01
  Q 129.47 419.98 66.75 420.01
  Q 52.72 420.02 46.87 418.82
  C 26.36 414.60 9.17 399.47 2.81 379.48
  Q 2.32 377.97 0.84 371.97
  L 0.00 367.60
  L 0.00 355.44
  Q 0.64 352.99 1.11 350.50
  C 5.54 327.00 23.86 308.73 47.10 304.13
  Q 52.82 302.99 67.00 302.99
  Q 154.94 302.99 242.96 303.01
  Z"
/>
<path fill="#7a4d16" d="
  M 253.77 318.46
  Q 257.29 341.90 253.74 365.05
  A 1.18 1.17 -67.7 0 0 254.21 366.18
  Q 264.93 373.92 267.08 387.08
  A 0.91 0.91 0.0 0 0 268.30 387.78
  Q 280.64 383.18 293.52 380.31
  Q 294.25 380.14 294.56 379.36
  Q 319.08 378.42 343.62 377.37
  Q 343.93 377.06 344.42 377.18
  Q 344.22 376.95 344.33 377.27
  Q 344.37 377.38 344.49 377.38
  L 358.72 377.98
  Q 359.26 378.00 359.61 377.58
  Q 378.68 354.78 383.62 324.98
  A 2.06 2.05 89.8 0 1 385.29 323.29
  C 389.05 322.65 389.05 326.57 388.94 329.04
  Q 388.73 333.66 387.48 338.79
  Q 384.75 350.03 380.75 360.32
  A 0.73 0.73 0.0 0 0 381.05 361.21
  Q 396.02 370.40 393.02 387.38
  Q 392.39 390.95 388.53 392.01
  Q 387.95 392.17 387.56 391.71
  Q 385.40 389.15 385.90 385.80
  Q 387.62 374.32 378.71 367.16
  A 0.78 0.78 0.0 0 0 377.57 367.34
  L 368.68 380.98
  Q 368.35 381.48 368.35 382.09
  Q 368.36 384.13 367.10 385.81
  A 1.24 1.24 0.0 0 1 366.22 386.30
  Q 358.29 387.03 350.66 387.10
  Q 330.68 387.30 308.96 387.31
  C 295.34 387.32 281.50 388.46 268.29 392.96
  Q 267.74 393.15 267.49 393.67
  C 266.38 396.04 264.96 400.66 261.40 398.40
  A 2.62 2.61 -77.1 0 1 260.20 396.48
  C 259.28 388.68 257.57 380.07 252.18 374.39
  A 0.50 0.50 0.0 0 0 251.34 374.60
  C 247.84 386.98 241.96 398.21 233.45 407.85
  C 232.34 409.11 229.29 411.79 227.45 410.95
  C 225.48 410.05 224.77 408.37 225.60 406.30
  Q 228.80 398.26 230.37 395.66
  Q 242.79 375.15 246.50 353.50
  Q 249.38 336.74 248.81 318.77
  Q 251.57 317.90 253.77 318.46
  Z"
/>
<path fill="#fcc576" d="
  M 253.77 318.46
  Q 261.62 318.05 266.04 322.44
  Q 270.64 327.00 276.59 337.15
  C 283.92 349.67 289.24 364.02 293.58 377.83
  Q 293.76 378.39 294.14 378.84
  L 294.56 379.36
  Q 294.25 380.14 293.52 380.31
  Q 280.64 383.18 268.30 387.78
  A 0.91 0.91 0.0 0 1 267.08 387.08
  Q 264.93 373.92 254.21 366.18
  A 1.18 1.17 -67.7 0 1 253.74 365.05
  Q 257.29 341.90 253.77 318.46
  Z"
/>
<path fill="#fcc576" d="
  M 248.81 318.77
  Q 249.38 336.74 246.50 353.50
  Q 242.79 375.15 230.37 395.66
  Q 228.80 398.26 225.60 406.30
  C 224.77 408.37 225.48 410.05 227.45 410.95
  C 229.29 411.79 232.34 409.11 233.45 407.85
  C 241.96 398.21 247.84 386.98 251.34 374.60
  A 0.50 0.50 0.0 0 1 252.18 374.39
  C 257.57 380.07 259.28 388.68 260.20 396.48
  A 2.62 2.61 -77.1 0 0 261.40 398.40
  C 264.96 400.66 266.38 396.04 267.49 393.67
  Q 267.74 393.15 268.29 392.96
  C 281.50 388.46 295.34 387.32 308.96 387.31
  Q 330.68 387.30 350.66 387.10
  Q 358.29 387.03 366.22 386.30
  A 1.24 1.24 0.0 0 0 367.10 385.81
  Q 368.36 384.13 368.35 382.09
  Q 368.35 381.48 368.68 380.98
  L 377.57 367.34
  A 0.78 0.78 0.0 0 1 378.71 367.16
  Q 387.62 374.32 385.90 385.80
  Q 385.40 389.15 387.56 391.71
  Q 387.95 392.17 388.53 392.01
  Q 392.39 390.95 393.02 387.38
  Q 396.02 370.40 381.05 361.21
  A 0.73 0.73 0.0 0 1 380.75 360.32
  Q 384.75 350.03 387.48 338.79
  Q 388.73 333.66 388.94 329.04
  C 389.05 326.57 389.05 322.65 385.29 323.29
  A 2.06 2.05 89.8 0 0 383.62 324.98
  Q 378.68 354.78 359.61 377.58
  Q 359.26 378.00 358.72 377.98
  L 344.49 377.38
  Q 344.37 377.38 344.33 377.27
  Q 344.22 376.95 344.42 377.18
  Q 347.70 370.20 351.34 363.36
  Q 359.29 348.42 368.91 335.83
  C 373.59 329.71 382.80 319.11 391.60 320.49
  Q 394.52 320.95 398.14 324.17
  C 406.53 331.66 410.74 342.83 413.18 353.79
  C 415.62 364.72 416.61 376.57 418.49 387.49
  Q 421.37 404.28 426.38 421.69
  Q 426.69 422.77 427.82 422.94
  C 427.76 423.44 427.65 423.91 427.25 424.24
  Q 403.30 443.87 381.34 464.12
  Q 379.11 466.18 380.65 468.80
  Q 380.86 469.17 381.22 469.40
  Q 383.16 470.64 384.32 469.70
  Q 405.56 452.56 423.10 437.85
  Q 424.92 436.33 426.05 436.04
  C 425.82 441.94 431.19 443.54 436.01 442.67
  Q 436.21 443.07 436.00 443.20
  Q 413.38 457.42 394.12 473.04
  A 2.36 2.35 -8.9 0 0 393.46 473.94
  Q 392.63 475.92 394.01 476.59
  Q 396.37 477.73 398.01 476.60
  Q 418.49 462.35 440.50 449.99
  Q 440.32 459.09 444.23 466.86
  C 437.00 468.75 397.67 479.75 398.20 488.57
  Q 398.24 489.22 398.89 489.25
  Q 403.05 489.44 406.09 488.14
  Q 421.75 481.42 437.49 476.54
  Q 440.39 475.64 447.37 474.56
  Q 454.41 490.28 454.60 507.05
  Q 454.67 513.73 453.24 522.40
  Q 451.40 533.55 450.13 537.52
  Q 447.63 545.28 445.28 552.95
  Q 435.38 585.12 435.74 617.18
  Q 435.77 619.73 436.13 622.52
  C 436.70 626.93 441.50 628.49 445.18 628.18
  Q 445.78 628.13 446.21 627.72
  Q 447.66 626.34 448.16 624.19
  Q 451.71 609.06 458.83 595.04
  C 465.46 581.98 473.62 570.14 482.05 557.99
  C 487.91 549.53 493.78 540.79 498.11 531.44
  C 509.06 507.78 513.18 482.79 510.85 456.74
  Q 510.40 451.79 510.01 446.73
  L 518.85 447.09
  Q 523.42 467.38 524.57 473.00
  Q 526.76 483.72 525.70 494.54
  C 525.07 500.97 522.66 507.70 519.90 513.63
  Q 515.94 522.13 512.45 530.53
  C 504.35 550.03 506.24 572.70 516.57 591.22
  C 519.98 597.33 528.76 596.13 529.88 589.06
  Q 533.75 564.57 544.65 542.84
  C 547.00 538.16 550.31 533.23 553.57 529.18
  Q 560.49 520.60 567.02 511.80
  C 580.09 494.19 584.86 470.27 582.92 448.52
  L 595.41 448.69
  Q 605.00 463.41 603.14 481.74
  Q 601.56 497.43 597.77 510.24
  Q 594.73 520.49 593.67 526.15
  Q 585.43 569.82 597.13 615.56
  Q 597.46 616.86 598.68 617.48
  C 602.86 619.61 608.20 619.22 608.32 613.29
  Q 608.80 590.14 619.76 569.19
  Q 628.34 552.79 636.41 535.36
  C 644.04 518.89 649.47 502.31 650.62 484.49
  Q 651.37 472.87 647.93 461.34
  Q 646.73 457.33 650.31 459.50
  Q 664.98 468.40 673.56 480.91
  Q 678.86 488.63 682.74 498.80
  Q 686.83 509.55 688.93 521.27
  Q 691.42 535.16 693.85 548.52
  Q 692.50 567.05 694.03 585.13
  Q 696.02 608.68 697.91 632.07
  L 692.57 655.00
  Q 658.70 663.29 631.38 683.86
  C 621.22 691.51 612.20 699.60 606.08 710.60
  C 598.13 724.89 610.85 728.43 621.59 724.93
  Q 629.16 722.46 637.60 717.64
  Q 642.90 714.61 647.75 713.29
  Q 653.48 711.73 658.25 711.43
  Q 668.94 710.75 683.74 711.49
  L 680.62 723.03
  Q 672.68 723.51 667.60 726.10
  Q 648.91 735.62 627.98 753.33
  C 625.04 755.82 624.15 758.17 625.96 761.71
  Q 627.06 763.86 629.50 764.06
  Q 647.16 765.51 666.01 766.62
  Q 667.89 766.73 670.17 766.84
  Q 666.21 781.76 661.35 796.31
  Q 657.42 808.08 651.09 821.53
  Q 648.28 827.53 644.77 830.67
  Q 637.94 836.81 631.00 838.54
  Q 622.10 840.75 615.43 841.04
  Q 608.69 841.33 614.16 837.39
  L 622.11 831.66
  A 1.71 1.70 55.2 0 0 622.52 829.33
  Q 620.98 827.05 618.19 827.75
  C 610.37 829.72 605.60 834.26 602.02 841.09
  Q 601.71 841.70 601.02 841.73
  L 589.46 842.33
  Q 587.79 842.42 587.98 840.76
  C 589.43 828.22 599.83 825.47 610.42 824.48
  A 2.10 2.09 2.6 0 0 612.28 822.78
  C 612.76 820.18 608.75 818.77 606.82 818.66
  C 590.92 817.75 580.40 826.71 578.00 842.11
  A 0.76 0.76 0.0 0 1 577.24 842.76
  L 570.76 842.73
  A 0.76 0.75 85.5 0 1 570.02 842.09
  C 568.27 829.82 574.59 820.04 585.64 815.10
  Q 595.14 810.86 606.39 812.31
  Q 610.51 812.84 611.28 808.93
  Q 615.33 788.50 614.64 767.33
  Q 614.45 761.76 613.00 756.87
  A 1.57 1.57 0.0 0 0 611.48 755.75
  L 607.10 755.76
  A 1.13 1.11 -83.5 0 0 606.01 756.64
  L 604.92 761.47
  A 1.03 1.03 0.0 0 1 603.87 762.27
  Q 586.26 761.45 571.14 753.04
  Q 548.30 740.33 533.18 717.81
  C 522.71 702.22 519.68 684.33 524.46 665.90
  Q 524.77 664.71 523.56 664.50
  L 520.96 664.06
  Q 519.88 663.87 519.47 664.88
  C 508.76 691.17 515.82 718.71 534.76 739.18
  A 0.67 0.67 0.0 0 1 534.58 740.24
  Q 518.40 748.71 500.00 748.71
  Q 477.51 748.72 454.97 749.02
  C 453.36 749.05 451.67 748.59 450.12 748.18
  A 0.86 0.86 0.0 0 1 449.52 747.09
  Q 456.92 723.20 460.60 699.76
  Q 464.22 676.71 479.14 657.55
  A 2.15 2.14 -58.1 0 0 478.39 654.31
  C 474.40 652.35 466.17 659.15 463.38 661.94
  Q 431.37 656.17 399.01 660.78
  Q 394.71 661.40 389.22 662.60
  A 2.02 2.02 0.0 0 0 388.13 663.24
  Q 383.63 668.21 388.21 672.90
  C 392.32 677.11 397.17 678.88 403.56 680.88
  Q 427.15 688.24 448.85 700.10
  Q 447.12 709.76 445.31 719.20
  Q 442.37 734.55 441.14 738.17
  C 436.73 751.14 428.41 759.79 416.65 767.33
  Q 408.98 772.25 401.55 776.52
  Q 400.78 776.96 400.22 776.28
  L 392.07 766.50
  A 1.22 1.22 0.0 0 0 390.61 766.17
  L 387.40 767.69
  Q 386.40 768.17 386.68 769.23
  Q 389.21 778.81 392.40 788.31
  C 393.88 792.72 394.73 797.42 395.17 802.18
  Q 395.33 803.98 394.79 805.65
  Q 394.14 807.64 392.32 806.60
  C 383.41 801.49 380.42 794.10 376.64 784.71
  C 375.23 781.20 369.43 779.96 369.99 785.42
  Q 372.12 806.15 390.22 815.11
  A 2.03 2.03 0.0 0 1 390.32 818.69
  C 383.94 822.29 376.11 812.42 372.89 808.03
  Q 368.81 802.46 364.89 797.93
  C 364.05 796.96 362.29 795.77 360.97 796.48
  Q 359.05 797.51 359.84 799.65
  Q 364.65 812.64 374.80 823.03
  Q 375.00 823.23 374.93 823.52
  A 0.38 0.37 -67.8 0 1 374.37 823.76
  Q 351.08 809.25 335.45 786.80
  Q 328.01 776.11 325.53 764.15
  Q 332.56 762.65 337.99 760.42
  Q 345.84 757.21 355.78 752.56
  Q 359.44 750.85 358.31 747.42
  C 357.89 746.18 356.66 745.21 355.48 744.80
  Q 344.48 740.96 333.24 736.90
  C 341.60 726.27 352.23 718.99 362.18 710.15
  Q 376.02 697.88 378.35 681.62
  Q 378.72 679.06 377.16 677.31
  C 375.49 675.43 373.18 677.02 372.68 679.08
  Q 369.67 691.41 361.39 699.42
  Q 360.54 700.24 360.58 699.07
  Q 361.44 675.83 362.94 652.25
  Q 363.46 643.96 365.59 634.67
  Q 389.56 621.98 413.09 608.81
  C 417.40 606.40 424.53 601.77 426.34 597.32
  Q 428.68 591.59 421.69 589.84
  Q 415.64 588.33 407.97 587.94
  Q 397.46 587.42 388.07 591.11
  Q 388.02 591.13 381.34 594.43
  Q 378.03 596.06 374.31 597.21
  C 382.30 576.03 393.00 557.40 405.58 538.42
  Q 406.43 537.13 406.53 536.35
  C 406.83 533.94 403.44 533.00 401.71 533.40
  Q 400.48 533.68 398.72 535.23
  C 385.11 547.28 375.04 562.83 367.80 579.78
  C 354.95 609.86 350.20 642.42 348.06 676.34
  C 347.38 687.05 347.95 697.79 350.33 708.30
  Q 350.51 709.09 349.70 709.10
  Q 337.79 709.23 325.71 709.30
  Q 293.77 709.49 262.50 699.88
  C 227.78 689.22 201.97 665.89 192.01 629.97
  C 185.99 608.30 185.49 584.82 187.03 561.99
  C 187.32 557.66 183.35 558.89 180.72 558.76
  L 176.57 532.25
  Q 179.33 530.40 180.49 530.04
  Q 210.35 520.82 240.65 509.75
  Q 243.13 508.84 242.81 506.22
  Q 242.75 505.76 242.47 505.33
  Q 241.48 503.83 239.77 504.33
  Q 205.86 514.21 172.00 524.17
  Q 171.55 524.31 171.24 524.01
  Q 173.34 522.08 173.01 520.50
  Q 171.69 514.27 170.33 508.13
  Q 171.24 507.12 172.23 506.90
  Q 188.50 503.36 204.56 499.23
  Q 217.35 495.94 224.20 494.70
  Q 239.48 491.93 255.22 491.59
  A 1.58 1.58 0.0 0 0 256.69 489.54
  C 256.04 487.45 254.01 486.80 252.01 486.71
  Q 242.92 486.26 231.97 486.98
  Q 224.91 487.45 212.29 490.02
  Q 193.90 493.75 170.00 497.66
  Q 168.86 497.85 168.47 497.24
  Q 170.12 496.29 170.20 494.51
  Q 170.71 483.34 172.78 472.63
  Q 172.34 470.97 174.50 471.01
  Q 216.10 471.93 256.76 476.11
  Q 258.26 476.26 258.54 474.79
  L 258.61 474.44
  Q 259.05 472.13 256.74 471.71
  Q 216.17 464.37 175.25 463.00
  Q 174.37 462.97 174.02 462.26
  Q 175.15 460.88 175.34 460.30
  Q 180.68 444.31 186.87 432.62
  Q 191.04 424.75 192.76 420.01
  Q 194.45 413.19 195.44 406.05
  Q 196.87 395.73 197.78 392.08
  Q 203.25 370.06 215.48 350.78
  Q 226.39 333.57 242.98 322.36
  L 248.81 318.77
  Z
  M 366.5794 440.8952
  A 6.34 6.34 0.0 0 0 360.4990 434.3059
  L 359.7196 434.2746
  A 6.34 6.34 0.0 0 0 353.1303 440.3550
  L 352.6206 453.0448
  A 6.34 6.34 0.0 0 0 358.7010 459.6341
  L 359.4804 459.6654
  A 6.34 6.34 0.0 0 0 366.0697 453.5850
  L 366.5794 440.8952
  Z
  M 293.5997 450.0908
  A 6.18 6.18 0.0 0 0 287.6168 443.7197
  L 286.7572 443.6927
  A 6.18 6.18 0.0 0 0 280.3862 449.6756
  L 279.9803 462.5892
  A 6.18 6.18 0.0 0 0 285.9632 468.9603
  L 286.8228 468.9873
  A 6.18 6.18 0.0 0 0 293.1938 463.0044
  L 293.5997 450.0908
  Z
  M 331.88 497.07
  A 0.35 0.35 0.0 0 1 332.44 497.11
  Q 336.73 503.74 341.37 509.42
  C 343.06 511.51 348.01 517.08 350.64 514.23
  C 352.14 512.61 351.33 510.10 349.90 508.76
  Q 342.73 502.04 337.28 494.01
  A 1.35 1.34 39.3 0 1 337.15 492.72
  L 344.66 474.75
  Q 344.84 474.32 344.70 473.87
  C 343.95 471.46 341.93 470.23 339.50 470.60
  Q 325.67 472.71 313.34 475.45
  C 311.66 475.82 310.62 477.38 311.15 479.08
  C 313.62 487.06 318.59 490.87 325.06 495.25
  A 1.02 1.01 -61.3 0 1 325.42 496.49
  L 317.64 514.70
  A 2.09 2.06 -43.6 0 0 317.59 516.21
  Q 318.16 517.83 319.31 518.04
  Q 322.00 518.55 323.12 516.05
  Q 327.00 507.36 331.20 498.11
  Q 331.46 497.54 331.88 497.07
  Z
  M 345.39 522.10
  C 342.02 525.22 337.66 526.14 333.27 524.49
  Q 330.05 523.28 329.67 526.57
  Q 329.65 526.70 329.67 526.83
  Q 330.12 530.13 333.15 531.23
  Q 342.02 534.42 348.24 528.49
  Q 351.29 525.57 349.04 522.46
  A 2.46 2.45 50.5 0 0 345.39 522.10
  Z
  M 382.44 737.90
  Q 392.43 739.00 399.83 741.79
  C 408.19 744.94 415.50 750.67 424.62 752.37
  Q 433.51 754.03 433.61 745.86
  Q 433.66 741.60 432.60 737.68
  Q 431.67 734.28 428.27 730.36
  Q 417.20 717.60 402.27 713.31
  C 390.21 709.84 377.04 710.76 366.45 716.43
  Q 359.81 719.98 353.02 722.91
  C 351.25 723.68 344.77 724.47 346.47 727.91
  Q 348.10 731.19 351.96 732.18
  Q 368.07 736.31 382.44 737.90
  Z"
/>
<path fill="#cc5946" d="
  M 919.71 329.75
  L 904.28 329.75
  A 0.41 0.41 0.0 0 0 903.87 330.16
  L 903.85 345.46
  A 0.41 0.41 0.0 0 1 903.44 345.87
  L 896.02 345.88
  A 0.41 0.41 0.0 0 1 895.61 345.47
  L 895.63 322.03
  A 0.41 0.41 0.0 0 1 896.04 321.62
  L 927.97 321.62
  A 0.41 0.41 0.0 0 1 928.38 322.03
  L 928.38 345.46
  A 0.41 0.41 0.0 0 1 927.97 345.87
  L 920.53 345.88
  A 0.41 0.41 0.0 0 1 920.12 345.47
  L 920.12 330.16
  A 0.41 0.41 0.0 0 0 919.71 329.75
  Z"
/>
<path fill="#dca059" d="
  M 0.00 367.60
  L 0.84 371.97
  Q 0.36 371.95 0.00 371.63
  L 0.00 367.60
  Z"
/>
<path fill="#7a4d16" d="
  M 426.05 436.04
  Q 424.92 436.33 423.10 437.85
  Q 405.56 452.56 384.32 469.70
  Q 383.16 470.64 381.22 469.40
  Q 380.86 469.17 380.65 468.80
  Q 379.11 466.18 381.34 464.12
  Q 403.30 443.87 427.25 424.24
  C 427.65 423.91 427.76 423.44 427.82 422.94
  Q 428.58 422.78 429.50 421.98
  Q 452.79 401.61 481.81 378.11
  A 3.62 3.61 41.0 0 1 485.96 377.83
  Q 486.23 378.00 486.41 378.31
  Q 487.36 379.99 486.59 380.86
  Q 479.80 388.46 470.63 396.32
  Q 451.44 412.78 431.71 429.93
  C 430.34 431.13 427.29 433.49 426.55 435.04
  Q 426.27 435.64 426.05 436.04
  Z"
/>
<path fill="#fcf2f1" d="
  M 1080.00 456.98
  L 1080.00 468.23
  L 1079.19 474.24
  Q 1078.48 477.30 1080.00 480.44
  L 1080.00 492.61
  Q 1078.98 498.82 1078.17 502.00
  C 1072.64 523.81 1054.85 540.48 1033.01 544.86
  Q 1027.24 546.01 1012.76 546.01
  Q 946.18 545.99 879.44 545.99
  L 879.40 522.61
  Q 879.40 522.00 878.78 522.00
  L 853.75 522.00
  A 0.48 0.47 -90.0 0 1 853.28 521.52
  L 853.26 405.01
  Q 938.09 404.99 1022.75 405.00
  C 1037.13 405.00 1051.55 411.34 1061.96 421.32
  Q 1076.64 435.38 1080.00 456.98
  Z"
/>
<path fill="#7a4d16" d="
  M 458.77 440.79
  Q 457.66 440.61 457.28 440.82
  Q 448.76 445.34 440.50 449.99
  Q 418.49 462.35 398.01 476.60
  Q 396.37 477.73 394.01 476.59
  Q 392.63 475.92 393.46 473.94
  A 2.36 2.35 -8.9 0 1 394.12 473.04
  Q 413.38 457.42 436.00 443.20
  Q 436.21 443.07 436.01 442.67
  Q 437.43 442.43 438.54 441.80
  Q 451.77 434.25 464.21 428.16
  Q 471.43 424.63 478.52 422.96
  C 480.24 422.56 481.61 424.32 480.89 425.95
  Q 479.82 428.36 478.41 429.15
  Q 469.24 434.23 459.44 439.91
  Q 458.81 440.27 458.77 440.79
  Z"
/>
<rect fill="#7a4d16" x="-6.73" y="-12.69" transform="translate(359.60,446.97) rotate(2.3)" width="13.46" height="25.38" rx="6.34"/>
<path fill="#dca059" d="
  M 458.77 440.79
  Q 458.20 442.92 459.27 443.04
  Q 484.90 445.89 510.01 446.73
  Q 510.40 451.79 510.85 456.74
  C 513.18 482.79 509.06 507.78 498.11 531.44
  C 493.78 540.79 487.91 549.53 482.05 557.99
  C 473.62 570.14 465.46 581.98 458.83 595.04
  Q 451.71 609.06 448.16 624.19
  Q 447.66 626.34 446.21 627.72
  Q 445.78 628.13 445.18 628.18
  C 441.50 628.49 436.70 626.93 436.13 622.52
  Q 435.77 619.73 435.74 617.18
  Q 435.38 585.12 445.28 552.95
  Q 447.63 545.28 450.13 537.52
  Q 451.40 533.55 453.24 522.40
  Q 454.67 513.73 454.60 507.05
  Q 454.41 490.28 447.37 474.56
  C 453.06 473.51 462.88 471.08 464.24 464.30
  A 2.34 2.22 -73.3 0 0 462.93 461.70
  Q 462.46 461.50 461.62 461.73
  Q 452.96 464.18 444.23 466.86
  Q 440.32 459.09 440.50 449.99
  Q 448.76 445.34 457.28 440.82
  Q 457.66 440.61 458.77 440.79
  Z"
/>
<rect fill="#7a4d16" x="-6.61" y="-12.64" transform="translate(286.79,456.34) rotate(1.8)" width="13.22" height="25.28" rx="6.18"/>
<path fill="#dca059" d="
  M 518.85 447.09
  L 582.92 448.52
  C 584.86 470.27 580.09 494.19 567.02 511.80
  Q 560.49 520.60 553.57 529.18
  C 550.31 533.23 547.00 538.16 544.65 542.84
  Q 533.75 564.57 529.88 589.06
  C 528.76 596.13 519.98 597.33 516.57 591.22
  C 506.24 572.70 504.35 550.03 512.45 530.53
  Q 515.94 522.13 519.90 513.63
  C 522.66 507.70 525.07 500.97 525.70 494.54
  Q 526.76 483.72 524.57 473.00
  Q 523.42 467.38 518.85 447.09
  Z"
/>
<path fill="#7a4d16" d="
  M 447.37 474.56
  Q 440.39 475.64 437.49 476.54
  Q 421.75 481.42 406.09 488.14
  Q 403.05 489.44 398.89 489.25
  Q 398.24 489.22 398.20 488.57
  C 397.67 479.75 437.00 468.75 444.23 466.86
  Q 452.96 464.18 461.62 461.73
  Q 462.46 461.50 462.93 461.70
  A 2.34 2.22 -73.3 0 1 464.24 464.30
  C 462.88 471.08 453.06 473.51 447.37 474.56
  Z"
/>
<path fill="#7a4d16" d="
  M 174.02 462.26
  Q 174.37 462.97 175.25 463.00
  Q 216.17 464.37 256.74 471.71
  Q 259.05 472.13 258.61 474.44
  L 258.54 474.79
  Q 258.26 476.26 256.76 476.11
  Q 216.10 471.93 174.50 471.01
  Q 172.34 470.97 172.78 472.63
  Q 171.10 470.84 168.75 470.82
  Q 147.17 470.61 125.75 469.92
  C 124.18 469.87 120.87 469.42 120.18 467.65
  A 1.87 1.87 0.0 0 1 121.44 465.17
  Q 129.90 462.93 138.30 462.55
  Q 155.06 461.80 172.76 462.40
  Q 173.41 462.42 174.02 462.26
  Z"
/>
<path fill="#dca059" d="
  M 1080.00 468.23
  L 1080.00 473.59
  Q 1079.63 474.08 1079.19 474.24
  L 1080.00 468.23
  Z"
/>
<path fill="#7a4d16" d="
  M 331.88 497.07
  Q 331.46 497.54 331.20 498.11
  Q 327.00 507.36 323.12 516.05
  Q 322.00 518.55 319.31 518.04
  Q 318.16 517.83 317.59 516.21
  A 2.09 2.06 -43.6 0 1 317.64 514.70
  L 325.42 496.49
  A 1.02 1.01 -61.3 0 0 325.06 495.25
  C 318.59 490.87 313.62 487.06 311.15 479.08
  C 310.62 477.38 311.66 475.82 313.34 475.45
  Q 325.67 472.71 339.50 470.60
  C 341.93 470.23 343.95 471.46 344.70 473.87
  Q 344.84 474.32 344.66 474.75
  L 337.15 492.72
  A 1.35 1.34 39.3 0 0 337.28 494.01
  Q 342.73 502.04 349.90 508.76
  C 351.33 510.10 352.14 512.61 350.64 514.23
  C 348.01 517.08 343.06 511.51 341.37 509.42
  Q 336.73 503.74 332.44 497.11
  A 0.35 0.35 0.0 0 0 331.88 497.07
  Z"
/>
<path fill="#7a4d16" d="
  M 170.33 508.13
  Q 169.50 507.63 168.75 507.73
  Q 156.24 509.47 142.75 510.73
  Q 139.21 511.06 135.86 510.31
  A 1.99 1.98 -89.1 0 1 134.33 508.73
  Q 133.97 506.78 135.50 506.26
  Q 150.74 501.00 167.00 497.95
  Q 167.82 497.79 168.47 497.24
  Q 168.86 497.85 170.00 497.66
  Q 193.90 493.75 212.29 490.02
  Q 224.91 487.45 231.97 486.98
  Q 242.92 486.26 252.01 486.71
  C 254.01 486.80 256.04 487.45 256.69 489.54
  A 1.58 1.58 0.0 0 1 255.22 491.59
  Q 239.48 491.93 224.20 494.70
  Q 217.35 495.94 204.56 499.23
  Q 188.50 503.36 172.23 506.90
  Q 171.24 507.12 170.33 508.13
  Z"
/>
<path fill="#cc5946" d="
  M 1080.00 492.61
  L 1080.00 783.98
  Q 1076.93 763.86 1063.85 750.16
  Q 1050.88 736.56 1032.68 733.08
  Q 1026.90 731.98 1012.75 731.98
  Q 948.53 732.00 880.25 732.13
  Q 879.90 732.13 879.41 732.23
  Q 879.39 732.21 879.33 732.12
  Q 879.27 732.04 879.17 732.04
  Q 830.21 731.89 787.73 732.09
  Q 774.83 732.15 768.21 730.79
  C 744.44 725.91 725.85 707.57 721.16 683.68
  Q 719.81 676.83 719.90 667.08
  Q 720.15 639.66 719.90 611.72
  Q 719.80 600.91 721.21 594.10
  C 726.05 570.78 743.55 552.93 766.70 547.48
  Q 773.02 545.99 785.42 545.99
  Q 832.56 545.96 879.46 546.04
  Q 879.56 546.04 879.46 546.00
  Q 879.45 545.99 879.44 545.99
  Q 946.18 545.99 1012.76 546.01
  Q 1027.24 546.01 1033.01 544.86
  C 1054.85 540.48 1072.64 523.81 1078.17 502.00
  Q 1078.98 498.82 1080.00 492.61
  Z
  M 870.51 675.14
  Q 872.74 672.25 876.40 672.25
  L 941.25 672.25
  A 3.75 3.75 0.0 0 0 945.00 668.50
  L 945.00 595.06
  Q 945.00 591.02 940.96 591.02
  Q 907.35 590.97 876.50 590.95
  C 868.09 590.94 861.00 597.37 861.00 605.95
  Q 861.01 644.79 860.99 683.16
  A 3.83 3.82 90.0 0 0 864.81 686.99
  Q 898.58 687.02 933.47 686.98
  C 938.50 686.97 938.63 679.66 933.60 679.65
  Q 902.85 679.60 870.67 679.65
  Q 867.04 679.66 869.26 676.78
  Q 870.28 675.45 870.51 675.14
  Z"
/>
<path fill="#7a4d16" d="
  M 176.57 532.25
  Q 160.68 535.69 145.23 538.62
  Q 142.77 539.09 140.74 538.25
  A 1.35 1.34 -49.4 0 1 140.56 535.86
  C 148.97 530.66 159.34 527.53 168.76 525.10
  Q 169.67 524.86 171.24 524.01
  Q 171.55 524.31 172.00 524.17
  Q 205.86 514.21 239.77 504.33
  Q 241.48 503.83 242.47 505.33
  Q 242.75 505.76 242.81 506.22
  Q 243.13 508.84 240.65 509.75
  Q 210.35 520.82 180.49 530.04
  Q 179.33 530.40 176.57 532.25
  Z"
/>
<path fill="#7a4d16" d="
  M 333.27 524.49
  C 337.66 526.14 342.02 525.22 345.39 522.10
  A 2.46 2.45 50.5 0 1 349.04 522.46
  Q 351.29 525.57 348.24 528.49
  Q 342.02 534.42 333.15 531.23
  Q 330.12 530.13 329.67 526.83
  Q 329.65 526.70 329.67 526.57
  Q 330.05 523.28 333.27 524.49
  Z"
/>
<path fill="#7a4d16" d="
  M 374.31 597.21
  Q 367.88 614.88 365.59 634.67
  Q 363.46 643.96 362.94 652.25
  Q 361.44 675.83 360.58 699.07
  Q 360.54 700.24 361.39 699.42
  Q 369.67 691.41 372.68 679.08
  C 373.18 677.02 375.49 675.43 377.16 677.31
  Q 378.72 679.06 378.35 681.62
  Q 376.02 697.88 362.18 710.15
  C 352.23 718.99 341.60 726.27 333.24 736.90
  Q 324.44 749.12 325.53 764.15
  Q 328.01 776.11 335.45 786.80
  Q 351.08 809.25 374.37 823.76
  A 0.38 0.37 -67.8 0 0 374.93 823.52
  Q 375.00 823.23 374.80 823.03
  Q 364.65 812.64 359.84 799.65
  Q 359.05 797.51 360.97 796.48
  C 362.29 795.77 364.05 796.96 364.89 797.93
  Q 368.81 802.46 372.89 808.03
  C 376.11 812.42 383.94 822.29 390.32 818.69
  A 2.03 2.03 0.0 0 0 390.22 815.11
  Q 372.12 806.15 369.99 785.42
  C 369.43 779.96 375.23 781.20 376.64 784.71
  C 380.42 794.10 383.41 801.49 392.32 806.60
  Q 394.14 807.64 394.79 805.65
  Q 395.33 803.98 395.17 802.18
  C 394.73 797.42 393.88 792.72 392.40 788.31
  Q 389.21 778.81 386.68 769.23
  Q 386.40 768.17 387.40 767.69
  L 390.61 766.17
  A 1.22 1.22 0.0 0 1 392.07 766.50
  L 400.22 776.28
  Q 400.78 776.96 401.55 776.52
  Q 408.98 772.25 416.65 767.33
  C 428.41 759.79 436.73 751.14 441.14 738.17
  Q 442.37 734.55 445.31 719.20
  Q 447.12 709.76 448.85 700.10
  Q 451.31 679.12 463.38 661.94
  C 466.17 659.15 474.40 652.35 478.39 654.31
  A 2.15 2.14 -58.1 0 1 479.14 657.55
  Q 464.22 676.71 460.60 699.76
  Q 456.92 723.20 449.52 747.09
  A 0.86 0.86 0.0 0 0 450.12 748.18
  C 451.67 748.59 453.36 749.05 454.97 749.02
  Q 477.51 748.72 500.00 748.71
  Q 518.40 748.71 534.58 740.24
  A 0.67 0.67 0.0 0 0 534.76 739.18
  C 515.82 718.71 508.76 691.17 519.47 664.88
  Q 519.88 663.87 520.96 664.06
  L 523.56 664.50
  Q 524.77 664.71 524.46 665.90
  C 519.68 684.33 522.71 702.22 533.18 717.81
  Q 548.30 740.33 571.14 753.04
  Q 586.26 761.45 603.87 762.27
  A 1.03 1.03 0.0 0 0 604.92 761.47
  L 606.01 756.64
  A 1.13 1.11 -83.5 0 1 607.10 755.76
  L 611.48 755.75
  A 1.57 1.57 0.0 0 1 613.00 756.87
  Q 614.45 761.76 614.64 767.33
  Q 615.33 788.50 611.28 808.93
  Q 610.51 812.84 606.39 812.31
  Q 595.14 810.86 585.64 815.10
  C 574.59 820.04 568.27 829.82 570.02 842.09
  A 0.76 0.75 85.5 0 0 570.76 842.73
  L 577.24 842.76
  A 0.76 0.76 0.0 0 0 578.00 842.11
  C 580.40 826.71 590.92 817.75 606.82 818.66
  C 608.75 818.77 612.76 820.18 612.28 822.78
  A 2.10 2.09 2.6 0 1 610.42 824.48
  C 599.83 825.47 589.43 828.22 587.98 840.76
  Q 587.79 842.42 589.46 842.33
  L 601.02 841.73
  Q 601.71 841.70 602.02 841.09
  C 605.60 834.26 610.37 829.72 618.19 827.75
  Q 620.98 827.05 622.52 829.33
  A 1.71 1.70 55.2 0 1 622.11 831.66
  L 614.16 837.39
  Q 608.69 841.33 615.43 841.04
  Q 622.10 840.75 631.00 838.54
  Q 637.94 836.81 644.77 830.67
  Q 648.28 827.53 651.09 821.53
  Q 657.42 808.08 661.35 796.31
  Q 666.21 781.76 670.17 766.84
  Q 677.30 745.23 680.62 723.03
  L 683.74 711.49
  L 692.57 655.00
  L 697.91 632.07
  Q 700.50 639.50 700.40 646.37
  Q 700.30 652.84 699.25 661.61
  Q 689.31 745.19 661.98 818.48
  C 656.03 834.45 645.94 844.79 628.50 846.99
  Q 597.68 850.89 571.48 849.43
  C 559.51 848.76 557.64 839.23 560.32 829.52
  C 564.32 815.01 576.71 806.52 591.06 803.84
  Q 595.17 803.07 599.52 802.73
  A 3.60 3.59 0.8 0 0 602.82 799.52
  L 605.33 774.75
  Q 605.43 773.79 604.50 773.53
  Q 603.09 773.14 601.54 773.13
  Q 582.36 772.91 565.06 762.69
  Q 555.68 757.15 545.51 748.64
  C 543.01 746.55 539.03 747.18 538.30 750.71
  Q 531.53 783.74 527.07 801.50
  C 523.93 814.05 514.57 821.31 502.40 824.07
  Q 478.82 829.42 454.33 826.96
  Q 448.26 826.35 442.21 823.90
  C 426.67 817.60 433.20 798.06 441.97 789.46
  Q 445.48 786.02 448.99 782.81
  Q 459.52 773.18 464.30 761.16
  Q 465.34 758.55 462.54 758.04
  Q 454.32 756.55 445.67 755.30
  C 444.29 755.10 443.06 755.31 442.14 756.42
  C 431.96 768.78 418.65 776.95 403.92 783.33
  A 2.18 2.18 0.0 0 0 402.67 785.84
  C 407.02 803.73 404.50 830.03 381.12 832.62
  C 369.81 833.87 362.28 828.68 354.40 821.36
  Q 348.08 815.49 342.04 809.15
  Q 339.69 806.62 337.18 804.08
  C 335.83 802.71 333.59 802.56 333.23 804.80
  Q 328.79 832.91 303.79 847.03
  C 287.68 856.13 249.79 855.78 249.60 829.20
  C 249.53 818.95 255.70 809.05 263.34 802.22
  C 264.56 801.12 265.29 799.52 264.64 797.89
  Q 252.64 767.95 244.57 734.18
  C 242.28 724.58 241.11 715.55 240.55 705.72
  Q 240.44 703.71 239.16 703.01
  Q 231.99 699.08 224.88 694.60
  Q 217.27 689.80 210.92 683.97
  Q 189.19 663.06 182.29 633.98
  Q 178.02 615.99 178.34 597.50
  Q 178.60 582.22 180.23 567.00
  L 180.72 558.76
  C 183.35 558.89 187.32 557.66 187.03 561.99
  C 185.49 584.82 185.99 608.30 192.01 629.97
  C 201.97 665.89 227.78 689.22 262.50 699.88
  Q 293.77 709.49 325.71 709.30
  Q 337.79 709.23 349.70 709.10
  Q 350.51 709.09 350.33 708.30
  C 347.95 697.79 347.38 687.05 348.06 676.34
  C 350.20 642.42 354.95 609.86 367.80 579.78
  C 375.04 562.83 385.11 547.28 398.72 535.23
  Q 400.48 533.68 401.71 533.40
  C 403.44 533.00 406.83 533.94 406.53 536.35
  Q 406.43 537.13 405.58 538.42
  C 393.00 557.40 382.30 576.03 374.31 597.21
  Z
  M 285.90 811.55
  C 281.68 813.49 278.42 815.90 277.25 820.79
  Q 274.63 831.73 277.52 842.93
  A 1.75 1.75 0.0 0 0 279.20 844.25
  Q 292.51 844.42 303.04 836.61
  C 310.85 830.81 319.56 821.44 322.38 811.70
  Q 324.67 803.76 325.27 796.02
  C 325.41 794.27 325.91 792.69 324.89 791.05
  Q 318.70 781.14 316.38 771.39
  C 312.17 753.68 318.65 737.78 330.61 724.69
  Q 332.12 723.04 329.89 723.18
  C 322.65 723.62 315.43 723.55 308.14 722.58
  Q 278.15 718.56 249.11 708.93
  A 0.49 0.49 0.0 0 0 248.48 709.49
  C 254.48 740.47 264.50 770.79 274.63 800.28
  C 275.40 802.52 274.27 804.93 272.31 806.15
  Q 256.03 816.21 258.30 836.23
  A 1.52 1.51 -78.3 0 0 259.04 837.36
  L 265.39 841.08
  A 0.98 0.98 0.0 0 0 266.86 840.07
  Q 265.65 832.95 266.49 826.18
  C 267.40 818.78 271.14 810.24 278.35 807.61
  Q 282.84 805.97 286.24 810.05
  Q 287.05 811.03 285.90 811.55
  Z
  M 459.15 796.95
  Q 460.44 799.53 457.99 800.91
  Q 449.25 805.86 450.33 816.61
  C 450.46 817.88 451.20 819.03 452.59 819.08
  Q 475.08 819.91 494.12 817.42
  C 503.25 816.22 511.79 812.06 516.71 804.09
  Q 518.92 800.50 520.32 793.56
  Q 523.98 775.41 528.05 757.96
  A 1.43 1.42 -0.3 0 0 526.32 756.26
  C 508.83 760.54 489.73 759.88 471.39 758.75
  A 2.07 2.06 6.3 0 0 469.23 760.47
  Q 466.75 775.44 456.01 786.49
  Q 452.77 789.82 449.31 793.04
  Q 444.98 797.08 443.39 800.17
  C 441.98 802.91 438.89 811.19 440.37 814.09
  A 0.44 0.44 0.0 0 0 441.15 814.09
  Q 443.03 810.36 444.06 806.53
  C 445.20 802.28 448.21 798.98 451.81 796.90
  Q 453.03 796.19 454.41 795.91
  Q 458.24 795.12 459.15 796.95
  Z"
/>
<path fill="#fcf2f1" d="
  M 180.23 567.00
  Q 178.60 582.22 178.34 597.50
  Q 178.02 615.99 182.29 633.98
  Q 189.19 663.06 210.92 683.97
  Q 134.80 684.04 59.00 684.07
  C 32.14 684.08 8.11 666.02 1.76 639.56
  Q 0.82 635.62 0.00 631.61
  L 0.00 618.38
  Q 2.97 601.66 12.11 589.88
  Q 25.66 572.42 46.84 568.21
  Q 52.99 566.99 66.75 566.99
  Q 123.44 567.01 180.23 567.00
  Z"
/>
<path fill="#dca059" d="
  M 365.59 634.67
  Q 367.88 614.88 374.31 597.21
  Q 378.03 596.06 381.34 594.43
  Q 388.02 591.13 388.07 591.11
  Q 397.46 587.42 407.97 587.94
  Q 415.64 588.33 421.69 589.84
  Q 428.68 591.59 426.34 597.32
  C 424.53 601.77 417.40 606.40 413.09 608.81
  Q 389.56 621.98 365.59 634.67
  Z"
/>
<path fill="#ffffff" d="
  M 870.51 675.14
  Q 870.28 675.45 869.26 676.78
  Q 867.04 679.66 870.67 679.65
  Q 902.85 679.60 933.60 679.65
  C 938.63 679.66 938.50 686.97 933.47 686.98
  Q 898.58 687.02 864.81 686.99
  A 3.83 3.82 90.0 0 1 860.99 683.16
  Q 861.01 644.79 861.00 605.95
  C 861.00 597.37 868.09 590.94 876.50 590.95
  Q 907.35 590.97 940.96 591.02
  Q 945.00 591.02 945.00 595.06
  L 945.00 668.50
  A 3.75 3.75 0.0 0 1 941.25 672.25
  L 876.40 672.25
  Q 872.74 672.25 870.51 675.14
  Z
  M 900.7624 623.9884
  A 7.69 5.13 75.6 0 0 903.8188 615.2642
  A 7.69 5.13 75.6 0 0 896.9376 609.0916
  A 7.69 5.13 75.6 0 0 893.8812 617.8158
  A 7.69 5.13 75.6 0 0 900.7624 623.9884
  Z
  M 910.8611 623.9586
  A 7.68 5.15 104.7 0 0 917.7914 617.8369
  A 7.68 5.15 104.7 0 0 914.7589 609.1014
  A 7.68 5.15 104.7 0 0 907.8286 615.2231
  A 7.68 5.15 104.7 0 0 910.8611 623.9586
  Z
  M 891.8578 632.7507
  A 7.46 5.27 58.5 0 0 892.4534 623.6364
  A 7.46 5.27 58.5 0 0 884.0622 620.0293
  A 7.46 5.27 58.5 0 0 883.4666 629.1436
  A 7.46 5.27 58.5 0 0 891.8578 632.7507
  Z
  M 920.1394 632.6932
  A 7.44 5.27 121.8 0 0 928.5389 629.1471
  A 7.44 5.27 121.8 0 0 927.9806 620.0468
  A 7.44 5.27 121.8 0 0 919.5811 623.5929
  A 7.44 5.27 121.8 0 0 920.1394 632.6932
  Z
  M 907.03 648.49
  C 912.19 649.25 920.19 654.39 923.19 646.72
  C 924.20 644.15 922.50 641.33 920.56 639.74
  Q 915.70 635.80 912.58 631.09
  C 908.87 625.51 903.54 624.55 899.40 630.48
  C 897.35 633.42 895.26 636.29 892.23 638.26
  C 888.44 640.73 886.13 644.44 889.57 648.66
  C 894.21 654.35 901.16 647.62 907.03 648.49
  Z"
/>
<ellipse fill="#cc5946" cx="0.00" cy="0.00" transform="translate(898.85,616.54) rotate(75.6)" rx="7.69" ry="5.13"/>
<ellipse fill="#cc5946" cx="0.00" cy="0.00" transform="translate(912.81,616.53) rotate(104.7)" rx="7.68" ry="5.15"/>
<ellipse fill="#cc5946" cx="0.00" cy="0.00" transform="translate(887.96,626.39) rotate(58.5)" rx="7.46" ry="5.27"/>
<ellipse fill="#cc5946" cx="0.00" cy="0.00" transform="translate(924.06,626.37) rotate(121.8)" rx="7.44" ry="5.27"/>
<path fill="#cc5946" d="
  M 923.19 646.72
  C 920.19 654.39 912.19 649.25 907.03 648.49
  C 901.16 647.62 894.21 654.35 889.57 648.66
  C 886.13 644.44 888.44 640.73 892.23 638.26
  C 895.26 636.29 897.35 633.42 899.40 630.48
  C 903.54 624.55 908.87 625.51 912.58 631.09
  Q 915.70 635.80 920.56 639.74
  C 922.50 641.33 924.20 644.15 923.19 646.72
  Z"
/>
<path fill="#cc5946" d="
  M 0.00 631.61
  Q 0.82 635.62 1.76 639.56
  C 8.11 666.02 32.14 684.08 59.00 684.07
  Q 134.80 684.04 210.92 683.97
  Q 217.27 689.80 224.88 694.60
  Q 231.99 699.08 239.16 703.01
  Q 240.44 703.71 240.55 705.72
  C 241.11 715.55 242.28 724.58 244.57 734.18
  Q 252.64 767.95 264.64 797.89
  C 265.29 799.52 264.56 801.12 263.34 802.22
  C 255.70 809.05 249.53 818.95 249.60 829.20
  C 249.79 855.78 287.68 856.13 303.79 847.03
  Q 328.79 832.91 333.23 804.80
  C 333.59 802.56 335.83 802.71 337.18 804.08
  Q 339.69 806.62 342.04 809.15
  C 342.02 838.43 322.12 863.25 293.68 868.79
  Q 287.37 870.02 273.76 870.02
  Q 235.13 869.99 196.50 869.99
  Q 196.07 869.99 195.20 870.31
  Q 194.85 870.15 194.50 870.15
  Q 132.51 869.99 67.50 869.97
  Q 53.18 869.97 47.49 871.05
  C 24.09 875.48 5.57 893.89 1.11 917.51
  Q 0.63 920.01 0.00 922.47
  L 0.00 631.61
  Z
  M 143.96 741.76
  C 140.75 750.43 142.45 764.89 153.85 765.58
  C 161.38 766.04 166.05 760.29 166.55 752.96
  C 166.91 747.62 168.02 727.13 158.97 729.10
  Q 147.74 731.55 143.96 741.76
  Z
  M 199.57 742.72
  C 197.34 735.70 191.22 729.85 183.68 729.07
  C 174.80 728.16 176.31 749.43 176.83 754.34
  C 178.07 766.16 193.19 770.27 198.69 759.26
  Q 202.43 751.78 199.57 742.72
  Z
  M 128.58 767.37
  C 124.56 772.86 125.65 781.38 128.64 787.27
  C 132.61 795.10 143.29 794.01 146.34 785.83
  Q 148.48 780.07 144.22 775.18
  Q 139.30 769.52 132.66 766.40
  C 131.08 765.66 129.68 765.87 128.58 767.37
  Z
  M 198.23 776.00
  C 195.24 779.58 195.81 785.29 198.30 788.62
  C 202.87 794.73 211.82 793.57 214.98 786.57
  C 217.51 780.98 218.74 771.85 214.13 766.88
  C 210.81 763.30 200.56 773.21 198.23 776.00
  Z
  M 171.20 822.33
  A 1.11 1.11 0.0 0 1 172.14 822.33
  Q 182.28 827.17 193.31 824.92
  Q 198.79 823.80 202.45 818.95
  C 207.32 812.51 205.97 801.98 197.33 799.25
  C 192.08 797.59 188.65 794.57 186.99 788.99
  C 185.71 784.72 185.53 779.33 182.52 775.92
  C 175.53 768.00 162.57 769.65 158.60 779.53
  C 157.70 781.77 157.34 784.55 156.93 786.96
  Q 155.88 793.11 151.18 796.73
  C 149.07 798.35 146.49 798.73 144.14 799.92
  Q 140.00 802.03 138.81 805.99
  Q 136.00 815.28 143.15 821.56
  Q 146.05 824.10 149.54 824.84
  Q 160.87 827.25 171.20 822.33
  Z"
/>
<path fill="#dca059" d="
  M 692.57 655.00
  L 683.74 711.49
  Q 668.94 710.75 658.25 711.43
  Q 653.48 711.73 647.75 713.29
  Q 642.90 714.61 637.60 717.64
  Q 629.16 722.46 621.59 724.93
  C 610.85 728.43 598.13 724.89 606.08 710.60
  C 612.20 699.60 621.22 691.51 631.38 683.86
  Q 658.70 663.29 692.57 655.00
  Z"
/>
<path fill="#dca059" d="
  M 463.38 661.94
  Q 451.31 679.12 448.85 700.10
  Q 427.15 688.24 403.56 680.88
  C 397.17 678.88 392.32 677.11 388.21 672.90
  Q 383.63 668.21 388.13 663.24
  A 2.02 2.02 0.0 0 1 389.22 662.60
  Q 394.71 661.40 399.01 660.78
  Q 431.37 656.17 463.38 661.94
  Z"
/>
<path fill="#dca059" d="
  M 285.90 811.55
  Q 287.05 811.03 286.24 810.05
  Q 282.84 805.97 278.35 807.61
  C 271.14 810.24 267.40 818.78 266.49 826.18
  Q 265.65 832.95 266.86 840.07
  A 0.98 0.98 0.0 0 1 265.39 841.08
  L 259.04 837.36
  A 1.52 1.51 -78.3 0 1 258.30 836.23
  Q 256.03 816.21 272.31 806.15
  C 274.27 804.93 275.40 802.52 274.63 800.28
  C 264.50 770.79 254.48 740.47 248.48 709.49
  A 0.49 0.49 0.0 0 1 249.11 708.93
  Q 278.15 718.56 308.14 722.58
  C 315.43 723.55 322.65 723.62 329.89 723.18
  Q 332.12 723.04 330.61 724.69
  C 318.65 737.78 312.17 753.68 316.38 771.39
  Q 318.70 781.14 324.89 791.05
  C 325.91 792.69 325.41 794.27 325.27 796.02
  Q 324.67 803.76 322.38 811.70
  C 319.56 821.44 310.85 830.81 303.04 836.61
  Q 292.51 844.42 279.20 844.25
  A 1.75 1.75 0.0 0 1 277.52 842.93
  Q 274.63 831.73 277.25 820.79
  C 278.42 815.90 281.68 813.49 285.90 811.55
  Z"
/>
<path fill="#dca059" d="
  M 382.44 737.90
  Q 368.07 736.31 351.96 732.18
  Q 348.10 731.19 346.47 727.91
  C 344.77 724.47 351.25 723.68 353.02 722.91
  Q 359.81 719.98 366.45 716.43
  C 377.04 710.76 390.21 709.84 402.27 713.31
  Q 417.20 717.60 428.27 730.36
  Q 431.67 734.28 432.60 737.68
  Q 433.66 741.60 433.61 745.86
  Q 433.51 754.03 424.62 752.37
  C 415.50 750.67 408.19 744.94 399.83 741.79
  Q 392.43 739.00 382.44 737.90
  Z"
/>
<path fill="#dca059" d="
  M 680.62 723.03
  Q 677.30 745.23 670.17 766.84
  Q 667.89 766.73 666.01 766.62
  Q 647.16 765.51 629.50 764.06
  Q 627.06 763.86 625.96 761.71
  C 624.15 758.17 625.04 755.82 627.98 753.33
  Q 648.91 735.62 667.60 726.10
  Q 672.68 723.51 680.62 723.03
  Z"
/>
<path fill="#ffffff" d="
  M 143.96 741.76
  Q 147.74 731.55 158.97 729.10
  C 168.02 727.13 166.91 747.62 166.55 752.96
  C 166.05 760.29 161.38 766.04 153.85 765.58
  C 142.45 764.89 140.75 750.43 143.96 741.76
  Z"
/>
<path fill="#ffffff" d="
  M 183.68 729.07
  C 191.22 729.85 197.34 735.70 199.57 742.72
  Q 202.43 751.78 198.69 759.26
  C 193.19 770.27 178.07 766.16 176.83 754.34
  C 176.31 749.43 174.80 728.16 183.68 729.07
  Z"
/>
<path fill="#fcf2f1" d="
  M 1080.00 783.98
  L 1080.00 796.45
  Q 1078.99 798.37 1079.10 800.86
  C 1074.63 824.50 1056.53 843.13 1033.17 847.79
  Q 1026.55 849.11 1013.84 849.08
  Q 946.71 848.91 879.80 849.02
  Q 879.45 849.02 879.45 848.67
  L 879.41 732.23
  Q 879.90 732.13 880.25 732.13
  Q 948.53 732.00 1012.75 731.98
  Q 1026.90 731.98 1032.68 733.08
  Q 1050.88 736.56 1063.85 750.16
  Q 1076.93 763.86 1080.00 783.98
  Z"
/>
<path fill="#dca059" d="
  M 333.24 736.90
  Q 344.48 740.96 355.48 744.80
  C 356.66 745.21 357.89 746.18 358.31 747.42
  Q 359.44 750.85 355.78 752.56
  Q 345.84 757.21 337.99 760.42
  Q 332.56 762.65 325.53 764.15
  Q 324.44 749.12 333.24 736.90
  Z"
/>
<path fill="#dca059" d="
  M 459.15 796.95
  Q 458.24 795.12 454.41 795.91
  Q 453.03 796.19 451.81 796.90
  C 448.21 798.98 445.20 802.28 444.06 806.53
  Q 443.03 810.36 441.15 814.09
  A 0.44 0.44 0.0 0 1 440.37 814.09
  C 438.89 811.19 441.98 802.91 443.39 800.17
  Q 444.98 797.08 449.31 793.04
  Q 452.77 789.82 456.01 786.49
  Q 466.75 775.44 469.23 760.47
  A 2.07 2.06 6.3 0 1 471.39 758.75
  C 489.73 759.88 508.83 760.54 526.32 756.26
  A 1.43 1.42 -0.3 0 1 528.05 757.96
  Q 523.98 775.41 520.32 793.56
  Q 518.92 800.50 516.71 804.09
  C 511.79 812.06 503.25 816.22 494.12 817.42
  Q 475.08 819.91 452.59 819.08
  C 451.20 819.03 450.46 817.88 450.33 816.61
  Q 449.25 805.86 457.99 800.91
  Q 460.44 799.53 459.15 796.95
  Z"
/>
<path fill="#ffffff" d="
  M 128.64 787.27
  C 125.65 781.38 124.56 772.86 128.58 767.37
  C 129.68 765.87 131.08 765.66 132.66 766.40
  Q 139.30 769.52 144.22 775.18
  Q 148.48 780.07 146.34 785.83
  C 143.29 794.01 132.61 795.10 128.64 787.27
  Z"
/>
<path fill="#ffffff" d="
  M 198.30 788.62
  C 195.81 785.29 195.24 779.58 198.23 776.00
  C 200.56 773.21 210.81 763.30 214.13 766.88
  C 218.74 771.85 217.51 780.98 214.98 786.57
  C 211.82 793.57 202.87 794.73 198.30 788.62
  Z"
/>
<path fill="#ffffff" d="
  M 171.20 822.33
  Q 160.87 827.25 149.54 824.84
  Q 146.05 824.10 143.15 821.56
  Q 136.00 815.28 138.81 805.99
  Q 140.00 802.03 144.14 799.92
  C 146.49 798.73 149.07 798.35 151.18 796.73
  Q 155.88 793.11 156.93 786.96
  C 157.34 784.55 157.70 781.77 158.60 779.53
  C 162.57 769.65 175.53 768.00 182.52 775.92
  C 185.53 779.33 185.71 784.72 186.99 788.99
  C 188.65 794.57 192.08 797.59 197.33 799.25
  C 205.97 801.98 207.32 812.51 202.45 818.95
  Q 198.79 823.80 193.31 824.92
  Q 182.28 827.17 172.14 822.33
  A 1.11 1.11 0.0 0 0 171.20 822.33
  Z
  M 166.49 807.75
  A 0.36 0.36 0.0 0 1 166.85 808.11
  L 166.88 815.78
  A 0.36 0.36 0.0 0 0 167.24 816.14
  L 176.03 816.15
  A 0.36 0.36 0.0 0 0 176.39 815.79
  L 176.37 808.11
  A 0.36 0.36 0.0 0 1 176.73 807.75
  L 184.64 807.75
  A 0.36 0.36 0.0 0 0 185.00 807.39
  L 184.99 799.71
  A 0.36 0.36 0.0 0 0 184.63 799.35
  L 176.74 799.40
  A 0.36 0.36 0.0 0 1 176.38 799.04
  L 176.39 791.23
  A 0.36 0.36 0.0 0 0 176.03 790.87
  L 167.23 790.87
  A 0.36 0.36 0.0 0 0 166.87 791.23
  L 166.88 799.03
  A 0.36 0.36 0.0 0 1 166.52 799.39
  L 158.00 799.36
  A 0.36 0.36 0.0 0 0 157.64 799.72
  L 157.60 807.39
  A 0.36 0.36 0.0 0 0 157.96 807.75
  L 166.49 807.75
  Z"
/>
<path fill="#cc5946" d="
  M 166.49 807.75
  L 157.96 807.75
  A 0.36 0.36 0.0 0 1 157.60 807.39
  L 157.64 799.72
  A 0.36 0.36 0.0 0 1 158.00 799.36
  L 166.52 799.39
  A 0.36 0.36 0.0 0 0 166.88 799.03
  L 166.87 791.23
  A 0.36 0.36 0.0 0 1 167.23 790.87
  L 176.03 790.87
  A 0.36 0.36 0.0 0 1 176.39 791.23
  L 176.38 799.04
  A 0.36 0.36 0.0 0 0 176.74 799.40
  L 184.63 799.35
  A 0.36 0.36 0.0 0 1 184.99 799.71
  L 185.00 807.39
  A 0.36 0.36 0.0 0 1 184.64 807.75
  L 176.73 807.75
  A 0.36 0.36 0.0 0 0 176.37 808.11
  L 176.39 815.79
  A 0.36 0.36 0.0 0 1 176.03 816.15
  L 167.24 816.14
  A 0.36 0.36 0.0 0 1 166.88 815.78
  L 166.85 808.11
  A 0.36 0.36 0.0 0 0 166.49 807.75
  Z"
/>
<path fill="#dca059" d="
  M 1080.00 796.45
  L 1080.00 800.78
  Q 1079.60 800.92 1079.10 800.86
  Q 1078.99 798.37 1080.00 796.45
  Z"
/>
<path fill="#fcf2f1" d="
  M 195.20 870.31
  L 194.88 987.00
  L 54.51 987.00
  Q 25.19 984.05 9.31 960.19
  Q 3.34 951.22 1.06 939.50
  Q 0.99 939.15 0.54 938.91
  Q 0.89 936.67 0.00 934.61
  L 0.00 922.47
  Q 0.63 920.01 1.11 917.51
  C 5.57 893.89 24.09 875.48 47.49 871.05
  Q 53.18 869.97 67.50 869.97
  Q 132.51 869.99 194.50 870.15
  Q 194.85 870.15 195.20 870.31
  Z"
/>
<path fill="#dca059" d="
  M 0.00 934.61
  Q 0.89 936.67 0.54 938.91
  L 0.00 938.62
  L 0.00 934.61
  Z"
/>
</svg>
