<?xml version="1.0" encoding="UTF-8" standalone="no"?>
<svg xmlns="http://www.w3.org/2000/svg" version="1.2" baseProfile="tiny" viewBox="0.00 0.00 579.00 579.00">
<g stroke-width="2.00" fill="none" stroke-linecap="butt">
<path stroke="#e79d79" vector-effect="non-scaling-stroke" d="
  M 134.02 114.02
  Q 134.01 114.41 133.53 114.53
  Q 131.29 115.14 129.67 115.58"
/>
<path stroke="#f4cfac" vector-effect="non-scaling-stroke" d="
  M 129.67 115.58
  Q 123.90 115.36 118.41 116.12
  Q 109.11 117.41 109.05 117.42
  Q 104.16 117.89 99.17 118.30
  Q 93.57 118.74 89.77 119.90
  Q 74.07 124.66 63.19 132.52
  Q 60.27 134.63 56.36 138.17
  Q 53.25 141.00 49.86 143.24"
/>
<path stroke="#eca888" vector-effect="non-scaling-stroke" d="
  M 322.91 213.52
  Q 330.08 226.35 337.57 235.18
  Q 350.26 250.14 368.15 263.01
  Q 380.58 271.95 395.85 277.58
  C 413.15 283.97 441.93 285.17 451.88 265.64
  Q 458.04 253.54 457.54 238.32
  Q 456.53 207.51 440.83 181.20
  Q 440.73 181.03 440.62 180.88
  Q 440.22 180.38 440.44 179.17"
/>
<path stroke="#f4cfac" vector-effect="non-scaling-stroke" d="
  M 441.60 178.00
  Q 445.04 179.38 448.73 180.27
  Q 452.70 181.22 455.60 182.52
  C 462.19 185.49 467.58 187.69 473.25 192.99
  Q 480.79 200.05 486.08 207.86"
/>
<path stroke="#eca888" vector-effect="non-scaling-stroke" d="
  M 486.08 207.86
  Q 482.23 214.53 480.10 221.78
  Q 478.70 226.52 477.25 231.25"
/>
<path stroke="#ac7762" vector-effect="non-scaling-stroke" d="
  M 477.25 231.25
  Q 475.68 233.60 475.52 236.75
  Q 474.33 260.17 487.30 279.49
  Q 493.35 288.50 500.98 292.92
  C 505.75 295.69 511.92 297.48 517.80 299.07
  Q 523.94 300.73 517.59 301.01
  Q 510.96 301.30 503.51 303.89
  C 498.16 305.75 492.87 311.10 496.69 316.96
  Q 498.59 319.88 501.29 321.12
  Q 505.55 323.08 510.45 325.40
  C 515.55 327.81 516.06 333.28 517.32 338.03
  Q 517.51 338.77 516.75 338.82
  Q 509.29 339.34 501.16 338.65
  C 482.81 337.11 468.32 325.91 456.89 311.76
  A 0.49 0.49 0.0 0 1 457.11 310.98
  L 462.33 309.15
  Q 464.14 308.51 463.29 306.79
  C 462.68 305.57 461.50 304.54 460.04 304.74
  Q 451.99 305.89 447.84 309.84
  C 444.41 313.10 441.46 319.13 443.54 323.61
  Q 443.79 324.15 444.38 324.26
  C 449.17 325.16 450.20 319.96 451.18 316.67
  A 0.81 0.81 0.0 0 1 452.65 316.49
  Q 455.34 320.95 458.84 324.34
  Q 459.75 325.22 460.65 326.77
  Q 467.44 338.48 475.57 350.17"
/>
<path stroke="#ea9584" vector-effect="non-scaling-stroke" d="
  M 475.57 350.17
  Q 475.22 355.95 472.98 359.77
  C 470.13 364.63 466.37 369.80 465.01 375.30"
/>
<path stroke="#f4cfac" vector-effect="non-scaling-stroke" d="
  M 465.01 375.30
  L 452.65 370.13"
/>
<path stroke="#ac7762" vector-effect="non-scaling-stroke" d="
  M 452.65 370.13
  Q 454.41 362.45 452.71 354.50
  C 452.41 353.15 452.31 351.96 450.72 351.73
  Q 447.94 351.34 448.11 354.12
  C 448.60 362.05 447.87 368.86 443.24 375.52
  Q 442.22 376.98 442.24 375.20
  Q 442.31 368.45 439.96 361.97
  A 1.01 1.01 0.0 0 0 439.23 361.33
  Q 438.22 361.11 437.15 361.40
  Q 436.40 361.60 436.45 362.38
  C 436.97 371.13 436.91 379.08 432.23 386.71
  Q 430.81 389.04 431.12 386.33
  C 431.48 383.25 432.33 380.20 432.24 377.14
  Q 432.06 370.62 429.81 364.70
  Q 429.30 363.37 427.93 363.78
  L 427.66 363.86
  A 1.83 1.82 75.8 0 0 426.40 365.98
  Q 428.24 374.72 425.56 384.27
  C 424.05 389.68 419.34 391.81 414.77 394.29
  Q 413.09 395.20 411.79 394.70
  Q 390.42 386.59 376.71 372.23
  C 368.91 364.06 366.36 354.62 363.40 343.50
  Q 360.80 333.69 358.56 324.26
  A 1.35 1.35 0.0 0 0 357.21 323.22
  L 356.50 323.24
  Q 355.37 323.27 355.47 324.40
  Q 357.22 345.52 359.42 355.11
  Q 362.00 366.31 368.06 373.93
  Q 371.16 377.83 378.93 384.55"
/>
<path stroke="#eca888" vector-effect="non-scaling-stroke" d="
  M 378.93 384.55
  Q 374.61 382.63 370.64 380.43
  Q 364.88 377.24 362.38 376.35
  C 351.49 372.48 335.84 371.99 326.47 379.51
  Q 317.93 386.38 317.72 397.49
  Q 317.70 398.54 318.38 403.50
  Q 318.80 406.57 318.50 409.59"
/>
<path stroke="#ac7762" vector-effect="non-scaling-stroke" d="
  M 318.50 409.59
  Q 301.04 394.46 289.74 376.76
  Q 283.68 367.28 277.91 352.74
  Q 277.47 351.65 276.30 351.54
  Q 275.02 351.42 274.45 353.35
  A 1.93 1.89 -44.4 0 0 274.43 354.33
  Q 278.83 371.65 289.51 387.31
  Q 302.56 406.46 321.33 420.91
  Q 321.99 421.41 321.80 422.16"
/>
<path stroke="#f4cfac" vector-effect="non-scaling-stroke" d="
  M 225.31 408.73
  Q 221.86 407.91 218.52 404.73
  Q 216.68 402.97 213.39 402.86
  A 0.81 0.81 0.0 0 0 212.56 403.75
  Q 212.58 403.93 212.65 404.10
  Q 212.93 404.73 212.23 404.62
  Q 211.97 404.58 211.67 404.80"
/>
<path stroke="#ac7762" vector-effect="non-scaling-stroke" d="
  M 211.67 404.80
  L 208.10 402.36"
/>
<path stroke="#f4cfac" vector-effect="non-scaling-stroke" d="
  M 208.10 402.36
  Q 203.99 398.21 199.70 394.39
  Q 196.25 391.32 190.40 387.55
  C 181.13 381.58 174.40 376.08 164.85 367.32
  Q 163.50 366.08 162.09 365.24
  Q 160.62 364.35 159.08 363.51"
/>
<path stroke="#ac7762" vector-effect="non-scaling-stroke" d="
  M 159.08 363.51
  Q 162.37 354.54 163.23 350.00
  C 167.95 325.17 165.16 298.51 159.26 274.29
  Q 156.06 261.17 152.16 247.41
  A 2.38 2.29 85.9 0 0 150.28 245.72
  Q 149.38 245.58 148.75 247.42
  A 1.70 1.66 48.9 0 0 148.70 248.32
  Q 152.98 268.27 155.73 288.95
  Q 158.56 310.27 157.41 332.73
  Q 157.02 340.35 154.66 349.98
  Q 151.30 363.67 142.19 375.04"
/>
<path stroke="#eca888" vector-effect="non-scaling-stroke" d="
  M 142.19 375.04
  Q 143.04 354.63 139.91 340.00
  C 136.81 325.50 124.87 320.33 116.22 309.92
  Q 112.26 305.17 108.31 300.79
  C 103.28 295.20 97.06 288.94 89.93 286.39
  C 72.62 280.18 53.48 286.80 40.58 299.10
  Q 31.91 307.37 25.59 316.44"
/>
<path stroke="#eca888" vector-effect="non-scaling-stroke" d="
  M 295.64 206.88
  Q 295.80 209.64 295.10 212.89
  C 292.31 225.80 286.82 239.71 277.49 248.64
  C 264.67 260.91 247.57 266.92 229.90 266.19
  Q 215.46 265.61 200.28 258.64
  Q 172.73 246.01 152.40 224.35
  Q 130.31 200.82 120.65 175.58
  Q 118.77 170.69 117.17 164.73
  Q 115.43 158.25 114.89 153.51
  Q 112.68 134.14 125.49 119.99
  Q 127.30 118.00 129.67 115.58"
/>
<path stroke="#9d322b" vector-effect="non-scaling-stroke" d="
  M 498.93 345.90
  L 492.23 344.70
  A 0.68 0.68 0.0 0 0 491.44 345.51
  C 492.81 352.38 493.00 359.19 490.15 365.65
  Q 489.70 366.66 488.94 367.44
  Q 487.40 369.01 486.45 368.45
  Q 485.21 367.73 485.66 366.36
  Q 487.25 361.50 487.68 356.68
  C 488.06 352.41 486.85 348.39 486.38 344.18
  A 1.47 1.47 0.0 0 0 485.54 343.01
  L 475.29 338.16
  A 0.55 0.55 0.0 0 0 474.50 338.62
  Q 474.44 339.53 474.84 340.69
  Q 476.50 345.53 475.57 350.17"
/>
<path stroke="#a76c53" vector-effect="non-scaling-stroke" d="
  M 211.67 404.80
  C 221.34 411.41 225.46 420.79 227.59 431.97"
/>
<path stroke="#9f452f" vector-effect="non-scaling-stroke" d="
  M 227.16 435.23
  Q 225.71 436.85 226.19 438.00"
/>
<path stroke="#a76c53" vector-effect="non-scaling-stroke" d="
  M 560.91 437.65
  C 559.20 426.16 551.68 413.05 540.08 409.04
  Q 538.22 408.40 536.56 409.04
  Q 535.87 409.30 535.64 410.02
  A 1.48 1.47 22.4 0 0 536.38 411.78
  C 543.27 415.24 548.46 422.00 551.10 428.81
  C 552.69 432.90 553.14 437.68 553.85 442.18
  Q 554.19 444.29 556.52 445.63"
/>
<path stroke="#a76c53" vector-effect="non-scaling-stroke" d="
  M 536.96 452.44
  Q 540.32 444.18 537.98 435.01
  C 535.42 425.01 529.08 415.85 518.92 413.39
  A 3.42 3.29 44.3 0 0 517.45 413.38
  Q 515.68 413.76 514.89 415.09
  Q 513.55 417.35 516.06 418.15
  C 528.86 422.21 531.39 435.49 531.09 447.25
  C 531.04 449.23 531.33 451.24 531.43 453.24"
/>
<path stroke="#a76c53" vector-effect="non-scaling-stroke" d="
  M 208.10 402.36
  Q 205.95 402.48 205.41 402.93
  C 203.65 404.38 205.08 406.10 206.40 407.00
  C 213.40 411.74 219.31 421.07 219.58 430.00
  Q 219.74 435.31 219.45 440.79"
/>
<path stroke="#a76c53" vector-effect="non-scaling-stroke" d="
  M 204.57 442.27
  Q 208.43 432.83 204.87 423.66
  Q 201.40 414.72 193.83 405.48
  Q 192.09 403.36 189.92 402.19
  A 1.49 1.49 0.0 0 0 187.88 402.85
  Q 187.05 404.53 188.00 406.22
  Q 190.69 411.05 193.40 415.77
  Q 196.64 421.39 197.69 425.71
  Q 199.82 434.43 196.44 443.30"
/>
<path stroke="#a76c53" vector-effect="non-scaling-stroke" d="
  M 452.65 370.13
  Q 449.81 380.17 441.88 385.82
  Q 439.58 387.45 438.41 388.91
  C 435.45 392.59 433.88 396.23 427.90 393.69
  A 1.33 1.33 0.0 0 0 426.46 393.96
  L 423.66 396.68
  Q 423.01 397.31 423.91 397.45
  Q 438.94 399.69 452.54 404.87
  C 462.05 408.50 471.19 411.88 479.12 418.15
  Q 489.35 426.23 490.22 440.17"
/>
<path stroke="#9f452f" vector-effect="non-scaling-stroke" d="
  M 483.36 462.77
  Q 480.95 462.27 479.99 461.01
  A 2.11 2.10 -55.3 0 1 479.65 459.11
  Q 482.33 450.60 482.26 440.58
  Q 482.22 435.68 480.85 432.88
  Q 477.48 425.99 471.24 422.53
  Q 463.01 417.96 450.37 412.44
  Q 440.28 408.04 431.75 406.05
  C 424.58 404.38 414.49 403.09 407.53 400.77
  Q 397.65 397.48 389.03 391.42
  Q 383.72 387.68 378.93 384.55"
/>
<path stroke="#9f452f" vector-effect="non-scaling-stroke" d="
  M 466.25 467.24
  Q 472.94 459.35 472.04 447.51
  Q 470.74 430.42 459.13 422.66
  Q 457.50 421.57 455.92 422.81
  A 2.08 2.08 0.0 0 0 455.65 425.82
  C 461.92 432.92 466.72 444.75 463.11 453.74
  Q 461.58 457.56 459.88 461.41
  Q 458.55 464.45 460.94 467.26"
/>
<path stroke="#9f452f" vector-effect="non-scaling-stroke" d="
  M 440.71 464.83
  Q 445.54 463.44 448.14 458.34
  C 451.76 451.23 453.56 441.91 451.05 434.15
  C 449.63 429.76 446.13 422.47 440.78 421.97
  A 1.67 1.65 -78.0 0 0 439.06 423.10
  C 438.21 425.61 441.98 431.24 442.59 434.05
  Q 444.41 442.43 442.19 448.46
  Q 439.92 454.62 433.44 462.70"
/>
<path stroke="#a76c53" vector-effect="non-scaling-stroke" d="
  M 159.08 363.51
  C 154.58 375.24 146.41 386.72 135.18 392.93
  A 0.81 0.81 0.0 0 0 134.80 393.88
  C 136.81 400.43 139.56 409.81 147.03 411.97
  C 155.51 414.43 167.58 420.01 171.96 428.10
  Q 173.91 431.71 174.26 434.25
  Q 174.77 437.85 175.14 440.06"
/>
<path stroke="#9f452f" vector-effect="non-scaling-stroke" d="
  M 165.85 453.05
  Q 166.07 450.40 167.45 440.16
  C 168.93 429.23 158.85 422.94 149.74 418.78
  Q 147.44 417.72 145.03 417.46
  C 136.24 416.52 131.44 404.28 130.58 396.99
  Q 130.39 395.40 128.82 395.71
  C 126.68 396.14 123.87 395.44 124.13 392.64
  Q 124.31 390.63 125.78 389.63
  Q 131.71 385.59 136.73 380.98
  Q 139.94 378.03 142.19 375.04"
/>
<path stroke="#9f452f" vector-effect="non-scaling-stroke" d="
  M 318.50 409.59
  Q 328.64 418.41 338.19 424.34
  C 362.60 439.49 392.48 446.43 420.53 454.21
  Q 424.40 455.28 424.49 460.28"
/>
<path stroke="#9f452f" vector-effect="non-scaling-stroke" d="
  M 152.98 459.66
  Q 156.05 451.27 155.67 446.75
  Q 154.30 430.68 140.66 422.35
  Q 139.27 421.50 137.89 421.75
  A 2.06 2.06 0.0 0 0 136.80 425.25
  C 141.55 429.91 145.49 435.06 147.19 441.57
  C 149.02 448.55 147.07 453.56 142.57 458.67
  Q 140.91 460.55 139.59 462.36"
/>
<path stroke="#9f452f" vector-effect="non-scaling-stroke" d="
  M 126.16 464.49
  Q 131.26 454.05 128.93 440.27
  Q 127.53 431.98 123.87 428.78
  Q 121.67 426.86 118.91 427.41
  Q 118.71 427.45 118.54 427.55
  Q 116.04 429.09 118.03 431.25
  C 122.81 436.45 122.57 443.61 121.94 450.41
  C 121.43 455.88 119.66 458.56 117.21 462.73
  Q 116.60 463.78 117.63 466.14"
/>
<path stroke="#9f452f" vector-effect="non-scaling-stroke" d="
  M 496.56 281.81
  Q 489.29 273.44 485.34 263.39
  A 0.52 0.52 0.0 0 1 485.94 262.69
  C 492.72 264.19 494.07 253.39 487.94 251.11
  Q 484.53 249.85 482.60 252.88
  A 0.42 0.42 0.0 0 1 481.84 252.76
  Q 479.75 244.48 478.94 236.33
  C 478.75 234.46 477.99 232.94 477.25 231.25"
/>
<path stroke="#e58975" vector-effect="non-scaling-stroke" d="
  M 492.06 384.00
  Q 484.53 389.10 476.99 388.20
  Q 465.90 386.87 465.01 375.30"
/>
<path stroke="#e79d79" vector-effect="non-scaling-stroke" d="
  M 493.01 215.69
  Q 490.13 213.03 487.56 208.73
  Q 486.98 207.76 486.08 207.86"
/>
<path stroke="#9f452f" vector-effect="non-scaling-stroke" d="
  M 355.51 120.69
  Q 356.03 125.40 357.22 129.96
  Q 358.39 134.49 359.37 139.28
  Q 362.94 156.67 368.74 168.17
  Q 375.41 181.36 388.83 189.83
  C 389.98 190.56 390.72 191.73 390.25 193.13
  A 1.81 1.80 -69.9 0 1 387.89 194.23
  C 379.76 191.07 373.63 185.40 367.76 178.73
  C 365.22 175.84 361.37 176.18 359.36 179.39
  C 357.61 182.18 355.94 185.25 355.77 188.60
  C 355.65 190.78 355.01 196.94 351.96 197.06
  Q 350.78 197.11 350.01 196.16
  C 346.51 191.86 348.67 185.01 350.82 180.46
  Q 354.53 172.61 361.50 170.79
  Q 362.20 170.60 361.85 169.97
  Q 349.82 147.91 349.13 122.32
  Q 349.13 122.24 349.07 122.18
  Q 348.95 122.05 348.81 122.25"
/>
<path stroke="#9f452f" vector-effect="non-scaling-stroke" d="
  M 422.9234 261.8611
  A 9.82 8.73 85.6 0 0 430.8743 251.4002
  A 9.82 8.73 85.6 0 0 421.4166 242.2789
  A 9.82 8.73 85.6 0 0 413.4657 252.7398
  A 9.82 8.73 85.6 0 0 422.9234 261.8611"
/>
</g>
<path fill="#efc39d" d="
  M 134.02 114.02
  Q 134.01 114.41 133.53 114.53
  Q 131.29 115.14 129.67 115.58
  Q 123.90 115.36 118.41 116.12
  Q 109.11 117.41 109.05 117.42
  Q 104.16 117.89 99.17 118.30
  Q 93.57 118.74 89.77 119.90
  Q 74.07 124.66 63.19 132.52
  Q 60.27 134.63 56.36 138.17
  Q 53.25 141.00 49.86 143.24
  Q 49.32 141.86 47.95 141.30
  Q 40.24 138.12 31.99 135.07
  Q 31.06 134.73 28.62 132.90
  C 23.67 129.20 23.66 124.08 25.53 118.83
  C 26.69 115.59 30.78 114.16 33.96 113.64
  Q 38.83 112.84 43.11 112.28
  Q 44.53 112.09 43.33 111.31
  C 40.72 109.60 37.61 107.37 36.24 104.58
  C 33.03 98.06 35.35 88.50 43.26 87.01
  Q 47.98 86.12 51.91 87.42
  Q 54.01 88.11 56.21 88.28
  Q 56.80 88.32 56.97 87.76
  A 0.90 0.89 30.4 0 0 56.74 86.89
  Q 55.16 85.33 54.10 83.29
  C 52.87 80.94 53.32 78.55 53.23 75.99
  C 53.07 71.07 55.81 67.27 60.27 64.64
  Q 62.94 63.07 65.97 63.53
  Q 73.25 64.63 78.23 67.60
  Q 80.09 68.71 80.88 66.70
  Q 83.05 61.16 87.68 57.28
  Q 91.59 54.00 97.74 53.63
  C 109.14 52.95 118.52 62.08 123.48 71.82
  Q 129.53 83.68 132.00 96.24
  Q 132.96 101.13 134.02 114.02
  Z"
/>
<path fill="#de7654" d="
  M 134.02 114.02
  Q 134.46 114.48 134.75 114.51
  Q 149.12 115.70 160.97 120.29
  C 190.18 131.58 213.36 155.18 235.44 177.18
  Q 238.03 179.77 247.28 188.33
  Q 250.50 191.32 254.31 193.19
  Q 254.79 193.43 262.25 196.17
  Q 278.73 202.24 295.64 206.88
  Q 295.80 209.64 295.10 212.89
  C 292.31 225.80 286.82 239.71 277.49 248.64
  C 264.67 260.91 247.57 266.92 229.90 266.19
  Q 215.46 265.61 200.28 258.64
  Q 172.73 246.01 152.40 224.35
  Q 130.31 200.82 120.65 175.58
  Q 118.77 170.69 117.17 164.73
  Q 115.43 158.25 114.89 153.51
  Q 112.68 134.14 125.49 119.99
  Q 127.30 118.00 129.67 115.58
  Q 131.29 115.14 133.53 114.53
  Q 134.01 114.41 134.02 114.02
  Z"
/>
<path fill="#f9dabb" d="
  M 129.67 115.58
  Q 127.30 118.00 125.49 119.99
  Q 112.68 134.14 114.89 153.51
  Q 115.43 158.25 117.17 164.73
  Q 118.77 170.69 120.65 175.58
  Q 130.31 200.82 152.40 224.35
  Q 172.73 246.01 200.28 258.64
  Q 215.46 265.61 229.90 266.19
  C 247.57 266.92 264.67 260.91 277.49 248.64
  C 286.82 239.71 292.31 225.80 295.10 212.89
  Q 295.80 209.64 295.64 206.88
  Q 309.38 211.22 322.91 213.52
  Q 330.08 226.35 337.57 235.18
  Q 350.26 250.14 368.15 263.01
  Q 380.58 271.95 395.85 277.58
  C 413.15 283.97 441.93 285.17 451.88 265.64
  Q 458.04 253.54 457.54 238.32
  Q 456.53 207.51 440.83 181.20
  Q 440.73 181.03 440.62 180.88
  Q 440.22 180.38 440.44 179.17
  Q 441.16 178.73 441.60 178.00
  Q 445.04 179.38 448.73 180.27
  Q 452.70 181.22 455.60 182.52
  C 462.19 185.49 467.58 187.69 473.25 192.99
  Q 480.79 200.05 486.08 207.86
  Q 482.23 214.53 480.10 221.78
  Q 478.70 226.52 477.25 231.25
  Q 475.68 233.60 475.52 236.75
  Q 474.33 260.17 487.30 279.49
  Q 493.35 288.50 500.98 292.92
  C 505.75 295.69 511.92 297.48 517.80 299.07
  Q 523.94 300.73 517.59 301.01
  Q 510.96 301.30 503.51 303.89
  C 498.16 305.75 492.87 311.10 496.69 316.96
  Q 498.59 319.88 501.29 321.12
  Q 505.55 323.08 510.45 325.40
  C 515.55 327.81 516.06 333.28 517.32 338.03
  Q 517.51 338.77 516.75 338.82
  Q 509.29 339.34 501.16 338.65
  C 482.81 337.11 468.32 325.91 456.89 311.76
  A 0.49 0.49 0.0 0 1 457.11 310.98
  L 462.33 309.15
  Q 464.14 308.51 463.29 306.79
  C 462.68 305.57 461.50 304.54 460.04 304.74
  Q 451.99 305.89 447.84 309.84
  C 444.41 313.10 441.46 319.13 443.54 323.61
  Q 443.79 324.15 444.38 324.26
  C 449.17 325.16 450.20 319.96 451.18 316.67
  A 0.81 0.81 0.0 0 1 452.65 316.49
  Q 455.34 320.95 458.84 324.34
  Q 459.75 325.22 460.65 326.77
  Q 467.44 338.48 475.57 350.17
  Q 475.22 355.95 472.98 359.77
  C 470.13 364.63 466.37 369.80 465.01 375.30
  L 452.65 370.13
  Q 454.41 362.45 452.71 354.50
  C 452.41 353.15 452.31 351.96 450.72 351.73
  Q 447.94 351.34 448.11 354.12
  C 448.60 362.05 447.87 368.86 443.24 375.52
  Q 442.22 376.98 442.24 375.20
  Q 442.31 368.45 439.96 361.97
  A 1.01 1.01 0.0 0 0 439.23 361.33
  Q 438.22 361.11 437.15 361.40
  Q 436.40 361.60 436.45 362.38
  C 436.97 371.13 436.91 379.08 432.23 386.71
  Q 430.81 389.04 431.12 386.33
  C 431.48 383.25 432.33 380.20 432.24 377.14
  Q 432.06 370.62 429.81 364.70
  Q 429.30 363.37 427.93 363.78
  L 427.66 363.86
  A 1.83 1.82 75.8 0 0 426.40 365.98
  Q 428.24 374.72 425.56 384.27
  C 424.05 389.68 419.34 391.81 414.77 394.29
  Q 413.09 395.20 411.79 394.70
  Q 390.42 386.59 376.71 372.23
  C 368.91 364.06 366.36 354.62 363.40 343.50
  Q 360.80 333.69 358.56 324.26
  A 1.35 1.35 0.0 0 0 357.21 323.22
  L 356.50 323.24
  Q 355.37 323.27 355.47 324.40
  Q 357.22 345.52 359.42 355.11
  Q 362.00 366.31 368.06 373.93
  Q 371.16 377.83 378.93 384.55
  Q 374.61 382.63 370.64 380.43
  Q 364.88 377.24 362.38 376.35
  C 351.49 372.48 335.84 371.99 326.47 379.51
  Q 317.93 386.38 317.72 397.49
  Q 317.70 398.54 318.38 403.50
  Q 318.80 406.57 318.50 409.59
  Q 301.04 394.46 289.74 376.76
  Q 283.68 367.28 277.91 352.74
  Q 277.47 351.65 276.30 351.54
  Q 275.02 351.42 274.45 353.35
  A 1.93 1.89 -44.4 0 0 274.43 354.33
  Q 278.83 371.65 289.51 387.31
  Q 302.56 406.46 321.33 420.91
  Q 321.99 421.41 321.80 422.16
  Q 319.85 422.94 318.99 422.80
  C 309.82 421.28 299.69 422.41 292.00 421.34
  Q 272.80 418.68 260.01 416.38
  Q 248.37 414.29 233.06 408.38
  C 230.87 407.53 228.49 407.10 226.14 406.54
  Q 225.61 406.41 225.35 406.90
  Q 225.06 407.45 225.31 408.73
  Q 221.86 407.91 218.52 404.73
  Q 216.68 402.97 213.39 402.86
  A 0.81 0.81 0.0 0 0 212.56 403.75
  Q 212.58 403.93 212.65 404.10
  Q 212.93 404.73 212.23 404.62
  Q 211.97 404.58 211.67 404.80
  L 208.10 402.36
  Q 203.99 398.21 199.70 394.39
  Q 196.25 391.32 190.40 387.55
  C 181.13 381.58 174.40 376.08 164.85 367.32
  Q 163.50 366.08 162.09 365.24
  Q 160.62 364.35 159.08 363.51
  Q 162.37 354.54 163.23 350.00
  C 167.95 325.17 165.16 298.51 159.26 274.29
  Q 156.06 261.17 152.16 247.41
  A 2.38 2.29 85.9 0 0 150.28 245.72
  Q 149.38 245.58 148.75 247.42
  A 1.70 1.66 48.9 0 0 148.70 248.32
  Q 152.98 268.27 155.73 288.95
  Q 158.56 310.27 157.41 332.73
  Q 157.02 340.35 154.66 349.98
  Q 151.30 363.67 142.19 375.04
  Q 143.04 354.63 139.91 340.00
  C 136.81 325.50 124.87 320.33 116.22 309.92
  Q 112.26 305.17 108.31 300.79
  C 103.28 295.20 97.06 288.94 89.93 286.39
  C 72.62 280.18 53.48 286.80 40.58 299.10
  Q 31.91 307.37 25.59 316.44
  C 23.38 311.36 22.04 305.21 20.71 301.19
  Q 16.92 289.67 15.23 276.50
  Q 14.65 271.99 14.13 267.03
  Q 10.84 235.62 16.52 209.02
  Q 22.23 182.31 38.36 158.12
  Q 41.24 153.80 49.86 143.24
  Q 53.25 141.00 56.36 138.17
  Q 60.27 134.63 63.19 132.52
  Q 74.07 124.66 89.77 119.90
  Q 93.57 118.74 99.17 118.30
  Q 104.16 117.89 109.05 117.42
  Q 109.11 117.41 118.41 116.12
  Q 123.90 115.36 129.67 115.58
  Z"
/>
<path fill="#5f1409" d="
  M 355.51 120.69
  Q 356.03 125.40 357.22 129.96
  Q 358.39 134.49 359.37 139.28
  Q 362.94 156.67 368.74 168.17
  Q 375.41 181.36 388.83 189.83
  C 389.98 190.56 390.72 191.73 390.25 193.13
  A 1.81 1.80 -69.9 0 1 387.89 194.23
  C 379.76 191.07 373.63 185.40 367.76 178.73
  C 365.22 175.84 361.37 176.18 359.36 179.39
  C 357.61 182.18 355.94 185.25 355.77 188.60
  C 355.65 190.78 355.01 196.94 351.96 197.06
  Q 350.78 197.11 350.01 196.16
  C 346.51 191.86 348.67 185.01 350.82 180.46
  Q 354.53 172.61 361.50 170.79
  Q 362.20 170.60 361.85 169.97
  Q 349.82 147.91 349.13 122.32
  Q 349.13 122.24 349.07 122.18
  Q 348.95 122.05 348.81 122.25
  C 349.07 120.12 349.96 117.64 352.59 117.98
  Q 354.78 118.26 355.51 120.69
  Z"
/>
<path fill="#de7654" d="
  M 355.51 120.69
  L 412.49 178.89
  A 2.25 2.25 0.0 0 0 414.60 179.51
  Q 418.64 178.60 422.68 178.07
  Q 429.18 177.22 430.82 177.17
  Q 436.11 176.97 440.44 179.17
  Q 440.22 180.38 440.62 180.88
  Q 440.73 181.03 440.83 181.20
  Q 456.53 207.51 457.54 238.32
  Q 458.04 253.54 451.88 265.64
  C 441.93 285.17 413.15 283.97 395.85 277.58
  Q 380.58 271.95 368.15 263.01
  Q 350.26 250.14 337.57 235.18
  Q 330.08 226.35 322.91 213.52
  L 326.55 212.72
  Q 327.13 212.59 327.01 212.00
  Q 326.37 208.82 326.31 205.79
  C 326.06 194.35 325.96 182.02 327.57 170.81
  C 329.17 159.72 331.32 148.57 336.41 138.78
  Q 338.34 135.08 341.82 130.76
  C 344.13 127.91 346.77 125.32 348.81 122.25
  Q 348.95 122.05 349.07 122.18
  Q 349.13 122.24 349.13 122.32
  Q 349.82 147.91 361.85 169.97
  Q 362.20 170.60 361.50 170.79
  Q 354.53 172.61 350.82 180.46
  C 348.67 185.01 346.51 191.86 350.01 196.16
  Q 350.78 197.11 351.96 197.06
  C 355.01 196.94 355.65 190.78 355.77 188.60
  C 355.94 185.25 357.61 182.18 359.36 179.39
  C 361.37 176.18 365.22 175.84 367.76 178.73
  C 373.63 185.40 379.76 191.07 387.89 194.23
  A 1.81 1.80 -69.9 0 0 390.25 193.13
  C 390.72 191.73 389.98 190.56 388.83 189.83
  Q 375.41 181.36 368.74 168.17
  Q 362.94 156.67 359.37 139.28
  Q 358.39 134.49 357.22 129.96
  Q 356.03 125.40 355.51 120.69
  Z
  M 422.9234 261.8611
  A 9.82 8.73 85.6 0 0 430.8743 251.4002
  A 9.82 8.73 85.6 0 0 421.4166 242.2789
  A 9.82 8.73 85.6 0 0 413.4657 252.7398
  A 9.82 8.73 85.6 0 0 422.9234 261.8611
  Z"
/>
<path fill="#efc39d" d="
  M 493.01 215.69
  Q 490.13 213.03 487.56 208.73
  Q 486.98 207.76 486.08 207.86
  Q 480.79 200.05 473.25 192.99
  C 467.58 187.69 462.19 185.49 455.60 182.52
  Q 452.70 181.22 448.73 180.27
  Q 445.04 179.38 441.60 178.00
  C 445.46 158.56 455.55 142.77 470.54 130.15
  C 473.45 127.69 476.71 124.81 480.76 124.86
  C 486.28 124.92 489.95 129.02 489.89 134.58
  C 489.83 140.43 489.46 146.28 489.53 152.09
  Q 489.90 183.37 493.01 215.69
  Z"
/>
<path fill="#de7654" d="
  M 493.01 215.69
  Q 494.41 221.84 496.23 228.59
  Q 498.36 236.53 498.92 241.58
  Q 501.15 261.56 496.56 281.81
  Q 489.29 273.44 485.34 263.39
  A 0.52 0.52 0.0 0 1 485.94 262.69
  C 492.72 264.19 494.07 253.39 487.94 251.11
  Q 484.53 249.85 482.60 252.88
  A 0.42 0.42 0.0 0 1 481.84 252.76
  Q 479.75 244.48 478.94 236.33
  C 478.75 234.46 477.99 232.94 477.25 231.25
  Q 478.70 226.52 480.10 221.78
  Q 482.23 214.53 486.08 207.86
  Q 486.98 207.76 487.56 208.73
  Q 490.13 213.03 493.01 215.69
  Z"
/>
<path fill="#5f1409" d="
  M 477.25 231.25
  C 477.99 232.94 478.75 234.46 478.94 236.33
  Q 479.75 244.48 481.84 252.76
  A 0.42 0.42 0.0 0 0 482.60 252.88
  Q 484.53 249.85 487.94 251.11
  C 494.07 253.39 492.72 264.19 485.94 262.69
  A 0.52 0.52 0.0 0 0 485.34 263.39
  Q 489.29 273.44 496.56 281.81
  Q 498.41 283.89 500.60 285.65
  C 506.16 290.11 512.59 291.58 519.22 293.40
  Q 532.92 297.15 539.67 308.79
  C 545.15 318.27 544.04 330.11 536.11 337.90
  C 529.66 344.24 520.61 346.08 511.24 346.15
  Q 502.87 346.21 498.93 345.90
  L 492.23 344.70
  A 0.68 0.68 0.0 0 0 491.44 345.51
  C 492.81 352.38 493.00 359.19 490.15 365.65
  Q 489.70 366.66 488.94 367.44
  Q 487.40 369.01 486.45 368.45
  Q 485.21 367.73 485.66 366.36
  Q 487.25 361.50 487.68 356.68
  C 488.06 352.41 486.85 348.39 486.38 344.18
  A 1.47 1.47 0.0 0 0 485.54 343.01
  L 475.29 338.16
  A 0.55 0.55 0.0 0 0 474.50 338.62
  Q 474.44 339.53 474.84 340.69
  Q 476.50 345.53 475.57 350.17
  Q 467.44 338.48 460.65 326.77
  Q 459.75 325.22 458.84 324.34
  Q 455.34 320.95 452.65 316.49
  A 0.81 0.81 0.0 0 0 451.18 316.67
  C 450.20 319.96 449.17 325.16 444.38 324.26
  Q 443.79 324.15 443.54 323.61
  C 441.46 319.13 444.41 313.10 447.84 309.84
  Q 451.99 305.89 460.04 304.74
  C 461.50 304.54 462.68 305.57 463.29 306.79
  Q 464.14 308.51 462.33 309.15
  L 457.11 310.98
  A 0.49 0.49 0.0 0 0 456.89 311.76
  C 468.32 325.91 482.81 337.11 501.16 338.65
  Q 509.29 339.34 516.75 338.82
  Q 517.51 338.77 517.32 338.03
  C 516.06 333.28 515.55 327.81 510.45 325.40
  Q 505.55 323.08 501.29 321.12
  Q 498.59 319.88 496.69 316.96
  C 492.87 311.10 498.16 305.75 503.51 303.89
  Q 510.96 301.30 517.59 301.01
  Q 523.94 300.73 517.80 299.07
  C 511.92 297.48 505.75 295.69 500.98 292.92
  Q 493.35 288.50 487.30 279.49
  Q 474.33 260.17 475.52 236.75
  Q 475.68 233.60 477.25 231.25
  Z"
/>
<ellipse fill="#5f1409" cx="0.00" cy="0.00" transform="translate(422.17,252.07) rotate(85.6)" rx="9.82" ry="8.73"/>
<path fill="#5f1409" d="
  M 159.08 363.51
  C 154.58 375.24 146.41 386.72 135.18 392.93
  A 0.81 0.81 0.0 0 0 134.80 393.88
  C 136.81 400.43 139.56 409.81 147.03 411.97
  C 155.51 414.43 167.58 420.01 171.96 428.10
  Q 173.91 431.71 174.26 434.25
  Q 174.77 437.85 175.14 440.06
  Q 174.97 443.75 174.53 446.03
  Q 173.55 451.20 169.66 454.70
  Q 169.29 455.03 168.81 454.88
  Q 167.28 454.40 165.85 453.05
  Q 166.07 450.40 167.45 440.16
  C 168.93 429.23 158.85 422.94 149.74 418.78
  Q 147.44 417.72 145.03 417.46
  C 136.24 416.52 131.44 404.28 130.58 396.99
  Q 130.39 395.40 128.82 395.71
  C 126.68 396.14 123.87 395.44 124.13 392.64
  Q 124.31 390.63 125.78 389.63
  Q 131.71 385.59 136.73 380.98
  Q 139.94 378.03 142.19 375.04
  Q 151.30 363.67 154.66 349.98
  Q 157.02 340.35 157.41 332.73
  Q 158.56 310.27 155.73 288.95
  Q 152.98 268.27 148.70 248.32
  A 1.70 1.66 48.9 0 1 148.75 247.42
  Q 149.38 245.58 150.28 245.72
  A 2.38 2.29 85.9 0 1 152.16 247.41
  Q 156.06 261.17 159.26 274.29
  C 165.16 298.51 167.95 325.17 163.23 350.00
  Q 162.37 354.54 159.08 363.51
  Z"
/>
<path fill="#de7654" d="
  M 142.19 375.04
  Q 139.94 378.03 136.73 380.98
  Q 131.71 385.59 125.78 389.63
  Q 124.31 390.63 124.13 392.64
  C 123.87 395.44 126.68 396.14 128.82 395.71
  Q 130.39 395.40 130.58 396.99
  C 131.44 404.28 136.24 416.52 145.03 417.46
  Q 147.44 417.72 149.74 418.78
  C 158.85 422.94 168.93 429.23 167.45 440.16
  Q 166.07 450.40 165.85 453.05
  Q 160.34 457.58 152.98 459.66
  Q 156.05 451.27 155.67 446.75
  Q 154.30 430.68 140.66 422.35
  Q 139.27 421.50 137.89 421.75
  A 2.06 2.06 0.0 0 0 136.80 425.25
  C 141.55 429.91 145.49 435.06 147.19 441.57
  C 149.02 448.55 147.07 453.56 142.57 458.67
  Q 140.91 460.55 139.59 462.36
  L 126.16 464.49
  Q 131.26 454.05 128.93 440.27
  Q 127.53 431.98 123.87 428.78
  Q 121.67 426.86 118.91 427.41
  Q 118.71 427.45 118.54 427.55
  Q 116.04 429.09 118.03 431.25
  C 122.81 436.45 122.57 443.61 121.94 450.41
  C 121.43 455.88 119.66 458.56 117.21 462.73
  Q 116.60 463.78 117.63 466.14
  C 110.32 466.39 103.58 466.40 97.87 461.27
  Q 93.42 457.27 89.64 451.94
  Q 71.55 426.43 64.54 398.19
  Q 63.74 394.97 61.58 391.46
  Q 44.71 364.02 31.95 333.99
  Q 28.09 324.89 25.59 316.44
  Q 31.91 307.37 40.58 299.10
  C 53.48 286.80 72.62 280.18 89.93 286.39
  C 97.06 288.94 103.28 295.20 108.31 300.79
  Q 112.26 305.17 116.22 309.92
  C 124.87 320.33 136.81 325.50 139.91 340.00
  Q 143.04 354.63 142.19 375.04
  Z"
/>
<path fill="#5f1409" d="
  M 452.65 370.13
  Q 449.81 380.17 441.88 385.82
  Q 439.58 387.45 438.41 388.91
  C 435.45 392.59 433.88 396.23 427.90 393.69
  A 1.33 1.33 0.0 0 0 426.46 393.96
  L 423.66 396.68
  Q 423.01 397.31 423.91 397.45
  Q 438.94 399.69 452.54 404.87
  C 462.05 408.50 471.19 411.88 479.12 418.15
  Q 489.35 426.23 490.22 440.17
  Q 490.43 444.14 489.65 450.74
  Q 488.54 460.08 483.36 462.77
  Q 480.95 462.27 479.99 461.01
  A 2.11 2.10 -55.3 0 1 479.65 459.11
  Q 482.33 450.60 482.26 440.58
  Q 482.22 435.68 480.85 432.88
  Q 477.48 425.99 471.24 422.53
  Q 463.01 417.96 450.37 412.44
  Q 440.28 408.04 431.75 406.05
  C 424.58 404.38 414.49 403.09 407.53 400.77
  Q 397.65 397.48 389.03 391.42
  Q 383.72 387.68 378.93 384.55
  Q 371.16 377.83 368.06 373.93
  Q 362.00 366.31 359.42 355.11
  Q 357.22 345.52 355.47 324.40
  Q 355.37 323.27 356.50 323.24
  L 357.21 323.22
  A 1.35 1.35 0.0 0 1 358.56 324.26
  Q 360.80 333.69 363.40 343.50
  C 366.36 354.62 368.91 364.06 376.71 372.23
  Q 390.42 386.59 411.79 394.70
  Q 413.09 395.20 414.77 394.29
  C 419.34 391.81 424.05 389.68 425.56 384.27
  Q 428.24 374.72 426.40 365.98
  A 1.83 1.82 75.8 0 1 427.66 363.86
  L 427.93 363.78
  Q 429.30 363.37 429.81 364.70
  Q 432.06 370.62 432.24 377.14
  C 432.33 380.20 431.48 383.25 431.12 386.33
  Q 430.81 389.04 432.23 386.71
  C 436.91 379.08 436.97 371.13 436.45 362.38
  Q 436.40 361.60 437.15 361.40
  Q 438.22 361.11 439.23 361.33
  A 1.01 1.01 0.0 0 1 439.96 361.97
  Q 442.31 368.45 442.24 375.20
  Q 442.22 376.98 443.24 375.52
  C 447.87 368.86 448.60 362.05 448.11 354.12
  Q 447.94 351.34 450.72 351.73
  C 452.31 351.96 452.41 353.15 452.71 354.50
  Q 454.41 362.45 452.65 370.13
  Z"
/>
<path fill="#da4f4d" d="
  M 498.93 345.90
  Q 500.95 355.39 500.63 363.24
  Q 500.14 375.58 492.06 384.00
  Q 484.53 389.10 476.99 388.20
  Q 465.90 386.87 465.01 375.30
  C 466.37 369.80 470.13 364.63 472.98 359.77
  Q 475.22 355.95 475.57 350.17
  Q 476.50 345.53 474.84 340.69
  Q 474.44 339.53 474.50 338.62
  A 0.55 0.55 0.0 0 1 475.29 338.16
  L 485.54 343.01
  A 1.47 1.47 0.0 0 1 486.38 344.18
  C 486.85 348.39 488.06 352.41 487.68 356.68
  Q 487.25 361.50 485.66 366.36
  Q 485.21 367.73 486.45 368.45
  Q 487.40 369.01 488.94 367.44
  Q 489.70 366.66 490.15 365.65
  C 493.00 359.19 492.81 352.38 491.44 345.51
  A 0.68 0.68 0.0 0 1 492.23 344.70
  L 498.93 345.90
  Z"
/>
<path fill="#5f1409" d="
  M 318.50 409.59
  Q 328.64 418.41 338.19 424.34
  C 362.60 439.49 392.48 446.43 420.53 454.21
  Q 424.40 455.28 424.49 460.28
  C 418.62 458.96 411.52 458.83 406.84 458.11
  Q 360.26 450.98 322.73 422.30
  Q 322.42 422.07 321.80 422.16
  Q 321.99 421.41 321.33 420.91
  Q 302.56 406.46 289.51 387.31
  Q 278.83 371.65 274.43 354.33
  A 1.93 1.89 -44.4 0 1 274.45 353.35
  Q 275.02 351.42 276.30 351.54
  Q 277.47 351.65 277.91 352.74
  Q 283.68 367.28 289.74 376.76
  Q 301.04 394.46 318.50 409.59
  Z"
/>
<path fill="#efc39d" d="
  M 159.08 363.51
  Q 160.62 364.35 162.09 365.24
  Q 163.50 366.08 164.85 367.32
  C 174.40 376.08 181.13 381.58 190.40 387.55
  Q 196.25 391.32 199.70 394.39
  Q 203.99 398.21 208.10 402.36
  Q 205.95 402.48 205.41 402.93
  C 203.65 404.38 205.08 406.10 206.40 407.00
  C 213.40 411.74 219.31 421.07 219.58 430.00
  Q 219.74 435.31 219.45 440.79
  Q 218.04 439.48 217.06 440.05
  Q 211.14 443.51 204.57 442.27
  Q 208.43 432.83 204.87 423.66
  Q 201.40 414.72 193.83 405.48
  Q 192.09 403.36 189.92 402.19
  A 1.49 1.49 0.0 0 0 187.88 402.85
  Q 187.05 404.53 188.00 406.22
  Q 190.69 411.05 193.40 415.77
  Q 196.64 421.39 197.69 425.71
  Q 199.82 434.43 196.44 443.30
  L 175.14 440.06
  Q 174.77 437.85 174.26 434.25
  Q 173.91 431.71 171.96 428.10
  C 167.58 420.01 155.51 414.43 147.03 411.97
  C 139.56 409.81 136.81 400.43 134.80 393.88
  A 0.81 0.81 0.0 0 1 135.18 392.93
  C 146.41 386.72 154.58 375.24 159.08 363.51
  Z"
/>
<path fill="#efc39d" d="
  M 452.65 370.13
  L 465.01 375.30
  Q 465.90 386.87 476.99 388.20
  Q 484.53 389.10 492.06 384.00
  Q 491.88 385.22 492.74 385.28
  Q 496.15 385.55 497.22 385.81
  Q 509.08 388.74 526.74 392.60
  Q 536.61 394.75 546.26 399.73
  Q 565.62 409.71 563.82 431.99
  Q 563.71 433.39 560.91 437.65
  C 559.20 426.16 551.68 413.05 540.08 409.04
  Q 538.22 408.40 536.56 409.04
  Q 535.87 409.30 535.64 410.02
  A 1.48 1.47 22.4 0 0 536.38 411.78
  C 543.27 415.24 548.46 422.00 551.10 428.81
  C 552.69 432.90 553.14 437.68 553.85 442.18
  Q 554.19 444.29 556.52 445.63
  Q 551.06 448.17 546.20 450.67
  Q 543.66 451.98 536.96 452.44
  Q 540.32 444.18 537.98 435.01
  C 535.42 425.01 529.08 415.85 518.92 413.39
  A 3.42 3.29 44.3 0 0 517.45 413.38
  Q 515.68 413.76 514.89 415.09
  Q 513.55 417.35 516.06 418.15
  C 528.86 422.21 531.39 435.49 531.09 447.25
  C 531.04 449.23 531.33 451.24 531.43 453.24
  C 526.41 451.63 520.75 450.63 516.27 448.89
  Q 508.22 445.76 500.89 441.40
  C 498.18 439.79 495.19 439.21 492.33 438.03
  Q 491.91 437.86 491.52 438.10
  Q 490.74 438.58 490.22 440.17
  Q 489.35 426.23 479.12 418.15
  C 471.19 411.88 462.05 408.50 452.54 404.87
  Q 438.94 399.69 423.91 397.45
  Q 423.01 397.31 423.66 396.68
  L 426.46 393.96
  A 1.33 1.33 0.0 0 1 427.90 393.69
  C 433.88 396.23 435.45 392.59 438.41 388.91
  Q 439.58 387.45 441.88 385.82
  Q 449.81 380.17 452.65 370.13
  Z"
/>
<path fill="#de7654" d="
  M 378.93 384.55
  Q 383.72 387.68 389.03 391.42
  Q 397.65 397.48 407.53 400.77
  C 414.49 403.09 424.58 404.38 431.75 406.05
  Q 440.28 408.04 450.37 412.44
  Q 463.01 417.96 471.24 422.53
  Q 477.48 425.99 480.85 432.88
  Q 482.22 435.68 482.26 440.58
  Q 482.33 450.60 479.65 459.11
  A 2.11 2.10 -55.3 0 0 479.99 461.01
  Q 480.95 462.27 483.36 462.77
  L 466.25 467.24
  Q 472.94 459.35 472.04 447.51
  Q 470.74 430.42 459.13 422.66
  Q 457.50 421.57 455.92 422.81
  A 2.08 2.08 0.0 0 0 455.65 425.82
  C 461.92 432.92 466.72 444.75 463.11 453.74
  Q 461.58 457.56 459.88 461.41
  Q 458.55 464.45 460.94 467.26
  L 440.71 464.83
  Q 445.54 463.44 448.14 458.34
  C 451.76 451.23 453.56 441.91 451.05 434.15
  C 449.63 429.76 446.13 422.47 440.78 421.97
  A 1.67 1.65 -78.0 0 0 439.06 423.10
  C 438.21 425.61 441.98 431.24 442.59 434.05
  Q 444.41 442.43 442.19 448.46
  Q 439.92 454.62 433.44 462.70
  L 424.49 460.28
  Q 424.40 455.28 420.53 454.21
  C 392.48 446.43 362.60 439.49 338.19 424.34
  Q 328.64 418.41 318.50 409.59
  Q 318.80 406.57 318.38 403.50
  Q 317.70 398.54 317.72 397.49
  Q 317.93 386.38 326.47 379.51
  C 335.84 371.99 351.49 372.48 362.38 376.35
  Q 364.88 377.24 370.64 380.43
  Q 374.61 382.63 378.93 384.55
  Z"
/>
<path fill="#5f1409" d="
  M 204.57 442.27
  Q 203.83 443.13 202.58 444.33
  Q 200.99 445.85 198.92 445.51
  A 1.47 1.46 -16.9 0 1 198.09 445.07
  L 196.44 443.30
  Q 199.82 434.43 197.69 425.71
  Q 196.64 421.39 193.40 415.77
  Q 190.69 411.05 188.00 406.22
  Q 187.05 404.53 187.88 402.85
  A 1.49 1.49 0.0 0 1 189.92 402.19
  Q 192.09 403.36 193.83 405.48
  Q 201.40 414.72 204.87 423.66
  Q 208.43 432.83 204.57 442.27
  Z"
/>
<path fill="#5f1409" d="
  M 208.10 402.36
  L 211.67 404.80
  C 221.34 411.41 225.46 420.79 227.59 431.97
  L 227.16 435.23
  Q 225.71 436.85 226.19 438.00
  C 224.88 440.61 222.56 444.65 219.45 440.79
  Q 219.74 435.31 219.58 430.00
  C 219.31 421.07 213.40 411.74 206.40 407.00
  C 205.08 406.10 203.65 404.38 205.41 402.93
  Q 205.95 402.48 208.10 402.36
  Z"
/>
<path fill="#efc39d" d="
  M 225.31 408.73
  Q 229.53 415.07 229.55 422.93
  C 229.55 425.99 228.42 428.92 227.59 431.97
  C 225.46 420.79 221.34 411.41 211.67 404.80
  Q 211.97 404.58 212.23 404.62
  Q 212.93 404.73 212.65 404.10
  Q 212.58 403.93 212.56 403.75
  A 0.81 0.81 0.0 0 1 213.39 402.86
  Q 216.68 402.97 218.52 404.73
  Q 221.86 407.91 225.31 408.73
  Z"
/>
<path fill="#5f1409" d="
  M 560.91 437.65
  Q 560.37 443.88 556.52 445.63
  Q 554.19 444.29 553.85 442.18
  C 553.14 437.68 552.69 432.90 551.10 428.81
  C 548.46 422.00 543.27 415.24 536.38 411.78
  A 1.48 1.47 22.4 0 1 535.64 410.02
  Q 535.87 409.30 536.56 409.04
  Q 538.22 408.40 540.08 409.04
  C 551.68 413.05 559.20 426.16 560.91 437.65
  Z"
/>
<path fill="#5f1409" d="
  M 536.96 452.44
  Q 535.18 455.15 531.43 453.24
  C 531.33 451.24 531.04 449.23 531.09 447.25
  C 531.39 435.49 528.86 422.21 516.06 418.15
  Q 513.55 417.35 514.89 415.09
  Q 515.68 413.76 517.45 413.38
  A 3.42 3.29 44.3 0 1 518.92 413.39
  C 529.08 415.85 535.42 425.01 537.98 435.01
  Q 540.32 444.18 536.96 452.44
  Z"
/>
<path fill="#5f1409" d="
  M 152.98 459.66
  Q 150.35 462.45 148.34 463.84
  Q 143.07 467.50 139.59 462.36
  Q 140.91 460.55 142.57 458.67
  C 147.07 453.56 149.02 448.55 147.19 441.57
  C 145.49 435.06 141.55 429.91 136.80 425.25
  A 2.06 2.06 0.0 0 1 137.89 421.75
  Q 139.27 421.50 140.66 422.35
  Q 154.30 430.68 155.67 446.75
  Q 156.05 451.27 152.98 459.66
  Z"
/>
<path fill="#5f1409" d="
  M 440.71 464.83
  Q 437.50 465.97 433.44 462.70
  Q 439.92 454.62 442.19 448.46
  Q 444.41 442.43 442.59 434.05
  C 441.98 431.24 438.21 425.61 439.06 423.10
  A 1.67 1.65 -78.0 0 1 440.78 421.97
  C 446.13 422.47 449.63 429.76 451.05 434.15
  C 453.56 441.91 451.76 451.23 448.14 458.34
  Q 445.54 463.44 440.71 464.83
  Z"
/>
<path fill="#5f1409" d="
  M 466.25 467.24
  Q 463.31 468.22 460.94 467.26
  Q 458.55 464.45 459.88 461.41
  Q 461.58 457.56 463.11 453.74
  C 466.72 444.75 461.92 432.92 455.65 425.82
  A 2.08 2.08 0.0 0 1 455.92 422.81
  Q 457.50 421.57 459.13 422.66
  Q 470.74 430.42 472.04 447.51
  Q 472.94 459.35 466.25 467.24
  Z"
/>
<path fill="#5f1409" d="
  M 126.16 464.49
  Q 121.31 467.17 117.63 466.14
  Q 116.60 463.78 117.21 462.73
  C 119.66 458.56 121.43 455.88 121.94 450.41
  C 122.57 443.61 122.81 436.45 118.03 431.25
  Q 116.04 429.09 118.54 427.55
  Q 118.71 427.45 118.91 427.41
  Q 121.67 426.86 123.87 428.78
  Q 127.53 431.98 128.93 440.27
  Q 131.26 454.05 126.16 464.49
  Z"
/>
<path fill="#de7654" d="
  M 227.16 435.23
  Q 227.03 436.79 226.19 438.00
  Q 225.71 436.85 227.16 435.23
  Z"
/>
</svg>
