<?xml version="1.0" encoding="UTF-8" standalone="no"?>
<svg xmlns="http://www.w3.org/2000/svg" version="1.2" baseProfile="tiny" viewBox="0.00 0.00 512.00 512.00">
<path fill="#000000" d="
  M 512.00 102.38
  L 512.00 239.73
  Q 510.12 246.39 504.00 246.02
  C 498.43 245.69 497.01 241.11 497.01 236.01
  Q 496.98 172.53 497.01 109.04
  C 497.02 101.88 496.16 96.01 489.49 93.15
  Q 486.47 91.85 477.33 91.85
  Q 255.06 91.86 32.79 91.85
  C 25.62 91.85 19.69 92.34 16.55 98.81
  Q 14.99 102.02 14.99 110.91
  Q 15.01 257.24 14.99 403.58
  Q 14.99 409.47 16.15 412.27
  C 19.40 420.14 26.00 420.14 34.56 420.14
  Q 256.89 420.14 479.22 420.14
  C 486.50 420.14 492.34 419.64 495.51 413.04
  Q 497.01 409.91 497.01 402.25
  Q 496.99 338.92 497.01 275.59
  C 497.01 271.29 498.12 267.20 502.49 266.22
  Q 509.79 264.57 512.00 272.36
  L 512.00 409.61
  C 509.88 421.19 504.07 430.08 492.82 433.61
  Q 487.91 435.15 473.51 435.15
  Q 251.13 435.14 28.75 435.20
  C 13.64 435.21 1.83 424.60 0.00 409.62
  L 0.00 102.23
  C 1.93 87.57 13.33 76.92 28.24 76.91
  Q 255.74 76.86 483.25 76.92
  C 498.75 76.92 509.76 87.07 512.00 102.38
  Z"
/>
<path fill="#000000" d="
  M 64.57 337.52
  A 0.24 0.24 0.0 0 0 64.95 337.72
  Q 68.56 335.28 72.58 333.69
  Q 100.73 322.53 129.13 311.48
  A 0.41 0.41 0.0 0 0 129.39 311.10
  L 129.39 304.22
  Q 129.39 303.65 128.94 303.29
  Q 114.81 291.92 111.42 273.97
  A 0.84 0.83 -89.0 0 0 110.78 273.30
  C 94.53 269.53 86.30 253.42 94.54 238.28
  C 94.92 237.57 95.92 236.26 96.52 235.20
  Q 96.78 234.74 96.49 234.29
  Q 93.26 229.32 93.22 222.50
  Q 93.14 205.50 93.26 188.50
  Q 93.30 182.82 96.18 176.63
  C 102.49 163.05 115.32 154.57 130.50 154.58
  Q 152.00 154.58 173.50 154.60
  C 186.62 154.62 195.28 160.06 198.22 173.18
  Q 198.33 173.69 198.86 173.72
  C 208.46 174.14 215.62 177.93 219.08 186.84
  Q 220.47 190.43 220.52 196.97
  Q 220.64 213.90 220.43 230.80
  Q 220.42 231.31 220.78 231.66
  C 235.51 246.01 229.39 268.54 209.46 273.32
  Q 208.98 273.44 208.83 273.91
  Q 208.24 275.73 207.79 277.45
  Q 203.70 293.21 191.16 303.45
  Q 190.75 303.78 190.75 304.30
  L 190.76 310.96
  Q 190.76 311.41 191.18 311.57
  Q 218.94 322.35 246.66 333.19
  Q 251.14 334.94 255.12 337.65
  A 0.29 0.29 0.0 0 0 255.57 337.41
  Q 255.56 243.22 255.57 149.00
  C 255.57 144.55 253.03 143.42 248.90 143.41
  Q 214.59 143.41 180.30 143.41
  Q 175.94 143.41 173.91 142.34
  C 167.56 138.97 169.86 128.43 177.00 128.42
  Q 212.08 128.40 247.16 128.43
  Q 254.38 128.44 257.70 129.67
  C 265.48 132.57 270.57 140.10 270.57 148.50
  Q 270.58 254.50 270.56 360.49
  Q 270.56 367.20 269.43 370.37
  C 266.58 378.34 259.05 383.57 250.50 383.57
  Q 161.58 383.58 72.66 383.59
  Q 66.09 383.59 62.52 382.26
  Q 54.06 379.11 51.01 370.83
  Q 49.55 366.90 49.56 358.20
  Q 49.58 255.68 49.57 153.17
  Q 49.57 144.90 50.79 141.48
  C 53.54 133.81 60.93 128.51 69.25 128.50
  Q 104.82 128.42 140.39 128.42
  Q 144.71 128.42 146.81 129.77
  C 153.10 133.83 149.72 143.41 142.25 143.41
  Q 106.66 143.41 71.08 143.42
  C 67.01 143.42 64.58 144.70 64.57 149.00
  Q 64.53 243.33 64.57 337.52
  Z
  M 130.25 169.57
  C 121.19 169.58 112.91 175.02 109.71 183.34
  Q 108.24 187.16 108.21 195.34
  Q 108.17 209.68 108.22 223.48
  A 4.70 4.70 0.0 0 0 112.92 228.17
  Q 137.77 228.14 162.75 227.99
  Q 173.65 227.93 179.66 220.15
  C 183.06 215.75 184.44 210.88 191.39 212.72
  C 196.74 214.13 197.32 217.84 197.87 222.70
  A 5.19 5.18 10.1 0 0 200.68 226.73
  L 203.14 227.96
  Q 205.51 229.15 205.52 226.50
  Q 205.57 211.26 205.51 194.83
  C 205.49 189.08 201.67 188.96 197.07 188.43
  Q 189.13 187.52 185.32 180.99
  C 183.65 178.11 183.59 172.35 180.43 170.80
  Q 177.82 169.52 173.94 169.53
  Q 152.10 169.55 130.25 169.57
  Z
  M 147.69 296.84
  C 165.34 303.40 186.88 295.02 192.84 276.05
  Q 194.43 270.98 194.51 260.59
  Q 194.58 250.80 194.49 240.97
  Q 194.49 240.43 194.02 240.17
  Q 190.10 237.97 187.36 234.41
  A 0.52 0.52 0.0 0 0 186.62 234.33
  Q 176.14 243.14 163.49 243.14
  Q 144.87 243.14 126.03 243.14
  A 0.35 0.35 0.0 0 0 125.68 243.49
  Q 125.59 252.68 125.68 261.92
  Q 125.76 270.53 127.25 275.40
  Q 132.05 291.03 147.69 296.84
  Z
  M 209.50 242.54
  L 209.54 256.84
  A 0.02 0.02 0.0 0 0 209.57 256.86
  L 209.64 256.86
  A 7.07 4.07 89.8 0 0 213.68 249.77
  L 213.68 249.57
  A 7.07 4.07 89.8 0 0 209.58 242.52
  L 209.51 242.52
  A 0.02 0.02 0.0 0 0 209.50 242.54
  Z
  M 110.66 256.81
  L 110.66 243.11
  A 0.02 0.02 0.0 0 0 110.64 243.09
  L 110.57 243.09
  A 6.70 4.09 -90.0 0 0 106.48 249.79
  L 106.48 250.13
  A 6.70 4.09 90.0 0 0 110.57 256.83
  L 110.64 256.83
  A 0.02 0.02 0.0 0 0 110.66 256.81
  Z
  M 185.96 325.69
  C 179.49 322.95 175.45 320.14 175.73 312.34
  Q 175.75 311.79 175.22 311.94
  Q 160.09 316.38 145.00 311.80
  Q 144.38 311.61 144.39 312.26
  Q 144.60 322.34 134.96 325.27
  A 1.20 1.19 -32.9 0 0 134.52 327.31
  Q 150.62 341.41 170.26 336.50
  Q 179.11 334.28 186.08 326.19
  Q 186.36 325.86 185.96 325.69
  Z
  M 200.70 331.93
  C 181.27 359.91 138.85 359.84 119.32 331.86
  A 0.56 0.56 0.0 0 0 118.67 331.66
  Q 100.65 338.65 82.60 345.66
  Q 76.10 348.18 73.11 350.42
  C 69.98 352.77 64.71 357.76 64.45 361.94
  C 64.28 364.76 65.92 368.58 68.75 368.58
  Q 159.62 368.59 250.50 368.35
  C 255.96 368.33 256.94 362.08 254.56 358.38
  C 250.41 351.92 245.75 348.84 238.11 345.86
  Q 219.85 338.74 201.50 331.69
  Q 201.00 331.50 200.70 331.93
  Z"
/>
<path fill="#000000" d="
  M 311.35 128.42
  L 451.13 128.42
  A 15.03 15.03 0.0 0 1 466.16 143.45
  L 466.16 159.47
  A 15.03 15.03 0.0 0 1 451.13 174.50
  L 311.35 174.48
  A 15.03 15.03 0.0 0 1 296.32 159.45
  L 296.32 143.45
  A 15.03 15.03 0.0 0 1 311.35 128.42
  Z
  M 451.16 143.81
  A 0.40 0.40 0.0 0 0 450.76 143.41
  L 311.72 143.41
  A 0.40 0.40 0.0 0 0 311.32 143.81
  L 311.32 159.07
  A 0.40 0.40 0.0 0 0 311.72 159.47
  L 450.76 159.47
  A 0.40 0.40 0.0 0 0 451.16 159.07
  L 451.16 143.81
  Z"
/>
<rect fill="#000000" x="-17.75" y="-7.46" transform="translate(314.19,199.03) rotate(-0.1)" width="35.50" height="14.92" rx="7.14"/>
<rect fill="#000000" x="346.61" y="191.52" width="119.46" height="15.00" rx="7.39"/>
<rect fill="#000000" x="346.60" y="223.69" width="119.48" height="14.98" rx="7.38"/>
<rect fill="#000000" x="-17.74" y="-7.47" transform="translate(314.19,263.24) rotate(0.2)" width="35.48" height="14.94" rx="7.14"/>
<rect fill="#000000" x="346.60" y="255.75" width="119.48" height="14.98" rx="7.38"/>
<rect fill="#000000" x="346.60" y="287.79" width="119.48" height="14.98" rx="7.38"/>
<rect fill="#000000" x="296.44" y="319.91" width="35.50" height="14.92" rx="7.14"/>
<rect fill="#000000" x="-59.73" y="-7.50" transform="translate(406.34,327.36) rotate(0.1)" width="119.46" height="15.00" rx="7.38"/>
<rect fill="#000000" x="346.60" y="352.01" width="119.48" height="14.98" rx="7.38"/>
</svg>
