<?xml version="1.0" encoding="UTF-8" standalone="no"?>
<svg xmlns="http://www.w3.org/2000/svg" version="1.2" baseProfile="tiny" viewBox="0.00 0.00 198.00 240.00">
<path fill="#f0a655" d="
  M 146.38 23.96
  L 146.53 9.13
  A 1.42 1.42 0.0 0 1 147.95 7.73
  L 166.47 7.71
  A 1.42 1.42 0.0 0 1 167.90 9.14
  L 167.85 23.95
  A 1.42 1.42 0.0 0 0 169.27 25.37
  L 185.08 25.38
  A 1.42 1.42 0.0 0 1 186.50 26.81
  L 186.34 45.45
  A 1.42 1.42 0.0 0 1 184.89 46.85
  L 169.26 46.47
  A 1.42 1.42 0.0 0 0 167.81 47.88
  L 167.79 63.82
  A 1.42 1.42 0.0 0 1 166.36 65.24
  L 147.88 65.04
  A 1.42 1.42 0.0 0 1 146.48 63.63
  L 146.42 47.90
  A 1.42 1.42 0.0 0 0 144.98 46.48
  L 130.19 46.70
  A 1.42 1.42 0.0 0 1 128.75 45.28
  L 128.75 26.79
  A 1.42 1.42 0.0 0 1 130.17 25.37
  L 144.96 25.37
  A 1.42 1.42 0.0 0 0 146.38 23.96
  Z"
/>
<path fill="#f0a655" d="
  M 142.67 103.24
  Q 143.48 103.56 144.31 103.46
  Q 149.66 102.79 155.46 102.42
  A 4.70 4.66 19.2 0 0 158.62 100.91
  Q 163.24 95.85 167.99 90.17
  C 170.18 87.56 173.24 86.01 175.85 89.33
  Q 182.08 97.26 186.60 107.05
  C 196.25 127.97 193.98 149.87 181.98 169.23
  C 164.42 197.57 136.26 218.30 104.75 229.67
  A 2.07 2.05 -45.2 0 1 103.37 229.68
  Q 48.33 210.31 20.86 160.76
  Q 18.11 155.80 15.29 151.93
  Q 10.97 146.01 9.51 143.25
  C 4.24 133.34 1.52 120.20 7.59 110.08
  Q 8.16 109.13 8.17 107.92
  Q 8.19 102.02 8.38 96.04
  Q 8.94 77.41 15.39 60.73
  Q 22.68 41.89 40.30 28.86
  Q 53.44 19.13 69.34 21.41
  C 86.43 23.86 102.56 33.87 109.30 49.69
  C 115.57 64.40 127.80 73.37 142.49 79.67
  Q 144.59 80.57 145.78 82.99
  C 149.60 90.77 147.21 96.32 142.49 102.60
  A 0.42 0.42 0.0 0 0 142.67 103.24
  Z
  M 51.25 121.68
  C 53.74 122.02 56.21 122.88 58.46 121.18
  C 63.97 117.01 70.89 115.49 77.56 117.40
  Q 79.76 118.02 82.03 117.43
  Q 85.74 116.47 89.34 116.49
  A 0.65 0.65 0.0 0 0 89.99 115.86
  Q 90.02 114.71 89.83 113.48
  Q 89.03 108.29 93.47 106.59
  Q 95.27 105.90 97.32 106.56
  Q 116.11 112.65 133.35 103.36
  A 1.39 1.39 0.0 0 0 133.94 101.51
  C 130.74 95.12 129.17 88.37 130.76 81.35
  A 2.02 2.01 21.8 0 0 129.83 79.18
  C 119.39 72.91 109.81 64.82 105.18 53.40
  C 103.74 49.85 102.12 45.88 99.60 43.03
  Q 84.69 26.19 61.19 26.48
  Q 49.31 26.64 40.08 35.43
  Q 9.14 64.94 13.79 107.88
  Q 14.11 110.77 16.68 111.95
  Q 32.35 119.09 51.25 121.68
  Z
  M 101.61 136.68
  C 101.86 139.17 102.11 141.62 101.82 144.12
  Q 100.85 152.27 101.38 160.35
  Q 101.90 168.25 107.00 172.88
  Q 113.24 178.54 120.30 181.14
  C 133.10 185.84 148.83 183.81 160.89 178.34
  Q 182.33 168.61 186.52 145.19
  C 189.62 127.88 183.88 109.34 173.95 94.69
  C 173.11 93.45 171.76 93.28 170.79 94.52
  Q 165.92 100.83 161.35 106.74
  Q 160.68 107.62 159.63 107.64
  Q 145.20 107.96 131.20 111.28
  C 126.79 112.33 122.14 113.32 117.64 113.93
  Q 108.55 115.16 98.73 112.05
  C 96.12 111.22 94.37 113.21 95.44 115.72
  C 98.33 122.52 100.87 129.31 101.61 136.68
  Z
  M 53.60 127.12
  Q 31.81 124.92 11.93 115.40
  A 1.53 1.53 0.0 0 0 9.75 116.60
  Q 8.54 126.74 12.35 137.30
  Q 13.77 141.27 16.21 143.26
  C 22.00 147.99 30.80 149.22 38.33 149.53
  Q 47.58 149.91 57.44 148.57
  Q 58.59 148.42 58.98 147.33
  Q 61.88 139.16 59.29 130.19
  C 58.38 127.06 56.22 127.39 53.60 127.12
  Z
  M 65.03 145.49
  C 62.43 159.07 60.89 172.82 60.37 186.69
  C 60.30 188.57 60.99 190.16 63.01 190.23
  Q 84.85 191.00 102.19 178.25
  A 1.88 1.88 0.0 0 0 102.63 175.69
  C 97.36 167.84 94.50 158.89 95.64 149.75
  C 96.81 140.37 96.29 131.23 91.27 123.37
  Q 90.56 122.26 89.12 122.24
  Q 77.49 122.11 66.09 122.28
  A 3.03 3.02 81.2 0 0 63.24 126.18
  C 64.08 128.96 65.21 131.50 65.51 134.41
  Q 66.08 140.02 65.03 145.49
  Z
  M 78.53 194.47
  C 73.89 195.06 69.13 195.66 64.36 196.19
  C 59.14 196.78 55.68 194.76 55.54 188.83
  Q 55.14 170.86 58.44 155.15
  Q 58.73 153.79 57.35 153.96
  C 46.24 155.34 35.14 155.46 24.25 153.03
  Q 23.16 152.79 23.28 153.90
  Q 23.42 155.14 24.03 156.26
  C 40.32 186.24 65.18 207.59 96.52 221.15
  C 101.97 223.51 107.80 224.43 112.95 220.81
  A 0.65 0.65 0.0 0 0 112.78 219.66
  Q 92.37 212.91 80.64 195.43
  A 2.21 2.21 0.0 0 0 78.53 194.47
  Z
  M 162.47 183.41
  C 145.59 190.37 127.25 190.97 110.94 182.18
  Q 107.86 180.52 105.02 182.55
  L 103.60 183.57
  Q 100.30 185.93 103.51 188.41
  Q 118.77 200.19 137.26 200.61
  C 144.45 200.77 149.59 198.66 154.64 193.86
  Q 159.30 189.44 163.49 184.88
  Q 166.29 181.84 162.47 183.41
  Z
  M 136.87 205.54
  Q 113.50 204.64 96.77 189.31
  A 1.79 1.77 -35.4 0 0 94.85 189.00
  L 86.78 192.60
  A 1.16 1.15 59.9 0 0 86.32 194.34
  Q 99.46 212.35 121.23 216.36
  A 1.50 1.45 34.1 0 0 122.25 216.18
  L 138.47 206.69
  Q 139.78 205.93 138.28 205.68
  Q 137.57 205.57 136.87 205.54
  Z"
/>
<path fill="#f0a655" d="
  M 39.95 50.23
  C 42.12 41.12 48.38 28.54 59.93 31.68
  C 75.86 36.01 78.98 59.98 78.24 73.43
  Q 77.58 85.52 69.17 93.07
  Q 61.72 99.76 51.61 103.55
  C 26.58 112.94 37.69 59.73 39.95 50.23
  Z
  M 73.28 65.45
  Q 71.85 52.35 67.11 43.63
  C 64.13 38.14 57.55 33.47 51.65 37.96
  C 48.33 40.48 45.89 46.15 44.99 50.07
  Q 40.44 69.94 42.32 94.95
  C 42.64 99.19 46.17 99.73 49.57 98.86
  Q 63.05 95.41 70.36 82.76
  Q 74.40 75.77 73.28 65.45
  Z"
/>
<path fill="#f0a655" d="
  M 93.58 71.96
  Q 95.86 69.84 98.33 67.61
  C 100.59 65.56 103.58 67.73 102.45 70.44
  C 98.24 80.45 84.84 79.95 82.30 68.93
  Q 82.19 68.46 82.46 68.06
  C 83.14 67.01 84.51 66.55 85.54 67.44
  Q 88.32 69.83 90.63 71.96
  A 2.17 2.16 44.9 0 0 93.58 71.96
  Z"
/>
<path fill="#f0a655" d="
  M 158.46 139.75
  C 160.78 138.57 166.27 137.76 168.52 140.06
  A 1.31 1.31 0.0 0 1 167.71 142.28
  C 163.26 142.75 159.65 144.91 155.60 146.76
  Q 151.90 148.44 153.48 144.70
  Q 154.77 141.63 158.46 139.75
  Z"
/>
<path fill="#f0a655" d="
  M 122.39 149.10
  Q 116.65 145.63 109.60 146.31
  Q 109.01 146.36 108.60 145.94
  Q 108.15 145.48 108.30 144.86
  Q 108.44 144.28 108.98 144.00
  Q 118.81 138.90 124.48 148.15
  A 0.87 0.87 0.0 0 1 123.78 149.47
  Q 123.05 149.50 122.39 149.10
  Z"
/>
<path fill="#f0a655" d="
  M 137.11 160.80
  A 1.06 1.05 -46.5 0 0 137.15 162.46
  Q 144.89 168.14 151.63 161.25
  A 1.88 1.87 37.6 0 1 153.93 160.96
  C 155.02 161.62 155.35 162.80 154.57 163.88
  Q 148.68 172.10 138.88 168.49
  C 137.92 168.13 136.43 168.13 135.43 168.38
  C 129.46 169.93 120.39 170.89 119.74 162.37
  C 119.62 160.77 121.21 159.70 122.68 160.07
  Q 123.24 160.22 123.57 160.69
  C 124.50 162.02 125.07 163.81 126.50 164.67
  C 128.43 165.83 132.50 165.08 133.88 163.26
  A 2.16 2.16 0.0 0 0 133.42 160.19
  L 130.33 157.99
  A 1.61 1.61 0.0 0 1 131.20 155.07
  L 140.65 154.72
  A 1.74 1.74 0.0 0 1 142.32 155.80
  Q 142.76 156.89 142.24 157.95
  Q 141.95 158.54 141.31 158.71
  Q 138.83 159.39 137.11 160.80
  Z"
/>
</svg>
