<svg width="37" height="37" viewBox="0 0 37 37" fill="none" xmlns="http://www.w3.org/2000/svg">
<path d="M37 18.5C37 28.7173 28.7173 37 18.5 37C8.28273 37 0 28.7173 0 18.5C0 8.28273 8.28273 0 18.5 0C28.7173 0 37 8.28273 37 18.5Z" fill="#FDB384"/>
<path d="M28.3448 8.92606C27.7948 8.70606 27.3528 8.27606 27.1068 7.72606C26.4388 6.16506 24.9268 5.05406 23.1588 4.99406C22.2418 4.96564 21.3387 5.22435 20.5758 5.73406C20.1338 6.03406 19.5538 6.03406 19.1118 5.73406C18.3526 5.22452 17.4528 4.96572 16.5388 4.99406C15.3756 5.03476 14.2749 5.5307 13.4738 6.37506C13.1108 6.75506 12.6298 7.00506 12.1188 7.12506C11.0764 7.34988 10.1275 7.8875 9.39883 8.66606L9.38883 8.67606C7.83583 10.3171 7.00083 12.4681 7.01083 14.7401V14.7601C7.02083 14.8401 7.01083 20.9931 7.01083 20.9931H8.00483L27.9988 21.0131L28.9988 20.9971C28.9988 20.9971 29.0428 19.1071 29.0708 18.5321C29.0938 18.0361 29.1098 17.2621 29.1098 17.2621C29.1298 16.5911 29.4038 15.9511 29.8458 15.4511C30.4915 14.7241 30.8574 13.7911 30.8778 12.8191C30.9013 11.9896 30.6714 11.1727 30.2186 10.4773C29.7659 9.78195 29.1119 9.24115 28.3438 8.92706L28.3448 8.92606Z" fill="#593B39"/>
<path d="M28.1219 17.519L27.9999 21.012C28.5399 21.012 28.9799 20.546 28.9999 19.996L29.0719 18.531C29.0819 18.306 29.0919 18.024 29.0979 17.783C29.8447 18.1169 30.4382 18.7201 30.7599 19.4723C31.0815 20.2244 31.1077 21.0703 30.8331 21.8409C30.5586 22.6115 30.0035 23.2502 29.2787 23.6296C28.5539 24.0089 27.7127 24.101 26.923 23.8874C26.1333 23.6738 25.4533 23.1702 25.0185 22.4772C24.5838 21.7842 24.4264 20.9528 24.5777 20.1488C24.7291 19.3449 25.178 18.6276 25.835 18.1401C26.492 17.6527 27.3086 17.4309 28.1219 17.519ZM7.0149 17.743C7.0139 18.918 7.0109 19.993 7.0109 19.993C7.0309 20.543 7.4659 20.993 8.0059 20.993V17.509C8.82138 17.4481 9.62985 17.6968 10.2701 18.2056C10.9103 18.7144 11.3352 19.4458 11.46 20.254C11.5848 21.0621 11.4003 21.8877 10.9434 22.5659C10.4866 23.2441 9.79078 23.7251 8.99492 23.913C8.19905 24.1009 7.36159 23.9819 6.64959 23.5797C5.93758 23.1775 5.40336 22.5217 5.15349 21.7431C4.90362 20.9644 4.95645 20.1202 5.30147 19.3788C5.64648 18.6374 6.2583 18.0533 7.0149 17.743Z" fill="#BB806E"/>
<path d="M28.046 19.684L28 21.012H28.02L27.974 23.216C27.735 29.068 23.344 33 18.005 33C12.667 33 8.27496 29.069 8.03496 23.216L7.95996 20.991C7.97528 20.9917 7.99062 20.9921 8.00596 20.992V16.992C7.97596 16.132 8.36696 15.469 8.95596 14.859C9.60245 14.1841 10.0304 13.3299 10.184 12.408C10.1891 12.372 10.205 12.3384 10.2297 12.3116C10.2543 12.2849 10.2865 12.2662 10.322 12.258C10.42 12.228 10.508 12.288 10.538 12.368C11.147 13.908 12.62 15.009 14.348 15.009C14.79 15.009 15.154 14.639 15.154 14.189V12.458C15.154 12.348 15.223 12.268 15.311 12.248H15.439C15.4828 12.2622 15.5207 12.2903 15.547 12.328C16.1624 13.158 16.9633 13.8327 17.8858 14.2982C18.8082 14.7636 19.8267 15.0071 20.86 15.009H25.938C27.176 15.009 28.168 16.049 28.128 17.32L28.096 18.245L28.058 19.085L28.046 19.684Z" fill="#C68D7B"/>
<path d="M18.0018 26.1741C16.9519 26.1779 15.9168 25.9264 14.9858 25.4411C14.9212 25.4056 14.8466 25.393 14.7739 25.4051C14.7013 25.4173 14.6348 25.4535 14.5853 25.508C14.5357 25.5625 14.506 25.6321 14.5008 25.7056C14.4956 25.7791 14.5153 25.8522 14.5568 25.9131C14.9272 26.4908 15.4367 26.9663 16.0386 27.296C16.6405 27.6257 17.3155 27.799 18.0018 27.8001C18.688 27.799 19.3631 27.6257 19.9649 27.296C20.5668 26.9663 21.0763 26.4908 21.4468 25.9131C21.6268 25.6321 21.3168 25.2911 21.0168 25.4411C20.0878 25.9308 19.0519 26.1826 18.0018 26.1741Z" fill="#990838"/>
<path d="M17.9929 25C18.6729 25 19.2629 24.655 19.6229 24.127C19.9429 23.65 19.6029 23 19.0329 23H16.9629C16.3929 23 16.0529 23.65 16.3729 24.127C16.7229 24.655 17.3229 25 17.9929 25Z" fill="#AB6A55"/>
<path d="M10.1898 20.87C10.361 20.2014 10.7496 19.6087 11.2945 19.1851C11.8394 18.7615 12.5096 18.5311 13.1998 18.53C14.7098 18.53 15.9598 19.6 16.2398 21.02C16.2998 21.33 16.0498 21.62 15.7298 21.62H10.7898C10.3898 21.62 10.0898 21.25 10.1898 20.87ZM25.8298 20.87C25.6586 20.2014 25.27 19.6087 24.7251 19.1851C24.1802 18.7615 23.51 18.5311 22.8198 18.53C21.3098 18.53 20.0598 19.6 19.7798 21.02C19.7198 21.33 19.9698 21.62 20.2898 21.62H25.2298C25.6298 21.62 25.9298 21.25 25.8298 20.87Z" fill="white"/>
<path d="M11.6797 21.1001C11.6797 20.0101 12.5697 19.1201 13.6597 19.1201C13.9648 19.1208 14.2656 19.1918 14.5388 19.3275C14.812 19.4633 15.0503 19.6603 15.235 19.9031C15.4198 20.1459 15.5461 20.428 15.6041 20.7275C15.6622 21.027 15.6504 21.3359 15.5697 21.6301H11.7497C11.7097 21.4601 11.6797 21.2801 11.6797 21.1001ZM24.3397 21.1001C24.3397 20.0101 23.4497 19.1201 22.3597 19.1201C22.0546 19.1208 21.7538 19.1918 21.4805 19.3275C21.2073 19.4633 20.9691 19.6603 20.7843 19.9031C20.5996 20.1459 20.4733 20.428 20.4152 20.7275C20.3572 21.027 20.369 21.3359 20.4497 21.6301H24.2697C24.3097 21.4601 24.3397 21.2801 24.3397 21.1001Z" fill="#7D4533"/>
<path d="M13.66 19.9701C13.8553 19.9695 14.0473 20.0195 14.2175 20.1152C14.3876 20.211 14.53 20.3493 14.6308 20.5165C14.7315 20.6838 14.7872 20.8743 14.7923 21.0694C14.7974 21.2646 14.7518 21.4578 14.66 21.6301H12.66C12.5682 21.4578 12.5226 21.2646 12.5277 21.0694C12.5329 20.8743 12.5885 20.6838 12.6893 20.5165C12.79 20.3493 12.9324 20.211 13.1026 20.1152C13.2727 20.0195 13.4648 19.9695 13.66 19.9701ZM22.36 19.9701C22.1648 19.9695 21.9727 20.0195 21.8026 20.1152C21.6324 20.211 21.49 20.3493 21.3893 20.5165C21.2885 20.6838 21.2329 20.8743 21.2277 21.0694C21.2226 21.2646 21.2682 21.4578 21.36 21.6301H23.36C23.4518 21.4578 23.4974 21.2646 23.4923 21.0694C23.4872 20.8743 23.4315 20.6838 23.3308 20.5165C23.23 20.3493 23.0876 20.211 22.9175 20.1152C22.7473 20.0195 22.5553 19.9695 22.36 19.9701Z" fill="black"/>
<path d="M13.3299 20.3201C13.3299 20.4129 13.293 20.5019 13.2274 20.5676C13.1617 20.6332 13.0727 20.6701 12.9799 20.6701C12.8871 20.6701 12.798 20.6332 12.7324 20.5676C12.6668 20.5019 12.6299 20.4129 12.6299 20.3201C12.6299 20.2273 12.6668 20.1382 12.7324 20.0726C12.798 20.007 12.8871 19.9701 12.9799 19.9701C13.0727 19.9701 13.1617 20.007 13.2274 20.0726C13.293 20.1382 13.3299 20.2273 13.3299 20.3201ZM22.0999 20.3201C22.0999 20.3661 22.0908 20.4116 22.0732 20.454C22.0557 20.4965 22.0299 20.5351 21.9974 20.5676C21.9649 20.6001 21.9263 20.6259 21.8838 20.6435C21.8414 20.661 21.7958 20.6701 21.7499 20.6701C21.7039 20.6701 21.6584 20.661 21.6159 20.6435C21.5735 20.6259 21.5349 20.6001 21.5024 20.5676C21.4699 20.5351 21.4441 20.4965 21.4265 20.454C21.4089 20.4116 21.3999 20.3661 21.3999 20.3201C21.3999 20.2273 21.4368 20.1382 21.5024 20.0726C21.568 20.007 21.6571 19.9701 21.7499 19.9701C21.8427 19.9701 21.9317 20.007 21.9974 20.0726C22.063 20.1382 22.0999 20.2273 22.0999 20.3201Z" fill="white"/>
<path d="M11.608 17.563C12.129 17.378 12.876 17.237 13.863 17.33C13.9284 17.3362 13.9944 17.3295 14.0572 17.3101C14.1199 17.2908 14.1783 17.2593 14.2289 17.2174C14.2795 17.1755 14.3214 17.1241 14.3521 17.066C14.3828 17.008 14.4018 16.9444 14.408 16.879C14.4142 16.8137 14.4074 16.7477 14.3881 16.6849C14.3688 16.6221 14.3373 16.5638 14.2954 16.5131C14.2535 16.4625 14.2021 16.4207 14.144 16.3899C14.0859 16.3592 14.0224 16.3402 13.957 16.334C12.824 16.228 11.931 16.387 11.272 16.621C11.2102 16.6431 11.1533 16.6771 11.1046 16.7212C11.0558 16.7652 11.0163 16.8185 10.9882 16.8778C10.9313 16.9976 10.9245 17.1351 10.969 17.26C11.0136 17.385 11.1059 17.4871 11.2258 17.5439C11.3456 17.6007 11.4831 17.6076 11.608 17.563ZM24.178 16.621C23.518 16.387 22.626 16.228 21.493 16.334C21.4276 16.3402 21.3641 16.3592 21.306 16.3899C21.248 16.4207 21.1965 16.4625 21.1546 16.5131C21.1128 16.5638 21.0813 16.6221 21.0619 16.6849C21.0426 16.7477 21.0358 16.8137 21.042 16.879C21.0482 16.9444 21.0672 17.008 21.0979 17.066C21.1286 17.1241 21.1705 17.1755 21.2211 17.2174C21.2717 17.2593 21.3301 17.2908 21.3929 17.3101C21.4556 17.3295 21.5216 17.3362 21.587 17.33C22.574 17.237 23.321 17.378 23.842 17.563C23.9669 17.6076 24.1044 17.6007 24.2243 17.5439C24.3441 17.4871 24.4365 17.385 24.481 17.26C24.5256 17.1351 24.5187 16.9976 24.4618 16.8778C24.405 16.758 24.3029 16.6656 24.178 16.621Z" fill="#593B39"/>
</svg>
