<?xml version="1.0" encoding="UTF-8" standalone="no"?>
<svg xmlns="http://www.w3.org/2000/svg" version="1.2" baseProfile="tiny" viewBox="0.00 0.00 150.00 150.00">
<g stroke-width="2.00" fill="none" stroke-linecap="butt">
<path stroke="#b77c52" vector-effect="non-scaling-stroke" d="
  M 35.9818 6.3269
  A 0.37 0.37 0.0 0 0 35.6060 5.9628
  L 30.8466 6.0376
  A 0.37 0.37 0.0 0 0 30.4824 6.4133
  L 30.5182 8.6931
  A 0.37 0.37 0.0 0 0 30.8940 9.0572
  L 35.6534 8.9824
  A 0.37 0.37 0.0 0 0 36.0176 8.6067
  L 35.9818 6.3269"
/>
<path stroke="#b77c52" vector-effect="non-scaling-stroke" d="
  M 48.0029 6.4790
  A 0.50 0.50 0.0 0 0 47.4995 5.9825
  L 42.4796 6.0176
  A 0.50 0.50 0.0 0 0 41.9831 6.5210
  L 41.9971 8.5210
  A 0.50 0.50 0.0 0 0 42.5005 9.0175
  L 47.5204 8.9824
  A 0.50 0.50 0.0 0 0 48.0169 8.4790
  L 48.0029 6.4790"
/>
<path stroke="#b77c52" vector-effect="non-scaling-stroke" d="
  M 60.0021 6.5838
  A 0.61 0.61 0.0 0 0 59.3868 5.9791
  L 54.5870 6.0210
  A 0.61 0.61 0.0 0 0 53.9823 6.6363
  L 53.9979 8.4162
  A 0.61 0.61 0.0 0 0 54.6132 9.0209
  L 59.4130 8.9790
  A 0.61 0.61 0.0 0 0 60.0177 8.3637
  L 60.0021 6.5838"
/>
<path stroke="#b77c52" vector-effect="non-scaling-stroke" d="
  M 71.9910 6.6385
  A 0.66 0.66 0.0 0 0 71.3242 5.9855
  L 66.6244 6.0347
  A 0.66 0.66 0.0 0 0 65.9714 6.7016
  L 65.9890 8.3815
  A 0.66 0.66 0.0 0 0 66.6558 9.0345
  L 71.3556 8.9853
  A 0.66 0.66 0.0 0 0 72.0086 8.3184
  L 71.9910 6.6385"
/>
<path stroke="#b77c52" vector-effect="non-scaling-stroke" d="
  M 84.0177 6.8594
  A 0.85 0.85 0.0 0 0 83.1648 6.0124
  L 78.8048 6.0276
  A 0.85 0.85 0.0 0 0 77.9578 6.8806
  L 77.9623 8.1606
  A 0.85 0.85 0.0 0 0 78.8152 9.0076
  L 83.1752 8.9924
  A 0.85 0.85 0.0 0 0 84.0222 8.1394
  L 84.0177 6.8594"
/>
<path stroke="#b77c52" vector-effect="non-scaling-stroke" d="
  M 96.0262 7.0271
  A 0.95 0.95 0.0 0 0 95.0879 6.0655
  L 90.9282 6.0147
  A 0.95 0.95 0.0 0 0 89.9667 6.9530
  L 89.9538 8.0129
  A 0.95 0.95 0.0 0 0 90.8921 8.9745
  L 95.0518 9.0253
  A 0.95 0.95 0.0 0 0 96.0133 8.0870
  L 96.0262 7.0271"
/>
<path stroke="#b77c52" vector-effect="non-scaling-stroke" d="
  M 108.0123 6.9477
  A 0.94 0.94 0.0 0 0 107.0593 6.0210
  L 102.8797 6.0793
  A 0.94 0.94 0.0 0 0 101.9529 7.0324
  L 101.9677 8.0923
  A 0.94 0.94 0.0 0 0 102.9207 9.0190
  L 107.1003 8.9607
  A 0.94 0.94 0.0 0 0 108.0271 8.0076
  L 108.0123 6.9477"
/>
<path stroke="#b77c52" vector-effect="non-scaling-stroke" d="
  M 119.5336 6.4796
  A 0.47 0.47 0.0 0 0 119.0652 6.0080
  L 114.4852 5.9920
  A 0.47 0.47 0.0 0 0 114.0136 6.4604
  L 114.0064 8.5204
  A 0.47 0.47 0.0 0 0 114.4748 8.9920
  L 119.0548 9.0080
  A 0.47 0.47 0.0 0 0 119.5264 8.5396
  L 119.5336 6.4796"
/>
<path stroke="#b77c52" vector-effect="non-scaling-stroke" d="
  M 25.1468 7.4694
  A 0.43 0.43 0.0 0 0 24.5838 7.2396
  L 20.7304 8.8595
  A 0.43 0.43 0.0 0 0 20.5006 9.4225
  L 21.3532 11.4506
  A 0.43 0.43 0.0 0 0 21.9162 11.6804
  L 25.7696 10.0605
  A 0.43 0.43 0.0 0 0 25.9994 9.4975
  L 25.1468 7.4694"
/>
<path stroke="#b77c52" vector-effect="non-scaling-stroke" d="
  M 129.4846 9.6368
  A 0.57 0.57 0.0 0 0 129.1852 8.8884
  L 125.5087 7.3126
  A 0.57 0.57 0.0 0 0 124.7602 7.6120
  L 124.0354 9.3032
  A 0.57 0.57 0.0 0 0 124.3348 10.0516
  L 128.0113 11.6274
  A 0.57 0.57 0.0 0 0 128.7598 11.3280
  L 129.4846 9.6368"
/>
<path stroke="#b77c52" vector-effect="non-scaling-stroke" d="
  M 15.9365 12.4174
  A 0.29 0.29 0.0 0 0 15.5264 12.4124
  L 12.4203 15.4435
  A 0.29 0.29 0.0 0 0 12.4153 15.8536
  L 14.0635 17.5426
  A 0.29 0.29 0.0 0 0 14.4736 17.5476
  L 17.5797 14.5165
  A 0.29 0.29 0.0 0 0 17.5847 14.1064
  L 15.9365 12.4174"
/>
<path stroke="#b77c52" vector-effect="non-scaling-stroke" d="
  M 134.5633 12.4503
  A 0.33 0.33 0.0 0 0 134.0966 12.4503
  L 132.4703 14.0766
  A 0.33 0.33 0.0 0 0 132.4703 14.5433
  L 135.4967 17.5697
  A 0.33 0.33 0.0 0 0 135.9634 17.5697
  L 137.5897 15.9434
  A 0.33 0.33 0.0 0 0 137.5897 15.4767
  L 134.5633 12.4503"
/>
<path stroke="#b77c52" vector-effect="non-scaling-stroke" d="
  M 11.6884 21.9161
  A 0.42 0.42 0.0 0 0 11.4755 21.3616
  L 9.5388 20.4993
  A 0.42 0.42 0.0 0 0 8.9843 20.7122
  L 7.2516 24.6039
  A 0.42 0.42 0.0 0 0 7.4645 25.1584
  L 9.4012 26.0207
  A 0.42 0.42 0.0 0 0 9.9557 25.8078
  L 11.6884 21.9161"
/>
<path stroke="#b77c52" vector-effect="non-scaling-stroke" d="
  M 141.1681 20.8068
  A 0.48 0.48 0.0 0 0 140.5400 20.5492
  L 138.6027 21.3596
  A 0.48 0.48 0.0 0 0 138.3451 21.9877
  L 139.9119 25.7332
  A 0.48 0.48 0.0 0 0 140.5400 25.9908
  L 142.4773 25.1804
  A 0.48 0.48 0.0 0 0 142.7349 24.5523
  L 141.1681 20.8068"
/>
<path stroke="#b77c52" vector-effect="non-scaling-stroke" d="
  M 47.88 92.37
  A 0.41 0.40 81.7 0 1 47.61 92.74
  C 41.07 94.99 41.78 100.83 42.07 106.33
  A 1.10 1.09 -0.3 0 0 43.12 107.36
  L 46.54 107.51
  A 1.30 1.30 0.0 0 0 47.87 105.92
  Q 47.48 104.14 45.55 104.54
  Q 44.87 104.67 44.85 103.98
  C 44.75 101.26 44.39 97.63 47.23 96.04
  Q 48.74 95.20 50.40 95.50
  C 54.63 96.27 54.01 100.87 54.01 103.93
  A 0.65 0.64 7.3 0 1 53.20 104.55
  C 51.94 104.22 50.95 105.26 51.27 106.51
  Q 51.42 107.11 52.03 107.25
  Q 54.30 107.76 56.17 107.21
  Q 56.80 107.03 56.83 106.37
  C 57.08 100.91 57.91 94.89 51.37 92.72
  Q 50.89 92.56 50.87 92.05
  Q 50.65 86.44 51.49 82.06
  Q 51.88 80.02 52.62 81.96
  Q 55.84 90.43 59.19 98.61
  Q 60.07 100.74 60.04 102.82
  Q 59.95 109.71 60.01 116.76
  A 0.36 0.36 0.0 0 1 59.65 117.13
  L 42.40 117.13
  A 0.54 0.54 0.0 0 1 41.86 116.59
  L 41.87 109.52
  Q 41.87 108.22 40.57 108.13
  Q 40.23 108.11 39.91 108.26
  Q 39.11 108.63 39.05 109.51
  Q 38.82 112.95 39.10 115.42
  Q 39.29 117.12 37.58 117.12
  L 31.31 117.13
  Q 29.65 117.13 29.75 115.47
  Q 30.05 110.70 29.78 106.15
  Q 29.71 105.10 28.69 104.86
  Q 28.04 104.70 27.35 105.41
  A 1.21 1.19 67.8 0 0 27.00 106.26
  L 27.00 118.50
  A 1.50 1.50 0.0 0 0 28.50 120.00
  L 99.07 120.00
  A 1.25 1.23 18.0 0 0 100.07 119.50
  Q 100.56 118.85 100.35 118.24
  Q 99.99 117.13 98.82 117.13
  L 87.96 117.13
  Q 85.81 117.13 86.52 115.10
  Q 88.28 110.11 88.40 109.77
  Q 89.18 107.57 91.35 107.95
  Q 101.73 109.81 112.13 107.98
  Q 114.53 107.55 115.31 109.86
  L 116.99 114.86
  Q 117.75 117.13 115.35 117.13
  L 105.11 117.13
  Q 104.19 117.13 103.86 117.99
  Q 103.71 118.37 103.83 118.72
  Q 104.26 120.00 105.62 120.00
  L 118.50 120.00
  A 1.49 1.48 -89.0 0 0 119.98 118.56
  Q 120.21 112.51 116.90 107.30
  Q 116.62 106.86 117.13 106.74
  C 120.39 106.00 125.17 103.48 125.97 99.87
  Q 126.15 99.09 125.52 98.61
  L 123.73 97.22
  A 0.60 0.60 0.0 0 1 123.87 96.19
  Q 125.01 95.73 125.65 94.87
  A 1.60 1.60 0.0 0 0 125.07 92.48
  Q 121.78 90.85 119.44 88.62
  A 1.40 1.38 24.0 0 1 119.01 87.53
  Q 119.32 82.50 119.65 77.50
  Q 119.81 75.12 119.37 74.06
  C 118.29 71.51 115.51 71.18 113.36 72.78
  Q 110.99 74.54 108.75 76.23
  Q 108.34 76.55 107.85 76.35
  Q 101.77 73.85 95.67 76.38
  Q 95.32 76.52 95.02 76.31
  L 89.53 72.41
  A 0.19 0.19 0.0 0 1 89.63 72.06
  Q 91.51 71.93 91.50 70.12
  Q 91.49 65.04 91.50 59.46
  A 1.44 1.43 2.1 0 0 90.16 58.02
  L 89.85 58.00
  Q 88.63 57.93 88.63 59.15
  L 88.62 68.28
  Q 88.62 69.11 87.83 68.85
  Q 80.91 66.56 80.96 59.29
  Q 80.96 58.74 81.43 58.44
  C 82.95 57.48 84.10 56.31 84.33 54.41
  C 84.72 51.17 84.86 47.61 81.69 45.88
  A 1.34 1.33 -75.6 0 1 81.00 44.71
  L 81.00 40.52
  Q 81.00 39.80 81.69 40.01
  C 88.12 41.99 88.84 46.97 88.63 53.13
  A 1.32 1.31 1.3 0 0 89.94 54.49
  Q 90.07 54.49 90.20 54.48
  A 1.42 1.42 0.0 0 0 91.42 53.21
  Q 92.73 39.66 81.22 36.99
  Q 80.61 36.85 80.46 36.24
  C 76.47 19.84 55.30 15.39 45.38 29.54
  C 42.23 34.01 41.76 39.18 42.03 44.60
  Q 42.06 45.24 41.53 45.60
  C 40.17 46.53 38.99 47.56 38.69 49.29
  C 37.86 54.09 38.68 59.23 44.95 58.99
  Q 45.49 58.97 45.48 59.52
  Q 45.36 67.10 51.29 72.21
  A 0.88 0.88 0.0 0 1 51.53 73.22
  L 49.45 78.27
  Q 49.23 78.79 48.70 78.96
  Q 41.51 81.25 34.17 83.53
  C 29.03 85.13 26.73 89.29 26.95 94.54
  Q 27.07 97.27 27.00 100.07
  A 1.19 1.17 24.7 0 0 27.31 100.89
  Q 27.85 101.45 28.41 101.41
  A 1.64 1.64 0.0 0 0 29.91 99.67
  C 29.58 94.77 28.92 88.29 34.76 86.40
  Q 41.60 84.19 48.08 82.26
  Q 48.35 82.18 48.34 82.47
  L 47.88 92.37"
/>
<path stroke="#b77c52" vector-effect="non-scaling-stroke" d="
  M 9.0325 30.8912
  A 0.43 0.43 0.0 0 0 8.6086 30.4552
  L 6.4688 30.4253
  A 0.43 0.43 0.0 0 0 6.0328 30.8493
  L 5.9675 35.5288
  A 0.43 0.43 0.0 0 0 6.3914 35.9648
  L 8.5312 35.9947
  A 0.43 0.43 0.0 0 0 8.9672 35.5707
  L 9.0325 30.8912"
/>
<path stroke="#b77c52" vector-effect="non-scaling-stroke" d="
  M 143.9717 30.9017
  A 0.43 0.43 0.0 0 0 143.5364 30.4770
  L 141.3766 30.5034
  A 0.43 0.43 0.0 0 0 140.9519 30.9386
  L 141.0083 35.5583
  A 0.43 0.43 0.0 0 0 141.4436 35.9830
  L 143.6034 35.9566
  A 0.43 0.43 0.0 0 0 144.0281 35.5214
  L 143.9717 30.9017"
/>
<path stroke="#b77c52" vector-effect="non-scaling-stroke" d="
  M 8.9735 42.8020
  A 0.86 0.86 0.0 0 0 8.1031 41.9525
  L 6.8432 41.9679
  A 0.86 0.86 0.0 0 0 5.9937 42.8384
  L 6.0465 47.1580
  A 0.86 0.86 0.0 0 0 6.9169 48.0075
  L 8.1768 47.9921
  A 0.86 0.86 0.0 0 0 9.0263 47.1216
  L 8.9735 42.8020"
/>
<path stroke="#b77c52" vector-effect="non-scaling-stroke" d="
  M 143.9814 42.6420
  A 0.66 0.66 0.0 0 0 143.3134 41.9901
  L 141.6535 42.0104
  A 0.66 0.66 0.0 0 0 141.0016 42.6784
  L 141.0586 47.3380
  A 0.66 0.66 0.0 0 0 141.7266 47.9899
  L 143.3865 47.9696
  A 0.66 0.66 0.0 0 0 144.0384 47.3016
  L 143.9814 42.6420"
/>
<path stroke="#b77c52" vector-effect="non-scaling-stroke" d="
  M 8.9707 54.8594
  A 0.94 0.94 0.0 0 0 8.0176 53.9326
  L 6.9177 53.9480
  A 0.94 0.94 0.0 0 0 5.9910 54.9010
  L 6.0493 59.0806
  A 0.94 0.94 0.0 0 0 7.0024 60.0074
  L 8.1023 59.9920
  A 0.94 0.94 0.0 0 0 9.0290 59.0390
  L 8.9707 54.8594"
/>
<path stroke="#b77c52" vector-effect="non-scaling-stroke" d="
  M 143.9941 54.7097
  A 0.73 0.73 0.0 0 0 143.2590 53.9848
  L 141.7391 53.9954
  A 0.73 0.73 0.0 0 0 141.0142 54.7305
  L 141.0459 59.2703
  A 0.73 0.73 0.0 0 0 141.7810 59.9952
  L 143.3009 59.9846
  A 0.73 0.73 0.0 0 0 144.0258 59.2495
  L 143.9941 54.7097"
/>
<path stroke="#b77c52" vector-effect="non-scaling-stroke" d="
  M 8.9701 66.8194
  A 0.90 0.90 0.0 0 0 8.0576 65.9321
  L 6.8778 65.9485
  A 0.90 0.90 0.0 0 0 5.9904 66.8610
  L 6.0499 71.1206
  A 0.90 0.90 0.0 0 0 6.9624 72.0079
  L 8.1422 71.9915
  A 0.90 0.90 0.0 0 0 9.0296 71.0790
  L 8.9701 66.8194"
/>
<path stroke="#b77c52" vector-effect="non-scaling-stroke" d="
  M 143.9818 66.6718
  A 0.69 0.69 0.0 0 0 143.2834 65.9903
  L 141.6635 66.0101
  A 0.69 0.69 0.0 0 0 140.9820 66.7085
  L 141.0382 71.3082
  A 0.69 0.69 0.0 0 0 141.7366 71.9897
  L 143.3565 71.9699
  A 0.69 0.69 0.0 0 0 144.0380 71.2715
  L 143.9818 66.6718"
/>
<path stroke="#b77c52" vector-effect="non-scaling-stroke" d="
  M 8.9624 78.8041
  A 0.88 0.88 0.0 0 0 8.0672 77.9396
  L 6.8274 77.9613
  A 0.88 0.88 0.0 0 0 5.9629 78.8565
  L 6.0376 83.1359
  A 0.88 0.88 0.0 0 0 6.9328 84.0004
  L 8.1726 83.9787
  A 0.88 0.88 0.0 0 0 9.0371 83.0835
  L 8.9624 78.8041"
/>
<path stroke="#b77c52" vector-effect="non-scaling-stroke" d="
  M 144.01 78.61
  A 0.62 0.62 0.0 0 0 143.39 77.99
  L 141.63 77.99
  A 0.62 0.62 0.0 0 0 141.01 78.61
  L 141.01 83.37
  A 0.62 0.62 0.0 0 0 141.63 83.99
  L 143.39 83.99
  A 0.62 0.62 0.0 0 0 144.01 83.37
  L 144.01 78.61"
/>
<path stroke="#b77c52" vector-effect="non-scaling-stroke" d="
  M 8.9836 90.8018
  A 0.88 0.88 0.0 0 0 8.0929 89.9327
  L 6.8530 89.9478
  A 0.88 0.88 0.0 0 0 5.9838 90.8385
  L 6.0364 95.1382
  A 0.88 0.88 0.0 0 0 6.9271 96.0073
  L 8.1670 95.9922
  A 0.88 0.88 0.0 0 0 9.0362 95.1015
  L 8.9836 90.8018"
/>
<path stroke="#b77c52" vector-effect="non-scaling-stroke" d="
  M 144.0058 90.5874
  A 0.60 0.60 0.0 0 0 143.4048 89.9884
  L 141.6048 89.9916
  A 0.60 0.60 0.0 0 0 141.0058 90.5926
  L 141.0142 95.3926
  A 0.60 0.60 0.0 0 0 141.6152 95.9916
  L 143.4152 95.9884
  A 0.60 0.60 0.0 0 0 144.0142 95.3874
  L 144.0058 90.5874"
/>
<path stroke="#b77c52" vector-effect="non-scaling-stroke" d="
  M 8.9922 102.7348
  A 0.78 0.78 0.0 0 0 8.2095 101.9575
  L 6.7695 101.9625
  A 0.78 0.78 0.0 0 0 5.9922 102.7452
  L 6.0078 107.2252
  A 0.78 0.78 0.0 0 0 6.7905 108.0025
  L 8.2305 107.9975
  A 0.78 0.78 0.0 0 0 9.0078 107.2148
  L 8.9922 102.7348"
/>
<path stroke="#b77c52" vector-effect="non-scaling-stroke" d="
  M 143.9865 102.4122
  A 0.42 0.42 0.0 0 0 143.5643 101.9944
  L 141.4043 102.0057
  A 0.42 0.42 0.0 0 0 140.9865 102.4279
  L 141.0135 107.5878
  A 0.42 0.42 0.0 0 0 141.4357 108.0056
  L 143.5957 107.9943
  A 0.42 0.42 0.0 0 0 144.0135 107.5721
  L 143.9865 102.4122"
/>
<path stroke="#b77c52" vector-effect="non-scaling-stroke" d="
  M 8.9854 114.4112
  A 0.43 0.43 0.0 0 0 8.5472 113.9896
  L 6.3676 114.0314
  A 0.43 0.43 0.0 0 0 5.9459 114.4696
  L 6.0346 119.0888
  A 0.43 0.43 0.0 0 0 6.4728 119.5104
  L 8.6524 119.4686
  A 0.43 0.43 0.0 0 0 9.0741 119.0304
  L 8.9854 114.4112"
/>
<path stroke="#b77c52" vector-effect="non-scaling-stroke" d="
  M 144.0303 114.2785
  A 0.26 0.26 0.0 0 0 143.7735 114.0154
  L 141.2937 113.9851
  A 0.26 0.26 0.0 0 0 141.0305 114.2419
  L 140.9697 119.2215
  A 0.26 0.26 0.0 0 0 141.2265 119.4846
  L 143.7063 119.5149
  A 0.26 0.26 0.0 0 0 143.9695 119.2581
  L 144.0303 114.2785"
/>
<path stroke="#b77c52" vector-effect="non-scaling-stroke" d="
  M 10.0615 124.1963
  A 0.41 0.41 0.0 0 0 9.5242 123.9781
  L 7.4424 124.8575
  A 0.41 0.41 0.0 0 0 7.2242 125.3948
  L 8.8585 129.2637
  A 0.41 0.41 0.0 0 0 9.3958 129.4819
  L 11.4776 128.6025
  A 0.41 0.41 0.0 0 0 11.6958 128.0652
  L 10.0615 124.1963"
/>
<path stroke="#b77c52" vector-effect="non-scaling-stroke" d="
  M 142.7089 125.4365
  A 0.48 0.48 0.0 0 0 142.4613 124.8045
  L 140.6285 124.0038
  A 0.48 0.48 0.0 0 0 139.9965 124.2514
  L 138.3311 128.0635
  A 0.48 0.48 0.0 0 0 138.5787 128.6955
  L 140.4115 129.4962
  A 0.48 0.48 0.0 0 0 141.0435 129.2486
  L 142.7089 125.4365"
/>
<path stroke="#b77c52" vector-effect="non-scaling-stroke" d="
  M 14.5136 132.4594
  A 0.32 0.32 0.0 0 0 14.0611 132.4586
  L 12.4319 134.0822
  A 0.32 0.32 0.0 0 0 12.4311 134.5347
  L 15.4664 137.5806
  A 0.32 0.32 0.0 0 0 15.9189 137.5814
  L 17.5481 135.9578
  A 0.32 0.32 0.0 0 0 17.5489 135.5053
  L 14.5136 132.4594"
/>
<path stroke="#b77c52" vector-effect="non-scaling-stroke" d="
  M 135.9090 132.4383
  A 0.27 0.27 0.0 0 0 135.5272 132.4356
  L 132.4085 135.5110
  A 0.27 0.27 0.0 0 0 132.4058 135.8929
  L 134.0910 137.6017
  A 0.27 0.27 0.0 0 0 134.4728 137.6044
  L 137.5915 134.5290
  A 0.27 0.27 0.0 0 0 137.5942 134.1471
  L 135.9090 132.4383"
/>
<path stroke="#b77c52" vector-effect="non-scaling-stroke" d="
  M 25.9828 140.6333
  A 0.49 0.49 0.0 0 0 25.7266 139.9895
  L 21.9242 138.3519
  A 0.49 0.49 0.0 0 0 21.2804 138.6081
  L 20.4972 140.4267
  A 0.49 0.49 0.0 0 0 20.7534 141.0705
  L 24.5558 142.7081
  A 0.49 0.49 0.0 0 0 25.1996 142.4519
  L 25.9828 140.6333"
/>
<path stroke="#b77c52" vector-effect="non-scaling-stroke" d="
  M 128.6407 138.5586
  A 0.44 0.44 0.0 0 0 128.0646 138.3235
  L 124.2296 139.9356
  A 0.44 0.44 0.0 0 0 123.9945 140.5117
  L 124.8393 142.5214
  A 0.44 0.44 0.0 0 0 125.4154 142.7565
  L 129.2504 141.1444
  A 0.44 0.44 0.0 0 0 129.4855 140.5683
  L 128.6407 138.5586"
/>
<path stroke="#b77c52" vector-effect="non-scaling-stroke" d="
  M 119.5037 141.4481
  A 0.54 0.54 0.0 0 0 118.9497 140.9224
  L 114.5112 141.0386
  A 0.54 0.54 0.0 0 0 113.9856 141.5926
  L 114.0363 143.5319
  A 0.54 0.54 0.0 0 0 114.5903 144.0576
  L 119.0288 143.9414
  A 0.54 0.54 0.0 0 0 119.5544 143.3874
  L 119.5037 141.4481"
/>
<path stroke="#b77c52" vector-effect="non-scaling-stroke" d="
  M 36.0012 141.4491
  A 0.42 0.42 0.0 0 0 35.5856 141.0247
  L 30.8858 140.9755
  A 0.42 0.42 0.0 0 0 30.4615 141.3911
  L 30.4388 143.5509
  A 0.42 0.42 0.0 0 0 30.8544 143.9753
  L 35.5542 144.0245
  A 0.42 0.42 0.0 0 0 35.9785 143.6089
  L 36.0012 141.4491"
/>
<path stroke="#b77c52" vector-effect="non-scaling-stroke" d="
  M 48.0138 141.9631
  A 1.01 1.01 0.0 0 0 46.9915 140.9656
  L 42.9718 141.0147
  A 1.01 1.01 0.0 0 0 41.9742 142.0369
  L 41.9862 143.0169
  A 1.01 1.01 0.0 0 0 43.0085 144.0144
  L 47.0282 143.9653
  A 1.01 1.01 0.0 0 0 48.0258 142.9431
  L 48.0138 141.9631"
/>
<path stroke="#b77c52" vector-effect="non-scaling-stroke" d="
  M 60.0120 142.0074
  A 1.06 1.06 0.0 0 0 58.9337 140.9660
  L 55.0143 141.0344
  A 1.06 1.06 0.0 0 0 53.9730 142.1128
  L 53.9880 142.9726
  A 1.06 1.06 0.0 0 0 55.0663 144.0140
  L 58.9857 143.9456
  A 1.06 1.06 0.0 0 0 60.0270 142.8672
  L 60.0120 142.0074"
/>
<path stroke="#b77c52" vector-effect="non-scaling-stroke" d="
  M 72.0119 141.9974
  A 1.06 1.06 0.0 0 0 70.9335 140.9560
  L 67.0141 141.0244
  A 1.06 1.06 0.0 0 0 65.9728 142.1028
  L 65.9881 142.9826
  A 1.06 1.06 0.0 0 0 67.0665 144.0240
  L 70.9859 143.9556
  A 1.06 1.06 0.0 0 0 72.0272 142.8772
  L 72.0119 141.9974"
/>
<path stroke="#b77c52" vector-effect="non-scaling-stroke" d="
  M 84.0120 142.0074
  A 1.06 1.06 0.0 0 0 82.9337 140.9660
  L 79.0143 141.0344
  A 1.06 1.06 0.0 0 0 77.9730 142.1128
  L 77.9880 142.9726
  A 1.06 1.06 0.0 0 0 79.0663 144.0140
  L 82.9857 143.9456
  A 1.06 1.06 0.0 0 0 84.0270 142.8672
  L 84.0120 142.0074"
/>
<path stroke="#b77c52" vector-effect="non-scaling-stroke" d="
  M 96.0117 141.9874
  A 1.05 1.05 0.0 0 0 94.9435 140.9558
  L 91.0041 141.0246
  A 1.05 1.05 0.0 0 0 89.9726 142.0928
  L 89.9883 142.9926
  A 1.05 1.05 0.0 0 0 91.0565 144.0242
  L 94.9959 143.9554
  A 1.05 1.05 0.0 0 0 96.0274 142.8872
  L 96.0117 141.9874"
/>
<path stroke="#b77c52" vector-effect="non-scaling-stroke" d="
  M 108.0342 142.0265
  A 1.01 1.01 0.0 0 0 107.0330 141.0077
  L 102.9932 140.9724
  A 1.01 1.01 0.0 0 0 101.9744 141.9736
  L 101.9658 142.9535
  A 1.01 1.01 0.0 0 0 102.9670 143.9723
  L 107.0068 144.0076
  A 1.01 1.01 0.0 0 0 108.0256 143.0064
  L 108.0342 142.0265"
/>
<path stroke="#b77c52" vector-effect="non-scaling-stroke" d="
  M 58.19 33.70
  C 62.01 41.53 68.31 46.09 77.37 44.96
  Q 77.87 44.90 77.92 44.40
  Q 79.26 32.45 70.32 26.59
  C 60.60 20.22 47.59 25.86 45.33 36.95
  Q 44.63 40.38 44.85 44.40
  Q 44.87 44.86 45.33 44.92
  C 53.15 45.91 55.81 42.24 55.55 34.60
  Q 55.50 33.13 56.92 32.99
  A 1.27 1.27 0.0 0 1 58.19 33.70"
/>
<path stroke="#b77c52" vector-effect="non-scaling-stroke" d="
  M 57.95 40.40
  Q 55.85 47.49 48.95 47.90
  Q 48.41 47.93 48.39 48.48
  Q 48.17 55.77 48.50 60.63
  Q 49.20 70.85 59.64 72.28
  C 64.93 73.00 70.31 70.92 72.98 66.33
  C 75.59 61.84 74.54 53.86 74.67 48.57
  Q 74.68 47.91 74.02 47.89
  Q 64.46 47.58 58.89 40.23
  Q 58.25 39.39 57.95 40.40"
/>
<path stroke="#b77c52" vector-effect="non-scaling-stroke" d="
  M 45.49 55.91
  L 45.51 48.15
  A 0.31 0.31 0.0 0 0 45.20 47.84
  L 44.53 47.83
  A 3.18 2.94 0.2 0 0 41.34 50.76
  L 41.34 53.26
  A 3.18 2.94 0.2 0 0 44.51 56.21
  L 45.18 56.22
  A 0.31 0.31 0.0 0 0 45.49 55.91"
/>
<path stroke="#b77c52" vector-effect="non-scaling-stroke" d="
  M 77.50 48.16
  L 77.50 55.86
  A 0.31 0.31 0.0 0 0 77.81 56.17
  L 78.74 56.17
  A 2.78 2.72 -0.0 0 0 81.52 53.45
  L 81.52 50.57
  A 2.78 2.72 0.0 0 0 78.74 47.85
  L 77.81 47.85
  A 0.31 0.31 0.0 0 0 77.50 48.16"
/>
<path stroke="#b77c52" vector-effect="non-scaling-stroke" d="
  M 86.49 71.79
  Q 87.21 71.51 86.45 71.34
  C 81.15 70.19 78.06 64.38 78.16 59.37
  A 0.15 0.14 -76.8 0 0 78.08 59.24
  L 77.77 59.13
  A 0.21 0.21 0.0 0 0 77.48 59.33
  Q 77.57 67.12 71.69 72.21
  Q 71.19 72.64 71.45 73.26
  L 73.55 78.29
  Q 73.77 78.83 74.32 79.00
  L 83.58 81.91
  A 0.49 0.49 0.0 0 0 84.21 81.40
  Q 83.90 78.18 83.87 75.40
  Q 83.85 72.83 86.49 71.79"
/>
<path stroke="#b77c52" vector-effect="non-scaling-stroke" d="
  M 67.58 81.24
  Q 68.95 78.17 68.46 74.67
  Q 68.38 74.10 67.83 74.27
  Q 61.10 76.32 55.15 74.25
  Q 54.60 74.06 54.53 74.64
  Q 54.00 79.19 56.27 83.33
  Q 56.51 83.75 56.99 83.75
  L 65.98 83.74
  Q 66.68 83.74 66.88 83.08
  Q 67.17 82.16 67.58 81.24"
/>
<path stroke="#b77c52" vector-effect="non-scaling-stroke" d="
  M 100.36 82.41
  L 100.41 78.47
  A 0.47 0.47 0.0 0 0 99.78 78.02
  L 95.28 79.65
  A 0.98 0.97 -36.1 0 1 94.36 79.51
  L 88.15 74.82
  A 0.88 0.88 0.0 0 0 86.74 75.56
  Q 87.00 81.23 87.50 87.19
  C 87.76 90.31 84.65 92.24 82.36 93.59
  Q 81.45 94.13 82.39 94.63
  Q 83.91 95.45 84.25 96.82
  Q 84.37 97.30 83.99 97.61
  L 81.09 99.94
  A 0.39 0.39 0.0 0 0 81.08 100.54
  C 83.20 102.35 85.57 103.67 88.27 104.34
  C 96.33 106.34 105.79 106.39 114.22 104.61
  Q 118.97 103.61 122.32 100.72
  A 0.64 0.64 0.0 0 0 122.28 99.72
  L 119.86 97.96
  Q 119.39 97.62 119.40 97.05
  Q 119.40 95.28 121.21 94.73
  A 0.55 0.55 0.0 0 0 121.35 93.74
  C 119.15 92.33 115.91 90.51 116.12 87.46
  Q 116.51 81.88 116.82 75.65
  A 0.91 0.91 0.0 0 0 115.37 74.87
  L 109.32 79.42
  A 1.17 1.16 -52.9 0 1 108.22 79.58
  L 103.93 78.05
  A 0.51 0.51 0.0 0 0 103.25 78.53
  L 103.25 82.23
  Q 103.25 83.39 102.09 83.56
  Q 101.70 83.62 101.30 83.55
  Q 100.35 83.38 100.36 82.41"
/>
<path stroke="#b77c52" vector-effect="non-scaling-stroke" d="
  M 86.21 106.63
  Q 79.49 104.70 77.75 100.37
  Q 77.50 99.76 77.08 100.26
  C 72.70 105.46 65.10 98.04 71.49 93.58
  Q 71.91 93.29 71.95 92.79
  Q 72.45 87.14 71.45 81.98
  Q 71.11 80.18 70.43 81.88
  L 63.50 99.41
  Q 62.84 101.07 62.84 102.86
  L 62.86 116.70
  A 0.43 0.43 0.0 0 0 63.29 117.13
  L 83.00 117.13
  Q 83.60 117.13 83.63 116.53
  Q 83.89 111.36 86.52 107.48
  Q 86.96 106.84 86.21 106.63"
/>
<path stroke="#b77c52" vector-effect="non-scaling-stroke" d="
  M 78.18 98.44
  Q 79.16 97.90 79.84 97.07
  A 0.67 0.67 0.0 0 0 79.68 96.07
  L 78.33 95.23
  A 1.53 1.52 -42.5 0 1 78.45 92.58
  Q 81.42 91.06 83.88 88.90
  A 2.43 2.43 0.0 0 0 83.00 84.75
  L 75.11 82.27
  Q 74.62 82.12 74.64 82.63
  L 75.11 92.78
  Q 75.13 93.28 75.48 93.64
  C 76.10 94.29 76.91 94.51 77.38 95.39
  Q 78.12 96.76 77.75 99.13
  Q 77.74 99.21 77.78 99.14
  Q 77.80 99.11 77.84 99.11
  Q 77.91 99.13 77.89 99.06
  Q 77.81 98.82 78.01 98.58
  A 0.51 0.49 -83.2 0 1 78.18 98.44"
/>
<path stroke="#b77c52" vector-effect="non-scaling-stroke" d="
  M 65.24 87.08
  A 0.34 0.34 0.0 0 0 64.92 86.62
  L 58.07 86.61
  A 0.34 0.34 0.0 0 0 57.75 87.07
  L 61.16 95.87
  A 0.34 0.34 0.0 0 0 61.80 95.87
  L 65.24 87.08"
/>
<path stroke="#b77c52" vector-effect="non-scaling-stroke" d="
  M 75.00 97.52
  A 1.50 1.50 0.0 0 0 73.50 96.02
  A 1.50 1.50 0.0 0 0 72.00 97.52
  A 1.50 1.50 0.0 0 0 73.50 99.02
  A 1.50 1.50 0.0 0 0 75.00 97.52"
/>
<path stroke="#b77c52" vector-effect="non-scaling-stroke" d="
  M 56.6355 51.6575
  A 1.28 1.28 0.0 0 0 55.3623 50.3708
  L 55.0623 50.3692
  A 1.28 1.28 0.0 0 0 53.7756 51.6425
  L 53.7645 53.7625
  A 1.28 1.28 0.0 0 0 55.0377 55.0492
  L 55.3377 55.0508
  A 1.28 1.28 0.0 0 0 56.6244 53.7775
  L 56.6355 51.6575"
/>
<path stroke="#b77c52" vector-effect="non-scaling-stroke" d="
  M 69.1618 51.6925
  A 1.30 1.30 0.0 0 0 67.8641 50.3903
  L 67.5641 50.3897
  A 1.30 1.30 0.0 0 0 66.2618 51.6875
  L 66.2582 53.7675
  A 1.30 1.30 0.0 0 0 67.5559 55.0697
  L 67.8559 55.0703
  A 1.30 1.30 0.0 0 0 69.1582 53.7725
  L 69.1618 51.6925"
/>
<path stroke="#b77c52" vector-effect="non-scaling-stroke" d="
  M 63.70 61.41
  C 63.29 64.59 59.47 64.36 59.29 61.47
  Q 59.22 60.42 58.19 60.18
  Q 57.98 60.13 57.77 60.17
  Q 56.28 60.42 56.43 61.93
  Q 56.81 65.68 60.34 66.45
  Q 64.95 67.47 66.54 62.27
  A 1.56 1.51 42.7 0 0 66.48 61.20
  Q 65.98 60.07 65.16 60.09
  Q 63.86 60.12 63.70 61.41"
/>
<path stroke="#b77c52" vector-effect="non-scaling-stroke" d="
  M 97.5219 87.3102
  A 1.21 1.21 0.0 0 0 96.3375 86.0751
  L 95.8976 86.0659
  A 1.21 1.21 0.0 0 0 94.6625 87.2503
  L 94.6181 89.3698
  A 1.21 1.21 0.0 0 0 95.8025 90.6049
  L 96.2424 90.6141
  A 1.21 1.21 0.0 0 0 97.4775 89.4297
  L 97.5219 87.3102"
/>
<path stroke="#b77c52" vector-effect="non-scaling-stroke" d="
  M 108.8527 87.3152
  A 1.32 1.32 0.0 0 0 107.5098 86.0184
  L 107.2899 86.0223
  A 1.32 1.32 0.0 0 0 105.9931 87.3651
  L 106.0273 89.3248
  A 1.32 1.32 0.0 0 0 107.3702 90.6216
  L 107.5901 90.6177
  A 1.32 1.32 0.0 0 0 108.8869 89.2749
  L 108.8527 87.3152"
/>
<path stroke="#b77c52" vector-effect="non-scaling-stroke" d="
  M 100.95 93.08
  Q 100.85 92.86 100.66 92.72
  Q 100.28 92.45 99.83 92.55
  C 98.59 92.83 98.09 94.08 98.84 95.12
  Q 99.26 95.70 99.75 96.14
  A 0.93 0.93 0.0 0 1 99.60 97.63
  Q 98.56 98.25 97.43 98.47
  Q 96.86 98.58 96.68 99.14
  Q 96.39 100.02 96.89 100.71
  Q 97.18 101.11 97.67 101.14
  Q 99.58 101.25 101.10 100.14
  A 0.88 0.86 38.5 0 1 101.96 100.05
  L 104.57 101.19
  A 1.46 1.45 41.7 0 0 105.87 101.12
  Q 107.27 100.32 106.85 98.97
  A 0.88 0.88 0.0 0 0 106.07 98.35
  Q 104.67 98.28 103.60 97.27
  A 0.54 0.54 0.0 0 1 103.55 96.54
  L 104.84 94.91
  A 1.36 1.36 0.0 0 0 104.71 93.07
  Q 103.51 91.94 102.32 93.28
  Q 101.47 94.23 100.95 93.08"
/>
<path stroke="#b77c52" vector-effect="non-scaling-stroke" d="
  M 93.7287 95.7270
  A 1.25 1.25 0.0 0 0 92.4700 94.4858
  L 88.3901 94.5143
  A 1.25 1.25 0.0 0 0 87.1488 95.7730
  L 87.1513 96.1330
  A 1.25 1.25 0.0 0 0 88.4100 97.3742
  L 92.4899 97.3457
  A 1.25 1.25 0.0 0 0 93.7312 96.0870
  L 93.7287 95.7270"
/>
<path stroke="#b77c52" vector-effect="non-scaling-stroke" d="
  M 116.4704 95.8574
  A 1.33 1.33 0.0 0 0 115.1474 94.5205
  L 111.1474 94.4995
  A 1.33 1.33 0.0 0 0 109.8105 95.8226
  L 109.8096 95.9826
  A 1.33 1.33 0.0 0 0 111.1326 97.3195
  L 115.1326 97.3405
  A 1.33 1.33 0.0 0 0 116.4695 96.0174
  L 116.4704 95.8574"
/>
<path stroke="#b77c52" vector-effect="non-scaling-stroke" d="
  M 93.4961 99.0414
  A 1.29 1.29 0.0 0 0 91.7829 98.4144
  L 87.8645 100.2333
  A 1.29 1.29 0.0 0 0 87.2375 101.9465
  L 87.3639 102.2186
  A 1.29 1.29 0.0 0 0 89.0771 102.8456
  L 92.9955 101.0267
  A 1.29 1.29 0.0 0 0 93.6225 99.3135
  L 93.4961 99.0414"
/>
<path stroke="#b77c52" vector-effect="non-scaling-stroke" d="
  M 116.3493 102.0813
  A 1.38 1.38 0.0 0 0 115.7203 100.2338
  L 111.8801 98.3442
  A 1.38 1.38 0.0 0 0 110.0326 98.9731
  L 109.9707 99.0987
  A 1.38 1.38 0.0 0 0 110.5997 100.9462
  L 114.4399 102.8358
  A 1.38 1.38 0.0 0 0 116.2874 102.2069
  L 116.3493 102.0813"
/>
</g>
<path fill="#704520" d="
  M 24.57 0.00
  L 125.52 0.00
  Q 146.62 3.58 150.00 24.55
  L 150.00 125.54
  Q 146.41 146.63 125.44 150.00
  L 24.47 150.00
  Q 3.37 146.42 0.00 125.44
  L 0.00 97.25
  L 0.00 52.13
  L 0.00 24.48
  Q 3.59 3.36 24.57 0.00
  Z
  M 35.9818 6.3269
  A 0.37 0.37 0.0 0 0 35.6060 5.9628
  L 30.8466 6.0376
  A 0.37 0.37 0.0 0 0 30.4824 6.4133
  L 30.5182 8.6931
  A 0.37 0.37 0.0 0 0 30.8940 9.0572
  L 35.6534 8.9824
  A 0.37 0.37 0.0 0 0 36.0176 8.6067
  L 35.9818 6.3269
  Z
  M 48.0029 6.4790
  A 0.50 0.50 0.0 0 0 47.4995 5.9825
  L 42.4796 6.0176
  A 0.50 0.50 0.0 0 0 41.9831 6.5210
  L 41.9971 8.5210
  A 0.50 0.50 0.0 0 0 42.5005 9.0175
  L 47.5204 8.9824
  A 0.50 0.50 0.0 0 0 48.0169 8.4790
  L 48.0029 6.4790
  Z
  M 60.0021 6.5838
  A 0.61 0.61 0.0 0 0 59.3868 5.9791
  L 54.5870 6.0210
  A 0.61 0.61 0.0 0 0 53.9823 6.6363
  L 53.9979 8.4162
  A 0.61 0.61 0.0 0 0 54.6132 9.0209
  L 59.4130 8.9790
  A 0.61 0.61 0.0 0 0 60.0177 8.3637
  L 60.0021 6.5838
  Z
  M 71.9910 6.6385
  A 0.66 0.66 0.0 0 0 71.3242 5.9855
  L 66.6244 6.0347
  A 0.66 0.66 0.0 0 0 65.9714 6.7016
  L 65.9890 8.3815
  A 0.66 0.66 0.0 0 0 66.6558 9.0345
  L 71.3556 8.9853
  A 0.66 0.66 0.0 0 0 72.0086 8.3184
  L 71.9910 6.6385
  Z
  M 84.0177 6.8594
  A 0.85 0.85 0.0 0 0 83.1648 6.0124
  L 78.8048 6.0276
  A 0.85 0.85 0.0 0 0 77.9578 6.8806
  L 77.9623 8.1606
  A 0.85 0.85 0.0 0 0 78.8152 9.0076
  L 83.1752 8.9924
  A 0.85 0.85 0.0 0 0 84.0222 8.1394
  L 84.0177 6.8594
  Z
  M 96.0262 7.0271
  A 0.95 0.95 0.0 0 0 95.0879 6.0655
  L 90.9282 6.0147
  A 0.95 0.95 0.0 0 0 89.9667 6.9530
  L 89.9538 8.0129
  A 0.95 0.95 0.0 0 0 90.8921 8.9745
  L 95.0518 9.0253
  A 0.95 0.95 0.0 0 0 96.0133 8.0870
  L 96.0262 7.0271
  Z
  M 108.0123 6.9477
  A 0.94 0.94 0.0 0 0 107.0593 6.0210
  L 102.8797 6.0793
  A 0.94 0.94 0.0 0 0 101.9529 7.0324
  L 101.9677 8.0923
  A 0.94 0.94 0.0 0 0 102.9207 9.0190
  L 107.1003 8.9607
  A 0.94 0.94 0.0 0 0 108.0271 8.0076
  L 108.0123 6.9477
  Z
  M 119.5336 6.4796
  A 0.47 0.47 0.0 0 0 119.0652 6.0080
  L 114.4852 5.9920
  A 0.47 0.47 0.0 0 0 114.0136 6.4604
  L 114.0064 8.5204
  A 0.47 0.47 0.0 0 0 114.4748 8.9920
  L 119.0548 9.0080
  A 0.47 0.47 0.0 0 0 119.5264 8.5396
  L 119.5336 6.4796
  Z
  M 25.1468 7.4694
  A 0.43 0.43 0.0 0 0 24.5838 7.2396
  L 20.7304 8.8595
  A 0.43 0.43 0.0 0 0 20.5006 9.4225
  L 21.3532 11.4506
  A 0.43 0.43 0.0 0 0 21.9162 11.6804
  L 25.7696 10.0605
  A 0.43 0.43 0.0 0 0 25.9994 9.4975
  L 25.1468 7.4694
  Z
  M 129.4846 9.6368
  A 0.57 0.57 0.0 0 0 129.1852 8.8884
  L 125.5087 7.3126
  A 0.57 0.57 0.0 0 0 124.7602 7.6120
  L 124.0354 9.3032
  A 0.57 0.57 0.0 0 0 124.3348 10.0516
  L 128.0113 11.6274
  A 0.57 0.57 0.0 0 0 128.7598 11.3280
  L 129.4846 9.6368
  Z
  M 15.9365 12.4174
  A 0.29 0.29 0.0 0 0 15.5264 12.4124
  L 12.4203 15.4435
  A 0.29 0.29 0.0 0 0 12.4153 15.8536
  L 14.0635 17.5426
  A 0.29 0.29 0.0 0 0 14.4736 17.5476
  L 17.5797 14.5165
  A 0.29 0.29 0.0 0 0 17.5847 14.1064
  L 15.9365 12.4174
  Z
  M 134.5633 12.4503
  A 0.33 0.33 0.0 0 0 134.0966 12.4503
  L 132.4703 14.0766
  A 0.33 0.33 0.0 0 0 132.4703 14.5433
  L 135.4967 17.5697
  A 0.33 0.33 0.0 0 0 135.9634 17.5697
  L 137.5897 15.9434
  A 0.33 0.33 0.0 0 0 137.5897 15.4767
  L 134.5633 12.4503
  Z
  M 11.6884 21.9161
  A 0.42 0.42 0.0 0 0 11.4755 21.3616
  L 9.5388 20.4993
  A 0.42 0.42 0.0 0 0 8.9843 20.7122
  L 7.2516 24.6039
  A 0.42 0.42 0.0 0 0 7.4645 25.1584
  L 9.4012 26.0207
  A 0.42 0.42 0.0 0 0 9.9557 25.8078
  L 11.6884 21.9161
  Z
  M 141.1681 20.8068
  A 0.48 0.48 0.0 0 0 140.5400 20.5492
  L 138.6027 21.3596
  A 0.48 0.48 0.0 0 0 138.3451 21.9877
  L 139.9119 25.7332
  A 0.48 0.48 0.0 0 0 140.5400 25.9908
  L 142.4773 25.1804
  A 0.48 0.48 0.0 0 0 142.7349 24.5523
  L 141.1681 20.8068
  Z
  M 47.88 92.37
  A 0.41 0.40 81.7 0 1 47.61 92.74
  C 41.07 94.99 41.78 100.83 42.07 106.33
  A 1.10 1.09 -0.3 0 0 43.12 107.36
  L 46.54 107.51
  A 1.30 1.30 0.0 0 0 47.87 105.92
  Q 47.48 104.14 45.55 104.54
  Q 44.87 104.67 44.85 103.98
  C 44.75 101.26 44.39 97.63 47.23 96.04
  Q 48.74 95.20 50.40 95.50
  C 54.63 96.27 54.01 100.87 54.01 103.93
  A 0.65 0.64 7.3 0 1 53.20 104.55
  C 51.94 104.22 50.95 105.26 51.27 106.51
  Q 51.42 107.11 52.03 107.25
  Q 54.30 107.76 56.17 107.21
  Q 56.80 107.03 56.83 106.37
  C 57.08 100.91 57.91 94.89 51.37 92.72
  Q 50.89 92.56 50.87 92.05
  Q 50.65 86.44 51.49 82.06
  Q 51.88 80.02 52.62 81.96
  Q 55.84 90.43 59.19 98.61
  Q 60.07 100.74 60.04 102.82
  Q 59.95 109.71 60.01 116.76
  A 0.36 0.36 0.0 0 1 59.65 117.13
  L 42.40 117.13
  A 0.54 0.54 0.0 0 1 41.86 116.59
  L 41.87 109.52
  Q 41.87 108.22 40.57 108.13
  Q 40.23 108.11 39.91 108.26
  Q 39.11 108.63 39.05 109.51
  Q 38.82 112.95 39.10 115.42
  Q 39.29 117.12 37.58 117.12
  L 31.31 117.13
  Q 29.65 117.13 29.75 115.47
  Q 30.05 110.70 29.78 106.15
  Q 29.71 105.10 28.69 104.86
  Q 28.04 104.70 27.35 105.41
  A 1.21 1.19 67.8 0 0 27.00 106.26
  L 27.00 118.50
  A 1.50 1.50 0.0 0 0 28.50 120.00
  L 99.07 120.00
  A 1.25 1.23 18.0 0 0 100.07 119.50
  Q 100.56 118.85 100.35 118.24
  Q 99.99 117.13 98.82 117.13
  L 87.96 117.13
  Q 85.81 117.13 86.52 115.10
  Q 88.28 110.11 88.40 109.77
  Q 89.18 107.57 91.35 107.95
  Q 101.73 109.81 112.13 107.98
  Q 114.53 107.55 115.31 109.86
  L 116.99 114.86
  Q 117.75 117.13 115.35 117.13
  L 105.11 117.13
  Q 104.19 117.13 103.86 117.99
  Q 103.71 118.37 103.83 118.72
  Q 104.26 120.00 105.62 120.00
  L 118.50 120.00
  A 1.49 1.48 -89.0 0 0 119.98 118.56
  Q 120.21 112.51 116.90 107.30
  Q 116.62 106.86 117.13 106.74
  C 120.39 106.00 125.17 103.48 125.97 99.87
  Q 126.15 99.09 125.52 98.61
  L 123.73 97.22
  A 0.60 0.60 0.0 0 1 123.87 96.19
  Q 125.01 95.73 125.65 94.87
  A 1.60 1.60 0.0 0 0 125.07 92.48
  Q 121.78 90.85 119.44 88.62
  A 1.40 1.38 24.0 0 1 119.01 87.53
  Q 119.32 82.50 119.65 77.50
  Q 119.81 75.12 119.37 74.06
  C 118.29 71.51 115.51 71.18 113.36 72.78
  Q 110.99 74.54 108.75 76.23
  Q 108.34 76.55 107.85 76.35
  Q 101.77 73.85 95.67 76.38
  Q 95.32 76.52 95.02 76.31
  L 89.53 72.41
  A 0.19 0.19 0.0 0 1 89.63 72.06
  Q 91.51 71.93 91.50 70.12
  Q 91.49 65.04 91.50 59.46
  A 1.44 1.43 2.1 0 0 90.16 58.02
  L 89.85 58.00
  Q 88.63 57.93 88.63 59.15
  L 88.62 68.28
  Q 88.62 69.11 87.83 68.85
  Q 80.91 66.56 80.96 59.29
  Q 80.96 58.74 81.43 58.44
  C 82.95 57.48 84.10 56.31 84.33 54.41
  C 84.72 51.17 84.86 47.61 81.69 45.88
  A 1.34 1.33 -75.6 0 1 81.00 44.71
  L 81.00 40.52
  Q 81.00 39.80 81.69 40.01
  C 88.12 41.99 88.84 46.97 88.63 53.13
  A 1.32 1.31 1.3 0 0 89.94 54.49
  Q 90.07 54.49 90.20 54.48
  A 1.42 1.42 0.0 0 0 91.42 53.21
  Q 92.73 39.66 81.22 36.99
  Q 80.61 36.85 80.46 36.24
  C 76.47 19.84 55.30 15.39 45.38 29.54
  C 42.23 34.01 41.76 39.18 42.03 44.60
  Q 42.06 45.24 41.53 45.60
  C 40.17 46.53 38.99 47.56 38.69 49.29
  C 37.86 54.09 38.68 59.23 44.95 58.99
  Q 45.49 58.97 45.48 59.52
  Q 45.36 67.10 51.29 72.21
  A 0.88 0.88 0.0 0 1 51.53 73.22
  L 49.45 78.27
  Q 49.23 78.79 48.70 78.96
  Q 41.51 81.25 34.17 83.53
  C 29.03 85.13 26.73 89.29 26.95 94.54
  Q 27.07 97.27 27.00 100.07
  A 1.19 1.17 24.7 0 0 27.31 100.89
  Q 27.85 101.45 28.41 101.41
  A 1.64 1.64 0.0 0 0 29.91 99.67
  C 29.58 94.77 28.92 88.29 34.76 86.40
  Q 41.60 84.19 48.08 82.26
  Q 48.35 82.18 48.34 82.47
  L 47.88 92.37
  Z
  M 9.0325 30.8912
  A 0.43 0.43 0.0 0 0 8.6086 30.4552
  L 6.4688 30.4253
  A 0.43 0.43 0.0 0 0 6.0328 30.8493
  L 5.9675 35.5288
  A 0.43 0.43 0.0 0 0 6.3914 35.9648
  L 8.5312 35.9947
  A 0.43 0.43 0.0 0 0 8.9672 35.5707
  L 9.0325 30.8912
  Z
  M 143.9717 30.9017
  A 0.43 0.43 0.0 0 0 143.5364 30.4770
  L 141.3766 30.5034
  A 0.43 0.43 0.0 0 0 140.9519 30.9386
  L 141.0083 35.5583
  A 0.43 0.43 0.0 0 0 141.4436 35.9830
  L 143.6034 35.9566
  A 0.43 0.43 0.0 0 0 144.0281 35.5214
  L 143.9717 30.9017
  Z
  M 8.9735 42.8020
  A 0.86 0.86 0.0 0 0 8.1031 41.9525
  L 6.8432 41.9679
  A 0.86 0.86 0.0 0 0 5.9937 42.8384
  L 6.0465 47.1580
  A 0.86 0.86 0.0 0 0 6.9169 48.0075
  L 8.1768 47.9921
  A 0.86 0.86 0.0 0 0 9.0263 47.1216
  L 8.9735 42.8020
  Z
  M 143.9814 42.6420
  A 0.66 0.66 0.0 0 0 143.3134 41.9901
  L 141.6535 42.0104
  A 0.66 0.66 0.0 0 0 141.0016 42.6784
  L 141.0586 47.3380
  A 0.66 0.66 0.0 0 0 141.7266 47.9899
  L 143.3865 47.9696
  A 0.66 0.66 0.0 0 0 144.0384 47.3016
  L 143.9814 42.6420
  Z
  M 8.9707 54.8594
  A 0.94 0.94 0.0 0 0 8.0176 53.9326
  L 6.9177 53.9480
  A 0.94 0.94 0.0 0 0 5.9910 54.9010
  L 6.0493 59.0806
  A 0.94 0.94 0.0 0 0 7.0024 60.0074
  L 8.1023 59.9920
  A 0.94 0.94 0.0 0 0 9.0290 59.0390
  L 8.9707 54.8594
  Z
  M 143.9941 54.7097
  A 0.73 0.73 0.0 0 0 143.2590 53.9848
  L 141.7391 53.9954
  A 0.73 0.73 0.0 0 0 141.0142 54.7305
  L 141.0459 59.2703
  A 0.73 0.73 0.0 0 0 141.7810 59.9952
  L 143.3009 59.9846
  A 0.73 0.73 0.0 0 0 144.0258 59.2495
  L 143.9941 54.7097
  Z
  M 8.9701 66.8194
  A 0.90 0.90 0.0 0 0 8.0576 65.9321
  L 6.8778 65.9485
  A 0.90 0.90 0.0 0 0 5.9904 66.8610
  L 6.0499 71.1206
  A 0.90 0.90 0.0 0 0 6.9624 72.0079
  L 8.1422 71.9915
  A 0.90 0.90 0.0 0 0 9.0296 71.0790
  L 8.9701 66.8194
  Z
  M 143.9818 66.6718
  A 0.69 0.69 0.0 0 0 143.2834 65.9903
  L 141.6635 66.0101
  A 0.69 0.69 0.0 0 0 140.9820 66.7085
  L 141.0382 71.3082
  A 0.69 0.69 0.0 0 0 141.7366 71.9897
  L 143.3565 71.9699
  A 0.69 0.69 0.0 0 0 144.0380 71.2715
  L 143.9818 66.6718
  Z
  M 8.9624 78.8041
  A 0.88 0.88 0.0 0 0 8.0672 77.9396
  L 6.8274 77.9613
  A 0.88 0.88 0.0 0 0 5.9629 78.8565
  L 6.0376 83.1359
  A 0.88 0.88 0.0 0 0 6.9328 84.0004
  L 8.1726 83.9787
  A 0.88 0.88 0.0 0 0 9.0371 83.0835
  L 8.9624 78.8041
  Z
  M 144.01 78.61
  A 0.62 0.62 0.0 0 0 143.39 77.99
  L 141.63 77.99
  A 0.62 0.62 0.0 0 0 141.01 78.61
  L 141.01 83.37
  A 0.62 0.62 0.0 0 0 141.63 83.99
  L 143.39 83.99
  A 0.62 0.62 0.0 0 0 144.01 83.37
  L 144.01 78.61
  Z
  M 8.9836 90.8018
  A 0.88 0.88 0.0 0 0 8.0929 89.9327
  L 6.8530 89.9478
  A 0.88 0.88 0.0 0 0 5.9838 90.8385
  L 6.0364 95.1382
  A 0.88 0.88 0.0 0 0 6.9271 96.0073
  L 8.1670 95.9922
  A 0.88 0.88 0.0 0 0 9.0362 95.1015
  L 8.9836 90.8018
  Z
  M 144.0058 90.5874
  A 0.60 0.60 0.0 0 0 143.4048 89.9884
  L 141.6048 89.9916
  A 0.60 0.60 0.0 0 0 141.0058 90.5926
  L 141.0142 95.3926
  A 0.60 0.60 0.0 0 0 141.6152 95.9916
  L 143.4152 95.9884
  A 0.60 0.60 0.0 0 0 144.0142 95.3874
  L 144.0058 90.5874
  Z
  M 8.9922 102.7348
  A 0.78 0.78 0.0 0 0 8.2095 101.9575
  L 6.7695 101.9625
  A 0.78 0.78 0.0 0 0 5.9922 102.7452
  L 6.0078 107.2252
  A 0.78 0.78 0.0 0 0 6.7905 108.0025
  L 8.2305 107.9975
  A 0.78 0.78 0.0 0 0 9.0078 107.2148
  L 8.9922 102.7348
  Z
  M 143.9865 102.4122
  A 0.42 0.42 0.0 0 0 143.5643 101.9944
  L 141.4043 102.0057
  A 0.42 0.42 0.0 0 0 140.9865 102.4279
  L 141.0135 107.5878
  A 0.42 0.42 0.0 0 0 141.4357 108.0056
  L 143.5957 107.9943
  A 0.42 0.42 0.0 0 0 144.0135 107.5721
  L 143.9865 102.4122
  Z
  M 8.9854 114.4112
  A 0.43 0.43 0.0 0 0 8.5472 113.9896
  L 6.3676 114.0314
  A 0.43 0.43 0.0 0 0 5.9459 114.4696
  L 6.0346 119.0888
  A 0.43 0.43 0.0 0 0 6.4728 119.5104
  L 8.6524 119.4686
  A 0.43 0.43 0.0 0 0 9.0741 119.0304
  L 8.9854 114.4112
  Z
  M 144.0303 114.2785
  A 0.26 0.26 0.0 0 0 143.7735 114.0154
  L 141.2937 113.9851
  A 0.26 0.26 0.0 0 0 141.0305 114.2419
  L 140.9697 119.2215
  A 0.26 0.26 0.0 0 0 141.2265 119.4846
  L 143.7063 119.5149
  A 0.26 0.26 0.0 0 0 143.9695 119.2581
  L 144.0303 114.2785
  Z
  M 10.0615 124.1963
  A 0.41 0.41 0.0 0 0 9.5242 123.9781
  L 7.4424 124.8575
  A 0.41 0.41 0.0 0 0 7.2242 125.3948
  L 8.8585 129.2637
  A 0.41 0.41 0.0 0 0 9.3958 129.4819
  L 11.4776 128.6025
  A 0.41 0.41 0.0 0 0 11.6958 128.0652
  L 10.0615 124.1963
  Z
  M 142.7089 125.4365
  A 0.48 0.48 0.0 0 0 142.4613 124.8045
  L 140.6285 124.0038
  A 0.48 0.48 0.0 0 0 139.9965 124.2514
  L 138.3311 128.0635
  A 0.48 0.48 0.0 0 0 138.5787 128.6955
  L 140.4115 129.4962
  A 0.48 0.48 0.0 0 0 141.0435 129.2486
  L 142.7089 125.4365
  Z
  M 14.5136 132.4594
  A 0.32 0.32 0.0 0 0 14.0611 132.4586
  L 12.4319 134.0822
  A 0.32 0.32 0.0 0 0 12.4311 134.5347
  L 15.4664 137.5806
  A 0.32 0.32 0.0 0 0 15.9189 137.5814
  L 17.5481 135.9578
  A 0.32 0.32 0.0 0 0 17.5489 135.5053
  L 14.5136 132.4594
  Z
  M 135.9090 132.4383
  A 0.27 0.27 0.0 0 0 135.5272 132.4356
  L 132.4085 135.5110
  A 0.27 0.27 0.0 0 0 132.4058 135.8929
  L 134.0910 137.6017
  A 0.27 0.27 0.0 0 0 134.4728 137.6044
  L 137.5915 134.5290
  A 0.27 0.27 0.0 0 0 137.5942 134.1471
  L 135.9090 132.4383
  Z
  M 25.9828 140.6333
  A 0.49 0.49 0.0 0 0 25.7266 139.9895
  L 21.9242 138.3519
  A 0.49 0.49 0.0 0 0 21.2804 138.6081
  L 20.4972 140.4267
  A 0.49 0.49 0.0 0 0 20.7534 141.0705
  L 24.5558 142.7081
  A 0.49 0.49 0.0 0 0 25.1996 142.4519
  L 25.9828 140.6333
  Z
  M 128.6407 138.5586
  A 0.44 0.44 0.0 0 0 128.0646 138.3235
  L 124.2296 139.9356
  A 0.44 0.44 0.0 0 0 123.9945 140.5117
  L 124.8393 142.5214
  A 0.44 0.44 0.0 0 0 125.4154 142.7565
  L 129.2504 141.1444
  A 0.44 0.44 0.0 0 0 129.4855 140.5683
  L 128.6407 138.5586
  Z
  M 119.5037 141.4481
  A 0.54 0.54 0.0 0 0 118.9497 140.9224
  L 114.5112 141.0386
  A 0.54 0.54 0.0 0 0 113.9856 141.5926
  L 114.0363 143.5319
  A 0.54 0.54 0.0 0 0 114.5903 144.0576
  L 119.0288 143.9414
  A 0.54 0.54 0.0 0 0 119.5544 143.3874
  L 119.5037 141.4481
  Z
  M 36.0012 141.4491
  A 0.42 0.42 0.0 0 0 35.5856 141.0247
  L 30.8858 140.9755
  A 0.42 0.42 0.0 0 0 30.4615 141.3911
  L 30.4388 143.5509
  A 0.42 0.42 0.0 0 0 30.8544 143.9753
  L 35.5542 144.0245
  A 0.42 0.42 0.0 0 0 35.9785 143.6089
  L 36.0012 141.4491
  Z
  M 48.0138 141.9631
  A 1.01 1.01 0.0 0 0 46.9915 140.9656
  L 42.9718 141.0147
  A 1.01 1.01 0.0 0 0 41.9742 142.0369
  L 41.9862 143.0169
  A 1.01 1.01 0.0 0 0 43.0085 144.0144
  L 47.0282 143.9653
  A 1.01 1.01 0.0 0 0 48.0258 142.9431
  L 48.0138 141.9631
  Z
  M 60.0120 142.0074
  A 1.06 1.06 0.0 0 0 58.9337 140.9660
  L 55.0143 141.0344
  A 1.06 1.06 0.0 0 0 53.9730 142.1128
  L 53.9880 142.9726
  A 1.06 1.06 0.0 0 0 55.0663 144.0140
  L 58.9857 143.9456
  A 1.06 1.06 0.0 0 0 60.0270 142.8672
  L 60.0120 142.0074
  Z
  M 72.0119 141.9974
  A 1.06 1.06 0.0 0 0 70.9335 140.9560
  L 67.0141 141.0244
  A 1.06 1.06 0.0 0 0 65.9728 142.1028
  L 65.9881 142.9826
  A 1.06 1.06 0.0 0 0 67.0665 144.0240
  L 70.9859 143.9556
  A 1.06 1.06 0.0 0 0 72.0272 142.8772
  L 72.0119 141.9974
  Z
  M 84.0120 142.0074
  A 1.06 1.06 0.0 0 0 82.9337 140.9660
  L 79.0143 141.0344
  A 1.06 1.06 0.0 0 0 77.9730 142.1128
  L 77.9880 142.9726
  A 1.06 1.06 0.0 0 0 79.0663 144.0140
  L 82.9857 143.9456
  A 1.06 1.06 0.0 0 0 84.0270 142.8672
  L 84.0120 142.0074
  Z
  M 96.0117 141.9874
  A 1.05 1.05 0.0 0 0 94.9435 140.9558
  L 91.0041 141.0246
  A 1.05 1.05 0.0 0 0 89.9726 142.0928
  L 89.9883 142.9926
  A 1.05 1.05 0.0 0 0 91.0565 144.0242
  L 94.9959 143.9554
  A 1.05 1.05 0.0 0 0 96.0274 142.8872
  L 96.0117 141.9874
  Z
  M 108.0342 142.0265
  A 1.01 1.01 0.0 0 0 107.0330 141.0077
  L 102.9932 140.9724
  A 1.01 1.01 0.0 0 0 101.9744 141.9736
  L 101.9658 142.9535
  A 1.01 1.01 0.0 0 0 102.9670 143.9723
  L 107.0068 144.0076
  A 1.01 1.01 0.0 0 0 108.0256 143.0064
  L 108.0342 142.0265
  Z"
/>
<rect fill="#fdb384" x="-2.75" y="-1.51" transform="translate(33.25,7.51) rotate(-0.9)" width="5.50" height="3.02" rx="0.37"/>
<rect fill="#fdb384" x="-3.01" y="-1.50" transform="translate(45.00,7.50) rotate(-0.4)" width="6.02" height="3.00" rx="0.50"/>
<rect fill="#fdb384" x="-3.01" y="-1.50" transform="translate(57.00,7.50) rotate(-0.5)" width="6.02" height="3.00" rx="0.61"/>
<rect fill="#fdb384" x="-3.01" y="-1.50" transform="translate(68.99,7.51) rotate(-0.6)" width="6.02" height="3.00" rx="0.66"/>
<rect fill="#fdb384" x="-3.03" y="-1.49" transform="translate(80.99,7.51) rotate(-0.2)" width="6.06" height="2.98" rx="0.85"/>
<rect fill="#fdb384" x="-3.03" y="-1.48" transform="translate(92.99,7.52) rotate(0.7)" width="6.06" height="2.96" rx="0.95"/>
<rect fill="#fdb384" x="-3.03" y="-1.47" transform="translate(104.99,7.52) rotate(-0.8)" width="6.06" height="2.94" rx="0.94"/>
<rect fill="#fdb384" x="-2.76" y="-1.50" transform="translate(116.77,7.50) rotate(0.2)" width="5.52" height="3.00" rx="0.47"/>
<rect fill="#fdb384" x="-2.52" y="-1.53" transform="translate(23.25,9.46) rotate(-22.8)" width="5.04" height="3.06" rx="0.43"/>
<rect fill="#fdb384" x="-2.57" y="-1.49" transform="translate(126.76,9.47) rotate(23.2)" width="5.14" height="2.98" rx="0.57"/>
<rect fill="#fdb384" x="-2.46" y="-1.47" transform="translate(15.00,14.98) rotate(-44.3)" width="4.92" height="2.94" rx="0.29"/>
<rect fill="#fdb384" x="-1.48" y="-2.47" transform="translate(135.03,15.01) rotate(-45.0)" width="2.96" height="4.94" rx="0.33"/>
<rect fill="#fdb384" x="-1.48" y="-2.55" transform="translate(9.47,23.26) rotate(24.0)" width="2.96" height="5.10" rx="0.42"/>
<rect fill="#fdb384" x="-1.53" y="-2.51" transform="translate(140.54,23.27) rotate(-22.7)" width="3.06" height="5.02" rx="0.48"/>
<path fill="#fdb384" d="
  M 48.08 82.26
  Q 41.60 84.19 34.76 86.40
  C 28.92 88.29 29.58 94.77 29.91 99.67
  A 1.64 1.64 0.0 0 1 28.41 101.41
  Q 27.85 101.45 27.31 100.89
  A 1.19 1.17 24.7 0 1 27.00 100.07
  Q 27.07 97.27 26.95 94.54
  C 26.73 89.29 29.03 85.13 34.17 83.53
  Q 41.51 81.25 48.70 78.96
  Q 49.23 78.79 49.45 78.27
  L 51.53 73.22
  A 0.88 0.88 0.0 0 0 51.29 72.21
  Q 45.36 67.10 45.48 59.52
  Q 45.49 58.97 44.95 58.99
  C 38.68 59.23 37.86 54.09 38.69 49.29
  C 38.99 47.56 40.17 46.53 41.53 45.60
  Q 42.06 45.24 42.03 44.60
  C 41.76 39.18 42.23 34.01 45.38 29.54
  C 55.30 15.39 76.47 19.84 80.46 36.24
  Q 80.61 36.85 81.22 36.99
  Q 92.73 39.66 91.42 53.21
  A 1.42 1.42 0.0 0 1 90.20 54.48
  Q 90.07 54.49 89.94 54.49
  A 1.32 1.31 1.3 0 1 88.63 53.13
  C 88.84 46.97 88.12 41.99 81.69 40.01
  Q 81.00 39.80 81.00 40.52
  L 81.00 44.71
  A 1.34 1.33 -75.6 0 0 81.69 45.88
  C 84.86 47.61 84.72 51.17 84.33 54.41
  C 84.10 56.31 82.95 57.48 81.43 58.44
  Q 80.96 58.74 80.96 59.29
  Q 80.91 66.56 87.83 68.85
  Q 88.62 69.11 88.62 68.28
  L 88.63 59.15
  Q 88.63 57.93 89.85 58.00
  L 90.16 58.02
  A 1.44 1.43 2.1 0 1 91.50 59.46
  Q 91.49 65.04 91.50 70.12
  Q 91.51 71.93 89.63 72.06
  A 0.19 0.19 0.0 0 0 89.53 72.41
  L 95.02 76.31
  Q 95.32 76.52 95.67 76.38
  Q 101.77 73.85 107.85 76.35
  Q 108.34 76.55 108.75 76.23
  Q 110.99 74.54 113.36 72.78
  C 115.51 71.18 118.29 71.51 119.37 74.06
  Q 119.81 75.12 119.65 77.50
  Q 119.32 82.50 119.01 87.53
  A 1.40 1.38 24.0 0 0 119.44 88.62
  Q 121.78 90.85 125.07 92.48
  A 1.60 1.60 0.0 0 1 125.65 94.87
  Q 125.01 95.73 123.87 96.19
  A 0.60 0.60 0.0 0 0 123.73 97.22
  L 125.52 98.61
  Q 126.15 99.09 125.97 99.87
  C 125.17 103.48 120.39 106.00 117.13 106.74
  Q 116.62 106.86 116.90 107.30
  Q 120.21 112.51 119.98 118.56
  A 1.49 1.48 -89.0 0 1 118.50 120.00
  L 105.62 120.00
  Q 104.26 120.00 103.83 118.72
  Q 103.71 118.37 103.86 117.99
  Q 104.19 117.13 105.11 117.13
  L 115.35 117.13
  Q 117.75 117.13 116.99 114.86
  L 115.31 109.86
  Q 114.53 107.55 112.13 107.98
  Q 101.73 109.81 91.35 107.95
  Q 89.18 107.57 88.40 109.77
  Q 88.28 110.11 86.52 115.10
  Q 85.81 117.13 87.96 117.13
  L 98.82 117.13
  Q 99.99 117.13 100.35 118.24
  Q 100.56 118.85 100.07 119.50
  A 1.25 1.23 18.0 0 1 99.07 120.00
  L 28.50 120.00
  A 1.50 1.50 0.0 0 1 27.00 118.50
  L 27.00 106.26
  A 1.21 1.19 67.8 0 1 27.35 105.41
  Q 28.04 104.70 28.69 104.86
  Q 29.71 105.10 29.78 106.15
  Q 30.05 110.70 29.75 115.47
  Q 29.65 117.13 31.31 117.13
  L 37.58 117.12
  Q 39.29 117.12 39.10 115.42
  Q 38.82 112.95 39.05 109.51
  Q 39.11 108.63 39.91 108.26
  Q 40.23 108.11 40.57 108.13
  Q 41.87 108.22 41.87 109.52
  L 41.86 116.59
  A 0.54 0.54 0.0 0 0 42.40 117.13
  L 59.65 117.13
  A 0.36 0.36 0.0 0 0 60.01 116.76
  Q 59.95 109.71 60.04 102.82
  Q 60.07 100.74 59.19 98.61
  Q 55.84 90.43 52.62 81.96
  Q 51.88 80.02 51.49 82.06
  Q 50.65 86.44 50.87 92.05
  Q 50.89 92.56 51.37 92.72
  C 57.91 94.89 57.08 100.91 56.83 106.37
  Q 56.80 107.03 56.17 107.21
  Q 54.30 107.76 52.03 107.25
  Q 51.42 107.11 51.27 106.51
  C 50.95 105.26 51.94 104.22 53.20 104.55
  A 0.65 0.64 7.3 0 0 54.01 103.93
  C 54.01 100.87 54.63 96.27 50.40 95.50
  Q 48.74 95.20 47.23 96.04
  C 44.39 97.63 44.75 101.26 44.85 103.98
  Q 44.87 104.67 45.55 104.54
  Q 47.48 104.14 47.87 105.92
  A 1.30 1.30 0.0 0 1 46.54 107.51
  L 43.12 107.36
  A 1.10 1.09 -0.3 0 1 42.07 106.33
  C 41.78 100.83 41.07 94.99 47.61 92.74
  A 0.41 0.40 81.7 0 0 47.88 92.37
  L 48.34 82.47
  Q 48.35 82.18 48.08 82.26
  Z
  M 58.19 33.70
  C 62.01 41.53 68.31 46.09 77.37 44.96
  Q 77.87 44.90 77.92 44.40
  Q 79.26 32.45 70.32 26.59
  C 60.60 20.22 47.59 25.86 45.33 36.95
  Q 44.63 40.38 44.85 44.40
  Q 44.87 44.86 45.33 44.92
  C 53.15 45.91 55.81 42.24 55.55 34.60
  Q 55.50 33.13 56.92 32.99
  A 1.27 1.27 0.0 0 1 58.19 33.70
  Z
  M 57.95 40.40
  Q 55.85 47.49 48.95 47.90
  Q 48.41 47.93 48.39 48.48
  Q 48.17 55.77 48.50 60.63
  Q 49.20 70.85 59.64 72.28
  C 64.93 73.00 70.31 70.92 72.98 66.33
  C 75.59 61.84 74.54 53.86 74.67 48.57
  Q 74.68 47.91 74.02 47.89
  Q 64.46 47.58 58.89 40.23
  Q 58.25 39.39 57.95 40.40
  Z
  M 45.49 55.91
  L 45.51 48.15
  A 0.31 0.31 0.0 0 0 45.20 47.84
  L 44.53 47.83
  A 3.18 2.94 0.2 0 0 41.34 50.76
  L 41.34 53.26
  A 3.18 2.94 0.2 0 0 44.51 56.21
  L 45.18 56.22
  A 0.31 0.31 0.0 0 0 45.49 55.91
  Z
  M 77.50 48.16
  L 77.50 55.86
  A 0.31 0.31 0.0 0 0 77.81 56.17
  L 78.74 56.17
  A 2.78 2.72 -0.0 0 0 81.52 53.45
  L 81.52 50.57
  A 2.78 2.72 0.0 0 0 78.74 47.85
  L 77.81 47.85
  A 0.31 0.31 0.0 0 0 77.50 48.16
  Z
  M 86.49 71.79
  Q 87.21 71.51 86.45 71.34
  C 81.15 70.19 78.06 64.38 78.16 59.37
  A 0.15 0.14 -76.8 0 0 78.08 59.24
  L 77.77 59.13
  A 0.21 0.21 0.0 0 0 77.48 59.33
  Q 77.57 67.12 71.69 72.21
  Q 71.19 72.64 71.45 73.26
  L 73.55 78.29
  Q 73.77 78.83 74.32 79.00
  L 83.58 81.91
  A 0.49 0.49 0.0 0 0 84.21 81.40
  Q 83.90 78.18 83.87 75.40
  Q 83.85 72.83 86.49 71.79
  Z
  M 67.58 81.24
  Q 68.95 78.17 68.46 74.67
  Q 68.38 74.10 67.83 74.27
  Q 61.10 76.32 55.15 74.25
  Q 54.60 74.06 54.53 74.64
  Q 54.00 79.19 56.27 83.33
  Q 56.51 83.75 56.99 83.75
  L 65.98 83.74
  Q 66.68 83.74 66.88 83.08
  Q 67.17 82.16 67.58 81.24
  Z
  M 100.36 82.41
  L 100.41 78.47
  A 0.47 0.47 0.0 0 0 99.78 78.02
  L 95.28 79.65
  A 0.98 0.97 -36.1 0 1 94.36 79.51
  L 88.15 74.82
  A 0.88 0.88 0.0 0 0 86.74 75.56
  Q 87.00 81.23 87.50 87.19
  C 87.76 90.31 84.65 92.24 82.36 93.59
  Q 81.45 94.13 82.39 94.63
  Q 83.91 95.45 84.25 96.82
  Q 84.37 97.30 83.99 97.61
  L 81.09 99.94
  A 0.39 0.39 0.0 0 0 81.08 100.54
  C 83.20 102.35 85.57 103.67 88.27 104.34
  C 96.33 106.34 105.79 106.39 114.22 104.61
  Q 118.97 103.61 122.32 100.72
  A 0.64 0.64 0.0 0 0 122.28 99.72
  L 119.86 97.96
  Q 119.39 97.62 119.40 97.05
  Q 119.40 95.28 121.21 94.73
  A 0.55 0.55 0.0 0 0 121.35 93.74
  C 119.15 92.33 115.91 90.51 116.12 87.46
  Q 116.51 81.88 116.82 75.65
  A 0.91 0.91 0.0 0 0 115.37 74.87
  L 109.32 79.42
  A 1.17 1.16 -52.9 0 1 108.22 79.58
  L 103.93 78.05
  A 0.51 0.51 0.0 0 0 103.25 78.53
  L 103.25 82.23
  Q 103.25 83.39 102.09 83.56
  Q 101.70 83.62 101.30 83.55
  Q 100.35 83.38 100.36 82.41
  Z
  M 86.21 106.63
  Q 79.49 104.70 77.75 100.37
  Q 77.50 99.76 77.08 100.26
  C 72.70 105.46 65.10 98.04 71.49 93.58
  Q 71.91 93.29 71.95 92.79
  Q 72.45 87.14 71.45 81.98
  Q 71.11 80.18 70.43 81.88
  L 63.50 99.41
  Q 62.84 101.07 62.84 102.86
  L 62.86 116.70
  A 0.43 0.43 0.0 0 0 63.29 117.13
  L 83.00 117.13
  Q 83.60 117.13 83.63 116.53
  Q 83.89 111.36 86.52 107.48
  Q 86.96 106.84 86.21 106.63
  Z
  M 78.18 98.44
  Q 79.16 97.90 79.84 97.07
  A 0.67 0.67 0.0 0 0 79.68 96.07
  L 78.33 95.23
  A 1.53 1.52 -42.5 0 1 78.45 92.58
  Q 81.42 91.06 83.88 88.90
  A 2.43 2.43 0.0 0 0 83.00 84.75
  L 75.11 82.27
  Q 74.62 82.12 74.64 82.63
  L 75.11 92.78
  Q 75.13 93.28 75.48 93.64
  C 76.10 94.29 76.91 94.51 77.38 95.39
  Q 78.12 96.76 77.75 99.13
  Q 77.74 99.21 77.78 99.14
  Q 77.80 99.11 77.84 99.11
  Q 77.91 99.13 77.89 99.06
  Q 77.81 98.82 78.01 98.58
  A 0.51 0.49 -83.2 0 1 78.18 98.44
  Z
  M 65.24 87.08
  A 0.34 0.34 0.0 0 0 64.92 86.62
  L 58.07 86.61
  A 0.34 0.34 0.0 0 0 57.75 87.07
  L 61.16 95.87
  A 0.34 0.34 0.0 0 0 61.80 95.87
  L 65.24 87.08
  Z
  M 75.00 97.52
  A 1.50 1.50 0.0 0 0 73.50 96.02
  A 1.50 1.50 0.0 0 0 72.00 97.52
  A 1.50 1.50 0.0 0 0 73.50 99.02
  A 1.50 1.50 0.0 0 0 75.00 97.52
  Z"
/>
<path fill="#704520" d="
  M 58.19 33.70
  A 1.27 1.27 0.0 0 0 56.92 32.99
  Q 55.50 33.13 55.55 34.60
  C 55.81 42.24 53.15 45.91 45.33 44.92
  Q 44.87 44.86 44.85 44.40
  Q 44.63 40.38 45.33 36.95
  C 47.59 25.86 60.60 20.22 70.32 26.59
  Q 79.26 32.45 77.92 44.40
  Q 77.87 44.90 77.37 44.96
  C 68.31 46.09 62.01 41.53 58.19 33.70
  Z"
/>
<rect fill="#fdb384" x="-1.50" y="-2.77" transform="translate(7.50,33.21) rotate(0.8)" width="3.00" height="5.54" rx="0.43"/>
<rect fill="#fdb384" x="-1.51" y="-2.74" transform="translate(142.49,33.23) rotate(-0.7)" width="3.02" height="5.48" rx="0.43"/>
<path fill="#704520" d="
  M 57.95 40.40
  Q 58.25 39.39 58.89 40.23
  Q 64.46 47.58 74.02 47.89
  Q 74.68 47.91 74.67 48.57
  C 74.54 53.86 75.59 61.84 72.98 66.33
  C 70.31 70.92 64.93 73.00 59.64 72.28
  Q 49.20 70.85 48.50 60.63
  Q 48.17 55.77 48.39 48.48
  Q 48.41 47.93 48.95 47.90
  Q 55.85 47.49 57.95 40.40
  Z
  M 56.6355 51.6575
  A 1.28 1.28 0.0 0 0 55.3623 50.3708
  L 55.0623 50.3692
  A 1.28 1.28 0.0 0 0 53.7756 51.6425
  L 53.7645 53.7625
  A 1.28 1.28 0.0 0 0 55.0377 55.0492
  L 55.3377 55.0508
  A 1.28 1.28 0.0 0 0 56.6244 53.7775
  L 56.6355 51.6575
  Z
  M 69.1618 51.6925
  A 1.30 1.30 0.0 0 0 67.8641 50.3903
  L 67.5641 50.3897
  A 1.30 1.30 0.0 0 0 66.2618 51.6875
  L 66.2582 53.7675
  A 1.30 1.30 0.0 0 0 67.5559 55.0697
  L 67.8559 55.0703
  A 1.30 1.30 0.0 0 0 69.1582 53.7725
  L 69.1618 51.6925
  Z
  M 63.70 61.41
  C 63.29 64.59 59.47 64.36 59.29 61.47
  Q 59.22 60.42 58.19 60.18
  Q 57.98 60.13 57.77 60.17
  Q 56.28 60.42 56.43 61.93
  Q 56.81 65.68 60.34 66.45
  Q 64.95 67.47 66.54 62.27
  A 1.56 1.51 42.7 0 0 66.48 61.20
  Q 65.98 60.07 65.16 60.09
  Q 63.86 60.12 63.70 61.41
  Z"
/>
<rect fill="#fdb384" x="-1.49" y="-3.02" transform="translate(7.51,44.98) rotate(-0.7)" width="2.98" height="6.04" rx="0.86"/>
<rect fill="#fdb384" x="-1.49" y="-2.99" transform="translate(142.52,44.99) rotate(-0.7)" width="2.98" height="5.98" rx="0.66"/>
<path fill="#704520" d="
  M 45.49 55.91
  A 0.31 0.31 0.0 0 1 45.18 56.22
  L 44.51 56.21
  A 3.18 2.94 0.2 0 1 41.34 53.26
  L 41.34 50.76
  A 3.18 2.94 0.2 0 1 44.53 47.83
  L 45.20 47.84
  A 0.31 0.31 0.0 0 1 45.51 48.15
  L 45.49 55.91
  Z"
/>
<path fill="#704520" d="
  M 77.50 48.16
  A 0.31 0.31 0.0 0 1 77.81 47.85
  L 78.74 47.85
  A 2.78 2.72 0.0 0 1 81.52 50.57
  L 81.52 53.45
  A 2.78 2.72 0.0 0 1 78.74 56.17
  L 77.81 56.17
  A 0.31 0.31 0.0 0 1 77.50 55.86
  L 77.50 48.16
  Z"
/>
<rect fill="#fdb384" x="-1.43" y="-2.34" transform="translate(55.20,52.71) rotate(0.3)" width="2.86" height="4.68" rx="1.28"/>
<rect fill="#fdb384" x="-1.45" y="-2.34" transform="translate(67.71,52.73) rotate(0.1)" width="2.90" height="4.68" rx="1.30"/>
<rect fill="#fdb384" x="-1.49" y="-3.03" transform="translate(7.51,56.97) rotate(-0.8)" width="2.98" height="6.06" rx="0.94"/>
<rect fill="#fdb384" x="-1.49" y="-3.00" transform="translate(142.52,56.99) rotate(-0.4)" width="2.98" height="6.00" rx="0.73"/>
<path fill="#704520" d="
  M 86.49 71.79
  Q 83.85 72.83 83.87 75.40
  Q 83.90 78.18 84.21 81.40
  A 0.49 0.49 0.0 0 1 83.58 81.91
  L 74.32 79.00
  Q 73.77 78.83 73.55 78.29
  L 71.45 73.26
  Q 71.19 72.64 71.69 72.21
  Q 77.57 67.12 77.48 59.33
  A 0.21 0.21 0.0 0 1 77.77 59.13
  L 78.08 59.24
  A 0.15 0.14 -76.8 0 1 78.16 59.37
  C 78.06 64.38 81.15 70.19 86.45 71.34
  Q 87.21 71.51 86.49 71.79
  Z"
/>
<path fill="#fdb384" d="
  M 63.70 61.41
  Q 63.86 60.12 65.16 60.09
  Q 65.98 60.07 66.48 61.20
  A 1.56 1.51 42.7 0 1 66.54 62.27
  Q 64.95 67.47 60.34 66.45
  Q 56.81 65.68 56.43 61.93
  Q 56.28 60.42 57.77 60.17
  Q 57.98 60.13 58.19 60.18
  Q 59.22 60.42 59.29 61.47
  C 59.47 64.36 63.29 64.59 63.70 61.41
  Z"
/>
<rect fill="#fdb384" x="-1.49" y="-3.03" transform="translate(7.51,68.97) rotate(-0.8)" width="2.98" height="6.06" rx="0.90"/>
<rect fill="#fdb384" x="-1.50" y="-2.99" transform="translate(142.51,68.99) rotate(-0.7)" width="3.00" height="5.98" rx="0.69"/>
<path fill="#704520" d="
  M 67.58 81.24
  Q 67.17 82.16 66.88 83.08
  Q 66.68 83.74 65.98 83.74
  L 56.99 83.75
  Q 56.51 83.75 56.27 83.33
  Q 54.00 79.19 54.53 74.64
  Q 54.60 74.06 55.15 74.25
  Q 61.10 76.32 67.83 74.27
  Q 68.38 74.10 68.46 74.67
  Q 68.95 78.17 67.58 81.24
  Z"
/>
<path fill="#704520" d="
  M 100.36 82.41
  Q 100.35 83.38 101.30 83.55
  Q 101.70 83.62 102.09 83.56
  Q 103.25 83.39 103.25 82.23
  L 103.25 78.53
  A 0.51 0.51 0.0 0 1 103.93 78.05
  L 108.22 79.58
  A 1.17 1.16 -52.9 0 0 109.32 79.42
  L 115.37 74.87
  A 0.91 0.91 0.0 0 1 116.82 75.65
  Q 116.51 81.88 116.12 87.46
  C 115.91 90.51 119.15 92.33 121.35 93.74
  A 0.55 0.55 0.0 0 1 121.21 94.73
  Q 119.40 95.28 119.40 97.05
  Q 119.39 97.62 119.86 97.96
  L 122.28 99.72
  A 0.64 0.64 0.0 0 1 122.32 100.72
  Q 118.97 103.61 114.22 104.61
  C 105.79 106.39 96.33 106.34 88.27 104.34
  C 85.57 103.67 83.20 102.35 81.08 100.54
  A 0.39 0.39 0.0 0 1 81.09 99.94
  L 83.99 97.61
  Q 84.37 97.30 84.25 96.82
  Q 83.91 95.45 82.39 94.63
  Q 81.45 94.13 82.36 93.59
  C 84.65 92.24 87.76 90.31 87.50 87.19
  Q 87.00 81.23 86.74 75.56
  A 0.88 0.88 0.0 0 1 88.15 74.82
  L 94.36 79.51
  A 0.98 0.97 -36.1 0 0 95.28 79.65
  L 99.78 78.02
  A 0.47 0.47 0.0 0 1 100.41 78.47
  L 100.36 82.41
  Z
  M 97.5219 87.3102
  A 1.21 1.21 0.0 0 0 96.3375 86.0751
  L 95.8976 86.0659
  A 1.21 1.21 0.0 0 0 94.6625 87.2503
  L 94.6181 89.3698
  A 1.21 1.21 0.0 0 0 95.8025 90.6049
  L 96.2424 90.6141
  A 1.21 1.21 0.0 0 0 97.4775 89.4297
  L 97.5219 87.3102
  Z
  M 108.8527 87.3152
  A 1.32 1.32 0.0 0 0 107.5098 86.0184
  L 107.2899 86.0223
  A 1.32 1.32 0.0 0 0 105.9931 87.3651
  L 106.0273 89.3248
  A 1.32 1.32 0.0 0 0 107.3702 90.6216
  L 107.5901 90.6177
  A 1.32 1.32 0.0 0 0 108.8869 89.2749
  L 108.8527 87.3152
  Z
  M 100.95 93.08
  Q 100.85 92.86 100.66 92.72
  Q 100.28 92.45 99.83 92.55
  C 98.59 92.83 98.09 94.08 98.84 95.12
  Q 99.26 95.70 99.75 96.14
  A 0.93 0.93 0.0 0 1 99.60 97.63
  Q 98.56 98.25 97.43 98.47
  Q 96.86 98.58 96.68 99.14
  Q 96.39 100.02 96.89 100.71
  Q 97.18 101.11 97.67 101.14
  Q 99.58 101.25 101.10 100.14
  A 0.88 0.86 38.5 0 1 101.96 100.05
  L 104.57 101.19
  A 1.46 1.45 41.7 0 0 105.87 101.12
  Q 107.27 100.32 106.85 98.97
  A 0.88 0.88 0.0 0 0 106.07 98.35
  Q 104.67 98.28 103.60 97.27
  A 0.54 0.54 0.0 0 1 103.55 96.54
  L 104.84 94.91
  A 1.36 1.36 0.0 0 0 104.71 93.07
  Q 103.51 91.94 102.32 93.28
  Q 101.47 94.23 100.95 93.08
  Z
  M 93.7287 95.7270
  A 1.25 1.25 0.0 0 0 92.4700 94.4858
  L 88.3901 94.5143
  A 1.25 1.25 0.0 0 0 87.1488 95.7730
  L 87.1513 96.1330
  A 1.25 1.25 0.0 0 0 88.4100 97.3742
  L 92.4899 97.3457
  A 1.25 1.25 0.0 0 0 93.7312 96.0870
  L 93.7287 95.7270
  Z
  M 116.4704 95.8574
  A 1.33 1.33 0.0 0 0 115.1474 94.5205
  L 111.1474 94.4995
  A 1.33 1.33 0.0 0 0 109.8105 95.8226
  L 109.8096 95.9826
  A 1.33 1.33 0.0 0 0 111.1326 97.3195
  L 115.1326 97.3405
  A 1.33 1.33 0.0 0 0 116.4695 96.0174
  L 116.4704 95.8574
  Z
  M 93.4961 99.0414
  A 1.29 1.29 0.0 0 0 91.7829 98.4144
  L 87.8645 100.2333
  A 1.29 1.29 0.0 0 0 87.2375 101.9465
  L 87.3639 102.2186
  A 1.29 1.29 0.0 0 0 89.0771 102.8456
  L 92.9955 101.0267
  A 1.29 1.29 0.0 0 0 93.6225 99.3135
  L 93.4961 99.0414
  Z
  M 116.3493 102.0813
  A 1.38 1.38 0.0 0 0 115.7203 100.2338
  L 111.8801 98.3442
  A 1.38 1.38 0.0 0 0 110.0326 98.9731
  L 109.9707 99.0987
  A 1.38 1.38 0.0 0 0 110.5997 100.9462
  L 114.4399 102.8358
  A 1.38 1.38 0.0 0 0 116.2874 102.2069
  L 116.3493 102.0813
  Z"
/>
<rect fill="#fdb384" x="-1.50" y="-3.02" transform="translate(7.50,80.97) rotate(-1.0)" width="3.00" height="6.04" rx="0.88"/>
<rect fill="#fdb384" x="141.01" y="77.99" width="3.00" height="6.00" rx="0.62"/>
<path fill="#704520" d="
  M 86.21 106.63
  Q 86.96 106.84 86.52 107.48
  Q 83.89 111.36 83.63 116.53
  Q 83.60 117.13 83.00 117.13
  L 63.29 117.13
  A 0.43 0.43 0.0 0 1 62.86 116.70
  L 62.84 102.86
  Q 62.84 101.07 63.50 99.41
  L 70.43 81.88
  Q 71.11 80.18 71.45 81.98
  Q 72.45 87.14 71.95 92.79
  Q 71.91 93.29 71.49 93.58
  C 65.10 98.04 72.70 105.46 77.08 100.26
  Q 77.50 99.76 77.75 100.37
  Q 79.49 104.70 86.21 106.63
  Z"
/>
<path fill="#704520" d="
  M 78.01 98.58
  Q 77.81 98.82 77.89 99.06
  Q 77.91 99.13 77.84 99.11
  Q 77.80 99.11 77.78 99.14
  Q 77.74 99.21 77.75 99.13
  Q 78.12 96.76 77.38 95.39
  C 76.91 94.51 76.10 94.29 75.48 93.64
  Q 75.13 93.28 75.11 92.78
  L 74.64 82.63
  Q 74.62 82.12 75.11 82.27
  L 83.00 84.75
  A 2.43 2.43 0.0 0 1 83.88 88.90
  Q 81.42 91.06 78.45 92.58
  A 1.53 1.52 -42.5 0 0 78.33 95.23
  L 79.68 96.07
  A 0.67 0.67 0.0 0 1 79.84 97.07
  Q 79.16 97.90 78.18 98.44
  A 0.51 0.49 -83.2 0 0 78.01 98.58
  Z"
/>
<rect fill="#fdb384" x="-1.43" y="-2.27" transform="translate(96.07,88.34) rotate(1.2)" width="2.86" height="4.54" rx="1.21"/>
<rect fill="#fdb384" x="-1.43" y="-2.30" transform="translate(107.44,88.32) rotate(-1.0)" width="2.86" height="4.60" rx="1.32"/>
<path fill="#704520" d="
  M 65.24 87.08
  L 61.80 95.87
  A 0.34 0.34 0.0 0 1 61.16 95.87
  L 57.75 87.07
  A 0.34 0.34 0.0 0 1 58.07 86.61
  L 64.92 86.62
  A 0.34 0.34 0.0 0 1 65.24 87.08
  Z"
/>
<rect fill="#fdb384" x="-1.50" y="-3.03" transform="translate(7.51,92.97) rotate(-0.7)" width="3.00" height="6.06" rx="0.88"/>
<rect fill="#fdb384" x="-1.50" y="-3.00" transform="translate(142.51,92.99) rotate(-0.1)" width="3.00" height="6.00" rx="0.60"/>
<path fill="#fdb384" d="
  M 100.95 93.08
  Q 101.47 94.23 102.32 93.28
  Q 103.51 91.94 104.71 93.07
  A 1.36 1.36 0.0 0 1 104.84 94.91
  L 103.55 96.54
  A 0.54 0.54 0.0 0 0 103.60 97.27
  Q 104.67 98.28 106.07 98.35
  A 0.88 0.88 0.0 0 1 106.85 98.97
  Q 107.27 100.32 105.87 101.12
  A 1.46 1.45 41.7 0 1 104.57 101.19
  L 101.96 100.05
  A 0.88 0.86 38.5 0 0 101.10 100.14
  Q 99.58 101.25 97.67 101.14
  Q 97.18 101.11 96.89 100.71
  Q 96.39 100.02 96.68 99.14
  Q 96.86 98.58 97.43 98.47
  Q 98.56 98.25 99.60 97.63
  A 0.93 0.93 0.0 0 0 99.75 96.14
  Q 99.26 95.70 98.84 95.12
  C 98.09 94.08 98.59 92.83 99.83 92.55
  Q 100.28 92.45 100.66 92.72
  Q 100.85 92.86 100.95 93.08
  Z"
/>
<rect fill="#fdb384" x="-3.29" y="-1.43" transform="translate(90.44,95.93) rotate(-0.4)" width="6.58" height="2.86" rx="1.25"/>
<rect fill="#fdb384" x="-3.33" y="-1.41" transform="translate(113.14,95.92) rotate(0.3)" width="6.66" height="2.82" rx="1.33"/>
<circle fill="#704520" cx="73.50" cy="97.52" r="1.50"/>
<rect fill="#fdb384" x="-3.45" y="-1.44" transform="translate(90.43,100.63) rotate(-24.9)" width="6.90" height="2.88" rx="1.29"/>
<rect fill="#fdb384" x="-3.52" y="-1.45" transform="translate(113.16,100.59) rotate(26.2)" width="7.04" height="2.90" rx="1.38"/>
<rect fill="#fdb384" x="-1.50" y="-3.02" transform="translate(7.50,104.98) rotate(-0.2)" width="3.00" height="6.04" rx="0.78"/>
<rect fill="#fdb384" x="-1.50" y="-3.00" transform="translate(142.50,105.00) rotate(-0.3)" width="3.00" height="6.00" rx="0.42"/>
<rect fill="#fdb384" x="-1.52" y="-2.74" transform="translate(7.51,116.75) rotate(-1.1)" width="3.04" height="5.48" rx="0.43"/>
<rect fill="#fdb384" x="-1.50" y="-2.75" transform="translate(142.50,116.75) rotate(0.7)" width="3.00" height="5.50" rx="0.26"/>
<rect fill="#fdb384" x="-1.54" y="-2.51" transform="translate(9.46,126.73) rotate(-22.9)" width="3.08" height="5.02" rx="0.41"/>
<rect fill="#fdb384" x="-1.48" y="-2.56" transform="translate(140.52,126.75) rotate(23.6)" width="2.96" height="5.12" rx="0.48"/>
<rect fill="#fdb384" x="-1.47" y="-2.47" transform="translate(14.99,135.02) rotate(-44.9)" width="2.94" height="4.94" rx="0.32"/>
<rect fill="#fdb384" x="-2.46" y="-1.47" transform="translate(135.00,135.02) rotate(-44.6)" width="4.92" height="2.94" rx="0.27"/>
<rect fill="#fdb384" x="-2.56" y="-1.48" transform="translate(23.24,140.53) rotate(23.3)" width="5.12" height="2.96" rx="0.49"/>
<rect fill="#fdb384" x="-2.52" y="-1.53" transform="translate(126.74,140.54) rotate(-22.8)" width="5.04" height="3.06" rx="0.44"/>
<rect fill="#fdb384" x="-2.76" y="-1.51" transform="translate(116.77,142.49) rotate(-1.5)" width="5.52" height="3.02" rx="0.54"/>
<rect fill="#fdb384" x="-2.77" y="-1.50" transform="translate(33.22,142.50) rotate(0.6)" width="5.54" height="3.00" rx="0.42"/>
<rect fill="#fdb384" x="-3.02" y="-1.50" transform="translate(45.00,142.49) rotate(-0.7)" width="6.04" height="3.00" rx="1.01"/>
<rect fill="#fdb384" x="-3.02" y="-1.49" transform="translate(57.00,142.49) rotate(-1.0)" width="6.04" height="2.98" rx="1.06"/>
<rect fill="#fdb384" x="-3.02" y="-1.50" transform="translate(69.00,142.49) rotate(-1.0)" width="6.04" height="3.00" rx="1.06"/>
<rect fill="#fdb384" x="-3.02" y="-1.49" transform="translate(81.00,142.49) rotate(-1.0)" width="6.04" height="2.98" rx="1.06"/>
<rect fill="#fdb384" x="-3.02" y="-1.50" transform="translate(93.00,142.49) rotate(-1.0)" width="6.04" height="3.00" rx="1.05"/>
<rect fill="#fdb384" x="-3.03" y="-1.50" transform="translate(105.00,142.49) rotate(0.5)" width="6.06" height="3.00" rx="1.01"/>
</svg>
