<?xml version="1.0" encoding="UTF-8" standalone="no"?>
<svg xmlns="http://www.w3.org/2000/svg" version="1.2" baseProfile="tiny" viewBox="0.00 0.00 200.00 200.00">
<g stroke-width="2.00" fill="none" stroke-linecap="butt">
<path stroke="#b77c52" vector-effect="non-scaling-stroke" d="
  M 47.9557 8.5605
  A 0.64 0.64 0.0 0 0 47.3002 7.9363
  L 41.2220 8.0849
  A 0.64 0.64 0.0 0 0 40.5979 8.7403
  L 40.6643 11.4595
  A 0.64 0.64 0.0 0 0 41.3198 12.0837
  L 47.3980 11.9351
  A 0.64 0.64 0.0 0 0 48.0221 11.2797
  L 47.9557 8.5605"
/>
<path stroke="#b77c52" vector-effect="non-scaling-stroke" d="
  M 64.0195 9.1120
  A 1.01 1.01 0.0 0 0 63.0202 8.0915
  L 57.0205 8.0287
  A 1.01 1.01 0.0 0 0 56.0000 9.0281
  L 55.9805 10.8880
  A 1.01 1.01 0.0 0 0 56.9798 11.9085
  L 62.9795 11.9713
  A 1.01 1.01 0.0 0 0 64.0000 10.9719
  L 64.0195 9.1120"
/>
<path stroke="#b77c52" vector-effect="non-scaling-stroke" d="
  M 80.0276 9.1551
  A 1.07 1.07 0.0 0 0 78.9670 8.0758
  L 73.0672 8.0243
  A 1.07 1.07 0.0 0 0 71.9879 9.0850
  L 71.9724 10.8649
  A 1.07 1.07 0.0 0 0 73.0330 11.9442
  L 78.9328 11.9957
  A 1.07 1.07 0.0 0 0 80.0121 10.9350
  L 80.0276 9.1551"
/>
<path stroke="#b77c52" vector-effect="non-scaling-stroke" d="
  M 96.0390 9.1622
  A 1.08 1.08 0.0 0 0 94.9704 8.0710
  L 89.0707 8.0092
  A 1.08 1.08 0.0 0 0 87.9794 9.0778
  L 87.9610 10.8378
  A 1.08 1.08 0.0 0 0 89.0296 11.9290
  L 94.9293 11.9908
  A 1.08 1.08 0.0 0 0 96.0206 10.9222
  L 96.0390 9.1622"
/>
<path stroke="#b77c52" vector-effect="non-scaling-stroke" d="
  M 112.0293 9.1321
  A 1.04 1.04 0.0 0 0 111.0003 8.0813
  L 105.0406 8.0189
  A 1.04 1.04 0.0 0 0 103.9897 9.0480
  L 103.9707 10.8679
  A 1.04 1.04 0.0 0 0 104.9997 11.9187
  L 110.9594 11.9811
  A 1.04 1.04 0.0 0 0 112.0103 10.9520
  L 112.0293 9.1321"
/>
<path stroke="#b77c52" vector-effect="non-scaling-stroke" d="
  M 128.0291 9.1621
  A 1.07 1.07 0.0 0 0 126.9704 8.0810
  L 121.0707 8.0192
  A 1.07 1.07 0.0 0 0 119.9895 9.0780
  L 119.9709 10.8579
  A 1.07 1.07 0.0 0 0 121.0296 11.9390
  L 126.9293 12.0008
  A 1.07 1.07 0.0 0 0 128.0105 10.9420
  L 128.0291 9.1621"
/>
<path stroke="#b77c52" vector-effect="non-scaling-stroke" d="
  M 144.0490 9.1724
  A 1.09 1.09 0.0 0 0 142.9705 8.0710
  L 137.0708 8.0092
  A 1.09 1.09 0.0 0 0 135.9694 9.0877
  L 135.9510 10.8476
  A 1.09 1.09 0.0 0 0 137.0295 11.9490
  L 142.9292 12.0108
  A 1.09 1.09 0.0 0 0 144.0306 10.9323
  L 144.0490 9.1724"
/>
<path stroke="#b77c52" vector-effect="non-scaling-stroke" d="
  M 159.4090 8.7841
  A 0.67 0.67 0.0 0 0 158.7544 8.0990
  L 152.7159 7.9620
  A 0.67 0.67 0.0 0 0 152.0309 8.6166
  L 151.9710 11.2559
  A 0.67 0.67 0.0 0 0 152.6256 11.9410
  L 158.6641 12.0780
  A 0.67 0.67 0.0 0 0 159.3491 11.4234
  L 159.4090 8.7841"
/>
<path stroke="#b77c52" vector-effect="non-scaling-stroke" d="
  M 33.5463 9.9378
  A 0.50 0.50 0.0 0 0 32.8926 9.6683
  L 27.6303 11.8588
  A 0.50 0.50 0.0 0 0 27.3608 12.5126
  L 28.5137 15.2822
  A 0.50 0.50 0.0 0 0 29.1674 15.5517
  L 34.4297 13.3612
  A 0.50 0.50 0.0 0 0 34.6992 12.7074
  L 33.5463 9.9378"
/>
<path stroke="#b77c52" vector-effect="non-scaling-stroke" d="
  M 167.04 9.64
  A 0.54 0.54 0.0 0 0 166.31 10.00
  L 165.52 12.81
  A 0.54 0.54 0.0 0 0 165.83 13.45
  L 170.65 15.46
  A 0.54 0.54 0.0 0 0 171.32 15.24
  L 172.83 12.73
  A 0.54 0.54 0.0 0 0 172.57 11.95
  L 167.04 9.64"
/>
<path stroke="#b77c52" vector-effect="non-scaling-stroke" d="
  M 23.3954 19.4248
  A 0.58 0.58 0.0 0 0 23.3911 18.6045
  L 21.3298 16.5647
  A 0.58 0.58 0.0 0 0 20.5095 16.5690
  L 16.5846 20.5352
  A 0.58 0.58 0.0 0 0 16.5889 21.3555
  L 18.6502 23.3953
  A 0.58 0.58 0.0 0 0 19.4705 23.3910
  L 23.3954 19.4248"
/>
<path stroke="#b77c52" vector-effect="non-scaling-stroke" d="
  M 183.4235 21.3446
  A 0.59 0.59 0.0 0 0 183.4221 20.5103
  L 179.4979 16.5997
  A 0.59 0.59 0.0 0 0 178.6635 16.6012
  L 176.6165 18.6554
  A 0.59 0.59 0.0 0 0 176.6179 19.4897
  L 180.5421 23.4003
  A 0.59 0.59 0.0 0 0 181.3765 23.3988
  L 183.4235 21.3446"
/>
<path stroke="#b77c52" vector-effect="non-scaling-stroke" d="
  M 58.89 132.56
  C 62.81 118.80 82.21 120.97 82.47 135.01
  Q 82.58 141.33 82.45 149.42
  C 82.35 155.33 83.76 160.50 88.34 164.22
  C 96.68 170.98 109.64 168.25 113.60 157.96
  Q 114.93 154.49 114.90 149.41
  Q 114.80 135.69 114.86 123.83
  Q 114.86 123.12 115.57 123.08
  C 141.46 121.34 160.90 100.40 160.88 74.58
  A 1.79 1.79 0.0 0 0 159.16 72.79
  L 157.39 72.72
  Q 156.77 72.70 156.76 72.07
  Q 156.59 54.69 156.81 41.96
  Q 156.97 33.22 148.97 31.11
  Q 148.45 30.98 148.11 30.58
  C 144.20 26.06 138.85 21.10 132.76 25.83
  C 122.68 33.66 134.98 49.05 145.06 39.04
  Q 146.69 37.42 148.05 35.61
  Q 148.40 35.15 148.92 35.41
  C 152.52 37.19 152.61 39.63 152.61 43.03
  Q 152.63 57.74 152.63 72.01
  A 0.80 0.79 -84.4 0 1 151.68 72.79
  C 149.73 72.42 148.43 73.28 148.35 75.17
  Q 147.69 90.33 137.82 100.07
  C 120.56 117.11 92.71 112.73 81.06 91.21
  A 1.86 1.86 0.0 0 0 78.84 90.33
  Q 77.88 90.64 77.35 91.82
  A 2.00 1.98 41.8 0 0 77.46 93.65
  Q 87.71 110.98 106.04 114.08
  Q 125.26 117.34 139.90 103.96
  Q 150.94 93.87 152.47 77.24
  Q 152.49 76.99 152.73 77.00
  L 156.43 77.02
  Q 156.65 77.02 156.64 77.25
  C 155.42 97.67 141.16 113.92 121.35 118.11
  C 110.63 120.38 98.64 118.17 89.44 112.25
  Q 71.04 100.40 68.76 77.78
  Q 68.68 77.00 69.47 77.00
  L 72.43 77.00
  Q 72.88 77.00 72.95 77.45
  L 74.03 84.43
  A 1.67 1.65 10.9 0 0 74.84 85.61
  Q 76.15 86.35 77.10 85.83
  Q 78.52 85.08 78.18 83.51
  Q 77.28 79.30 77.09 74.50
  A 1.61 1.59 -88.4 0 0 75.66 72.97
  L 73.17 72.71
  Q 72.60 72.65 72.60 72.08
  Q 72.62 55.84 72.78 40.11
  C 72.80 37.89 74.48 36.04 76.51 35.42
  A 0.81 0.80 64.9 0 1 77.41 35.75
  C 78.98 38.22 81.20 40.27 83.77 41.51
  C 89.23 44.15 95.57 39.78 96.15 34.22
  C 96.69 28.98 93.06 24.48 87.73 24.08
  C 83.54 23.77 79.97 27.01 77.58 30.18
  Q 77.09 30.84 76.29 31.07
  C 70.62 32.69 68.56 36.07 68.53 41.90
  Q 68.48 56.02 68.50 72.19
  Q 68.50 72.81 67.89 72.78
  Q 66.55 72.70 65.33 73.19
  Q 64.86 73.38 64.73 73.87
  Q 64.41 75.20 64.49 76.50
  C 66.01 102.02 84.64 121.37 110.30 123.14
  Q 110.64 123.16 110.64 123.50
  Q 110.63 136.55 110.62 150.90
  C 110.60 167.99 86.78 167.96 86.75 151.04
  Q 86.74 143.52 86.80 137.36
  Q 86.84 132.75 85.64 129.38
  C 82.77 121.35 73.61 117.17 65.53 119.89
  C 59.48 121.91 55.86 126.40 54.56 132.59
  A 0.89 0.88 0.4 0 1 53.85 133.28
  Q 43.59 135.27 40.11 144.85
  C 36.44 154.93 43.19 166.55 54.12 167.84
  C 67.99 169.47 78.31 155.58 72.11 142.84
  Q 68.40 135.23 59.31 133.27
  Q 58.72 133.14 58.89 132.56"
/>
<path stroke="#b77c52" vector-effect="non-scaling-stroke" d="
  M 9.61 32.98
  A 0.49 0.49 0.0 0 0 9.92 33.64
  L 12.84 34.50
  A 0.49 0.49 0.0 0 0 13.43 34.22
  L 15.49 29.32
  A 0.49 0.49 0.0 0 0 15.29 28.71
  L 12.68 27.15
  A 0.49 0.49 0.0 0 0 11.98 27.38
  L 9.61 32.98"
/>
<path stroke="#b77c52" vector-effect="non-scaling-stroke" d="
  M 188.1395 27.6031
  A 0.47 0.47 0.0 0 0 187.5254 27.3487
  L 184.6983 28.5197
  A 0.47 0.47 0.0 0 0 184.4439 29.1338
  L 186.6405 34.4369
  A 0.47 0.47 0.0 0 0 187.2546 34.6913
  L 190.0817 33.5203
  A 0.47 0.47 0.0 0 0 190.3361 32.9062
  L 188.1395 27.6031"
/>
<path stroke="#b77c52" vector-effect="non-scaling-stroke" d="
  M 12.0766 41.3959
  A 0.73 0.73 0.0 0 0 11.3634 40.6495
  L 8.8440 40.5924
  A 0.73 0.73 0.0 0 0 8.0977 41.3056
  L 7.9634 47.2241
  A 0.73 0.73 0.0 0 0 8.6766 47.9705
  L 11.1960 48.0276
  A 0.73 0.73 0.0 0 0 11.9423 47.3144
  L 12.0766 41.3959"
/>
<path stroke="#b77c52" vector-effect="non-scaling-stroke" d="
  M 188.00 47.27
  A 0.76 0.76 0.0 0 0 188.75 48.02
  L 191.27 48.04
  A 0.76 0.76 0.0 0 0 192.03 47.27
  L 191.99 41.30
  A 0.76 0.76 0.0 0 0 191.14 40.55
  L 188.65 40.83
  A 0.76 0.76 0.0 0 0 187.97 41.59
  L 188.00 47.27"
/>
<path stroke="#b77c52" vector-effect="non-scaling-stroke" d="
  M 104.9632 63.6262
  A 8.56 6.42 83.0 0 0 110.2921 54.3476
  A 8.56 6.42 83.0 0 0 102.8768 46.6338
  A 8.56 6.42 83.0 0 0 97.5479 55.9124
  A 8.56 6.42 83.0 0 0 104.9632 63.6262"
/>
<path stroke="#b77c52" vector-effect="non-scaling-stroke" d="
  M 120.5797 63.5927
  A 8.54 6.40 97.2 0 0 127.9995 55.9221
  A 8.54 6.40 97.2 0 0 122.7203 46.6473
  A 8.54 6.40 97.2 0 0 115.3005 54.3179
  A 8.54 6.40 97.2 0 0 120.5797 63.5927"
/>
<path stroke="#b77c52" vector-effect="non-scaling-stroke" d="
  M 11.9687 56.9162
  A 0.98 0.98 0.0 0 0 10.9818 55.9430
  L 8.9619 55.9571
  A 0.98 0.98 0.0 0 0 7.9888 56.9440
  L 8.0313 63.0438
  A 0.98 0.98 0.0 0 0 9.0182 64.0170
  L 11.0381 64.0029
  A 0.98 0.98 0.0 0 0 12.0112 63.0160
  L 11.9687 56.9162"
/>
<path stroke="#b77c52" vector-effect="non-scaling-stroke" d="
  M 191.9927 56.8526
  A 0.90 0.90 0.0 0 0 191.0849 55.9605
  L 188.8650 55.9798
  A 0.90 0.90 0.0 0 0 187.9728 56.8877
  L 188.0273 63.1274
  A 0.90 0.90 0.0 0 0 188.9351 64.0195
  L 191.1550 64.0002
  A 0.90 0.90 0.0 0 0 192.0472 63.0923
  L 191.9927 56.8526"
/>
<path stroke="#b77c52" vector-effect="non-scaling-stroke" d="
  M 94.8769 77.1521
  A 8.62 6.92 62.3 0 0 96.9969 66.3033
  A 8.62 6.92 62.3 0 0 86.8631 61.8879
  A 8.62 6.92 62.3 0 0 84.7431 72.7367
  A 8.62 6.92 62.3 0 0 94.8769 77.1521"
/>
<path stroke="#b77c52" vector-effect="non-scaling-stroke" d="
  M 130.5897 77.1860
  A 8.62 6.93 117.5 0 0 140.7170 72.7399
  A 8.62 6.93 117.5 0 0 138.5503 61.8940
  A 8.62 6.93 117.5 0 0 128.4230 66.3401
  A 8.62 6.93 117.5 0 0 130.5897 77.1860"
/>
<path stroke="#b77c52" vector-effect="non-scaling-stroke" d="
  M 108.61 66.83
  C 103.54 68.99 102.94 75.30 99.17 78.91
  C 95.74 82.19 93.89 86.58 95.92 91.12
  C 97.95 95.64 103.19 98.17 108.11 96.98
  Q 112.31 95.96 116.61 96.87
  Q 124.93 98.62 128.85 92.61
  C 131.75 88.17 130.69 83.22 127.00 79.54
  Q 123.81 76.34 121.78 71.75
  C 119.49 66.57 113.72 64.66 108.61 66.83"
/>
<path stroke="#b77c52" vector-effect="non-scaling-stroke" d="
  M 11.9636 72.9427
  A 1.01 1.01 0.0 0 0 10.9448 71.9416
  L 8.9849 71.9587
  A 1.01 1.01 0.0 0 0 7.9837 72.9775
  L 8.0364 79.0173
  A 1.01 1.01 0.0 0 0 9.0552 80.0184
  L 11.0151 80.0013
  A 1.01 1.01 0.0 0 0 12.0163 78.9825
  L 11.9636 72.9427"
/>
<path stroke="#b77c52" vector-effect="non-scaling-stroke" d="
  M 192.0036 72.8495
  A 0.89 0.89 0.0 0 0 191.1089 71.9642
  L 188.8690 71.9759
  A 0.89 0.89 0.0 0 0 187.9836 72.8706
  L 188.0164 79.1305
  A 0.89 0.89 0.0 0 0 188.9111 80.0158
  L 191.1510 80.0041
  A 0.89 0.89 0.0 0 0 192.0364 79.1094
  L 192.0036 72.8495"
/>
<path stroke="#b77c52" vector-effect="non-scaling-stroke" d="
  M 11.9636 88.9427
  A 1.01 1.01 0.0 0 0 10.9448 87.9416
  L 8.9849 87.9587
  A 1.01 1.01 0.0 0 0 7.9837 88.9775
  L 8.0364 95.0173
  A 1.01 1.01 0.0 0 0 9.0552 96.0184
  L 11.0151 96.0013
  A 1.01 1.01 0.0 0 0 12.0163 94.9825
  L 11.9636 88.9427"
/>
<path stroke="#b77c52" vector-effect="non-scaling-stroke" d="
  M 192.0035 88.8395
  A 0.88 0.88 0.0 0 0 191.1189 87.9641
  L 188.8590 87.9760
  A 0.88 0.88 0.0 0 0 187.9836 88.8606
  L 188.0165 95.1405
  A 0.88 0.88 0.0 0 0 188.9011 96.0159
  L 191.1610 96.0040
  A 0.88 0.88 0.0 0 0 192.0364 95.1194
  L 192.0035 88.8395"
/>
<path stroke="#b77c52" vector-effect="non-scaling-stroke" d="
  M 11.9636 104.9427
  A 1.01 1.01 0.0 0 0 10.9448 103.9416
  L 8.9849 103.9587
  A 1.01 1.01 0.0 0 0 7.9837 104.9775
  L 8.0364 111.0173
  A 1.01 1.01 0.0 0 0 9.0552 112.0184
  L 11.0151 112.0013
  A 1.01 1.01 0.0 0 0 12.0163 110.9825
  L 11.9636 104.9427"
/>
<path stroke="#b77c52" vector-effect="non-scaling-stroke" d="
  M 192.0036 104.8495
  A 0.89 0.89 0.0 0 0 191.1089 103.9642
  L 188.8690 103.9759
  A 0.89 0.89 0.0 0 0 187.9836 104.8706
  L 188.0164 111.1305
  A 0.89 0.89 0.0 0 0 188.9111 112.0158
  L 191.1510 112.0041
  A 0.89 0.89 0.0 0 0 192.0364 111.1094
  L 192.0036 104.8495"
/>
<path stroke="#b77c52" vector-effect="non-scaling-stroke" d="
  M 11.9636 120.9427
  A 1.01 1.01 0.0 0 0 10.9448 119.9416
  L 8.9849 119.9587
  A 1.01 1.01 0.0 0 0 7.9837 120.9775
  L 8.0364 127.0173
  A 1.01 1.01 0.0 0 0 9.0552 128.0184
  L 11.0151 128.0013
  A 1.01 1.01 0.0 0 0 12.0163 126.9825
  L 11.9636 120.9427"
/>
<path stroke="#b77c52" vector-effect="non-scaling-stroke" d="
  M 191.9982 120.8560
  A 0.90 0.90 0.0 0 0 191.0919 119.9623
  L 188.8720 119.9778
  A 0.90 0.90 0.0 0 0 187.9783 120.8841
  L 188.0218 127.1240
  A 0.90 0.90 0.0 0 0 188.9281 128.0177
  L 191.1480 128.0022
  A 0.90 0.90 0.0 0 0 192.0417 127.0959
  L 191.9982 120.8560"
/>
<path stroke="#b77c52" vector-effect="non-scaling-stroke" d="
  M 11.9637 136.9527
  A 1.02 1.02 0.0 0 0 10.9348 135.9417
  L 8.9949 135.9586
  A 1.02 1.02 0.0 0 0 7.9838 136.9875
  L 8.0363 143.0073
  A 1.02 1.02 0.0 0 0 9.0652 144.0183
  L 11.0051 144.0014
  A 1.02 1.02 0.0 0 0 12.0162 142.9725
  L 11.9637 136.9527"
/>
<path stroke="#b77c52" vector-effect="non-scaling-stroke" d="
  M 192.0036 136.8695
  A 0.91 0.91 0.0 0 0 191.0889 135.9643
  L 188.8889 135.9758
  A 0.91 0.91 0.0 0 0 187.9837 136.8906
  L 188.0164 143.1305
  A 0.91 0.91 0.0 0 0 188.9311 144.0357
  L 191.1311 144.0242
  A 0.91 0.91 0.0 0 0 192.0363 143.1094
  L 192.0036 136.8695"
/>
<path stroke="#b77c52" vector-effect="non-scaling-stroke" d="
  M 11.9295 152.5587
  A 0.64 0.64 0.0 0 0 11.2729 151.9357
  L 8.5539 152.0069
  A 0.64 0.64 0.0 0 0 7.9308 152.6634
  L 8.0905 158.7613
  A 0.64 0.64 0.0 0 0 8.7471 159.3843
  L 11.4661 159.3131
  A 0.64 0.64 0.0 0 0 12.0892 158.6566
  L 11.9295 152.5587"
/>
<path stroke="#b77c52" vector-effect="non-scaling-stroke" d="
  M 192.0703 152.6164
  A 0.57 0.57 0.0 0 0 191.5133 152.0336
  L 188.6341 151.9683
  A 0.57 0.57 0.0 0 0 188.0513 152.5252
  L 187.9097 158.7636
  A 0.57 0.57 0.0 0 0 188.4667 159.3464
  L 191.3459 159.4117
  A 0.57 0.57 0.0 0 0 191.9287 158.8548
  L 192.0703 152.6164"
/>
<path stroke="#b77c52" vector-effect="non-scaling-stroke" d="
  M 13.3278 165.5395
  A 0.45 0.45 0.0 0 0 12.7382 165.3001
  L 9.8825 166.5064
  A 0.45 0.45 0.0 0 0 9.6431 167.0960
  L 11.8922 172.4205
  A 0.45 0.45 0.0 0 0 12.4818 172.6599
  L 15.3375 171.4536
  A 0.45 0.45 0.0 0 0 15.5769 170.8640
  L 13.3278 165.5395"
/>
<path stroke="#b77c52" vector-effect="non-scaling-stroke" d="
  M 190.2716 167.2170
  A 0.57 0.57 0.0 0 0 189.9631 166.4722
  L 187.3208 165.3778
  A 0.57 0.57 0.0 0 0 186.5761 165.6862
  L 184.4484 170.8230
  A 0.57 0.57 0.0 0 0 184.7569 171.5678
  L 187.3992 172.6622
  A 0.57 0.57 0.0 0 0 188.1439 172.3538
  L 190.2716 167.2170"
/>
<path stroke="#b77c52" vector-effect="non-scaling-stroke" d="
  M 183.4578 179.4331
  A 0.50 0.50 0.0 0 0 183.4578 178.7260
  L 181.2940 176.5622
  A 0.50 0.50 0.0 0 0 180.5869 176.5622
  L 176.5422 180.6069
  A 0.50 0.50 0.0 0 0 176.5422 181.3140
  L 178.7060 183.4778
  A 0.50 0.50 0.0 0 0 179.4131 183.4778
  L 183.4578 179.4331"
/>
<path stroke="#b77c52" vector-effect="non-scaling-stroke" d="
  M 23.4265 181.3111
  A 0.52 0.52 0.0 0 0 23.4265 180.5757
  L 19.4243 176.5735
  A 0.52 0.52 0.0 0 0 18.6889 176.5735
  L 16.5535 178.7089
  A 0.52 0.52 0.0 0 0 16.5535 179.4443
  L 20.5557 183.4465
  A 0.52 0.52 0.0 0 0 21.2911 183.4465
  L 23.4265 181.3111"
/>
<path stroke="#b77c52" vector-effect="non-scaling-stroke" d="
  M 33.05 190.38
  A 0.44 0.44 0.0 0 0 33.64 190.10
  L 34.52 187.10
  A 0.44 0.44 0.0 0 0 34.26 186.57
  L 29.26 184.51
  A 0.44 0.44 0.0 0 0 28.72 184.69
  L 27.12 187.38
  A 0.44 0.44 0.0 0 0 27.33 188.01
  L 33.05 190.38"
/>
<path stroke="#b77c52" vector-effect="non-scaling-stroke" d="
  M 171.4731 184.6998
  A 0.49 0.49 0.0 0 0 170.8315 184.4380
  L 165.5584 186.6546
  A 0.49 0.49 0.0 0 0 165.2966 187.2962
  L 166.4669 190.0802
  A 0.49 0.49 0.0 0 0 167.1085 190.3420
  L 172.3816 188.1254
  A 0.49 0.49 0.0 0 0 172.6434 187.4838
  L 171.4731 184.6998"
/>
<path stroke="#b77c52" vector-effect="non-scaling-stroke" d="
  M 48.0231 188.6703
  A 0.60 0.60 0.0 0 0 47.4379 188.0558
  L 41.2798 187.9053
  A 0.60 0.60 0.0 0 0 40.6653 188.4905
  L 40.5969 191.2897
  A 0.60 0.60 0.0 0 0 41.1821 191.9042
  L 47.3402 192.0547
  A 0.60 0.60 0.0 0 0 47.9547 191.4695
  L 48.0231 188.6703"
/>
<path stroke="#b77c52" vector-effect="non-scaling-stroke" d="
  M 64.0303 189.0522
  A 1.00 1.00 0.0 0 0 63.0408 188.0417
  L 57.0011 187.9785
  A 1.00 1.00 0.0 0 0 55.9907 188.9680
  L 55.9697 190.9678
  A 1.00 1.00 0.0 0 0 56.9592 191.9783
  L 62.9989 192.0415
  A 1.00 1.00 0.0 0 0 64.0093 191.0520
  L 64.0303 189.0522"
/>
<path stroke="#b77c52" vector-effect="non-scaling-stroke" d="
  M 80.0299 189.0921
  A 1.02 1.02 0.0 0 0 79.0207 188.0615
  L 73.0210 187.9987
  A 1.02 1.02 0.0 0 0 71.9904 189.0080
  L 71.9701 190.9479
  A 1.02 1.02 0.0 0 0 72.9793 191.9785
  L 78.9790 192.0413
  A 1.02 1.02 0.0 0 0 80.0096 191.0320
  L 80.0299 189.0921"
/>
<path stroke="#b77c52" vector-effect="non-scaling-stroke" d="
  M 96.0299 189.0921
  A 1.02 1.02 0.0 0 0 95.0207 188.0615
  L 89.0210 187.9987
  A 1.02 1.02 0.0 0 0 87.9904 189.0080
  L 87.9701 190.9479
  A 1.02 1.02 0.0 0 0 88.9793 191.9785
  L 94.9790 192.0413
  A 1.02 1.02 0.0 0 0 96.0096 191.0320
  L 96.0299 189.0921"
/>
<path stroke="#b77c52" vector-effect="non-scaling-stroke" d="
  M 112.0300 189.0822
  A 1.01 1.01 0.0 0 0 111.0307 188.0616
  L 105.0110 187.9986
  A 1.01 1.01 0.0 0 0 103.9905 188.9980
  L 103.9700 190.9578
  A 1.01 1.01 0.0 0 0 104.9693 191.9784
  L 110.9890 192.0414
  A 1.01 1.01 0.0 0 0 112.0095 191.0420
  L 112.0300 189.0822"
/>
<path stroke="#b77c52" vector-effect="non-scaling-stroke" d="
  M 128.0297 189.1121
  A 1.03 1.03 0.0 0 0 127.0106 188.0714
  L 121.0309 188.0088
  A 1.03 1.03 0.0 0 0 119.9902 189.0280
  L 119.9703 190.9279
  A 1.03 1.03 0.0 0 0 120.9894 191.9686
  L 126.9691 192.0312
  A 1.03 1.03 0.0 0 0 128.0098 191.0120
  L 128.0297 189.1121"
/>
<path stroke="#b77c52" vector-effect="non-scaling-stroke" d="
  M 144.0296 189.1221
  A 1.04 1.04 0.0 0 0 143.0006 188.0713
  L 137.0409 188.0089
  A 1.04 1.04 0.0 0 0 135.9901 189.0380
  L 135.9704 190.9179
  A 1.04 1.04 0.0 0 0 136.9994 191.9687
  L 142.9591 192.0311
  A 1.04 1.04 0.0 0 0 144.0099 191.0020
  L 144.0296 189.1221"
/>
<path stroke="#b77c52" vector-effect="non-scaling-stroke" d="
  M 158.71 191.99
  A 0.75 0.75 0.0 0 0 159.46 191.18
  L 159.24 188.68
  A 0.75 0.75 0.0 0 0 158.49 187.99
  L 152.70 188.00
  A 0.75 0.75 0.0 0 0 151.95 188.76
  L 152.00 191.27
  A 0.75 0.75 0.0 0 0 152.75 192.01
  L 158.71 191.99"
/>
<path stroke="#b77c52" vector-effect="non-scaling-stroke" d="
  M 80.97 33.39
  C 82.54 36.32 86.48 39.54 89.83 37.22
  C 95.07 33.58 89.70 25.45 84.65 29.09
  Q 82.60 30.57 81.02 32.67
  A 0.69 0.67 49.5 0 0 80.97 33.39"
/>
<path stroke="#b77c52" vector-effect="non-scaling-stroke" d="
  M 140.20 37.40
  Q 142.43 36.13 144.28 33.62
  Q 144.54 33.26 144.32 32.87
  C 142.87 30.30 139.23 27.06 136.08 28.72
  C 130.19 31.83 134.71 40.52 140.20 37.40"
/>
<path stroke="#b77c52" vector-effect="non-scaling-stroke" d="
  M 69.71 150.53
  A 13.21 13.21 0.0 0 0 56.50 137.32
  A 13.21 13.21 0.0 0 0 43.29 150.53
  A 13.21 13.21 0.0 0 0 56.50 163.74
  A 13.21 13.21 0.0 0 0 69.71 150.53"
/>
<path stroke="#b77c52" vector-effect="non-scaling-stroke" d="
  M 104.4453 59.3374
  A 4.25 2.16 82.9 0 0 106.0634 54.8530
  A 4.25 2.16 82.9 0 0 103.3947 50.9026
  A 4.25 2.16 82.9 0 0 101.7766 55.3870
  A 4.25 2.16 82.9 0 0 104.4453 59.3374"
/>
<path stroke="#b77c52" vector-effect="non-scaling-stroke" d="
  M 121.1270 59.3591
  A 4.27 2.16 96.9 0 0 123.7844 55.3795
  A 4.27 2.16 96.9 0 0 122.1530 50.8809
  A 4.27 2.16 96.9 0 0 119.4956 54.8605
  A 4.27 2.16 96.9 0 0 121.1270 59.3591"
/>
<path stroke="#b77c52" vector-effect="non-scaling-stroke" d="
  M 92.8584 73.3890
  A 4.35 2.69 62.8 0 0 93.2625 68.2904
  A 4.35 2.69 62.8 0 0 88.8816 65.6510
  A 4.35 2.69 62.8 0 0 88.4775 70.7496
  A 4.35 2.69 62.8 0 0 92.8584 73.3890"
/>
<path stroke="#b77c52" vector-effect="non-scaling-stroke" d="
  M 132.5679 73.4056
  A 4.38 2.69 117.2 0 0 136.9625 70.7396
  A 4.38 2.69 117.2 0 0 136.5721 65.6144
  A 4.38 2.69 117.2 0 0 132.1775 68.2804
  A 4.38 2.69 117.2 0 0 132.5679 73.4056"
/>
<path stroke="#b77c52" vector-effect="non-scaling-stroke" d="
  M 107.33 73.98
  Q 105.33 78.66 101.83 82.24
  C 99.91 84.19 98.43 86.76 99.82 89.51
  C 101.27 92.39 104.07 93.54 107.18 92.83
  Q 112.68 91.57 118.31 92.92
  C 124.31 94.35 129.11 87.57 124.43 82.97
  Q 120.48 79.09 118.54 74.59
  C 117.37 71.89 115.63 70.10 112.54 70.16
  C 110.01 70.22 108.28 71.76 107.33 73.98"
/>
<path stroke="#b77c52" vector-effect="non-scaling-stroke" d="
  M 60.34 150.91
  Q 59.93 154.15 56.47 154.45
  Q 54.63 154.62 54.36 156.44
  Q 54.33 156.64 54.38 156.84
  Q 54.84 158.83 56.88 158.65
  C 62.79 158.13 66.34 152.48 63.78 146.98
  C 60.08 138.98 48.05 142.10 48.43 150.97
  A 1.35 1.35 0.0 0 0 48.85 151.90
  Q 50.18 153.16 51.74 152.24
  A 1.32 1.29 82.8 0 0 52.35 151.44
  Q 52.53 150.75 52.64 150.00
  C 53.35 144.98 60.98 145.89 60.34 150.91"
/>
</g>
<path fill="#704520" d="
  M 32.90 0.00
  L 63.49 0.00
  L 69.64 0.00
  L 79.24 0.00
  L 85.89 0.00
  L 95.23 0.00
  L 101.64 0.00
  L 111.24 0.00
  L 117.89 0.00
  L 126.74 0.00
  L 134.13 0.00
  L 166.53 0.00
  Q 188.52 2.53 197.44 22.50
  Q 198.92 25.82 200.00 32.63
  L 200.00 166.54
  Q 198.67 180.24 189.63 189.38
  Q 180.68 198.41 167.11 200.00
  L 33.45 200.00
  C 15.24 198.24 1.77 184.83 0.00 166.62
  L 0.00 132.26
  Q 0.39 130.07 0.00 127.87
  L 0.00 116.26
  Q 0.38 114.06 0.00 111.87
  L 0.00 100.26
  Q 0.38 98.06 0.00 95.87
  L 0.00 84.26
  Q 0.39 82.06 0.00 79.87
  L 0.00 33.48
  C 1.73 15.41 14.89 2.09 32.90 0.00
  Z
  M 47.9557 8.5605
  A 0.64 0.64 0.0 0 0 47.3002 7.9363
  L 41.2220 8.0849
  A 0.64 0.64 0.0 0 0 40.5979 8.7403
  L 40.6643 11.4595
  A 0.64 0.64 0.0 0 0 41.3198 12.0837
  L 47.3980 11.9351
  A 0.64 0.64 0.0 0 0 48.0221 11.2797
  L 47.9557 8.5605
  Z
  M 64.0195 9.1120
  A 1.01 1.01 0.0 0 0 63.0202 8.0915
  L 57.0205 8.0287
  A 1.01 1.01 0.0 0 0 56.0000 9.0281
  L 55.9805 10.8880
  A 1.01 1.01 0.0 0 0 56.9798 11.9085
  L 62.9795 11.9713
  A 1.01 1.01 0.0 0 0 64.0000 10.9719
  L 64.0195 9.1120
  Z
  M 80.0276 9.1551
  A 1.07 1.07 0.0 0 0 78.9670 8.0758
  L 73.0672 8.0243
  A 1.07 1.07 0.0 0 0 71.9879 9.0850
  L 71.9724 10.8649
  A 1.07 1.07 0.0 0 0 73.0330 11.9442
  L 78.9328 11.9957
  A 1.07 1.07 0.0 0 0 80.0121 10.9350
  L 80.0276 9.1551
  Z
  M 96.0390 9.1622
  A 1.08 1.08 0.0 0 0 94.9704 8.0710
  L 89.0707 8.0092
  A 1.08 1.08 0.0 0 0 87.9794 9.0778
  L 87.9610 10.8378
  A 1.08 1.08 0.0 0 0 89.0296 11.9290
  L 94.9293 11.9908
  A 1.08 1.08 0.0 0 0 96.0206 10.9222
  L 96.0390 9.1622
  Z
  M 112.0293 9.1321
  A 1.04 1.04 0.0 0 0 111.0003 8.0813
  L 105.0406 8.0189
  A 1.04 1.04 0.0 0 0 103.9897 9.0480
  L 103.9707 10.8679
  A 1.04 1.04 0.0 0 0 104.9997 11.9187
  L 110.9594 11.9811
  A 1.04 1.04 0.0 0 0 112.0103 10.9520
  L 112.0293 9.1321
  Z
  M 128.0291 9.1621
  A 1.07 1.07 0.0 0 0 126.9704 8.0810
  L 121.0707 8.0192
  A 1.07 1.07 0.0 0 0 119.9895 9.0780
  L 119.9709 10.8579
  A 1.07 1.07 0.0 0 0 121.0296 11.9390
  L 126.9293 12.0008
  A 1.07 1.07 0.0 0 0 128.0105 10.9420
  L 128.0291 9.1621
  Z
  M 144.0490 9.1724
  A 1.09 1.09 0.0 0 0 142.9705 8.0710
  L 137.0708 8.0092
  A 1.09 1.09 0.0 0 0 135.9694 9.0877
  L 135.9510 10.8476
  A 1.09 1.09 0.0 0 0 137.0295 11.9490
  L 142.9292 12.0108
  A 1.09 1.09 0.0 0 0 144.0306 10.9323
  L 144.0490 9.1724
  Z
  M 159.4090 8.7841
  A 0.67 0.67 0.0 0 0 158.7544 8.0990
  L 152.7159 7.9620
  A 0.67 0.67 0.0 0 0 152.0309 8.6166
  L 151.9710 11.2559
  A 0.67 0.67 0.0 0 0 152.6256 11.9410
  L 158.6641 12.0780
  A 0.67 0.67 0.0 0 0 159.3491 11.4234
  L 159.4090 8.7841
  Z
  M 33.5463 9.9378
  A 0.50 0.50 0.0 0 0 32.8926 9.6683
  L 27.6303 11.8588
  A 0.50 0.50 0.0 0 0 27.3608 12.5126
  L 28.5137 15.2822
  A 0.50 0.50 0.0 0 0 29.1674 15.5517
  L 34.4297 13.3612
  A 0.50 0.50 0.0 0 0 34.6992 12.7074
  L 33.5463 9.9378
  Z
  M 167.04 9.64
  A 0.54 0.54 0.0 0 0 166.31 10.00
  L 165.52 12.81
  A 0.54 0.54 0.0 0 0 165.83 13.45
  L 170.65 15.46
  A 0.54 0.54 0.0 0 0 171.32 15.24
  L 172.83 12.73
  A 0.54 0.54 0.0 0 0 172.57 11.95
  L 167.04 9.64
  Z
  M 23.3954 19.4248
  A 0.58 0.58 0.0 0 0 23.3911 18.6045
  L 21.3298 16.5647
  A 0.58 0.58 0.0 0 0 20.5095 16.5690
  L 16.5846 20.5352
  A 0.58 0.58 0.0 0 0 16.5889 21.3555
  L 18.6502 23.3953
  A 0.58 0.58 0.0 0 0 19.4705 23.3910
  L 23.3954 19.4248
  Z
  M 183.4235 21.3446
  A 0.59 0.59 0.0 0 0 183.4221 20.5103
  L 179.4979 16.5997
  A 0.59 0.59 0.0 0 0 178.6635 16.6012
  L 176.6165 18.6554
  A 0.59 0.59 0.0 0 0 176.6179 19.4897
  L 180.5421 23.4003
  A 0.59 0.59 0.0 0 0 181.3765 23.3988
  L 183.4235 21.3446
  Z
  M 58.89 132.56
  C 62.81 118.80 82.21 120.97 82.47 135.01
  Q 82.58 141.33 82.45 149.42
  C 82.35 155.33 83.76 160.50 88.34 164.22
  C 96.68 170.98 109.64 168.25 113.60 157.96
  Q 114.93 154.49 114.90 149.41
  Q 114.80 135.69 114.86 123.83
  Q 114.86 123.12 115.57 123.08
  C 141.46 121.34 160.90 100.40 160.88 74.58
  A 1.79 1.79 0.0 0 0 159.16 72.79
  L 157.39 72.72
  Q 156.77 72.70 156.76 72.07
  Q 156.59 54.69 156.81 41.96
  Q 156.97 33.22 148.97 31.11
  Q 148.45 30.98 148.11 30.58
  C 144.20 26.06 138.85 21.10 132.76 25.83
  C 122.68 33.66 134.98 49.05 145.06 39.04
  Q 146.69 37.42 148.05 35.61
  Q 148.40 35.15 148.92 35.41
  C 152.52 37.19 152.61 39.63 152.61 43.03
  Q 152.63 57.74 152.63 72.01
  A 0.80 0.79 -84.4 0 1 151.68 72.79
  C 149.73 72.42 148.43 73.28 148.35 75.17
  Q 147.69 90.33 137.82 100.07
  C 120.56 117.11 92.71 112.73 81.06 91.21
  A 1.86 1.86 0.0 0 0 78.84 90.33
  Q 77.88 90.64 77.35 91.82
  A 2.00 1.98 41.8 0 0 77.46 93.65
  Q 87.71 110.98 106.04 114.08
  Q 125.26 117.34 139.90 103.96
  Q 150.94 93.87 152.47 77.24
  Q 152.49 76.99 152.73 77.00
  L 156.43 77.02
  Q 156.65 77.02 156.64 77.25
  C 155.42 97.67 141.16 113.92 121.35 118.11
  C 110.63 120.38 98.64 118.17 89.44 112.25
  Q 71.04 100.40 68.76 77.78
  Q 68.68 77.00 69.47 77.00
  L 72.43 77.00
  Q 72.88 77.00 72.95 77.45
  L 74.03 84.43
  A 1.67 1.65 10.9 0 0 74.84 85.61
  Q 76.15 86.35 77.10 85.83
  Q 78.52 85.08 78.18 83.51
  Q 77.28 79.30 77.09 74.50
  A 1.61 1.59 -88.4 0 0 75.66 72.97
  L 73.17 72.71
  Q 72.60 72.65 72.60 72.08
  Q 72.62 55.84 72.78 40.11
  C 72.80 37.89 74.48 36.04 76.51 35.42
  A 0.81 0.80 64.9 0 1 77.41 35.75
  C 78.98 38.22 81.20 40.27 83.77 41.51
  C 89.23 44.15 95.57 39.78 96.15 34.22
  C 96.69 28.98 93.06 24.48 87.73 24.08
  C 83.54 23.77 79.97 27.01 77.58 30.18
  Q 77.09 30.84 76.29 31.07
  C 70.62 32.69 68.56 36.07 68.53 41.90
  Q 68.48 56.02 68.50 72.19
  Q 68.50 72.81 67.89 72.78
  Q 66.55 72.70 65.33 73.19
  Q 64.86 73.38 64.73 73.87
  Q 64.41 75.20 64.49 76.50
  C 66.01 102.02 84.64 121.37 110.30 123.14
  Q 110.64 123.16 110.64 123.50
  Q 110.63 136.55 110.62 150.90
  C 110.60 167.99 86.78 167.96 86.75 151.04
  Q 86.74 143.52 86.80 137.36
  Q 86.84 132.75 85.64 129.38
  C 82.77 121.35 73.61 117.17 65.53 119.89
  C 59.48 121.91 55.86 126.40 54.56 132.59
  A 0.89 0.88 0.4 0 1 53.85 133.28
  Q 43.59 135.27 40.11 144.85
  C 36.44 154.93 43.19 166.55 54.12 167.84
  C 67.99 169.47 78.31 155.58 72.11 142.84
  Q 68.40 135.23 59.31 133.27
  Q 58.72 133.14 58.89 132.56
  Z
  M 9.61 32.98
  A 0.49 0.49 0.0 0 0 9.92 33.64
  L 12.84 34.50
  A 0.49 0.49 0.0 0 0 13.43 34.22
  L 15.49 29.32
  A 0.49 0.49 0.0 0 0 15.29 28.71
  L 12.68 27.15
  A 0.49 0.49 0.0 0 0 11.98 27.38
  L 9.61 32.98
  Z
  M 188.1395 27.6031
  A 0.47 0.47 0.0 0 0 187.5254 27.3487
  L 184.6983 28.5197
  A 0.47 0.47 0.0 0 0 184.4439 29.1338
  L 186.6405 34.4369
  A 0.47 0.47 0.0 0 0 187.2546 34.6913
  L 190.0817 33.5203
  A 0.47 0.47 0.0 0 0 190.3361 32.9062
  L 188.1395 27.6031
  Z
  M 12.0766 41.3959
  A 0.73 0.73 0.0 0 0 11.3634 40.6495
  L 8.8440 40.5924
  A 0.73 0.73 0.0 0 0 8.0977 41.3056
  L 7.9634 47.2241
  A 0.73 0.73 0.0 0 0 8.6766 47.9705
  L 11.1960 48.0276
  A 0.73 0.73 0.0 0 0 11.9423 47.3144
  L 12.0766 41.3959
  Z
  M 188.00 47.27
  A 0.76 0.76 0.0 0 0 188.75 48.02
  L 191.27 48.04
  A 0.76 0.76 0.0 0 0 192.03 47.27
  L 191.99 41.30
  A 0.76 0.76 0.0 0 0 191.14 40.55
  L 188.65 40.83
  A 0.76 0.76 0.0 0 0 187.97 41.59
  L 188.00 47.27
  Z
  M 104.9632 63.6262
  A 8.56 6.42 83.0 0 0 110.2921 54.3476
  A 8.56 6.42 83.0 0 0 102.8768 46.6338
  A 8.56 6.42 83.0 0 0 97.5479 55.9124
  A 8.56 6.42 83.0 0 0 104.9632 63.6262
  Z
  M 120.5797 63.5927
  A 8.54 6.40 97.2 0 0 127.9995 55.9221
  A 8.54 6.40 97.2 0 0 122.7203 46.6473
  A 8.54 6.40 97.2 0 0 115.3005 54.3179
  A 8.54 6.40 97.2 0 0 120.5797 63.5927
  Z
  M 11.9687 56.9162
  A 0.98 0.98 0.0 0 0 10.9818 55.9430
  L 8.9619 55.9571
  A 0.98 0.98 0.0 0 0 7.9888 56.9440
  L 8.0313 63.0438
  A 0.98 0.98 0.0 0 0 9.0182 64.0170
  L 11.0381 64.0029
  A 0.98 0.98 0.0 0 0 12.0112 63.0160
  L 11.9687 56.9162
  Z
  M 191.9927 56.8526
  A 0.90 0.90 0.0 0 0 191.0849 55.9605
  L 188.8650 55.9798
  A 0.90 0.90 0.0 0 0 187.9728 56.8877
  L 188.0273 63.1274
  A 0.90 0.90 0.0 0 0 188.9351 64.0195
  L 191.1550 64.0002
  A 0.90 0.90 0.0 0 0 192.0472 63.0923
  L 191.9927 56.8526
  Z
  M 94.8769 77.1521
  A 8.62 6.92 62.3 0 0 96.9969 66.3033
  A 8.62 6.92 62.3 0 0 86.8631 61.8879
  A 8.62 6.92 62.3 0 0 84.7431 72.7367
  A 8.62 6.92 62.3 0 0 94.8769 77.1521
  Z
  M 130.5897 77.1860
  A 8.62 6.93 117.5 0 0 140.7170 72.7399
  A 8.62 6.93 117.5 0 0 138.5503 61.8940
  A 8.62 6.93 117.5 0 0 128.4230 66.3401
  A 8.62 6.93 117.5 0 0 130.5897 77.1860
  Z
  M 108.61 66.83
  C 103.54 68.99 102.94 75.30 99.17 78.91
  C 95.74 82.19 93.89 86.58 95.92 91.12
  C 97.95 95.64 103.19 98.17 108.11 96.98
  Q 112.31 95.96 116.61 96.87
  Q 124.93 98.62 128.85 92.61
  C 131.75 88.17 130.69 83.22 127.00 79.54
  Q 123.81 76.34 121.78 71.75
  C 119.49 66.57 113.72 64.66 108.61 66.83
  Z
  M 11.9636 72.9427
  A 1.01 1.01 0.0 0 0 10.9448 71.9416
  L 8.9849 71.9587
  A 1.01 1.01 0.0 0 0 7.9837 72.9775
  L 8.0364 79.0173
  A 1.01 1.01 0.0 0 0 9.0552 80.0184
  L 11.0151 80.0013
  A 1.01 1.01 0.0 0 0 12.0163 78.9825
  L 11.9636 72.9427
  Z
  M 192.0036 72.8495
  A 0.89 0.89 0.0 0 0 191.1089 71.9642
  L 188.8690 71.9759
  A 0.89 0.89 0.0 0 0 187.9836 72.8706
  L 188.0164 79.1305
  A 0.89 0.89 0.0 0 0 188.9111 80.0158
  L 191.1510 80.0041
  A 0.89 0.89 0.0 0 0 192.0364 79.1094
  L 192.0036 72.8495
  Z
  M 11.9636 88.9427
  A 1.01 1.01 0.0 0 0 10.9448 87.9416
  L 8.9849 87.9587
  A 1.01 1.01 0.0 0 0 7.9837 88.9775
  L 8.0364 95.0173
  A 1.01 1.01 0.0 0 0 9.0552 96.0184
  L 11.0151 96.0013
  A 1.01 1.01 0.0 0 0 12.0163 94.9825
  L 11.9636 88.9427
  Z
  M 192.0035 88.8395
  A 0.88 0.88 0.0 0 0 191.1189 87.9641
  L 188.8590 87.9760
  A 0.88 0.88 0.0 0 0 187.9836 88.8606
  L 188.0165 95.1405
  A 0.88 0.88 0.0 0 0 188.9011 96.0159
  L 191.1610 96.0040
  A 0.88 0.88 0.0 0 0 192.0364 95.1194
  L 192.0035 88.8395
  Z
  M 11.9636 104.9427
  A 1.01 1.01 0.0 0 0 10.9448 103.9416
  L 8.9849 103.9587
  A 1.01 1.01 0.0 0 0 7.9837 104.9775
  L 8.0364 111.0173
  A 1.01 1.01 0.0 0 0 9.0552 112.0184
  L 11.0151 112.0013
  A 1.01 1.01 0.0 0 0 12.0163 110.9825
  L 11.9636 104.9427
  Z
  M 192.0036 104.8495
  A 0.89 0.89 0.0 0 0 191.1089 103.9642
  L 188.8690 103.9759
  A 0.89 0.89 0.0 0 0 187.9836 104.8706
  L 188.0164 111.1305
  A 0.89 0.89 0.0 0 0 188.9111 112.0158
  L 191.1510 112.0041
  A 0.89 0.89 0.0 0 0 192.0364 111.1094
  L 192.0036 104.8495
  Z
  M 11.9636 120.9427
  A 1.01 1.01 0.0 0 0 10.9448 119.9416
  L 8.9849 119.9587
  A 1.01 1.01 0.0 0 0 7.9837 120.9775
  L 8.0364 127.0173
  A 1.01 1.01 0.0 0 0 9.0552 128.0184
  L 11.0151 128.0013
  A 1.01 1.01 0.0 0 0 12.0163 126.9825
  L 11.9636 120.9427
  Z
  M 191.9982 120.8560
  A 0.90 0.90 0.0 0 0 191.0919 119.9623
  L 188.8720 119.9778
  A 0.90 0.90 0.0 0 0 187.9783 120.8841
  L 188.0218 127.1240
  A 0.90 0.90 0.0 0 0 188.9281 128.0177
  L 191.1480 128.0022
  A 0.90 0.90 0.0 0 0 192.0417 127.0959
  L 191.9982 120.8560
  Z
  M 11.9637 136.9527
  A 1.02 1.02 0.0 0 0 10.9348 135.9417
  L 8.9949 135.9586
  A 1.02 1.02 0.0 0 0 7.9838 136.9875
  L 8.0363 143.0073
  A 1.02 1.02 0.0 0 0 9.0652 144.0183
  L 11.0051 144.0014
  A 1.02 1.02 0.0 0 0 12.0162 142.9725
  L 11.9637 136.9527
  Z
  M 192.0036 136.8695
  A 0.91 0.91 0.0 0 0 191.0889 135.9643
  L 188.8889 135.9758
  A 0.91 0.91 0.0 0 0 187.9837 136.8906
  L 188.0164 143.1305
  A 0.91 0.91 0.0 0 0 188.9311 144.0357
  L 191.1311 144.0242
  A 0.91 0.91 0.0 0 0 192.0363 143.1094
  L 192.0036 136.8695
  Z
  M 11.9295 152.5587
  A 0.64 0.64 0.0 0 0 11.2729 151.9357
  L 8.5539 152.0069
  A 0.64 0.64 0.0 0 0 7.9308 152.6634
  L 8.0905 158.7613
  A 0.64 0.64 0.0 0 0 8.7471 159.3843
  L 11.4661 159.3131
  A 0.64 0.64 0.0 0 0 12.0892 158.6566
  L 11.9295 152.5587
  Z
  M 192.0703 152.6164
  A 0.57 0.57 0.0 0 0 191.5133 152.0336
  L 188.6341 151.9683
  A 0.57 0.57 0.0 0 0 188.0513 152.5252
  L 187.9097 158.7636
  A 0.57 0.57 0.0 0 0 188.4667 159.3464
  L 191.3459 159.4117
  A 0.57 0.57 0.0 0 0 191.9287 158.8548
  L 192.0703 152.6164
  Z
  M 13.3278 165.5395
  A 0.45 0.45 0.0 0 0 12.7382 165.3001
  L 9.8825 166.5064
  A 0.45 0.45 0.0 0 0 9.6431 167.0960
  L 11.8922 172.4205
  A 0.45 0.45 0.0 0 0 12.4818 172.6599
  L 15.3375 171.4536
  A 0.45 0.45 0.0 0 0 15.5769 170.8640
  L 13.3278 165.5395
  Z
  M 190.2716 167.2170
  A 0.57 0.57 0.0 0 0 189.9631 166.4722
  L 187.3208 165.3778
  A 0.57 0.57 0.0 0 0 186.5761 165.6862
  L 184.4484 170.8230
  A 0.57 0.57 0.0 0 0 184.7569 171.5678
  L 187.3992 172.6622
  A 0.57 0.57 0.0 0 0 188.1439 172.3538
  L 190.2716 167.2170
  Z
  M 183.4578 179.4331
  A 0.50 0.50 0.0 0 0 183.4578 178.7260
  L 181.2940 176.5622
  A 0.50 0.50 0.0 0 0 180.5869 176.5622
  L 176.5422 180.6069
  A 0.50 0.50 0.0 0 0 176.5422 181.3140
  L 178.7060 183.4778
  A 0.50 0.50 0.0 0 0 179.4131 183.4778
  L 183.4578 179.4331
  Z
  M 23.4265 181.3111
  A 0.52 0.52 0.0 0 0 23.4265 180.5757
  L 19.4243 176.5735
  A 0.52 0.52 0.0 0 0 18.6889 176.5735
  L 16.5535 178.7089
  A 0.52 0.52 0.0 0 0 16.5535 179.4443
  L 20.5557 183.4465
  A 0.52 0.52 0.0 0 0 21.2911 183.4465
  L 23.4265 181.3111
  Z
  M 33.05 190.38
  A 0.44 0.44 0.0 0 0 33.64 190.10
  L 34.52 187.10
  A 0.44 0.44 0.0 0 0 34.26 186.57
  L 29.26 184.51
  A 0.44 0.44 0.0 0 0 28.72 184.69
  L 27.12 187.38
  A 0.44 0.44 0.0 0 0 27.33 188.01
  L 33.05 190.38
  Z
  M 171.4731 184.6998
  A 0.49 0.49 0.0 0 0 170.8315 184.4380
  L 165.5584 186.6546
  A 0.49 0.49 0.0 0 0 165.2966 187.2962
  L 166.4669 190.0802
  A 0.49 0.49 0.0 0 0 167.1085 190.3420
  L 172.3816 188.1254
  A 0.49 0.49 0.0 0 0 172.6434 187.4838
  L 171.4731 184.6998
  Z
  M 48.0231 188.6703
  A 0.60 0.60 0.0 0 0 47.4379 188.0558
  L 41.2798 187.9053
  A 0.60 0.60 0.0 0 0 40.6653 188.4905
  L 40.5969 191.2897
  A 0.60 0.60 0.0 0 0 41.1821 191.9042
  L 47.3402 192.0547
  A 0.60 0.60 0.0 0 0 47.9547 191.4695
  L 48.0231 188.6703
  Z
  M 64.0303 189.0522
  A 1.00 1.00 0.0 0 0 63.0408 188.0417
  L 57.0011 187.9785
  A 1.00 1.00 0.0 0 0 55.9907 188.9680
  L 55.9697 190.9678
  A 1.00 1.00 0.0 0 0 56.9592 191.9783
  L 62.9989 192.0415
  A 1.00 1.00 0.0 0 0 64.0093 191.0520
  L 64.0303 189.0522
  Z
  M 80.0299 189.0921
  A 1.02 1.02 0.0 0 0 79.0207 188.0615
  L 73.0210 187.9987
  A 1.02 1.02 0.0 0 0 71.9904 189.0080
  L 71.9701 190.9479
  A 1.02 1.02 0.0 0 0 72.9793 191.9785
  L 78.9790 192.0413
  A 1.02 1.02 0.0 0 0 80.0096 191.0320
  L 80.0299 189.0921
  Z
  M 96.0299 189.0921
  A 1.02 1.02 0.0 0 0 95.0207 188.0615
  L 89.0210 187.9987
  A 1.02 1.02 0.0 0 0 87.9904 189.0080
  L 87.9701 190.9479
  A 1.02 1.02 0.0 0 0 88.9793 191.9785
  L 94.9790 192.0413
  A 1.02 1.02 0.0 0 0 96.0096 191.0320
  L 96.0299 189.0921
  Z
  M 112.0300 189.0822
  A 1.01 1.01 0.0 0 0 111.0307 188.0616
  L 105.0110 187.9986
  A 1.01 1.01 0.0 0 0 103.9905 188.9980
  L 103.9700 190.9578
  A 1.01 1.01 0.0 0 0 104.9693 191.9784
  L 110.9890 192.0414
  A 1.01 1.01 0.0 0 0 112.0095 191.0420
  L 112.0300 189.0822
  Z
  M 128.0297 189.1121
  A 1.03 1.03 0.0 0 0 127.0106 188.0714
  L 121.0309 188.0088
  A 1.03 1.03 0.0 0 0 119.9902 189.0280
  L 119.9703 190.9279
  A 1.03 1.03 0.0 0 0 120.9894 191.9686
  L 126.9691 192.0312
  A 1.03 1.03 0.0 0 0 128.0098 191.0120
  L 128.0297 189.1121
  Z
  M 144.0296 189.1221
  A 1.04 1.04 0.0 0 0 143.0006 188.0713
  L 137.0409 188.0089
  A 1.04 1.04 0.0 0 0 135.9901 189.0380
  L 135.9704 190.9179
  A 1.04 1.04 0.0 0 0 136.9994 191.9687
  L 142.9591 192.0311
  A 1.04 1.04 0.0 0 0 144.0099 191.0020
  L 144.0296 189.1221
  Z
  M 158.71 191.99
  A 0.75 0.75 0.0 0 0 159.46 191.18
  L 159.24 188.68
  A 0.75 0.75 0.0 0 0 158.49 187.99
  L 152.70 188.00
  A 0.75 0.75 0.0 0 0 151.95 188.76
  L 152.00 191.27
  A 0.75 0.75 0.0 0 0 152.75 192.01
  L 158.71 191.99
  Z"
/>
<rect fill="#fdb384" x="-3.68" y="-2.00" transform="translate(44.31,10.01) rotate(-1.4)" width="7.36" height="4.00" rx="0.64"/>
<rect fill="#fdb384" x="-4.01" y="-1.94" transform="translate(60.00,10.00) rotate(0.6)" width="8.02" height="3.88" rx="1.01"/>
<rect fill="#fdb384" x="-4.02" y="-1.96" transform="translate(76.00,10.01) rotate(0.5)" width="8.04" height="3.92" rx="1.07"/>
<rect fill="#fdb384" x="-4.03" y="-1.96" transform="translate(92.00,10.00) rotate(0.6)" width="8.06" height="3.92" rx="1.08"/>
<rect fill="#fdb384" x="-4.02" y="-1.95" transform="translate(108.00,10.00) rotate(0.6)" width="8.04" height="3.90" rx="1.04"/>
<rect fill="#fdb384" x="-4.02" y="-1.96" transform="translate(124.00,10.01) rotate(0.6)" width="8.04" height="3.92" rx="1.07"/>
<rect fill="#fdb384" x="-4.04" y="-1.97" transform="translate(140.00,10.01) rotate(0.6)" width="8.08" height="3.94" rx="1.09"/>
<rect fill="#fdb384" x="-3.69" y="-1.99" transform="translate(155.69,10.02) rotate(1.3)" width="7.38" height="3.98" rx="0.67"/>
<rect fill="#fdb384" x="-3.35" y="-2.00" transform="translate(31.03,12.61) rotate(-22.6)" width="6.70" height="4.00" rx="0.50"/>
<path fill="#fdb384" d="
  M 167.04 9.64
  L 172.57 11.95
  A 0.54 0.54 0.0 0 1 172.83 12.73
  L 171.32 15.24
  A 0.54 0.54 0.0 0 1 170.65 15.46
  L 165.83 13.45
  A 0.54 0.54 0.0 0 1 165.52 12.81
  L 166.31 10.00
  A 0.54 0.54 0.0 0 1 167.04 9.64
  Z"
/>
<rect fill="#fdb384" x="-2.03" y="-3.37" transform="translate(19.99,19.98) rotate(44.7)" width="4.06" height="6.74" rx="0.58"/>
<rect fill="#fdb384" x="-3.36" y="-2.04" transform="translate(180.02,20.00) rotate(44.9)" width="6.72" height="4.08" rx="0.59"/>
<path fill="#fdb384" d="
  M 59.31 133.27
  Q 68.40 135.23 72.11 142.84
  C 78.31 155.58 67.99 169.47 54.12 167.84
  C 43.19 166.55 36.44 154.93 40.11 144.85
  Q 43.59 135.27 53.85 133.28
  A 0.89 0.88 0.4 0 0 54.56 132.59
  C 55.86 126.40 59.48 121.91 65.53 119.89
  C 73.61 117.17 82.77 121.35 85.64 129.38
  Q 86.84 132.75 86.80 137.36
  Q 86.74 143.52 86.75 151.04
  C 86.78 167.96 110.60 167.99 110.62 150.90
  Q 110.63 136.55 110.64 123.50
  Q 110.64 123.16 110.30 123.14
  C 84.64 121.37 66.01 102.02 64.49 76.50
  Q 64.41 75.20 64.73 73.87
  Q 64.86 73.38 65.33 73.19
  Q 66.55 72.70 67.89 72.78
  Q 68.50 72.81 68.50 72.19
  Q 68.48 56.02 68.53 41.90
  C 68.56 36.07 70.62 32.69 76.29 31.07
  Q 77.09 30.84 77.58 30.18
  C 79.97 27.01 83.54 23.77 87.73 24.08
  C 93.06 24.48 96.69 28.98 96.15 34.22
  C 95.57 39.78 89.23 44.15 83.77 41.51
  C 81.20 40.27 78.98 38.22 77.41 35.75
  A 0.81 0.80 64.9 0 0 76.51 35.42
  C 74.48 36.04 72.80 37.89 72.78 40.11
  Q 72.62 55.84 72.60 72.08
  Q 72.60 72.65 73.17 72.71
  L 75.66 72.97
  A 1.61 1.59 -88.4 0 1 77.09 74.50
  Q 77.28 79.30 78.18 83.51
  Q 78.52 85.08 77.10 85.83
  Q 76.15 86.35 74.84 85.61
  A 1.67 1.65 10.9 0 1 74.03 84.43
  L 72.95 77.45
  Q 72.88 77.00 72.43 77.00
  L 69.47 77.00
  Q 68.68 77.00 68.76 77.78
  Q 71.04 100.40 89.44 112.25
  C 98.64 118.17 110.63 120.38 121.35 118.11
  C 141.16 113.92 155.42 97.67 156.64 77.25
  Q 156.65 77.02 156.43 77.02
  L 152.73 77.00
  Q 152.49 76.99 152.47 77.24
  Q 150.94 93.87 139.90 103.96
  Q 125.26 117.34 106.04 114.08
  Q 87.71 110.98 77.46 93.65
  A 2.00 1.98 41.8 0 1 77.35 91.82
  Q 77.88 90.64 78.84 90.33
  A 1.86 1.86 0.0 0 1 81.06 91.21
  C 92.71 112.73 120.56 117.11 137.82 100.07
  Q 147.69 90.33 148.35 75.17
  C 148.43 73.28 149.73 72.42 151.68 72.79
  A 0.80 0.79 -84.4 0 0 152.63 72.01
  Q 152.63 57.74 152.61 43.03
  C 152.61 39.63 152.52 37.19 148.92 35.41
  Q 148.40 35.15 148.05 35.61
  Q 146.69 37.42 145.06 39.04
  C 134.98 49.05 122.68 33.66 132.76 25.83
  C 138.85 21.10 144.20 26.06 148.11 30.58
  Q 148.45 30.98 148.97 31.11
  Q 156.97 33.22 156.81 41.96
  Q 156.59 54.69 156.76 72.07
  Q 156.77 72.70 157.39 72.72
  L 159.16 72.79
  A 1.79 1.79 0.0 0 1 160.88 74.58
  C 160.90 100.40 141.46 121.34 115.57 123.08
  Q 114.86 123.12 114.86 123.83
  Q 114.80 135.69 114.90 149.41
  Q 114.93 154.49 113.60 157.96
  C 109.64 168.25 96.68 170.98 88.34 164.22
  C 83.76 160.50 82.35 155.33 82.45 149.42
  Q 82.58 141.33 82.47 135.01
  C 82.21 120.97 62.81 118.80 58.89 132.56
  Q 58.72 133.14 59.31 133.27
  Z
  M 80.97 33.39
  C 82.54 36.32 86.48 39.54 89.83 37.22
  C 95.07 33.58 89.70 25.45 84.65 29.09
  Q 82.60 30.57 81.02 32.67
  A 0.69 0.67 49.5 0 0 80.97 33.39
  Z
  M 140.20 37.40
  Q 142.43 36.13 144.28 33.62
  Q 144.54 33.26 144.32 32.87
  C 142.87 30.30 139.23 27.06 136.08 28.72
  C 130.19 31.83 134.71 40.52 140.20 37.40
  Z
  M 69.71 150.53
  A 13.21 13.21 0.0 0 0 56.50 137.32
  A 13.21 13.21 0.0 0 0 43.29 150.53
  A 13.21 13.21 0.0 0 0 56.50 163.74
  A 13.21 13.21 0.0 0 0 69.71 150.53
  Z"
/>
<path fill="#fdb384" d="
  M 9.61 32.98
  L 11.98 27.38
  A 0.49 0.49 0.0 0 1 12.68 27.15
  L 15.29 28.71
  A 0.49 0.49 0.0 0 1 15.49 29.32
  L 13.43 34.22
  A 0.49 0.49 0.0 0 1 12.84 34.50
  L 9.92 33.64
  A 0.49 0.49 0.0 0 1 9.61 32.98
  Z"
/>
<rect fill="#fdb384" x="-2.00" y="-3.34" transform="translate(187.39,31.02) rotate(-22.5)" width="4.00" height="6.68" rx="0.47"/>
<path fill="#704520" d="
  M 89.83 37.22
  C 86.48 39.54 82.54 36.32 80.97 33.39
  A 0.69 0.67 49.5 0 1 81.02 32.67
  Q 82.60 30.57 84.65 29.09
  C 89.70 25.45 95.07 33.58 89.83 37.22
  Z"
/>
<path fill="#704520" d="
  M 140.20 37.40
  C 134.71 40.52 130.19 31.83 136.08 28.72
  C 139.23 27.06 142.87 30.30 144.32 32.87
  Q 144.54 33.26 144.28 33.62
  Q 142.43 36.13 140.20 37.40
  Z"
/>
<rect fill="#fdb384" x="-1.99" y="-3.69" transform="translate(10.02,44.31) rotate(1.3)" width="3.98" height="7.38" rx="0.73"/>
<path fill="#fdb384" d="
  M 188.00 47.27
  L 187.97 41.59
  A 0.76 0.76 0.0 0 1 188.65 40.83
  L 191.14 40.55
  A 0.76 0.76 0.0 0 1 191.99 41.30
  L 192.03 47.27
  A 0.76 0.76 0.0 0 1 191.27 48.04
  L 188.75 48.02
  A 0.76 0.76 0.0 0 1 188.00 47.27
  Z"
/>
<path fill="#fdb384" d="
  M 104.9632 63.6262
  A 8.56 6.42 83.0 0 1 97.5479 55.9124
  A 8.56 6.42 83.0 0 1 102.8768 46.6338
  A 8.56 6.42 83.0 0 1 110.2921 54.3476
  A 8.56 6.42 83.0 0 1 104.9632 63.6262
  Z
  M 104.4453 59.3374
  A 4.25 2.16 82.9 0 0 106.0634 54.8530
  A 4.25 2.16 82.9 0 0 103.3947 50.9026
  A 4.25 2.16 82.9 0 0 101.7766 55.3870
  A 4.25 2.16 82.9 0 0 104.4453 59.3374
  Z"
/>
<path fill="#fdb384" d="
  M 120.5797 63.5927
  A 8.54 6.40 97.2 0 1 115.3005 54.3179
  A 8.54 6.40 97.2 0 1 122.7203 46.6473
  A 8.54 6.40 97.2 0 1 127.9995 55.9221
  A 8.54 6.40 97.2 0 1 120.5797 63.5927
  Z
  M 121.1270 59.3591
  A 4.27 2.16 96.9 0 0 123.7844 55.3795
  A 4.27 2.16 96.9 0 0 122.1530 50.8809
  A 4.27 2.16 96.9 0 0 119.4956 54.8605
  A 4.27 2.16 96.9 0 0 121.1270 59.3591
  Z"
/>
<ellipse fill="#704520" cx="0.00" cy="0.00" transform="translate(103.92,55.12) rotate(82.9)" rx="4.25" ry="2.16"/>
<ellipse fill="#704520" cx="0.00" cy="0.00" transform="translate(121.64,55.12) rotate(96.9)" rx="4.27" ry="2.16"/>
<rect fill="#fdb384" x="-1.99" y="-4.03" transform="translate(10.00,59.98) rotate(-0.4)" width="3.98" height="8.06" rx="0.98"/>
<rect fill="#fdb384" x="-2.01" y="-4.02" transform="translate(190.01,59.99) rotate(-0.5)" width="4.02" height="8.04" rx="0.90"/>
<path fill="#fdb384" d="
  M 94.8769 77.1521
  A 8.62 6.92 62.3 0 1 84.7431 72.7367
  A 8.62 6.92 62.3 0 1 86.8631 61.8879
  A 8.62 6.92 62.3 0 1 96.9969 66.3033
  A 8.62 6.92 62.3 0 1 94.8769 77.1521
  Z
  M 92.8584 73.3890
  A 4.35 2.69 62.8 0 0 93.2625 68.2904
  A 4.35 2.69 62.8 0 0 88.8816 65.6510
  A 4.35 2.69 62.8 0 0 88.4775 70.7496
  A 4.35 2.69 62.8 0 0 92.8584 73.3890
  Z"
/>
<path fill="#fdb384" d="
  M 130.5897 77.1860
  A 8.62 6.93 117.5 0 1 128.4230 66.3401
  A 8.62 6.93 117.5 0 1 138.5503 61.8940
  A 8.62 6.93 117.5 0 1 140.7170 72.7399
  A 8.62 6.93 117.5 0 1 130.5897 77.1860
  Z
  M 132.5679 73.4056
  A 4.38 2.69 117.2 0 0 136.9625 70.7396
  A 4.38 2.69 117.2 0 0 136.5721 65.6144
  A 4.38 2.69 117.2 0 0 132.1775 68.2804
  A 4.38 2.69 117.2 0 0 132.5679 73.4056
  Z"
/>
<ellipse fill="#704520" cx="0.00" cy="0.00" transform="translate(90.87,69.52) rotate(62.8)" rx="4.35" ry="2.69"/>
<ellipse fill="#704520" cx="0.00" cy="0.00" transform="translate(134.57,69.51) rotate(117.2)" rx="4.38" ry="2.69"/>
<path fill="#fdb384" d="
  M 99.17 78.91
  C 102.94 75.30 103.54 68.99 108.61 66.83
  C 113.72 64.66 119.49 66.57 121.78 71.75
  Q 123.81 76.34 127.00 79.54
  C 130.69 83.22 131.75 88.17 128.85 92.61
  Q 124.93 98.62 116.61 96.87
  Q 112.31 95.96 108.11 96.98
  C 103.19 98.17 97.95 95.64 95.92 91.12
  C 93.89 86.58 95.74 82.19 99.17 78.91
  Z
  M 107.33 73.98
  Q 105.33 78.66 101.83 82.24
  C 99.91 84.19 98.43 86.76 99.82 89.51
  C 101.27 92.39 104.07 93.54 107.18 92.83
  Q 112.68 91.57 118.31 92.92
  C 124.31 94.35 129.11 87.57 124.43 82.97
  Q 120.48 79.09 118.54 74.59
  C 117.37 71.89 115.63 70.10 112.54 70.16
  C 110.01 70.22 108.28 71.76 107.33 73.98
  Z"
/>
<path fill="#704520" d="
  M 107.33 73.98
  C 108.28 71.76 110.01 70.22 112.54 70.16
  C 115.63 70.10 117.37 71.89 118.54 74.59
  Q 120.48 79.09 124.43 82.97
  C 129.11 87.57 124.31 94.35 118.31 92.92
  Q 112.68 91.57 107.18 92.83
  C 104.07 93.54 101.27 92.39 99.82 89.51
  C 98.43 86.76 99.91 84.19 101.83 82.24
  Q 105.33 78.66 107.33 73.98
  Z"
/>
<rect fill="#fdb384" x="-1.99" y="-4.03" transform="translate(10.00,75.98) rotate(-0.5)" width="3.98" height="8.06" rx="1.01"/>
<rect fill="#fdb384" x="-2.01" y="-4.02" transform="translate(190.01,75.99) rotate(-0.3)" width="4.02" height="8.04" rx="0.89"/>
<rect fill="#fdb384" x="-1.99" y="-4.03" transform="translate(10.00,91.98) rotate(-0.5)" width="3.98" height="8.06" rx="1.01"/>
<rect fill="#fdb384" x="-2.01" y="-4.02" transform="translate(190.01,91.99) rotate(-0.3)" width="4.02" height="8.04" rx="0.88"/>
<rect fill="#fdb384" x="-1.99" y="-4.03" transform="translate(10.00,107.98) rotate(-0.5)" width="3.98" height="8.06" rx="1.01"/>
<rect fill="#fdb384" x="-2.01" y="-4.02" transform="translate(190.01,107.99) rotate(-0.3)" width="4.02" height="8.04" rx="0.89"/>
<rect fill="#fdb384" x="-1.99" y="-4.03" transform="translate(10.00,123.98) rotate(-0.5)" width="3.98" height="8.06" rx="1.01"/>
<rect fill="#fdb384" x="-2.01" y="-4.02" transform="translate(190.01,123.99) rotate(-0.4)" width="4.02" height="8.04" rx="0.90"/>
<rect fill="#fdb384" x="-1.99" y="-4.03" transform="translate(10.00,139.98) rotate(-0.5)" width="3.98" height="8.06" rx="1.02"/>
<rect fill="#fdb384" x="-2.01" y="-4.03" transform="translate(190.01,140.00) rotate(-0.3)" width="4.02" height="8.06" rx="0.91"/>
<path fill="#704520" d="
  M 69.71 150.53
  A 13.21 13.21 0.0 0 1 56.50 163.74
  A 13.21 13.21 0.0 0 1 43.29 150.53
  A 13.21 13.21 0.0 0 1 56.50 137.32
  A 13.21 13.21 0.0 0 1 69.71 150.53
  Z
  M 60.34 150.91
  Q 59.93 154.15 56.47 154.45
  Q 54.63 154.62 54.36 156.44
  Q 54.33 156.64 54.38 156.84
  Q 54.84 158.83 56.88 158.65
  C 62.79 158.13 66.34 152.48 63.78 146.98
  C 60.08 138.98 48.05 142.10 48.43 150.97
  A 1.35 1.35 0.0 0 0 48.85 151.90
  Q 50.18 153.16 51.74 152.24
  A 1.32 1.29 82.8 0 0 52.35 151.44
  Q 52.53 150.75 52.64 150.00
  C 53.35 144.98 60.98 145.89 60.34 150.91
  Z"
/>
<path fill="#fdb384" d="
  M 60.34 150.91
  C 60.98 145.89 53.35 144.98 52.64 150.00
  Q 52.53 150.75 52.35 151.44
  A 1.32 1.29 82.8 0 1 51.74 152.24
  Q 50.18 153.16 48.85 151.90
  A 1.35 1.35 0.0 0 1 48.43 150.97
  C 48.05 142.10 60.08 138.98 63.78 146.98
  C 66.34 152.48 62.79 158.13 56.88 158.65
  Q 54.84 158.83 54.38 156.84
  Q 54.33 156.64 54.36 156.44
  Q 54.63 154.62 56.47 154.45
  Q 59.93 154.15 60.34 150.91
  Z"
/>
<rect fill="#fdb384" x="-2.00" y="-3.69" transform="translate(10.01,155.66) rotate(-1.5)" width="4.00" height="7.38" rx="0.64"/>
<rect fill="#fdb384" x="-2.01" y="-3.69" transform="translate(189.99,155.69) rotate(1.3)" width="4.02" height="7.38" rx="0.57"/>
<rect fill="#fdb384" x="-2.00" y="-3.34" transform="translate(12.61,168.98) rotate(-22.9)" width="4.00" height="6.68" rx="0.45"/>
<rect fill="#fdb384" x="-2.00" y="-3.35" transform="translate(187.36,169.02) rotate(22.5)" width="4.00" height="6.70" rx="0.57"/>
<rect fill="#fdb384" x="-2.03" y="-3.36" transform="translate(180.00,180.02) rotate(45.0)" width="4.06" height="6.72" rx="0.50"/>
<rect fill="#fdb384" x="-3.35" y="-2.03" transform="translate(19.99,180.01) rotate(45.0)" width="6.70" height="4.06" rx="0.52"/>
<path fill="#fdb384" d="
  M 33.05 190.38
  L 27.33 188.01
  A 0.44 0.44 0.0 0 1 27.12 187.38
  L 28.72 184.69
  A 0.44 0.44 0.0 0 1 29.26 184.51
  L 34.26 186.57
  A 0.44 0.44 0.0 0 1 34.52 187.10
  L 33.64 190.10
  A 0.44 0.44 0.0 0 1 33.05 190.38
  Z"
/>
<rect fill="#fdb384" x="-3.35" y="-2.00" transform="translate(168.97,187.39) rotate(-22.8)" width="6.70" height="4.00" rx="0.49"/>
<rect fill="#fdb384" x="-3.68" y="-2.00" transform="translate(44.31,189.98) rotate(1.4)" width="7.36" height="4.00" rx="0.60"/>
<rect fill="#fdb384" x="-4.02" y="-2.00" transform="translate(60.00,190.01) rotate(0.6)" width="8.04" height="4.00" rx="1.00"/>
<rect fill="#fdb384" x="-4.02" y="-1.99" transform="translate(76.00,190.02) rotate(0.6)" width="8.04" height="3.98" rx="1.02"/>
<rect fill="#fdb384" x="-4.02" y="-1.99" transform="translate(92.00,190.02) rotate(0.6)" width="8.04" height="3.98" rx="1.02"/>
<rect fill="#fdb384" x="-4.02" y="-1.99" transform="translate(108.00,190.02) rotate(0.6)" width="8.04" height="3.98" rx="1.01"/>
<rect fill="#fdb384" x="-4.02" y="-1.98" transform="translate(124.00,190.02) rotate(0.6)" width="8.04" height="3.96" rx="1.03"/>
<rect fill="#fdb384" x="-4.02" y="-1.98" transform="translate(140.00,190.02) rotate(0.6)" width="8.04" height="3.96" rx="1.04"/>
<path fill="#fdb384" d="
  M 158.71 191.99
  L 152.75 192.01
  A 0.75 0.75 0.0 0 1 152.00 191.27
  L 151.95 188.76
  A 0.75 0.75 0.0 0 1 152.70 188.00
  L 158.49 187.99
  A 0.75 0.75 0.0 0 1 159.24 188.68
  L 159.46 191.18
  A 0.75 0.75 0.0 0 1 158.71 191.99
  Z"
/>
</svg>
