<?xml version="1.0" encoding="UTF-8" standalone="no"?>
<svg xmlns="http://www.w3.org/2000/svg" version="1.2" baseProfile="tiny" viewBox="0.00 0.00 512.00 512.00">
<path fill="#000000" d="
  M 512.00 332.27
  L 512.00 334.74
  C 510.62 350.02 499.04 360.71 483.75 360.71
  Q 460.65 360.72 437.52 360.75
  Q 437.00 360.75 437.00 361.27
  L 437.00 375.73
  Q 437.00 376.25 437.52 376.25
  Q 457.99 376.25 478.46 376.27
  Q 488.14 376.28 491.94 377.31
  C 503.38 380.42 511.09 390.52 512.00 402.39
  L 512.00 404.84
  C 511.05 416.71 503.29 426.85 491.82 429.89
  Q 488.09 430.88 478.14 430.91
  Q 457.88 430.97 437.62 430.91
  Q 437.08 430.91 437.05 431.44
  Q 436.90 433.71 436.97 435.99
  C 437.43 452.11 427.20 465.77 411.15 469.35
  Q 402.02 471.38 393.42 468.00
  C 380.19 462.81 372.35 450.64 372.39 436.24
  Q 372.43 424.13 372.48 411.99
  C 372.51 404.70 383.07 402.14 386.42 408.81
  Q 387.44 410.84 387.45 415.31
  Q 387.47 426.53 387.46 437.75
  C 387.45 457.50 415.51 461.65 421.20 442.55
  C 422.51 438.16 421.99 432.11 422.00 427.10
  C 422.01 421.31 423.06 415.94 429.75 415.93
  Q 454.34 415.91 478.93 415.94
  Q 486.45 415.95 488.96 415.03
  C 499.11 411.34 499.70 396.96 489.61 392.44
  Q 486.91 391.23 480.74 391.24
  Q 456.85 391.27 432.97 391.24
  C 425.22 391.23 422.03 389.40 422.01 381.48
  Q 421.98 369.13 422.00 356.79
  C 422.02 348.72 423.94 345.75 432.08 345.74
  Q 455.95 345.72 479.82 345.74
  Q 486.83 345.75 489.54 344.61
  C 495.60 342.05 498.80 334.56 495.75 328.26
  Q 492.24 321.00 484.25 321.02
  Q 458.30 321.07 432.35 321.02
  C 424.87 321.01 422.01 318.74 422.01 311.32
  Q 421.99 253.28 422.01 195.25
  C 422.01 187.80 433.26 185.84 438.71 182.54
  C 473.10 161.71 483.12 116.41 458.64 83.95
  C 431.45 47.91 378.19 48.08 350.90 84.00
  C 338.19 100.72 334.21 122.21 339.88 142.52
  Q 346.85 167.47 369.30 181.70
  C 373.09 184.10 377.48 185.91 381.74 187.78
  Q 387.20 190.18 387.21 195.50
  Q 387.48 284.40 387.46 373.30
  Q 387.46 378.23 386.55 380.08
  C 383.75 385.82 375.26 385.32 373.07 379.44
  Q 372.45 377.77 372.45 373.50
  Q 372.50 287.12 372.47 200.84
  A 1.05 1.05 0.0 0 0 371.85 199.88
  C 344.29 187.59 324.79 161.45 322.52 130.99
  C 318.79 80.96 360.30 38.71 410.50 42.18
  C 457.23 45.40 491.98 87.09 486.52 133.98
  C 483.12 163.20 464.25 188.11 437.53 199.89
  A 0.90 0.90 0.0 0 0 437.00 200.71
  L 437.00 305.74
  Q 437.00 306.04 437.31 306.04
  Q 460.48 306.02 483.75 306.06
  C 499.15 306.08 510.74 316.87 512.00 332.27
  Z"
/>
<path fill="#000000" d="
  M 0.00 449.63
  L 0.00 310.76
  Q 1.79 304.06 7.65 304.21
  C 11.44 304.31 14.99 307.43 15.00 311.25
  Q 15.00 378.99 15.00 446.74
  C 15.00 452.95 17.69 454.57 23.78 454.57
  Q 165.51 454.56 307.25 454.57
  C 313.35 454.57 315.22 452.10 315.22 445.98
  Q 315.24 353.45 315.23 260.91
  C 315.23 256.37 314.20 251.88 309.00 251.88
  Q 166.62 251.87 24.24 251.88
  C 19.51 251.88 14.95 252.80 14.99 258.25
  Q 15.04 265.58 14.98 272.91
  C 14.94 278.17 13.62 283.04 7.75 283.22
  Q 1.37 283.40 0.00 276.35
  L 0.00 256.70
  C 1.24 244.39 11.18 236.17 23.50 236.92
  Q 25.54 237.04 30.51 236.81
  Q 31.04 236.78 31.04 236.26
  Q 30.95 190.39 31.07 176.50
  C 31.74 97.57 98.18 36.33 177.25 43.03
  C 235.54 47.97 283.69 91.61 296.20 148.51
  Q 298.86 160.60 298.99 176.00
  Q 299.25 206.26 299.22 236.51
  A 0.36 0.35 89.2 0 0 299.58 236.87
  Q 304.01 236.87 308.50 236.89
  C 318.25 236.92 326.83 243.03 329.40 252.40
  Q 330.22 255.40 330.22 263.18
  Q 330.25 355.97 330.22 448.75
  C 330.22 460.19 320.49 469.44 308.75 469.45
  Q 165.38 469.58 22.00 469.63
  C 10.34 469.64 1.18 461.55 0.00 449.63
  Z
  M 166.77 57.50
  C 100.15 56.55 46.10 110.60 45.99 177.02
  Q 45.95 206.64 46.05 236.40
  Q 46.06 236.88 46.54 236.88
  L 70.99 236.87
  A 0.45 0.44 -0.0 0 0 71.44 236.43
  Q 71.39 210.50 71.44 184.50
  Q 71.46 170.50 72.21 164.53
  C 76.78 128.12 102.88 97.69 137.69 86.95
  C 183.77 72.73 233.11 96.27 251.71 140.83
  Q 258.71 157.62 258.76 175.25
  Q 258.83 205.97 258.78 236.53
  A 0.35 0.35 0.0 0 0 259.13 236.88
  L 283.76 236.88
  A 0.45 0.44 -90.0 0 0 284.20 236.43
  Q 284.21 207.72 284.22 179.00
  Q 284.23 134.17 256.82 100.79
  C 234.72 73.89 201.63 58.00 166.77 57.50
  Z
  M 87.54 236.91
  L 242.86 236.91
  A 1.23 1.23 0.0 0 0 244.09 235.68
  L 244.09 177.69
  A 79.88 78.89 -90.0 0 0 165.20 97.81
  L 165.20 97.81
  A 79.88 78.89 90.0 0 0 86.31 177.69
  L 86.31 235.68
  A 1.23 1.23 0.0 0 0 87.54 236.91
  Z"
/>
<path fill="#000000" d="
  M 450.38 124.38
  A 45.66 45.66 0.0 0 1 404.72 170.04
  A 45.66 45.66 0.0 0 1 359.06 124.38
  A 45.66 45.66 0.0 0 1 404.72 78.72
  A 45.66 45.66 0.0 0 1 450.38 124.38
  Z
  M 435.43 124.38
  A 30.71 30.71 0.0 0 0 404.72 93.67
  A 30.71 30.71 0.0 0 0 374.01 124.38
  A 30.71 30.71 0.0 0 0 404.72 155.09
  A 30.71 30.71 0.0 0 0 435.43 124.38
  Z"
/>
<path fill="#000000" d="
  M 189.03 364.86
  Q 188.94 381.93 188.99 399.00
  Q 189.01 407.77 182.23 414.98
  C 169.95 428.05 147.38 422.62 142.26 405.26
  Q 141.26 401.85 141.22 393.64
  Q 141.17 379.33 141.22 365.37
  Q 141.22 364.49 140.54 363.94
  Q 129.56 355.04 125.96 342.59
  C 118.44 316.56 137.94 290.85 164.51 290.45
  C 183.26 290.18 200.81 303.45 204.87 322.07
  C 208.39 338.21 202.57 353.82 189.45 364.02
  Q 189.03 364.34 189.03 364.86
  Z
  M 188.38 342.09
  C 192.97 332.17 190.92 320.54 183.69 313.29
  C 171.04 300.60 150.61 303.68 142.15 319.48
  C 136.04 330.90 140.16 345.41 151.01 352.82
  C 154.45 355.16 156.18 356.72 156.18 360.75
  Q 156.20 377.90 156.21 395.04
  Q 156.22 400.28 157.50 402.72
  C 161.74 410.72 173.99 407.27 173.99 398.25
  Q 174.00 380.10 174.01 361.94
  C 174.01 359.30 174.47 356.07 176.46 354.70
  C 182.25 350.70 185.80 347.65 188.38 342.09
  Z"
/>
</svg>
