<svg width="15" height="22" viewBox="0 0 15 22" fill="none" xmlns="http://www.w3.org/2000/svg">
<path d="M7.49449 12.3196C7.13065 12.3223 6.77821 12.4468 6.49339 12.6732C6.20856 12.8997 6.00775 13.2149 5.92299 13.5688C5.83822 13.9226 5.87438 14.2946 6.0257 14.6255C6.17702 14.9564 6.43479 15.2271 6.75788 15.3944V17.3271H8.10945V15.4552C8.45838 15.3122 8.74688 15.0526 8.92571 14.7206C9.10454 14.3886 9.16263 14.0048 9.09005 13.6348C9.01748 13.2647 8.81875 12.9313 8.52776 12.6915C8.23678 12.4516 7.87158 12.3202 7.49449 12.3196Z" fill="#CC5946"/>
<path d="M12.8399 8.54191V5.64956C12.8689 4.18438 12.3164 2.76736 11.3032 1.70858C10.29 0.649791 8.89866 0.0354556 7.43363 0C5.96859 0.0354556 4.57725 0.649791 3.56406 1.70858C2.55087 2.76736 1.99833 4.18438 2.02735 5.64956V8.54191H0V20.0302C0 20.3887 0.142397 20.7325 0.395865 20.986C0.649334 21.2394 0.99311 21.3818 1.35157 21.3818H13.5157C13.8741 21.3818 14.2179 21.2394 14.4714 20.986C14.7249 20.7325 14.8673 20.3887 14.8673 20.0302V8.54191H12.8399ZM3.37892 5.64956C3.34979 4.54278 3.7599 3.46947 4.51965 2.66413C5.27941 1.85879 6.32703 1.3869 7.43363 1.35157C8.54022 1.3869 9.58785 1.85879 10.3476 2.66413C11.1074 3.46947 11.5175 4.54278 11.4883 5.64956V8.54191H3.37892V5.64956ZM1.35157 20.0302V9.89348H13.5157V20.0302H1.35157Z" fill="#CC5946"/>
</svg>
