<?xml version="1.0" encoding="UTF-8" standalone="no"?>
<svg xmlns="http://www.w3.org/2000/svg" version="1.2" baseProfile="tiny" viewBox="0.00 0.00 1003.00 249.00">
<path fill="#f1a655" d="
  M 834.12 184.28
  A 6.10 6.10 0.0 0 1 828.06 178.13
  L 829.19 16.47
  A 15.31 14.13 -89.6 0 1 843.43 1.26
  L 845.13 1.27
  A 15.31 14.13 -89.6 0 1 859.15 16.68
  L 858.02 178.34
  A 6.10 6.10 0.0 0 1 851.88 184.40
  L 834.12 184.28
  Z"
/>
<path fill="#f1a655" d="
  M 471.40 69.32
  Q 473.77 70.01 476.49 69.66
  Q 492.75 67.55 503.44 67.22
  C 510.38 67.01 515.73 71.99 515.85 79.00
  C 515.95 84.38 511.84 89.41 506.79 90.46
  Q 492.58 93.41 476.63 89.06
  C 474.30 88.42 472.36 88.78 470.27 90.03
  Q 469.47 90.51 469.48 91.44
  Q 469.59 105.59 469.89 115.03
  Q 471.47 164.36 472.80 202.97
  Q 473.22 215.19 471.77 219.40
  Q 468.48 228.97 455.27 230.90
  Q 448.95 231.82 444.70 231.61
  Q 436.73 231.21 438.05 222.85
  Q 447.94 160.00 442.30 95.25
  Q 441.64 87.68 434.10 87.92
  Q 429.07 88.08 427.84 92.13
  Q 426.72 95.84 425.67 99.82
  Q 415.97 136.36 396.18 167.72
  C 393.14 172.54 389.47 176.56 385.35 180.44
  C 381.85 183.74 377.63 187.17 372.98 188.35
  C 359.70 191.74 349.52 181.28 345.31 169.83
  Q 340.01 155.43 335.81 140.46
  Q 335.10 137.93 333.88 135.25
  A 0.76 0.76 0.0 0 0 332.74 134.95
  Q 332.11 135.41 332.06 136.19
  C 330.70 157.67 322.87 174.29 303.87 184.89
  C 295.19 189.73 286.25 184.33 280.10 177.82
  Q 276.31 173.80 273.13 166.79
  C 265.50 149.97 261.84 132.66 258.45 114.78
  Q 254.78 95.46 249.18 76.78
  Q 247.94 72.67 250.49 67.87
  Q 253.91 61.44 261.42 60.08
  C 266.60 59.14 272.74 63.23 276.04 67.07
  Q 279.58 71.18 282.17 76.94
  Q 288.30 90.55 290.69 105.54
  Q 294.22 127.72 296.90 152.79
  C 297.20 155.55 297.89 160.02 300.33 161.64
  C 303.15 163.52 305.90 160.52 306.98 158.15
  C 319.54 130.66 324.72 101.48 323.68 71.15
  Q 323.66 70.56 324.04 70.11
  Q 326.18 67.60 330.21 68.39
  Q 339.64 70.26 349.00 72.45
  C 356.98 74.32 357.00 80.91 357.71 87.51
  Q 361.32 121.27 365.25 157.31
  C 365.56 160.16 367.83 165.20 371.54 164.38
  C 375.97 163.39 378.66 157.45 380.34 153.63
  Q 386.43 139.81 388.89 126.66
  Q 390.47 118.24 391.76 106.46
  Q 393.65 89.28 394.59 70.22
  Q 394.76 66.76 395.37 62.62
  C 395.74 60.02 397.98 58.31 400.57 59.06
  Q 416.80 63.81 432.33 68.31
  C 437.96 69.95 440.33 66.00 442.26 61.33
  Q 448.21 46.89 455.68 32.14
  C 464.99 13.77 479.90 2.17 501.12 2.07
  C 513.88 2.00 533.14 4.85 538.49 18.50
  C 541.67 26.61 538.90 37.38 534.84 44.81
  C 531.48 50.96 523.70 53.37 517.86 49.12
  C 511.16 44.24 514.35 36.33 510.84 30.14
  Q 507.34 23.96 500.75 22.51
  C 491.88 20.56 486.71 25.25 481.74 32.04
  C 474.37 42.10 469.38 55.36 470.35 68.04
  Q 470.43 69.04 471.40 69.32
  Z"
/>
<path fill="#f1a655" d="
  M 136.09 86.46
  A 0.85 0.83 29.0 0 0 136.88 86.24
  C 141.72 81.39 146.48 76.37 152.10 72.47
  C 166.32 62.59 182.14 58.48 199.37 59.70
  Q 218.74 61.06 236.42 68.61
  Q 240.21 70.23 242.68 73.06
  Q 243.02 73.45 243.09 73.97
  Q 243.35 76.18 242.89 78.17
  C 238.01 99.30 235.50 122.07 237.38 143.78
  Q 238.76 159.76 241.16 173.43
  C 242.06 178.51 241.28 184.23 235.22 185.41
  C 222.30 187.91 207.70 181.20 206.93 166.79
  Q 206.74 163.24 208.45 157.72
  Q 210.10 152.38 210.27 145.49
  A 0.89 0.89 0.0 0 0 208.83 144.77
  Q 207.63 145.73 206.70 147.00
  Q 198.18 158.61 188.75 171.88
  C 180.94 182.88 168.85 189.09 155.18 186.10
  Q 143.47 183.54 135.45 175.21
  C 115.89 154.90 122.79 120.35 130.81 96.44
  A 0.63 0.61 52.0 0 0 130.84 96.15
  Q 130.73 95.33 130.17 95.57
  Q 129.87 95.70 129.67 95.96
  Q 107.29 125.36 69.00 121.17
  C 57.08 119.87 56.47 103.03 67.97 100.54
  C 75.36 98.94 82.98 97.45 89.41 93.96
  C 96.71 89.98 103.13 83.31 105.92 75.33
  Q 111.53 59.26 100.38 44.75
  C 90.14 31.43 71.18 30.05 55.94 34.75
  C 52.15 35.92 51.28 39.97 51.30 43.39
  Q 51.69 108.88 52.72 171.81
  Q 52.79 176.49 50.96 181.03
  C 48.72 186.59 41.81 186.55 36.97 185.66
  C 19.08 182.37 15.49 167.44 17.41 151.85
  Q 18.46 143.37 19.04 134.93
  Q 22.88 78.94 17.00 24.24
  C 16.60 20.46 19.52 18.73 22.65 17.86
  Q 49.48 10.42 75.44 11.12
  Q 96.04 11.67 113.56 18.65
  Q 126.55 23.83 134.57 34.37
  C 146.08 49.49 141.86 69.51 135.77 85.84
  Q 135.58 86.34 136.09 86.46
  Z
  M 205.96 96.87
  C 206.80 93.42 207.81 88.72 206.40 85.35
  A 2.40 2.38 -2.6 0 0 204.88 83.97
  C 197.28 81.65 190.94 80.60 182.80 82.02
  C 168.84 84.46 159.34 95.66 154.62 108.86
  C 149.16 124.14 149.44 142.27 157.57 156.14
  C 159.57 159.54 165.47 165.91 170.04 163.52
  C 173.05 161.94 175.59 159.78 177.62 157.05
  Q 197.92 129.68 205.96 96.87
  Z"
/>
<path fill="#f1a655" d="
  M 783.15 64.17
  C 790.10 64.46 797.01 62.72 803.74 61.22
  Q 812.93 59.17 816.42 67.01
  Q 818.10 70.79 815.83 74.69
  C 808.14 87.90 793.65 87.08 780.76 84.30
  Q 779.49 84.02 778.22 84.27
  Q 777.67 84.37 777.41 84.86
  Q 776.16 87.11 775.75 89.51
  Q 772.72 107.02 771.86 120.15
  C 771.03 132.86 772.45 145.08 777.14 157.15
  C 779.33 162.77 783.70 164.03 789.24 163.49
  Q 800.01 162.43 808.42 162.50
  Q 814.19 162.55 816.53 168.17
  C 820.40 177.44 806.29 183.00 799.93 185.04
  Q 794.10 186.92 786.56 186.44
  Q 773.10 185.59 762.19 178.23
  C 748.76 169.16 744.66 152.48 745.10 136.58
  Q 745.58 119.07 747.40 99.41
  Q 747.98 93.04 746.63 86.21
  Q 746.53 85.72 746.08 85.48
  C 740.33 82.42 733.43 86.63 727.33 84.18
  A 2.38 2.37 -84.1 0 1 725.88 82.39
  C 723.99 71.88 729.71 66.02 739.50 65.10
  Q 742.76 64.79 745.89 64.46
  Q 746.35 64.41 746.61 64.03
  Q 749.09 60.37 749.00 57.75
  Q 748.51 43.14 747.98 29.00
  C 747.80 24.32 751.13 22.62 755.22 22.84
  Q 764.15 23.33 771.89 23.63
  Q 776.17 23.80 778.75 27.34
  Q 779.05 27.76 779.08 28.27
  Q 779.78 41.20 780.23 55.23
  Q 780.37 59.44 782.36 63.64
  Q 782.60 64.15 783.15 64.17
  Z"
/>
<path fill="#f1a655" d="
  M 693.12 90.78
  C 691.66 84.52 687.48 81.03 681.09 79.23
  C 658.10 72.76 651.44 111.40 650.50 125.81
  C 649.42 142.51 654.03 161.77 672.25 165.73
  C 689.40 169.47 699.91 155.68 704.95 141.19
  C 705.88 138.52 708.26 136.51 711.25 137.01
  C 721.08 138.65 728.26 145.27 725.91 155.82
  C 721.99 173.50 707.19 183.49 689.95 186.26
  Q 685.45 186.99 680.33 187.79
  Q 663.16 190.49 646.78 182.67
  C 623.06 171.35 617.08 143.07 620.94 119.38
  Q 624.83 95.51 638.57 78.97
  C 656.26 57.69 682.11 53.02 706.99 63.49
  C 725.47 71.27 723.78 88.63 715.01 103.53
  C 709.91 112.18 700.62 111.99 696.50 102.46
  C 694.92 98.81 694.01 94.65 693.12 90.78
  Z"
/>
<path fill="#f1a655" d="
  M 954.37 149.74
  A 1.53 1.53 0.0 0 0 951.94 150.17
  C 945.11 164.18 934.80 177.36 919.29 182.40
  C 911.51 184.94 902.64 183.45 895.97 179.00
  C 884.37 171.27 881.50 154.86 881.68 142.03
  C 882.10 113.60 882.00 93.06 879.89 68.25
  C 879.38 62.28 881.63 56.59 888.99 59.41
  C 896.87 62.43 904.11 65.22 910.23 68.32
  C 913.51 69.99 914.38 72.94 914.08 76.45
  Q 911.03 111.20 908.01 144.19
  Q 907.49 149.85 908.24 152.41
  C 910.02 158.47 917.88 161.66 923.57 159.06
  Q 926.54 157.70 929.37 154.60
  Q 954.81 126.72 956.02 91.47
  Q 956.18 86.63 955.98 81.51
  C 955.83 77.44 955.05 72.63 956.00 68.85
  Q 957.74 61.91 965.47 59.06
  C 974.60 55.71 981.45 61.61 984.83 69.50
  Q 990.17 81.95 989.40 95.79
  Q 987.25 134.23 980.13 171.14
  Q 978.66 178.73 975.75 188.31
  C 970.97 204.00 963.91 219.29 952.49 230.74
  C 937.48 245.80 918.68 249.53 898.78 243.35
  Q 892.04 241.26 888.24 237.50
  C 879.73 229.10 879.30 215.49 883.45 204.87
  C 885.13 200.60 889.26 197.57 893.82 197.21
  Q 902.68 196.50 906.15 204.74
  C 909.39 212.40 908.29 221.56 916.74 225.98
  C 922.18 228.82 928.37 225.89 931.80 221.47
  Q 953.66 193.31 955.67 157.29
  C 955.78 155.33 955.90 151.21 954.37 149.74
  Z"
/>
<path fill="#f1a655" d="
  M 542.61 129.48
  Q 541.60 130.53 541.37 131.89
  C 539.00 145.73 542.49 159.21 553.89 167.92
  C 564.55 176.07 579.48 171.32 584.87 159.49
  C 586.37 156.19 586.74 152.49 587.90 148.96
  Q 591.67 137.55 604.08 138.28
  C 612.81 138.80 611.85 148.41 610.77 154.27
  C 607.64 171.18 596.45 181.78 580.54 186.54
  C 566.21 190.83 552.06 190.75 538.84 185.05
  C 526.64 179.79 517.42 168.57 513.02 156.21
  C 510.73 149.76 508.85 142.59 508.36 135.80
  C 506.91 115.65 512.52 94.73 525.85 79.50
  Q 544.30 58.41 573.74 58.51
  C 584.61 58.55 595.04 61.56 602.46 69.61
  C 621.54 90.31 610.78 121.00 584.30 127.74
  Q 569.69 131.46 555.67 129.79
  Q 549.04 129.00 543.53 129.08
  Q 542.99 129.09 542.61 129.48
  Z
  M 547.19 112.58
  L 580.47 108.26
  A 6.51 6.51 0.0 0 0 586.08 100.96
  L 585.72 98.12
  A 22.71 22.67 82.6 0 0 560.31 78.52
  L 559.08 78.68
  A 22.71 22.67 82.6 0 0 539.52 104.12
  L 539.89 106.96
  A 6.51 6.51 0.0 0 0 547.19 112.58
  Z"
/>
</svg>
