<?xml version="1.0" encoding="UTF-8" standalone="no"?>
<svg xmlns="http://www.w3.org/2000/svg" version="1.2" baseProfile="tiny" viewBox="0.00 0.00 60.00 60.00">
<path fill="#cc5946" d="
  M 47.64 0.00
  L 50.27 0.00
  Q 60.39 3.87 54.94 13.41
  A 0.47 0.46 -67.9 0 0 55.22 14.09
  L 55.54 14.18
  A 0.54 0.53 20.0 0 0 56.16 13.90
  L 57.52 11.11
  A 1.12 1.12 0.0 0 1 59.40 10.90
  L 60.00 11.64
  L 60.00 12.42
  L 50.01 32.70
  Q 49.43 33.89 48.17 33.48
  Q 47.65 33.31 47.36 32.60
  A 0.94 0.93 -42.9 0 1 47.39 31.87
  L 54.44 17.28
  Q 54.63 16.88 54.26 16.64
  L 53.98 16.46
  A 0.41 0.41 0.0 0 0 53.38 16.63
  L 37.68 48.96
  A 4.53 4.46 -5.7 0 1 36.31 50.61
  Q 32.95 53.11 29.22 55.83
  C 28.64 56.25 28.12 56.35 27.42 56.44
  Q 26.80 56.52 26.55 57.09
  Q 26.12 58.07 25.24 58.60
  Q 24.57 58.99 23.98 58.50
  C 23.20 57.85 23.16 56.94 23.81 56.19
  Q 24.56 55.31 23.90 54.38
  Q 23.48 53.79 23.45 53.06
  Q 23.29 49.26 23.13 45.32
  Q 23.05 43.28 24.46 40.36
  Q 33.32 22.07 42.49 3.21
  Q 43.63 0.87 47.64 0.00
  Z
  M 40.44 14.91
  L 48.73 18.88
  A 0.44 0.44 0.0 0 0 49.32 18.67
  L 53.42 10.12
  A 5.09 5.01 -64.4 0 0 51.10 3.36
  L 51.05 3.33
  A 5.09 5.01 -64.4 0 0 44.33 5.76
  L 40.23 14.32
  A 0.44 0.44 0.0 0 0 40.44 14.91
  Z
  M 47.46 21.37
  L 39.14 17.35
  A 0.42 0.42 0.0 0 0 38.58 17.54
  L 26.80 41.90
  A 3.04 2.39 25.8 0 0 28.50 45.37
  L 32.10 47.11
  A 3.04 2.39 25.8 0 0 35.88 46.28
  L 47.65 21.93
  A 0.42 0.42 0.0 0 0 47.46 21.37
  Z
  M 26.06 47.46
  L 26.18 52.72
  A 0.98 0.98 0.0 0 0 27.74 53.48
  L 31.77 50.48
  Q 32.42 49.99 31.64 49.76
  Q 28.88 48.94 26.57 47.20
  A 0.32 0.32 0.0 0 0 26.06 47.46
  Z"
/>
<path fill="#cc5946" d="
  M 0.00 19.92
  L 0.00 17.95
  Q 5.75 17.83 11.46 19.81
  C 22.20 23.52 20.02 31.65 15.75 39.36
  Q 13.26 43.87 10.98 48.38
  Q 9.69 50.94 9.50 53.27
  A 2.13 2.12 10.9 0 0 11.01 55.49
  Q 14.66 56.62 19.05 56.19
  A 1.14 1.13 -17.3 0 1 20.13 56.75
  Q 20.43 57.28 20.36 57.80
  Q 20.19 58.94 19.03 59.03
  Q 15.17 59.33 11.57 58.58
  C 5.04 57.22 6.30 51.16 8.54 46.94
  Q 11.41 41.55 14.45 35.80
  C 16.26 32.37 17.95 27.49 14.58 24.59
  Q 12.39 22.71 8.67 22.02
  Q 4.11 21.18 0.00 19.92
  Z"
/>
</svg>
