<?xml version="1.0" encoding="UTF-8" standalone="no"?>
<svg xmlns="http://www.w3.org/2000/svg" version="1.2" baseProfile="tiny" viewBox="0.00 0.00 150.00 150.00">
<g stroke-width="2.00" fill="none" stroke-linecap="butt">
<path stroke="#b77c52" vector-effect="non-scaling-stroke" d="
  M 35.9707 6.3822
  A 0.43 0.43 0.0 0 0 35.5333 5.9597
  L 30.8940 6.0407
  A 0.43 0.43 0.0 0 0 30.4716 6.4782
  L 30.5093 8.6378
  A 0.43 0.43 0.0 0 0 30.9467 9.0603
  L 35.5860 8.9793
  A 0.43 0.43 0.0 0 0 36.0084 8.5418
  L 35.9707 6.3822"
/>
<path stroke="#b77c52" vector-effect="non-scaling-stroke" d="
  M 47.9997 6.7479
  A 0.78 0.78 0.0 0 0 47.2088 5.9789
  L 42.7293 6.0414
  A 0.78 0.78 0.0 0 0 41.9602 6.8322
  L 41.9803 8.2721
  A 0.78 0.78 0.0 0 0 42.7712 9.0411
  L 47.2507 8.9786
  A 0.78 0.78 0.0 0 0 48.0198 8.1878
  L 47.9997 6.7479"
/>
<path stroke="#b77c52" vector-effect="non-scaling-stroke" d="
  M 60.0265 7.0088
  A 1.00 1.00 0.0 0 0 59.0195 6.0158
  L 54.9396 6.0443
  A 1.00 1.00 0.0 0 0 53.9467 7.0512
  L 53.9535 8.0312
  A 1.00 1.00 0.0 0 0 54.9605 9.0242
  L 59.0404 8.9957
  A 1.00 1.00 0.0 0 0 60.0333 7.9888
  L 60.0265 7.0088"
/>
<path stroke="#b77c52" vector-effect="non-scaling-stroke" d="
  M 72.0172 6.9841
  A 0.98 0.98 0.0 0 0 71.0321 6.0092
  L 66.9122 6.0308
  A 0.98 0.98 0.0 0 0 65.9373 7.0159
  L 65.9428 8.0559
  A 0.98 0.98 0.0 0 0 66.9279 9.0308
  L 71.0478 9.0092
  A 0.98 0.98 0.0 0 0 72.0227 8.0241
  L 72.0172 6.9841"
/>
<path stroke="#b77c52" vector-effect="non-scaling-stroke" d="
  M 84.0275 7.0440
  A 1.02 1.02 0.0 0 0 83.0022 6.0294
  L 78.9423 6.0506
  A 1.02 1.02 0.0 0 0 77.9276 7.0760
  L 77.9325 7.9960
  A 1.02 1.02 0.0 0 0 78.9578 9.0106
  L 83.0177 8.9894
  A 1.02 1.02 0.0 0 0 84.0324 7.9640
  L 84.0275 7.0440"
/>
<path stroke="#b77c52" vector-effect="non-scaling-stroke" d="
  M 96.0258 7.1323
  A 1.02 1.02 0.0 0 0 95.0202 6.0982
  L 91.0006 6.0421
  A 1.02 1.02 0.0 0 0 89.9664 7.0477
  L 89.9542 7.9277
  A 1.02 1.02 0.0 0 0 90.9598 8.9618
  L 94.9794 9.0179
  A 1.02 1.02 0.0 0 0 96.0136 8.0123
  L 96.0258 7.1323"
/>
<path stroke="#b77c52" vector-effect="non-scaling-stroke" d="
  M 108.0269 7.1176
  A 1.00 1.00 0.0 0 0 107.0427 6.1021
  L 102.9832 6.0383
  A 1.00 1.00 0.0 0 0 101.9676 7.0225
  L 101.9531 7.9424
  A 1.00 1.00 0.0 0 0 102.9373 8.9579
  L 106.9968 9.0217
  A 1.00 1.00 0.0 0 0 108.0124 8.0375
  L 108.0269 7.1176"
/>
<path stroke="#b77c52" vector-effect="non-scaling-stroke" d="
  M 119.5336 6.4796
  A 0.47 0.47 0.0 0 0 119.0652 6.0080
  L 114.4852 5.9920
  A 0.47 0.47 0.0 0 0 114.0136 6.4604
  L 114.0064 8.5204
  A 0.47 0.47 0.0 0 0 114.4748 8.9920
  L 119.0548 9.0080
  A 0.47 0.47 0.0 0 0 119.5264 8.5396
  L 119.5336 6.4796"
/>
<path stroke="#b77c52" vector-effect="non-scaling-stroke" d="
  M 25.1430 7.4602
  A 0.42 0.42 0.0 0 0 24.5930 7.2358
  L 20.7212 8.8633
  A 0.42 0.42 0.0 0 0 20.4968 9.4133
  L 21.3570 11.4598
  A 0.42 0.42 0.0 0 0 21.9070 11.6842
  L 25.7788 10.0567
  A 0.42 0.42 0.0 0 0 26.0032 9.5067
  L 25.1430 7.4602"
/>
<path stroke="#b77c52" vector-effect="non-scaling-stroke" d="
  M 129.4846 9.6368
  A 0.57 0.57 0.0 0 0 129.1852 8.8884
  L 125.5087 7.3126
  A 0.57 0.57 0.0 0 0 124.7602 7.6120
  L 124.0354 9.3032
  A 0.57 0.57 0.0 0 0 124.3348 10.0516
  L 128.0113 11.6274
  A 0.57 0.57 0.0 0 0 128.7598 11.3280
  L 129.4846 9.6368"
/>
<path stroke="#b77c52" vector-effect="non-scaling-stroke" d="
  M 15.9365 12.4174
  A 0.29 0.29 0.0 0 0 15.5264 12.4124
  L 12.4203 15.4435
  A 0.29 0.29 0.0 0 0 12.4153 15.8536
  L 14.0635 17.5426
  A 0.29 0.29 0.0 0 0 14.4736 17.5476
  L 17.5797 14.5165
  A 0.29 0.29 0.0 0 0 17.5847 14.1064
  L 15.9365 12.4174"
/>
<path stroke="#b77c52" vector-effect="non-scaling-stroke" d="
  M 134.5633 12.4503
  A 0.33 0.33 0.0 0 0 134.0966 12.4503
  L 132.4703 14.0766
  A 0.33 0.33 0.0 0 0 132.4703 14.5433
  L 135.4967 17.5697
  A 0.33 0.33 0.0 0 0 135.9634 17.5697
  L 137.5897 15.9434
  A 0.33 0.33 0.0 0 0 137.5897 15.4767
  L 134.5633 12.4503"
/>
<path stroke="#b77c52" vector-effect="non-scaling-stroke" d="
  M 109.27 77.85
  Q 109.20 57.62 109.30 35.80
  C 109.32 31.04 107.95 26.81 103.45 24.59
  Q 100.67 23.21 95.00 23.43
  Q 89.58 23.64 83.83 23.41
  A 1.53 1.52 80.1 0 1 82.48 22.45
  C 81.25 19.40 77.75 20.16 75.12 19.83
  A 1.58 1.58 0.0 0 1 73.97 19.10
  Q 72.63 16.96 70.64 16.02
  Q 64.02 12.87 59.11 19.15
  Q 58.42 20.02 57.31 20.05
  C 54.49 20.12 51.95 19.68 50.56 22.82
  A 0.99 0.98 -78.1 0 1 49.68 23.40
  Q 42.86 23.52 36.64 23.39
  C 28.58 23.22 23.85 27.46 23.91 35.66
  Q 24.19 73.70 23.89 111.20
  C 23.83 118.94 28.67 123.07 36.31 123.04
  Q 65.72 122.93 100.41 123.05
  C 103.38 123.06 105.86 122.13 108.44 120.84
  A 1.62 1.61 46.6 0 1 109.96 120.89
  Q 116.93 124.97 122.99 121.18
  C 128.34 117.84 130.02 110.63 126.58 105.25
  Q 126.23 104.72 126.77 104.36
  C 127.28 104.03 127.95 103.72 128.40 103.31
  C 133.55 98.56 133.63 88.86 125.27 87.93
  Q 124.76 87.88 124.84 87.37
  C 126.16 79.00 117.19 70.58 109.91 78.10
  Q 109.27 78.76 109.27 77.85"
/>
<path stroke="#b77c52" vector-effect="non-scaling-stroke" d="
  M 11.6884 21.9161
  A 0.42 0.42 0.0 0 0 11.4755 21.3616
  L 9.5388 20.4993
  A 0.42 0.42 0.0 0 0 8.9843 20.7122
  L 7.2516 24.6039
  A 0.42 0.42 0.0 0 0 7.4645 25.1584
  L 9.4012 26.0207
  A 0.42 0.42 0.0 0 0 9.9557 25.8078
  L 11.6884 21.9161"
/>
<path stroke="#b77c52" vector-effect="non-scaling-stroke" d="
  M 141.1681 20.8068
  A 0.48 0.48 0.0 0 0 140.5400 20.5492
  L 138.6027 21.3596
  A 0.48 0.48 0.0 0 0 138.3451 21.9877
  L 139.9119 25.7332
  A 0.48 0.48 0.0 0 0 140.5400 25.9908
  L 142.4773 25.1804
  A 0.48 0.48 0.0 0 0 142.7349 24.5523
  L 141.1681 20.8068"
/>
<path stroke="#b77c52" vector-effect="non-scaling-stroke" d="
  M 9.0328 30.8812
  A 0.41 0.41 0.0 0 0 8.6286 30.4655
  L 6.4488 30.4351
  A 0.41 0.41 0.0 0 0 6.0331 30.8393
  L 5.9672 35.5588
  A 0.41 0.41 0.0 0 0 6.3714 35.9745
  L 8.5512 36.0049
  A 0.41 0.41 0.0 0 0 8.9669 35.6007
  L 9.0328 30.8812"
/>
<path stroke="#b77c52" vector-effect="non-scaling-stroke" d="
  M 143.9817 30.9017
  A 0.43 0.43 0.0 0 0 143.5464 30.4770
  L 141.3866 30.5034
  A 0.43 0.43 0.0 0 0 140.9619 30.9386
  L 141.0183 35.5583
  A 0.43 0.43 0.0 0 0 141.4536 35.9830
  L 143.6134 35.9566
  A 0.43 0.43 0.0 0 0 144.0381 35.5214
  L 143.9817 30.9017"
/>
<path stroke="#b77c52" vector-effect="non-scaling-stroke" d="
  M 8.9713 42.6318
  A 0.66 0.66 0.0 0 0 8.3033 41.9800
  L 6.6234 42.0005
  A 0.66 0.66 0.0 0 0 5.9715 42.6685
  L 6.0287 47.3482
  A 0.66 0.66 0.0 0 0 6.6967 48.0000
  L 8.3766 47.9795
  A 0.66 0.66 0.0 0 0 9.0285 47.3115
  L 8.9713 42.6318"
/>
<path stroke="#b77c52" vector-effect="non-scaling-stroke" d="
  M 143.9776 42.6494
  A 0.68 0.68 0.0 0 0 143.2882 41.9790
  L 141.6683 42.0016
  A 0.68 0.68 0.0 0 0 140.9979 42.6910
  L 141.0624 47.3106
  A 0.68 0.68 0.0 0 0 141.7518 47.9810
  L 143.3717 47.9584
  A 0.68 0.68 0.0 0 0 144.0421 47.2690
  L 143.9776 42.6494"
/>
<path stroke="#b77c52" vector-effect="non-scaling-stroke" d="
  M 8.9901 54.6969
  A 0.75 0.75 0.0 0 0 8.2336 53.9535
  L 6.7137 53.9667
  A 0.75 0.75 0.0 0 0 5.9702 54.7233
  L 6.0099 59.2631
  A 0.75 0.75 0.0 0 0 6.7664 60.0065
  L 8.2863 59.9933
  A 0.75 0.75 0.0 0 0 9.0298 59.2367
  L 8.9901 54.6969"
/>
<path stroke="#b77c52" vector-effect="non-scaling-stroke" d="
  M 143.9944 54.7497
  A 0.77 0.77 0.0 0 0 143.2190 53.9850
  L 141.7791 53.9951
  A 0.77 0.77 0.0 0 0 141.0145 54.7705
  L 141.0456 59.2303
  A 0.77 0.77 0.0 0 0 141.8210 59.9950
  L 143.2609 59.9849
  A 0.77 0.77 0.0 0 0 144.0255 59.2095
  L 143.9944 54.7497"
/>
<path stroke="#b77c52" vector-effect="non-scaling-stroke" d="
  M 8.9801 66.6970
  A 0.75 0.75 0.0 0 0 8.2236 65.9536
  L 6.7237 65.9667
  A 0.75 0.75 0.0 0 0 5.9802 66.7232
  L 6.0199 71.2630
  A 0.75 0.75 0.0 0 0 6.7764 72.0064
  L 8.2763 71.9933
  A 0.75 0.75 0.0 0 0 9.0198 71.2368
  L 8.9801 66.6970"
/>
<path stroke="#b77c52" vector-effect="non-scaling-stroke" d="
  M 143.9820 66.6918
  A 0.72 0.72 0.0 0 0 143.2533 65.9807
  L 141.6934 65.9998
  A 0.72 0.72 0.0 0 0 140.9823 66.7285
  L 141.0380 71.2882
  A 0.72 0.72 0.0 0 0 141.7667 71.9993
  L 143.3266 71.9802
  A 0.72 0.72 0.0 0 0 144.0377 71.2515
  L 143.9820 66.6918"
/>
<path stroke="#b77c52" vector-effect="non-scaling-stroke" d="
  M 8.9863 78.7043
  A 0.76 0.76 0.0 0 0 8.2183 77.9523
  L 6.7184 77.9680
  A 0.76 0.76 0.0 0 0 5.9664 78.7359
  L 6.0137 83.2557
  A 0.76 0.76 0.0 0 0 6.7817 84.0077
  L 8.2816 83.9920
  A 0.76 0.76 0.0 0 0 9.0336 83.2241
  L 8.9863 78.7043"
/>
<path stroke="#b77c52" vector-effect="non-scaling-stroke" d="
  M 143.9978 78.6622
  A 0.67 0.67 0.0 0 0 143.3243 77.9957
  L 141.6643 78.0044
  A 0.67 0.67 0.0 0 0 140.9978 78.6779
  L 141.0222 83.3378
  A 0.67 0.67 0.0 0 0 141.6957 84.0043
  L 143.3557 83.9956
  A 0.67 0.67 0.0 0 0 144.0222 83.3221
  L 143.9978 78.6622"
/>
<path stroke="#b77c52" vector-effect="non-scaling-stroke" d="
  M 8.9840 90.6896
  A 0.74 0.74 0.0 0 0 8.2389 89.9548
  L 6.7189 89.9654
  A 0.74 0.74 0.0 0 0 5.9841 90.7105
  L 6.0160 95.2704
  A 0.74 0.74 0.0 0 0 6.7611 96.0052
  L 8.2811 95.9946
  A 0.74 0.74 0.0 0 0 9.0159 95.2495
  L 8.9840 90.6896"
/>
<path stroke="#b77c52" vector-effect="non-scaling-stroke" d="
  M 143.9895 90.6470
  A 0.66 0.66 0.0 0 0 143.3238 89.9928
  L 141.6439 90.0074
  A 0.66 0.66 0.0 0 0 140.9896 90.6732
  L 141.0305 95.3530
  A 0.66 0.66 0.0 0 0 141.6962 96.0072
  L 143.3761 95.9926
  A 0.66 0.66 0.0 0 0 144.0304 95.3268
  L 143.9895 90.6470"
/>
<path stroke="#b77c52" vector-effect="non-scaling-stroke" d="
  M 8.9874 102.5722
  A 0.60 0.60 0.0 0 0 8.3842 101.9753
  L 6.5843 101.9848
  A 0.60 0.60 0.0 0 0 5.9874 102.5879
  L 6.0126 107.4078
  A 0.60 0.60 0.0 0 0 6.6158 108.0047
  L 8.4157 107.9952
  A 0.60 0.60 0.0 0 0 9.0126 107.3921
  L 8.9874 102.5722"
/>
<path stroke="#b77c52" vector-effect="non-scaling-stroke" d="
  M 143.9826 102.4996
  A 0.51 0.51 0.0 0 0 143.4690 101.9932
  L 141.4891 102.0070
  A 0.51 0.51 0.0 0 0 140.9827 102.5205
  L 141.0174 107.5004
  A 0.51 0.51 0.0 0 0 141.5310 108.0068
  L 143.5109 107.9930
  A 0.51 0.51 0.0 0 0 144.0173 107.4795
  L 143.9826 102.4996"
/>
<path stroke="#b77c52" vector-effect="non-scaling-stroke" d="
  M 8.9881 114.3238
  A 0.35 0.35 0.0 0 0 8.6320 113.9800
  L 6.2924 114.0208
  A 0.35 0.35 0.0 0 0 5.9485 114.3769
  L 6.0319 119.1562
  A 0.35 0.35 0.0 0 0 6.3880 119.5000
  L 8.7276 119.4592
  A 0.35 0.35 0.0 0 0 9.0715 119.1031
  L 8.9881 114.3238"
/>
<path stroke="#b77c52" vector-effect="non-scaling-stroke" d="
  M 144.0260 114.2758
  A 0.26 0.26 0.0 0 0 143.7687 114.0131
  L 141.2889 113.9872
  A 0.26 0.26 0.0 0 0 141.0262 114.2444
  L 140.9740 119.2242
  A 0.26 0.26 0.0 0 0 141.2313 119.4869
  L 143.7111 119.5128
  A 0.26 0.26 0.0 0 0 143.9738 119.2556
  L 144.0260 114.2758"
/>
<path stroke="#b77c52" vector-effect="non-scaling-stroke" d="
  M 10.0615 124.1963
  A 0.41 0.41 0.0 0 0 9.5242 123.9781
  L 7.4424 124.8575
  A 0.41 0.41 0.0 0 0 7.2242 125.3948
  L 8.8585 129.2637
  A 0.41 0.41 0.0 0 0 9.3958 129.4819
  L 11.4776 128.6025
  A 0.41 0.41 0.0 0 0 11.6958 128.0652
  L 10.0615 124.1963"
/>
<path stroke="#b77c52" vector-effect="non-scaling-stroke" d="
  M 142.7089 125.4365
  A 0.48 0.48 0.0 0 0 142.4613 124.8045
  L 140.6285 124.0038
  A 0.48 0.48 0.0 0 0 139.9965 124.2514
  L 138.3311 128.0635
  A 0.48 0.48 0.0 0 0 138.5787 128.6955
  L 140.4115 129.4962
  A 0.48 0.48 0.0 0 0 141.0435 129.2486
  L 142.7089 125.4365"
/>
<path stroke="#b77c52" vector-effect="non-scaling-stroke" d="
  M 14.5136 132.4594
  A 0.32 0.32 0.0 0 0 14.0611 132.4586
  L 12.4319 134.0822
  A 0.32 0.32 0.0 0 0 12.4311 134.5347
  L 15.4664 137.5806
  A 0.32 0.32 0.0 0 0 15.9189 137.5814
  L 17.5481 135.9578
  A 0.32 0.32 0.0 0 0 17.5489 135.5053
  L 14.5136 132.4594"
/>
<path stroke="#b77c52" vector-effect="non-scaling-stroke" d="
  M 135.9045 132.4367
  A 0.27 0.27 0.0 0 0 135.5227 132.4347
  L 132.4094 135.5156
  A 0.27 0.27 0.0 0 0 132.4074 135.8974
  L 134.0955 137.6033
  A 0.27 0.27 0.0 0 0 134.4773 137.6053
  L 137.5906 134.5244
  A 0.27 0.27 0.0 0 0 137.5926 134.1426
  L 135.9045 132.4367"
/>
<path stroke="#b77c52" vector-effect="non-scaling-stroke" d="
  M 25.9828 140.6333
  A 0.49 0.49 0.0 0 0 25.7266 139.9895
  L 21.9242 138.3519
  A 0.49 0.49 0.0 0 0 21.2804 138.6081
  L 20.4972 140.4267
  A 0.49 0.49 0.0 0 0 20.7534 141.0705
  L 24.5558 142.7081
  A 0.49 0.49 0.0 0 0 25.1996 142.4519
  L 25.9828 140.6333"
/>
<path stroke="#b77c52" vector-effect="non-scaling-stroke" d="
  M 128.6407 138.5586
  A 0.44 0.44 0.0 0 0 128.0646 138.3235
  L 124.2296 139.9356
  A 0.44 0.44 0.0 0 0 123.9945 140.5117
  L 124.8393 142.5214
  A 0.44 0.44 0.0 0 0 125.4154 142.7565
  L 129.2504 141.1444
  A 0.44 0.44 0.0 0 0 129.4855 140.5683
  L 128.6407 138.5586"
/>
<path stroke="#b77c52" vector-effect="non-scaling-stroke" d="
  M 119.4939 141.4581
  A 0.55 0.55 0.0 0 0 118.9297 140.9227
  L 114.5112 141.0384
  A 0.55 0.55 0.0 0 0 113.9758 141.6026
  L 114.0261 143.5219
  A 0.55 0.55 0.0 0 0 114.5903 144.0573
  L 119.0088 143.9416
  A 0.55 0.55 0.0 0 0 119.5442 143.3774
  L 119.4939 141.4581"
/>
<path stroke="#b77c52" vector-effect="non-scaling-stroke" d="
  M 35.9995 141.4242
  A 0.40 0.40 0.0 0 0 35.6030 141.0207
  L 30.8632 140.9794
  A 0.40 0.40 0.0 0 0 30.4597 141.3759
  L 30.4405 143.5758
  A 0.40 0.40 0.0 0 0 30.8370 143.9793
  L 35.5768 144.0206
  A 0.40 0.40 0.0 0 0 35.9803 143.6241
  L 35.9995 141.4242"
/>
<path stroke="#b77c52" vector-effect="non-scaling-stroke" d="
  M 48.0208 141.8825
  A 0.95 0.95 0.0 0 0 47.0560 140.9475
  L 42.8965 141.0129
  A 0.95 0.95 0.0 0 0 41.9616 141.9777
  L 41.9792 143.0975
  A 0.95 0.95 0.0 0 0 42.9440 144.0325
  L 47.1035 143.9671
  A 0.95 0.95 0.0 0 0 48.0384 143.0023
  L 48.0208 141.8825"
/>
<path stroke="#b77c52" vector-effect="non-scaling-stroke" d="
  M 60.0437 142.0765
  A 1.06 1.06 0.0 0 0 58.9930 141.0073
  L 55.0332 140.9728
  A 1.06 1.06 0.0 0 0 53.9640 142.0235
  L 53.9563 142.9035
  A 1.06 1.06 0.0 0 0 55.0070 143.9727
  L 58.9668 144.0072
  A 1.06 1.06 0.0 0 0 60.0360 142.9565
  L 60.0437 142.0765"
/>
<path stroke="#b77c52" vector-effect="non-scaling-stroke" d="
  M 72.0268 142.0189
  A 1.05 1.05 0.0 0 0 70.9695 140.9762
  L 67.0096 141.0039
  A 1.05 1.05 0.0 0 0 65.9669 142.0612
  L 65.9732 142.9611
  A 1.05 1.05 0.0 0 0 67.0305 144.0038
  L 70.9904 143.9761
  A 1.05 1.05 0.0 0 0 72.0331 142.9188
  L 72.0268 142.0189"
/>
<path stroke="#b77c52" vector-effect="non-scaling-stroke" d="
  M 84.0337 142.0765
  A 1.06 1.06 0.0 0 0 82.9830 141.0072
  L 79.0432 140.9729
  A 1.06 1.06 0.0 0 0 77.9740 142.0236
  L 77.9663 142.9035
  A 1.06 1.06 0.0 0 0 79.0170 143.9728
  L 82.9568 144.0071
  A 1.06 1.06 0.0 0 0 84.0260 142.9564
  L 84.0337 142.0765"
/>
<path stroke="#b77c52" vector-effect="non-scaling-stroke" d="
  M 96.0268 142.0189
  A 1.05 1.05 0.0 0 0 94.9695 140.9762
  L 91.0096 141.0039
  A 1.05 1.05 0.0 0 0 89.9669 142.0612
  L 89.9732 142.9611
  A 1.05 1.05 0.0 0 0 91.0305 144.0038
  L 94.9904 143.9761
  A 1.05 1.05 0.0 0 0 96.0331 142.9188
  L 96.0268 142.0189"
/>
<path stroke="#b77c52" vector-effect="non-scaling-stroke" d="
  M 108.0234 141.9330
  A 0.98 0.98 0.0 0 0 107.0315 140.9651
  L 102.9318 141.0152
  A 0.98 0.98 0.0 0 0 101.9639 142.0071
  L 101.9766 143.0470
  A 0.98 0.98 0.0 0 0 102.9685 144.0149
  L 107.0682 143.9648
  A 0.98 0.98 0.0 0 0 108.0361 142.9729
  L 108.0234 141.9330"
/>
<path stroke="#b77c52" vector-effect="non-scaling-stroke" d="
  M 71.50 23.68
  Q 70.96 22.81 70.59 21.87
  C 69.54 19.24 66.44 18.59 64.13 19.97
  C 62.33 21.05 62.64 24.18 60.27 24.22
  Q 57.42 24.27 54.79 24.27
  Q 54.67 24.27 54.66 24.39
  L 54.59 32.55
  Q 54.59 32.75 54.79 32.75
  L 77.56 32.75
  Q 78.63 32.75 78.63 31.69
  L 78.62 25.44
  Q 78.62 24.26 77.44 24.25
  L 72.51 24.25
  A 1.21 1.21 0.0 0 1 71.50 23.68"
/>
<path stroke="#b77c52" vector-effect="non-scaling-stroke" d="
  M 34.03 113.26
  Q 33.26 112.53 33.26 111.55
  Q 33.24 73.22 33.25 34.77
  A 2.02 2.02 0.0 0 1 35.27 32.75
  L 50.01 32.75
  A 0.36 0.36 0.0 0 0 50.37 32.39
  L 50.38 28.01
  Q 50.38 27.63 50.00 27.63
  Q 42.51 27.53 34.85 27.69
  C 30.55 27.78 28.21 30.55 28.22 34.52
  Q 28.25 73.78 28.27 112.53
  C 28.27 116.43 31.33 118.78 34.99 118.77
  Q 64.80 118.74 91.58 118.76
  A 0.18 0.17 78.3 0 0 91.74 118.51
  L 89.58 113.99
  Q 89.47 113.75 89.20 113.75
  L 35.25 113.75
  A 1.77 1.76 -23.0 0 1 34.03 113.26"
/>
<path stroke="#b77c52" vector-effect="non-scaling-stroke" d="
  M 99.19 33.12
  Q 99.75 33.64 99.78 34.35
  Q 99.96 38.35 99.82 43.41
  Q 99.76 45.46 97.72 45.26
  L 97.29 45.22
  Q 95.76 45.07 95.76 43.54
  L 95.74 37.43
  A 0.56 0.56 0.0 0 0 95.18 36.87
  L 38.07 36.87
  Q 37.50 36.87 37.50 37.43
  L 37.50 109.00
  Q 37.50 109.50 38.00 109.50
  L 89.00 109.50
  Q 89.57 109.50 89.71 108.94
  Q 90.17 107.01 91.26 105.29
  Q 91.58 104.78 91.08 104.44
  Q 84.38 99.85 86.33 92.87
  Q 87.51 88.67 92.43 87.98
  Q 93.02 87.90 92.96 87.31
  Q 92.39 82.15 95.35 78.62
  A 1.74 1.72 65.2 0 0 95.75 77.51
  L 95.75 62.34
  Q 95.75 60.58 97.44 60.11
  Q 98.58 59.80 99.75 61.85
  A 1.51 1.44 31.7 0 1 99.94 62.57
  L 99.88 74.97
  Q 99.88 75.65 100.54 75.47
  Q 102.54 74.92 104.43 75.74
  Q 104.98 75.99 104.98 75.38
  Q 105.02 56.13 104.98 34.35
  C 104.98 30.17 102.08 27.64 98.00 27.61
  Q 90.36 27.56 83.30 27.63
  Q 82.88 27.64 82.88 28.06
  L 82.85 32.19
  Q 82.85 32.75 83.40 32.75
  L 98.23 32.75
  A 1.44 1.43 65.9 0 1 99.19 33.12"
/>
<path stroke="#b77c52" vector-effect="non-scaling-stroke" d="
  M 101.8484 91.8700
  A 6.20 4.80 90.2 0 0 106.6700 85.6868
  A 6.20 4.80 90.2 0 0 101.8916 79.4700
  A 6.20 4.80 90.2 0 0 97.0700 85.6532
  A 6.20 4.80 90.2 0 0 101.8484 91.8700"
/>
<path stroke="#b77c52" vector-effect="non-scaling-stroke" d="
  M 116.0092 91.9000
  A 6.20 4.80 90.1 0 0 120.8200 85.7084
  A 6.20 4.80 90.1 0 0 116.0308 79.5000
  A 6.20 4.80 90.1 0 0 111.2200 85.6916
  A 6.20 4.80 90.1 0 0 116.0092 91.9000"
/>
<path stroke="#b77c52" vector-effect="non-scaling-stroke" d="
  M 95.8582 100.8951
  A 4.70 3.46 64.3 0 0 96.9377 95.1595
  A 4.70 3.46 64.3 0 0 91.7818 92.4249
  A 4.70 3.46 64.3 0 0 90.7023 98.1605
  A 4.70 3.46 64.3 0 0 95.8582 100.8951"
/>
<path stroke="#b77c52" vector-effect="non-scaling-stroke" d="
  M 122.0414 100.8992
  A 4.70 3.47 115.3 0 0 127.1872 98.1329
  A 4.70 3.47 115.3 0 0 126.0586 92.4008
  A 4.70 3.47 115.3 0 0 120.9128 95.1671
  A 4.70 3.47 115.3 0 0 122.0414 100.8992"
/>
<path stroke="#b77c52" vector-effect="non-scaling-stroke" d="
  M 116.15 100.09
  C 114.21 93.44 105.00 92.05 102.24 98.88
  C 101.32 101.16 100.55 103.44 98.15 104.53
  C 93.85 106.48 92.51 111.51 94.89 115.25
  C 97.27 118.98 101.69 119.78 105.41 117.49
  C 107.47 116.22 110.04 116.02 112.15 117.29
  Q 117.02 120.20 121.13 117.30
  C 125.78 114.03 124.96 107.01 119.89 104.55
  Q 117.05 103.17 116.15 100.09"
/>
<path stroke="#b77c52" vector-effect="non-scaling-stroke" d="
  M 59.09 48.38
  L 55.29 48.39
  A 1.77 1.77 0.0 0 0 53.52 50.16
  Q 53.52 54.08 53.46 59.07
  C 53.42 62.36 56.34 61.89 58.57 61.83
  Q 60.40 61.78 59.98 63.56
  Q 58.84 68.33 63.09 68.17
  Q 66.98 68.02 71.16 68.17
  C 73.71 68.26 73.58 64.81 73.33 63.13
  Q 73.12 61.73 74.54 61.80
  C 76.69 61.90 79.62 62.42 79.67 59.25
  Q 79.75 54.65 79.67 50.52
  Q 79.63 48.46 77.53 48.39
  Q 75.75 48.33 73.97 48.43
  A 0.62 0.62 0.0 0 1 73.32 47.77
  C 73.46 45.79 74.05 41.98 71.00 41.99
  Q 66.56 42.00 61.91 42.01
  A 2.02 2.01 0.6 0 0 59.89 43.98
  L 59.83 47.66
  Q 59.81 48.37 59.09 48.38"
/>
<path stroke="#b77c52" vector-effect="non-scaling-stroke" d="
  M 99.89 52.71
  A 2.08 2.08 0.0 0 0 97.81 50.63
  A 2.08 2.08 0.0 0 0 95.73 52.71
  A 2.08 2.08 0.0 0 0 97.81 54.79
  A 2.08 2.08 0.0 0 0 99.89 52.71"
/>
<path stroke="#b77c52" vector-effect="non-scaling-stroke" d="
  M 50.40 77.15
  L 49.32 76.28
  Q 48.87 75.92 48.33 76.09
  Q 46.48 76.68 46.45 78.52
  Q 46.44 79.10 46.86 79.51
  L 49.78 82.34
  A 1.55 1.55 0.0 0 0 51.84 82.43
  Q 54.72 80.08 56.80 77.57
  Q 57.77 76.41 57.06 75.07
  Q 56.89 74.74 56.59 74.54
  Q 55.04 73.46 53.70 74.79
  L 51.40 77.10
  Q 50.93 77.57 50.40 77.15"
/>
<path stroke="#b77c52" vector-effect="non-scaling-stroke" d="
  M 86.75 80.49
  A 1.99 1.99 0.0 0 0 84.76 78.50
  L 63.00 78.50
  A 1.99 1.99 0.0 0 0 61.01 80.49
  L 61.01 80.75
  A 1.99 1.99 0.0 0 0 63.00 82.74
  L 84.76 82.74
  A 1.99 1.99 0.0 0 0 86.75 80.75
  L 86.75 80.49"
/>
<path stroke="#b77c52" vector-effect="non-scaling-stroke" d="
  M 50.52 91.86
  Q 50.09 91.70 49.85 91.31
  Q 49.55 90.83 48.98 90.75
  Q 47.79 90.59 47.00 91.41
  Q 45.91 92.53 46.77 93.84
  Q 48.22 96.05 50.42 97.20
  A 1.38 1.37 36.3 0 0 52.02 96.96
  L 56.66 92.35
  Q 57.86 91.16 57.09 89.65
  Q 56.92 89.32 56.62 89.11
  Q 54.98 88.01 53.59 89.41
  L 51.33 91.68
  Q 50.98 92.03 50.52 91.86"
/>
<path stroke="#b77c52" vector-effect="non-scaling-stroke" d="
  M 75.9501 95.0731
  A 2.05 2.05 0.0 0 0 73.9037 93.0195
  L 63.0437 93.0005
  A 2.05 2.05 0.0 0 0 60.9901 95.0469
  L 60.9899 95.1869
  A 2.05 2.05 0.0 0 0 63.0363 97.2405
  L 73.8963 97.2595
  A 2.05 2.05 0.0 0 0 75.9499 95.2131
  L 75.9501 95.0731"
/>
<path stroke="#b77c52" vector-effect="non-scaling-stroke" d="
  M 64.05 50.99
  Q 64.01 52.49 62.51 52.49
  L 58.50 52.50
  Q 57.75 52.51 57.75 53.25
  L 57.75 56.78
  Q 57.74 57.57 58.53 57.59
  L 62.52 57.69
  A 1.61 1.60 0.4 0 1 64.09 59.27
  L 64.15 62.94
  Q 64.16 63.84 65.06 63.85
  L 68.46 63.87
  Q 69.39 63.88 69.22 62.97
  Q 68.89 61.29 69.28 58.99
  A 1.62 1.62 0.0 0 1 70.86 57.65
  L 75.28 57.63
  Q 75.49 57.63 75.49 57.42
  L 75.50 52.77
  A 0.24 0.24 0.0 0 0 75.27 52.53
  Q 73.51 52.43 71.56 52.54
  C 68.38 52.73 69.17 48.73 69.18 46.89
  Q 69.18 46.28 68.57 46.27
  L 65.05 46.24
  A 0.88 0.87 1.0 0 0 64.17 47.08
  L 64.05 50.99"
/>
</g>
<path fill="#704520" d="
  M 24.56 0.00
  L 125.52 0.00
  Q 146.62 3.58 150.00 24.55
  L 150.00 125.54
  Q 146.41 146.63 125.44 150.00
  L 24.47 150.00
  Q 3.36 146.41 0.00 125.43
  L 0.00 24.47
  Q 3.58 3.37 24.56 0.00
  Z
  M 35.9707 6.3822
  A 0.43 0.43 0.0 0 0 35.5333 5.9597
  L 30.8940 6.0407
  A 0.43 0.43 0.0 0 0 30.4716 6.4782
  L 30.5093 8.6378
  A 0.43 0.43 0.0 0 0 30.9467 9.0603
  L 35.5860 8.9793
  A 0.43 0.43 0.0 0 0 36.0084 8.5418
  L 35.9707 6.3822
  Z
  M 47.9997 6.7479
  A 0.78 0.78 0.0 0 0 47.2088 5.9789
  L 42.7293 6.0414
  A 0.78 0.78 0.0 0 0 41.9602 6.8322
  L 41.9803 8.2721
  A 0.78 0.78 0.0 0 0 42.7712 9.0411
  L 47.2507 8.9786
  A 0.78 0.78 0.0 0 0 48.0198 8.1878
  L 47.9997 6.7479
  Z
  M 60.0265 7.0088
  A 1.00 1.00 0.0 0 0 59.0195 6.0158
  L 54.9396 6.0443
  A 1.00 1.00 0.0 0 0 53.9467 7.0512
  L 53.9535 8.0312
  A 1.00 1.00 0.0 0 0 54.9605 9.0242
  L 59.0404 8.9957
  A 1.00 1.00 0.0 0 0 60.0333 7.9888
  L 60.0265 7.0088
  Z
  M 72.0172 6.9841
  A 0.98 0.98 0.0 0 0 71.0321 6.0092
  L 66.9122 6.0308
  A 0.98 0.98 0.0 0 0 65.9373 7.0159
  L 65.9428 8.0559
  A 0.98 0.98 0.0 0 0 66.9279 9.0308
  L 71.0478 9.0092
  A 0.98 0.98 0.0 0 0 72.0227 8.0241
  L 72.0172 6.9841
  Z
  M 84.0275 7.0440
  A 1.02 1.02 0.0 0 0 83.0022 6.0294
  L 78.9423 6.0506
  A 1.02 1.02 0.0 0 0 77.9276 7.0760
  L 77.9325 7.9960
  A 1.02 1.02 0.0 0 0 78.9578 9.0106
  L 83.0177 8.9894
  A 1.02 1.02 0.0 0 0 84.0324 7.9640
  L 84.0275 7.0440
  Z
  M 96.0258 7.1323
  A 1.02 1.02 0.0 0 0 95.0202 6.0982
  L 91.0006 6.0421
  A 1.02 1.02 0.0 0 0 89.9664 7.0477
  L 89.9542 7.9277
  A 1.02 1.02 0.0 0 0 90.9598 8.9618
  L 94.9794 9.0179
  A 1.02 1.02 0.0 0 0 96.0136 8.0123
  L 96.0258 7.1323
  Z
  M 108.0269 7.1176
  A 1.00 1.00 0.0 0 0 107.0427 6.1021
  L 102.9832 6.0383
  A 1.00 1.00 0.0 0 0 101.9676 7.0225
  L 101.9531 7.9424
  A 1.00 1.00 0.0 0 0 102.9373 8.9579
  L 106.9968 9.0217
  A 1.00 1.00 0.0 0 0 108.0124 8.0375
  L 108.0269 7.1176
  Z
  M 119.5336 6.4796
  A 0.47 0.47 0.0 0 0 119.0652 6.0080
  L 114.4852 5.9920
  A 0.47 0.47 0.0 0 0 114.0136 6.4604
  L 114.0064 8.5204
  A 0.47 0.47 0.0 0 0 114.4748 8.9920
  L 119.0548 9.0080
  A 0.47 0.47 0.0 0 0 119.5264 8.5396
  L 119.5336 6.4796
  Z
  M 25.1430 7.4602
  A 0.42 0.42 0.0 0 0 24.5930 7.2358
  L 20.7212 8.8633
  A 0.42 0.42 0.0 0 0 20.4968 9.4133
  L 21.3570 11.4598
  A 0.42 0.42 0.0 0 0 21.9070 11.6842
  L 25.7788 10.0567
  A 0.42 0.42 0.0 0 0 26.0032 9.5067
  L 25.1430 7.4602
  Z
  M 129.4846 9.6368
  A 0.57 0.57 0.0 0 0 129.1852 8.8884
  L 125.5087 7.3126
  A 0.57 0.57 0.0 0 0 124.7602 7.6120
  L 124.0354 9.3032
  A 0.57 0.57 0.0 0 0 124.3348 10.0516
  L 128.0113 11.6274
  A 0.57 0.57 0.0 0 0 128.7598 11.3280
  L 129.4846 9.6368
  Z
  M 15.9365 12.4174
  A 0.29 0.29 0.0 0 0 15.5264 12.4124
  L 12.4203 15.4435
  A 0.29 0.29 0.0 0 0 12.4153 15.8536
  L 14.0635 17.5426
  A 0.29 0.29 0.0 0 0 14.4736 17.5476
  L 17.5797 14.5165
  A 0.29 0.29 0.0 0 0 17.5847 14.1064
  L 15.9365 12.4174
  Z
  M 134.5633 12.4503
  A 0.33 0.33 0.0 0 0 134.0966 12.4503
  L 132.4703 14.0766
  A 0.33 0.33 0.0 0 0 132.4703 14.5433
  L 135.4967 17.5697
  A 0.33 0.33 0.0 0 0 135.9634 17.5697
  L 137.5897 15.9434
  A 0.33 0.33 0.0 0 0 137.5897 15.4767
  L 134.5633 12.4503
  Z
  M 109.27 77.85
  Q 109.20 57.62 109.30 35.80
  C 109.32 31.04 107.95 26.81 103.45 24.59
  Q 100.67 23.21 95.00 23.43
  Q 89.58 23.64 83.83 23.41
  A 1.53 1.52 80.1 0 1 82.48 22.45
  C 81.25 19.40 77.75 20.16 75.12 19.83
  A 1.58 1.58 0.0 0 1 73.97 19.10
  Q 72.63 16.96 70.64 16.02
  Q 64.02 12.87 59.11 19.15
  Q 58.42 20.02 57.31 20.05
  C 54.49 20.12 51.95 19.68 50.56 22.82
  A 0.99 0.98 -78.1 0 1 49.68 23.40
  Q 42.86 23.52 36.64 23.39
  C 28.58 23.22 23.85 27.46 23.91 35.66
  Q 24.19 73.70 23.89 111.20
  C 23.83 118.94 28.67 123.07 36.31 123.04
  Q 65.72 122.93 100.41 123.05
  C 103.38 123.06 105.86 122.13 108.44 120.84
  A 1.62 1.61 46.6 0 1 109.96 120.89
  Q 116.93 124.97 122.99 121.18
  C 128.34 117.84 130.02 110.63 126.58 105.25
  Q 126.23 104.72 126.77 104.36
  C 127.28 104.03 127.95 103.72 128.40 103.31
  C 133.55 98.56 133.63 88.86 125.27 87.93
  Q 124.76 87.88 124.84 87.37
  C 126.16 79.00 117.19 70.58 109.91 78.10
  Q 109.27 78.76 109.27 77.85
  Z
  M 11.6884 21.9161
  A 0.42 0.42 0.0 0 0 11.4755 21.3616
  L 9.5388 20.4993
  A 0.42 0.42 0.0 0 0 8.9843 20.7122
  L 7.2516 24.6039
  A 0.42 0.42 0.0 0 0 7.4645 25.1584
  L 9.4012 26.0207
  A 0.42 0.42 0.0 0 0 9.9557 25.8078
  L 11.6884 21.9161
  Z
  M 141.1681 20.8068
  A 0.48 0.48 0.0 0 0 140.5400 20.5492
  L 138.6027 21.3596
  A 0.48 0.48 0.0 0 0 138.3451 21.9877
  L 139.9119 25.7332
  A 0.48 0.48 0.0 0 0 140.5400 25.9908
  L 142.4773 25.1804
  A 0.48 0.48 0.0 0 0 142.7349 24.5523
  L 141.1681 20.8068
  Z
  M 9.0328 30.8812
  A 0.41 0.41 0.0 0 0 8.6286 30.4655
  L 6.4488 30.4351
  A 0.41 0.41 0.0 0 0 6.0331 30.8393
  L 5.9672 35.5588
  A 0.41 0.41 0.0 0 0 6.3714 35.9745
  L 8.5512 36.0049
  A 0.41 0.41 0.0 0 0 8.9669 35.6007
  L 9.0328 30.8812
  Z
  M 143.9817 30.9017
  A 0.43 0.43 0.0 0 0 143.5464 30.4770
  L 141.3866 30.5034
  A 0.43 0.43 0.0 0 0 140.9619 30.9386
  L 141.0183 35.5583
  A 0.43 0.43 0.0 0 0 141.4536 35.9830
  L 143.6134 35.9566
  A 0.43 0.43 0.0 0 0 144.0381 35.5214
  L 143.9817 30.9017
  Z
  M 8.9713 42.6318
  A 0.66 0.66 0.0 0 0 8.3033 41.9800
  L 6.6234 42.0005
  A 0.66 0.66 0.0 0 0 5.9715 42.6685
  L 6.0287 47.3482
  A 0.66 0.66 0.0 0 0 6.6967 48.0000
  L 8.3766 47.9795
  A 0.66 0.66 0.0 0 0 9.0285 47.3115
  L 8.9713 42.6318
  Z
  M 143.9776 42.6494
  A 0.68 0.68 0.0 0 0 143.2882 41.9790
  L 141.6683 42.0016
  A 0.68 0.68 0.0 0 0 140.9979 42.6910
  L 141.0624 47.3106
  A 0.68 0.68 0.0 0 0 141.7518 47.9810
  L 143.3717 47.9584
  A 0.68 0.68 0.0 0 0 144.0421 47.2690
  L 143.9776 42.6494
  Z
  M 8.9901 54.6969
  A 0.75 0.75 0.0 0 0 8.2336 53.9535
  L 6.7137 53.9667
  A 0.75 0.75 0.0 0 0 5.9702 54.7233
  L 6.0099 59.2631
  A 0.75 0.75 0.0 0 0 6.7664 60.0065
  L 8.2863 59.9933
  A 0.75 0.75 0.0 0 0 9.0298 59.2367
  L 8.9901 54.6969
  Z
  M 143.9944 54.7497
  A 0.77 0.77 0.0 0 0 143.2190 53.9850
  L 141.7791 53.9951
  A 0.77 0.77 0.0 0 0 141.0145 54.7705
  L 141.0456 59.2303
  A 0.77 0.77 0.0 0 0 141.8210 59.9950
  L 143.2609 59.9849
  A 0.77 0.77 0.0 0 0 144.0255 59.2095
  L 143.9944 54.7497
  Z
  M 8.9801 66.6970
  A 0.75 0.75 0.0 0 0 8.2236 65.9536
  L 6.7237 65.9667
  A 0.75 0.75 0.0 0 0 5.9802 66.7232
  L 6.0199 71.2630
  A 0.75 0.75 0.0 0 0 6.7764 72.0064
  L 8.2763 71.9933
  A 0.75 0.75 0.0 0 0 9.0198 71.2368
  L 8.9801 66.6970
  Z
  M 143.9820 66.6918
  A 0.72 0.72 0.0 0 0 143.2533 65.9807
  L 141.6934 65.9998
  A 0.72 0.72 0.0 0 0 140.9823 66.7285
  L 141.0380 71.2882
  A 0.72 0.72 0.0 0 0 141.7667 71.9993
  L 143.3266 71.9802
  A 0.72 0.72 0.0 0 0 144.0377 71.2515
  L 143.9820 66.6918
  Z
  M 8.9863 78.7043
  A 0.76 0.76 0.0 0 0 8.2183 77.9523
  L 6.7184 77.9680
  A 0.76 0.76 0.0 0 0 5.9664 78.7359
  L 6.0137 83.2557
  A 0.76 0.76 0.0 0 0 6.7817 84.0077
  L 8.2816 83.9920
  A 0.76 0.76 0.0 0 0 9.0336 83.2241
  L 8.9863 78.7043
  Z
  M 143.9978 78.6622
  A 0.67 0.67 0.0 0 0 143.3243 77.9957
  L 141.6643 78.0044
  A 0.67 0.67 0.0 0 0 140.9978 78.6779
  L 141.0222 83.3378
  A 0.67 0.67 0.0 0 0 141.6957 84.0043
  L 143.3557 83.9956
  A 0.67 0.67 0.0 0 0 144.0222 83.3221
  L 143.9978 78.6622
  Z
  M 8.9840 90.6896
  A 0.74 0.74 0.0 0 0 8.2389 89.9548
  L 6.7189 89.9654
  A 0.74 0.74 0.0 0 0 5.9841 90.7105
  L 6.0160 95.2704
  A 0.74 0.74 0.0 0 0 6.7611 96.0052
  L 8.2811 95.9946
  A 0.74 0.74 0.0 0 0 9.0159 95.2495
  L 8.9840 90.6896
  Z
  M 143.9895 90.6470
  A 0.66 0.66 0.0 0 0 143.3238 89.9928
  L 141.6439 90.0074
  A 0.66 0.66 0.0 0 0 140.9896 90.6732
  L 141.0305 95.3530
  A 0.66 0.66 0.0 0 0 141.6962 96.0072
  L 143.3761 95.9926
  A 0.66 0.66 0.0 0 0 144.0304 95.3268
  L 143.9895 90.6470
  Z
  M 8.9874 102.5722
  A 0.60 0.60 0.0 0 0 8.3842 101.9753
  L 6.5843 101.9848
  A 0.60 0.60 0.0 0 0 5.9874 102.5879
  L 6.0126 107.4078
  A 0.60 0.60 0.0 0 0 6.6158 108.0047
  L 8.4157 107.9952
  A 0.60 0.60 0.0 0 0 9.0126 107.3921
  L 8.9874 102.5722
  Z
  M 143.9826 102.4996
  A 0.51 0.51 0.0 0 0 143.4690 101.9932
  L 141.4891 102.0070
  A 0.51 0.51 0.0 0 0 140.9827 102.5205
  L 141.0174 107.5004
  A 0.51 0.51 0.0 0 0 141.5310 108.0068
  L 143.5109 107.9930
  A 0.51 0.51 0.0 0 0 144.0173 107.4795
  L 143.9826 102.4996
  Z
  M 8.9881 114.3238
  A 0.35 0.35 0.0 0 0 8.6320 113.9800
  L 6.2924 114.0208
  A 0.35 0.35 0.0 0 0 5.9485 114.3769
  L 6.0319 119.1562
  A 0.35 0.35 0.0 0 0 6.3880 119.5000
  L 8.7276 119.4592
  A 0.35 0.35 0.0 0 0 9.0715 119.1031
  L 8.9881 114.3238
  Z
  M 144.0260 114.2758
  A 0.26 0.26 0.0 0 0 143.7687 114.0131
  L 141.2889 113.9872
  A 0.26 0.26 0.0 0 0 141.0262 114.2444
  L 140.9740 119.2242
  A 0.26 0.26 0.0 0 0 141.2313 119.4869
  L 143.7111 119.5128
  A 0.26 0.26 0.0 0 0 143.9738 119.2556
  L 144.0260 114.2758
  Z
  M 10.0615 124.1963
  A 0.41 0.41 0.0 0 0 9.5242 123.9781
  L 7.4424 124.8575
  A 0.41 0.41 0.0 0 0 7.2242 125.3948
  L 8.8585 129.2637
  A 0.41 0.41 0.0 0 0 9.3958 129.4819
  L 11.4776 128.6025
  A 0.41 0.41 0.0 0 0 11.6958 128.0652
  L 10.0615 124.1963
  Z
  M 142.7089 125.4365
  A 0.48 0.48 0.0 0 0 142.4613 124.8045
  L 140.6285 124.0038
  A 0.48 0.48 0.0 0 0 139.9965 124.2514
  L 138.3311 128.0635
  A 0.48 0.48 0.0 0 0 138.5787 128.6955
  L 140.4115 129.4962
  A 0.48 0.48 0.0 0 0 141.0435 129.2486
  L 142.7089 125.4365
  Z
  M 14.5136 132.4594
  A 0.32 0.32 0.0 0 0 14.0611 132.4586
  L 12.4319 134.0822
  A 0.32 0.32 0.0 0 0 12.4311 134.5347
  L 15.4664 137.5806
  A 0.32 0.32 0.0 0 0 15.9189 137.5814
  L 17.5481 135.9578
  A 0.32 0.32 0.0 0 0 17.5489 135.5053
  L 14.5136 132.4594
  Z
  M 135.9045 132.4367
  A 0.27 0.27 0.0 0 0 135.5227 132.4347
  L 132.4094 135.5156
  A 0.27 0.27 0.0 0 0 132.4074 135.8974
  L 134.0955 137.6033
  A 0.27 0.27 0.0 0 0 134.4773 137.6053
  L 137.5906 134.5244
  A 0.27 0.27 0.0 0 0 137.5926 134.1426
  L 135.9045 132.4367
  Z
  M 25.9828 140.6333
  A 0.49 0.49 0.0 0 0 25.7266 139.9895
  L 21.9242 138.3519
  A 0.49 0.49 0.0 0 0 21.2804 138.6081
  L 20.4972 140.4267
  A 0.49 0.49 0.0 0 0 20.7534 141.0705
  L 24.5558 142.7081
  A 0.49 0.49 0.0 0 0 25.1996 142.4519
  L 25.9828 140.6333
  Z
  M 128.6407 138.5586
  A 0.44 0.44 0.0 0 0 128.0646 138.3235
  L 124.2296 139.9356
  A 0.44 0.44 0.0 0 0 123.9945 140.5117
  L 124.8393 142.5214
  A 0.44 0.44 0.0 0 0 125.4154 142.7565
  L 129.2504 141.1444
  A 0.44 0.44 0.0 0 0 129.4855 140.5683
  L 128.6407 138.5586
  Z
  M 119.4939 141.4581
  A 0.55 0.55 0.0 0 0 118.9297 140.9227
  L 114.5112 141.0384
  A 0.55 0.55 0.0 0 0 113.9758 141.6026
  L 114.0261 143.5219
  A 0.55 0.55 0.0 0 0 114.5903 144.0573
  L 119.0088 143.9416
  A 0.55 0.55 0.0 0 0 119.5442 143.3774
  L 119.4939 141.4581
  Z
  M 35.9995 141.4242
  A 0.40 0.40 0.0 0 0 35.6030 141.0207
  L 30.8632 140.9794
  A 0.40 0.40 0.0 0 0 30.4597 141.3759
  L 30.4405 143.5758
  A 0.40 0.40 0.0 0 0 30.8370 143.9793
  L 35.5768 144.0206
  A 0.40 0.40 0.0 0 0 35.9803 143.6241
  L 35.9995 141.4242
  Z
  M 48.0208 141.8825
  A 0.95 0.95 0.0 0 0 47.0560 140.9475
  L 42.8965 141.0129
  A 0.95 0.95 0.0 0 0 41.9616 141.9777
  L 41.9792 143.0975
  A 0.95 0.95 0.0 0 0 42.9440 144.0325
  L 47.1035 143.9671
  A 0.95 0.95 0.0 0 0 48.0384 143.0023
  L 48.0208 141.8825
  Z
  M 60.0437 142.0765
  A 1.06 1.06 0.0 0 0 58.9930 141.0073
  L 55.0332 140.9728
  A 1.06 1.06 0.0 0 0 53.9640 142.0235
  L 53.9563 142.9035
  A 1.06 1.06 0.0 0 0 55.0070 143.9727
  L 58.9668 144.0072
  A 1.06 1.06 0.0 0 0 60.0360 142.9565
  L 60.0437 142.0765
  Z
  M 72.0268 142.0189
  A 1.05 1.05 0.0 0 0 70.9695 140.9762
  L 67.0096 141.0039
  A 1.05 1.05 0.0 0 0 65.9669 142.0612
  L 65.9732 142.9611
  A 1.05 1.05 0.0 0 0 67.0305 144.0038
  L 70.9904 143.9761
  A 1.05 1.05 0.0 0 0 72.0331 142.9188
  L 72.0268 142.0189
  Z
  M 84.0337 142.0765
  A 1.06 1.06 0.0 0 0 82.9830 141.0072
  L 79.0432 140.9729
  A 1.06 1.06 0.0 0 0 77.9740 142.0236
  L 77.9663 142.9035
  A 1.06 1.06 0.0 0 0 79.0170 143.9728
  L 82.9568 144.0071
  A 1.06 1.06 0.0 0 0 84.0260 142.9564
  L 84.0337 142.0765
  Z
  M 96.0268 142.0189
  A 1.05 1.05 0.0 0 0 94.9695 140.9762
  L 91.0096 141.0039
  A 1.05 1.05 0.0 0 0 89.9669 142.0612
  L 89.9732 142.9611
  A 1.05 1.05 0.0 0 0 91.0305 144.0038
  L 94.9904 143.9761
  A 1.05 1.05 0.0 0 0 96.0331 142.9188
  L 96.0268 142.0189
  Z
  M 108.0234 141.9330
  A 0.98 0.98 0.0 0 0 107.0315 140.9651
  L 102.9318 141.0152
  A 0.98 0.98 0.0 0 0 101.9639 142.0071
  L 101.9766 143.0470
  A 0.98 0.98 0.0 0 0 102.9685 144.0149
  L 107.0682 143.9648
  A 0.98 0.98 0.0 0 0 108.0361 142.9729
  L 108.0234 141.9330
  Z"
/>
<rect fill="#fdb384" x="-2.75" y="-1.51" transform="translate(33.24,7.51) rotate(-1.0)" width="5.50" height="3.02" rx="0.43"/>
<rect fill="#fdb384" x="-3.02" y="-1.50" transform="translate(44.99,7.51) rotate(-0.8)" width="6.04" height="3.00" rx="0.78"/>
<rect fill="#fdb384" x="-3.04" y="-1.49" transform="translate(56.99,7.52) rotate(-0.4)" width="6.08" height="2.98" rx="1.00"/>
<rect fill="#fdb384" x="-3.04" y="-1.50" transform="translate(68.98,7.52) rotate(-0.3)" width="6.08" height="3.00" rx="0.98"/>
<rect fill="#fdb384" x="-3.05" y="-1.48" transform="translate(80.98,7.52) rotate(-0.3)" width="6.10" height="2.96" rx="1.02"/>
<rect fill="#fdb384" x="-3.03" y="-1.46" transform="translate(92.99,7.53) rotate(0.8)" width="6.06" height="2.92" rx="1.02"/>
<rect fill="#fdb384" x="-3.03" y="-1.46" transform="translate(104.99,7.53) rotate(0.9)" width="6.06" height="2.92" rx="1.00"/>
<rect fill="#fdb384" x="-2.76" y="-1.50" transform="translate(116.77,7.50) rotate(0.2)" width="5.52" height="3.00" rx="0.47"/>
<rect fill="#fdb384" x="-2.52" y="-1.53" transform="translate(23.25,9.46) rotate(-22.8)" width="5.04" height="3.06" rx="0.42"/>
<rect fill="#fdb384" x="-2.57" y="-1.49" transform="translate(126.76,9.47) rotate(23.2)" width="5.14" height="2.98" rx="0.57"/>
<rect fill="#fdb384" x="-2.46" y="-1.47" transform="translate(15.00,14.98) rotate(-44.3)" width="4.92" height="2.94" rx="0.29"/>
<rect fill="#fdb384" x="-1.48" y="-2.47" transform="translate(135.03,15.01) rotate(-45.0)" width="2.96" height="4.94" rx="0.33"/>
<path fill="#fdb384" d="
  M 109.91 78.10
  C 117.19 70.58 126.16 79.00 124.84 87.37
  Q 124.76 87.88 125.27 87.93
  C 133.63 88.86 133.55 98.56 128.40 103.31
  C 127.95 103.72 127.28 104.03 126.77 104.36
  Q 126.23 104.72 126.58 105.25
  C 130.02 110.63 128.34 117.84 122.99 121.18
  Q 116.93 124.97 109.96 120.89
  A 1.62 1.61 46.6 0 0 108.44 120.84
  C 105.86 122.13 103.38 123.06 100.41 123.05
  Q 65.72 122.93 36.31 123.04
  C 28.67 123.07 23.83 118.94 23.89 111.20
  Q 24.19 73.70 23.91 35.66
  C 23.85 27.46 28.58 23.22 36.64 23.39
  Q 42.86 23.52 49.68 23.40
  A 0.99 0.98 -78.1 0 0 50.56 22.82
  C 51.95 19.68 54.49 20.12 57.31 20.05
  Q 58.42 20.02 59.11 19.15
  Q 64.02 12.87 70.64 16.02
  Q 72.63 16.96 73.97 19.10
  A 1.58 1.58 0.0 0 0 75.12 19.83
  C 77.75 20.16 81.25 19.40 82.48 22.45
  A 1.53 1.52 80.1 0 0 83.83 23.41
  Q 89.58 23.64 95.00 23.43
  Q 100.67 23.21 103.45 24.59
  C 107.95 26.81 109.32 31.04 109.30 35.80
  Q 109.20 57.62 109.27 77.85
  Q 109.27 78.76 109.91 78.10
  Z
  M 71.50 23.68
  Q 70.96 22.81 70.59 21.87
  C 69.54 19.24 66.44 18.59 64.13 19.97
  C 62.33 21.05 62.64 24.18 60.27 24.22
  Q 57.42 24.27 54.79 24.27
  Q 54.67 24.27 54.66 24.39
  L 54.59 32.55
  Q 54.59 32.75 54.79 32.75
  L 77.56 32.75
  Q 78.63 32.75 78.63 31.69
  L 78.62 25.44
  Q 78.62 24.26 77.44 24.25
  L 72.51 24.25
  A 1.21 1.21 0.0 0 1 71.50 23.68
  Z
  M 34.03 113.26
  Q 33.26 112.53 33.26 111.55
  Q 33.24 73.22 33.25 34.77
  A 2.02 2.02 0.0 0 1 35.27 32.75
  L 50.01 32.75
  A 0.36 0.36 0.0 0 0 50.37 32.39
  L 50.38 28.01
  Q 50.38 27.63 50.00 27.63
  Q 42.51 27.53 34.85 27.69
  C 30.55 27.78 28.21 30.55 28.22 34.52
  Q 28.25 73.78 28.27 112.53
  C 28.27 116.43 31.33 118.78 34.99 118.77
  Q 64.80 118.74 91.58 118.76
  A 0.18 0.17 78.3 0 0 91.74 118.51
  L 89.58 113.99
  Q 89.47 113.75 89.20 113.75
  L 35.25 113.75
  A 1.77 1.76 -23.0 0 1 34.03 113.26
  Z
  M 99.19 33.12
  Q 99.75 33.64 99.78 34.35
  Q 99.96 38.35 99.82 43.41
  Q 99.76 45.46 97.72 45.26
  L 97.29 45.22
  Q 95.76 45.07 95.76 43.54
  L 95.74 37.43
  A 0.56 0.56 0.0 0 0 95.18 36.87
  L 38.07 36.87
  Q 37.50 36.87 37.50 37.43
  L 37.50 109.00
  Q 37.50 109.50 38.00 109.50
  L 89.00 109.50
  Q 89.57 109.50 89.71 108.94
  Q 90.17 107.01 91.26 105.29
  Q 91.58 104.78 91.08 104.44
  Q 84.38 99.85 86.33 92.87
  Q 87.51 88.67 92.43 87.98
  Q 93.02 87.90 92.96 87.31
  Q 92.39 82.15 95.35 78.62
  A 1.74 1.72 65.2 0 0 95.75 77.51
  L 95.75 62.34
  Q 95.75 60.58 97.44 60.11
  Q 98.58 59.80 99.75 61.85
  A 1.51 1.44 31.7 0 1 99.94 62.57
  L 99.88 74.97
  Q 99.88 75.65 100.54 75.47
  Q 102.54 74.92 104.43 75.74
  Q 104.98 75.99 104.98 75.38
  Q 105.02 56.13 104.98 34.35
  C 104.98 30.17 102.08 27.64 98.00 27.61
  Q 90.36 27.56 83.30 27.63
  Q 82.88 27.64 82.88 28.06
  L 82.85 32.19
  Q 82.85 32.75 83.40 32.75
  L 98.23 32.75
  A 1.44 1.43 65.9 0 1 99.19 33.12
  Z
  M 101.8484 91.8700
  A 6.20 4.80 90.2 0 0 106.6700 85.6868
  A 6.20 4.80 90.2 0 0 101.8916 79.4700
  A 6.20 4.80 90.2 0 0 97.0700 85.6532
  A 6.20 4.80 90.2 0 0 101.8484 91.8700
  Z
  M 116.0092 91.9000
  A 6.20 4.80 90.1 0 0 120.8200 85.7084
  A 6.20 4.80 90.1 0 0 116.0308 79.5000
  A 6.20 4.80 90.1 0 0 111.2200 85.6916
  A 6.20 4.80 90.1 0 0 116.0092 91.9000
  Z
  M 95.8582 100.8951
  A 4.70 3.46 64.3 0 0 96.9377 95.1595
  A 4.70 3.46 64.3 0 0 91.7818 92.4249
  A 4.70 3.46 64.3 0 0 90.7023 98.1605
  A 4.70 3.46 64.3 0 0 95.8582 100.8951
  Z
  M 122.0414 100.8992
  A 4.70 3.47 115.3 0 0 127.1872 98.1329
  A 4.70 3.47 115.3 0 0 126.0586 92.4008
  A 4.70 3.47 115.3 0 0 120.9128 95.1671
  A 4.70 3.47 115.3 0 0 122.0414 100.8992
  Z
  M 116.15 100.09
  C 114.21 93.44 105.00 92.05 102.24 98.88
  C 101.32 101.16 100.55 103.44 98.15 104.53
  C 93.85 106.48 92.51 111.51 94.89 115.25
  C 97.27 118.98 101.69 119.78 105.41 117.49
  C 107.47 116.22 110.04 116.02 112.15 117.29
  Q 117.02 120.20 121.13 117.30
  C 125.78 114.03 124.96 107.01 119.89 104.55
  Q 117.05 103.17 116.15 100.09
  Z"
/>
<path fill="#704520" d="
  M 71.50 23.68
  A 1.21 1.21 0.0 0 0 72.51 24.25
  L 77.44 24.25
  Q 78.62 24.26 78.62 25.44
  L 78.63 31.69
  Q 78.63 32.75 77.56 32.75
  L 54.79 32.75
  Q 54.59 32.75 54.59 32.55
  L 54.66 24.39
  Q 54.67 24.27 54.79 24.27
  Q 57.42 24.27 60.27 24.22
  C 62.64 24.18 62.33 21.05 64.13 19.97
  C 66.44 18.59 69.54 19.24 70.59 21.87
  Q 70.96 22.81 71.50 23.68
  Z"
/>
<rect fill="#fdb384" x="-1.48" y="-2.55" transform="translate(9.47,23.26) rotate(24.0)" width="2.96" height="5.10" rx="0.42"/>
<rect fill="#fdb384" x="-1.53" y="-2.51" transform="translate(140.54,23.27) rotate(-22.7)" width="3.06" height="5.02" rx="0.48"/>
<path fill="#704520" d="
  M 34.03 113.26
  A 1.77 1.76 -23.0 0 0 35.25 113.75
  L 89.20 113.75
  Q 89.47 113.75 89.58 113.99
  L 91.74 118.51
  A 0.18 0.17 78.3 0 1 91.58 118.76
  Q 64.80 118.74 34.99 118.77
  C 31.33 118.78 28.27 116.43 28.27 112.53
  Q 28.25 73.78 28.22 34.52
  C 28.21 30.55 30.55 27.78 34.85 27.69
  Q 42.51 27.53 50.00 27.63
  Q 50.38 27.63 50.38 28.01
  L 50.37 32.39
  A 0.36 0.36 0.0 0 1 50.01 32.75
  L 35.27 32.75
  A 2.02 2.02 0.0 0 0 33.25 34.77
  Q 33.24 73.22 33.26 111.55
  Q 33.26 112.53 34.03 113.26
  Z"
/>
<path fill="#704520" d="
  M 99.19 33.12
  A 1.44 1.43 65.9 0 0 98.23 32.75
  L 83.40 32.75
  Q 82.85 32.75 82.85 32.19
  L 82.88 28.06
  Q 82.88 27.64 83.30 27.63
  Q 90.36 27.56 98.00 27.61
  C 102.08 27.64 104.98 30.17 104.98 34.35
  Q 105.02 56.13 104.98 75.38
  Q 104.98 75.99 104.43 75.74
  Q 102.54 74.92 100.54 75.47
  Q 99.88 75.65 99.88 74.97
  L 99.94 62.57
  A 1.51 1.44 31.7 0 0 99.75 61.85
  Q 98.58 59.80 97.44 60.11
  Q 95.75 60.58 95.75 62.34
  L 95.75 77.51
  A 1.74 1.72 65.2 0 1 95.35 78.62
  Q 92.39 82.15 92.96 87.31
  Q 93.02 87.90 92.43 87.98
  Q 87.51 88.67 86.33 92.87
  Q 84.38 99.85 91.08 104.44
  Q 91.58 104.78 91.26 105.29
  Q 90.17 107.01 89.71 108.94
  Q 89.57 109.50 89.00 109.50
  L 38.00 109.50
  Q 37.50 109.50 37.50 109.00
  L 37.50 37.43
  Q 37.50 36.87 38.07 36.87
  L 95.18 36.87
  A 0.56 0.56 0.0 0 1 95.74 37.43
  L 95.76 43.54
  Q 95.76 45.07 97.29 45.22
  L 97.72 45.26
  Q 99.76 45.46 99.82 43.41
  Q 99.96 38.35 99.78 34.35
  Q 99.75 33.64 99.19 33.12
  Z
  M 59.09 48.38
  L 55.29 48.39
  A 1.77 1.77 0.0 0 0 53.52 50.16
  Q 53.52 54.08 53.46 59.07
  C 53.42 62.36 56.34 61.89 58.57 61.83
  Q 60.40 61.78 59.98 63.56
  Q 58.84 68.33 63.09 68.17
  Q 66.98 68.02 71.16 68.17
  C 73.71 68.26 73.58 64.81 73.33 63.13
  Q 73.12 61.73 74.54 61.80
  C 76.69 61.90 79.62 62.42 79.67 59.25
  Q 79.75 54.65 79.67 50.52
  Q 79.63 48.46 77.53 48.39
  Q 75.75 48.33 73.97 48.43
  A 0.62 0.62 0.0 0 1 73.32 47.77
  C 73.46 45.79 74.05 41.98 71.00 41.99
  Q 66.56 42.00 61.91 42.01
  A 2.02 2.01 0.6 0 0 59.89 43.98
  L 59.83 47.66
  Q 59.81 48.37 59.09 48.38
  Z
  M 99.89 52.71
  A 2.08 2.08 0.0 0 0 97.81 50.63
  A 2.08 2.08 0.0 0 0 95.73 52.71
  A 2.08 2.08 0.0 0 0 97.81 54.79
  A 2.08 2.08 0.0 0 0 99.89 52.71
  Z
  M 50.40 77.15
  L 49.32 76.28
  Q 48.87 75.92 48.33 76.09
  Q 46.48 76.68 46.45 78.52
  Q 46.44 79.10 46.86 79.51
  L 49.78 82.34
  A 1.55 1.55 0.0 0 0 51.84 82.43
  Q 54.72 80.08 56.80 77.57
  Q 57.77 76.41 57.06 75.07
  Q 56.89 74.74 56.59 74.54
  Q 55.04 73.46 53.70 74.79
  L 51.40 77.10
  Q 50.93 77.57 50.40 77.15
  Z
  M 86.75 80.49
  A 1.99 1.99 0.0 0 0 84.76 78.50
  L 63.00 78.50
  A 1.99 1.99 0.0 0 0 61.01 80.49
  L 61.01 80.75
  A 1.99 1.99 0.0 0 0 63.00 82.74
  L 84.76 82.74
  A 1.99 1.99 0.0 0 0 86.75 80.75
  L 86.75 80.49
  Z
  M 50.52 91.86
  Q 50.09 91.70 49.85 91.31
  Q 49.55 90.83 48.98 90.75
  Q 47.79 90.59 47.00 91.41
  Q 45.91 92.53 46.77 93.84
  Q 48.22 96.05 50.42 97.20
  A 1.38 1.37 36.3 0 0 52.02 96.96
  L 56.66 92.35
  Q 57.86 91.16 57.09 89.65
  Q 56.92 89.32 56.62 89.11
  Q 54.98 88.01 53.59 89.41
  L 51.33 91.68
  Q 50.98 92.03 50.52 91.86
  Z
  M 75.9501 95.0731
  A 2.05 2.05 0.0 0 0 73.9037 93.0195
  L 63.0437 93.0005
  A 2.05 2.05 0.0 0 0 60.9901 95.0469
  L 60.9899 95.1869
  A 2.05 2.05 0.0 0 0 63.0363 97.2405
  L 73.8963 97.2595
  A 2.05 2.05 0.0 0 0 75.9499 95.2131
  L 75.9501 95.0731
  Z"
/>
<rect fill="#fdb384" x="-1.50" y="-2.77" transform="translate(7.50,33.22) rotate(0.8)" width="3.00" height="5.54" rx="0.41"/>
<rect fill="#fdb384" x="-1.51" y="-2.74" transform="translate(142.50,33.23) rotate(-0.7)" width="3.02" height="5.48" rx="0.43"/>
<rect fill="#fdb384" x="-1.50" y="-3.00" transform="translate(7.50,44.99) rotate(-0.7)" width="3.00" height="6.00" rx="0.66"/>
<path fill="#fdb384" d="
  M 59.83 47.66
  L 59.89 43.98
  A 2.02 2.01 0.6 0 1 61.91 42.01
  Q 66.56 42.00 71.00 41.99
  C 74.05 41.98 73.46 45.79 73.32 47.77
  A 0.62 0.62 0.0 0 0 73.97 48.43
  Q 75.75 48.33 77.53 48.39
  Q 79.63 48.46 79.67 50.52
  Q 79.75 54.65 79.67 59.25
  C 79.62 62.42 76.69 61.90 74.54 61.80
  Q 73.12 61.73 73.33 63.13
  C 73.58 64.81 73.71 68.26 71.16 68.17
  Q 66.98 68.02 63.09 68.17
  Q 58.84 68.33 59.98 63.56
  Q 60.40 61.78 58.57 61.83
  C 56.34 61.89 53.42 62.36 53.46 59.07
  Q 53.52 54.08 53.52 50.16
  A 1.77 1.77 0.0 0 1 55.29 48.39
  L 59.09 48.38
  Q 59.81 48.37 59.83 47.66
  Z
  M 64.05 50.99
  Q 64.01 52.49 62.51 52.49
  L 58.50 52.50
  Q 57.75 52.51 57.75 53.25
  L 57.75 56.78
  Q 57.74 57.57 58.53 57.59
  L 62.52 57.69
  A 1.61 1.60 0.4 0 1 64.09 59.27
  L 64.15 62.94
  Q 64.16 63.84 65.06 63.85
  L 68.46 63.87
  Q 69.39 63.88 69.22 62.97
  Q 68.89 61.29 69.28 58.99
  A 1.62 1.62 0.0 0 1 70.86 57.65
  L 75.28 57.63
  Q 75.49 57.63 75.49 57.42
  L 75.50 52.77
  A 0.24 0.24 0.0 0 0 75.27 52.53
  Q 73.51 52.43 71.56 52.54
  C 68.38 52.73 69.17 48.73 69.18 46.89
  Q 69.18 46.28 68.57 46.27
  L 65.05 46.24
  A 0.88 0.87 1.0 0 0 64.17 47.08
  L 64.05 50.99
  Z"
/>
<rect fill="#fdb384" x="-1.49" y="-2.99" transform="translate(142.52,44.98) rotate(-0.8)" width="2.98" height="5.98" rx="0.68"/>
<path fill="#704520" d="
  M 64.05 50.99
  L 64.17 47.08
  A 0.88 0.87 1.0 0 1 65.05 46.24
  L 68.57 46.27
  Q 69.18 46.28 69.18 46.89
  C 69.17 48.73 68.38 52.73 71.56 52.54
  Q 73.51 52.43 75.27 52.53
  A 0.24 0.24 0.0 0 1 75.50 52.77
  L 75.49 57.42
  Q 75.49 57.63 75.28 57.63
  L 70.86 57.65
  A 1.62 1.62 0.0 0 0 69.28 58.99
  Q 68.89 61.29 69.22 62.97
  Q 69.39 63.88 68.46 63.87
  L 65.06 63.85
  Q 64.16 63.84 64.15 62.94
  L 64.09 59.27
  A 1.61 1.60 0.4 0 0 62.52 57.69
  L 58.53 57.59
  Q 57.74 57.57 57.75 56.78
  L 57.75 53.25
  Q 57.75 52.51 58.50 52.50
  L 62.51 52.49
  Q 64.01 52.49 64.05 50.99
  Z"
/>
<circle fill="#fdb384" cx="97.81" cy="52.71" r="2.08"/>
<rect fill="#fdb384" x="-1.51" y="-3.02" transform="translate(7.50,56.98) rotate(-0.5)" width="3.02" height="6.04" rx="0.75"/>
<rect fill="#fdb384" x="-1.49" y="-3.00" transform="translate(142.52,56.99) rotate(-0.4)" width="2.98" height="6.00" rx="0.77"/>
<rect fill="#fdb384" x="-1.50" y="-3.02" transform="translate(7.50,68.98) rotate(-0.5)" width="3.00" height="6.04" rx="0.75"/>
<rect fill="#fdb384" x="-1.50" y="-3.00" transform="translate(142.51,68.99) rotate(-0.7)" width="3.00" height="6.00" rx="0.72"/>
<path fill="#fdb384" d="
  M 51.40 77.10
  L 53.70 74.79
  Q 55.04 73.46 56.59 74.54
  Q 56.89 74.74 57.06 75.07
  Q 57.77 76.41 56.80 77.57
  Q 54.72 80.08 51.84 82.43
  A 1.55 1.55 0.0 0 1 49.78 82.34
  L 46.86 79.51
  Q 46.44 79.10 46.45 78.52
  Q 46.48 76.68 48.33 76.09
  Q 48.87 75.92 49.32 76.28
  L 50.40 77.15
  Q 50.93 77.57 51.40 77.10
  Z"
/>
<rect fill="#fdb384" x="-1.51" y="-3.02" transform="translate(7.50,80.98) rotate(-0.6)" width="3.02" height="6.04" rx="0.76"/>
<rect fill="#fdb384" x="-1.50" y="-3.00" transform="translate(142.51,81.00) rotate(-0.3)" width="3.00" height="6.00" rx="0.67"/>
<rect fill="#fdb384" x="61.01" y="78.50" width="25.74" height="4.24" rx="1.99"/>
<ellipse fill="#704520" cx="0.00" cy="0.00" transform="translate(101.87,85.67) rotate(90.2)" rx="6.20" ry="4.80"/>
<ellipse fill="#704520" cx="0.00" cy="0.00" transform="translate(116.02,85.70) rotate(90.1)" rx="6.20" ry="4.80"/>
<path fill="#fdb384" d="
  M 51.33 91.68
  L 53.59 89.41
  Q 54.98 88.01 56.62 89.11
  Q 56.92 89.32 57.09 89.65
  Q 57.86 91.16 56.66 92.35
  L 52.02 96.96
  A 1.38 1.37 36.3 0 1 50.42 97.20
  Q 48.22 96.05 46.77 93.84
  Q 45.91 92.53 47.00 91.41
  Q 47.79 90.59 48.98 90.75
  Q 49.55 90.83 49.85 91.31
  Q 50.09 91.70 50.52 91.86
  Q 50.98 92.03 51.33 91.68
  Z"
/>
<rect fill="#fdb384" x="-1.50" y="-3.02" transform="translate(7.50,92.98) rotate(-0.4)" width="3.00" height="6.04" rx="0.74"/>
<rect fill="#fdb384" x="-1.50" y="-3.00" transform="translate(142.51,93.00) rotate(-0.5)" width="3.00" height="6.00" rx="0.66"/>
<ellipse fill="#704520" cx="0.00" cy="0.00" transform="translate(93.82,96.66) rotate(64.3)" rx="4.70" ry="3.46"/>
<ellipse fill="#704520" cx="0.00" cy="0.00" transform="translate(124.05,96.65) rotate(115.3)" rx="4.70" ry="3.47"/>
<rect fill="#fdb384" x="-7.48" y="-2.12" transform="translate(68.47,95.13) rotate(0.1)" width="14.96" height="4.24" rx="2.05"/>
<path fill="#704520" d="
  M 116.15 100.09
  Q 117.05 103.17 119.89 104.55
  C 124.96 107.01 125.78 114.03 121.13 117.30
  Q 117.02 120.20 112.15 117.29
  C 110.04 116.02 107.47 116.22 105.41 117.49
  C 101.69 119.78 97.27 118.98 94.89 115.25
  C 92.51 111.51 93.85 106.48 98.15 104.53
  C 100.55 103.44 101.32 101.16 102.24 98.88
  C 105.00 92.05 114.21 93.44 116.15 100.09
  Z"
/>
<rect fill="#fdb384" x="-1.50" y="-3.01" transform="translate(7.50,104.99) rotate(-0.3)" width="3.00" height="6.02" rx="0.60"/>
<rect fill="#fdb384" x="-1.50" y="-3.00" transform="translate(142.50,105.00) rotate(-0.4)" width="3.00" height="6.00" rx="0.51"/>
<rect fill="#fdb384" x="-1.52" y="-2.74" transform="translate(7.51,116.74) rotate(-1.0)" width="3.04" height="5.48" rx="0.35"/>
<rect fill="#fdb384" x="-1.50" y="-2.75" transform="translate(142.50,116.75) rotate(0.6)" width="3.00" height="5.50" rx="0.26"/>
<rect fill="#fdb384" x="-1.54" y="-2.51" transform="translate(9.46,126.73) rotate(-22.9)" width="3.08" height="5.02" rx="0.41"/>
<rect fill="#fdb384" x="-1.48" y="-2.56" transform="translate(140.52,126.75) rotate(23.6)" width="2.96" height="5.12" rx="0.48"/>
<rect fill="#fdb384" x="-1.47" y="-2.47" transform="translate(14.99,135.02) rotate(-44.9)" width="2.94" height="4.94" rx="0.32"/>
<rect fill="#fdb384" x="-2.46" y="-1.47" transform="translate(135.00,135.02) rotate(-44.7)" width="4.92" height="2.94" rx="0.27"/>
<rect fill="#fdb384" x="-2.56" y="-1.48" transform="translate(23.24,140.53) rotate(23.3)" width="5.12" height="2.96" rx="0.49"/>
<rect fill="#fdb384" x="-2.52" y="-1.53" transform="translate(126.74,140.54) rotate(-22.8)" width="5.04" height="3.06" rx="0.44"/>
<rect fill="#fdb384" x="-2.76" y="-1.51" transform="translate(116.76,142.49) rotate(-1.5)" width="5.52" height="3.02" rx="0.55"/>
<rect fill="#fdb384" x="-2.77" y="-1.50" transform="translate(33.22,142.50) rotate(0.5)" width="5.54" height="3.00" rx="0.40"/>
<rect fill="#fdb384" x="-3.03" y="-1.51" transform="translate(45.00,142.49) rotate(-0.9)" width="6.06" height="3.02" rx="0.95"/>
<rect fill="#fdb384" x="-3.04" y="-1.50" transform="translate(57.00,142.49) rotate(0.5)" width="6.08" height="3.00" rx="1.06"/>
<rect fill="#fdb384" x="-3.03" y="-1.50" transform="translate(69.00,142.49) rotate(-0.4)" width="6.06" height="3.00" rx="1.05"/>
<rect fill="#fdb384" x="-3.03" y="-1.50" transform="translate(81.00,142.49) rotate(0.5)" width="6.06" height="3.00" rx="1.06"/>
<rect fill="#fdb384" x="-3.03" y="-1.50" transform="translate(93.00,142.49) rotate(-0.4)" width="6.06" height="3.00" rx="1.05"/>
<rect fill="#fdb384" x="-3.03" y="-1.50" transform="translate(105.00,142.49) rotate(-0.7)" width="6.06" height="3.00" rx="0.98"/>
</svg>
