<?xml version="1.0" encoding="UTF-8" standalone="no"?>
<svg xmlns="http://www.w3.org/2000/svg" version="1.2" baseProfile="tiny" viewBox="0.00 0.00 117.00 117.00">
<path fill="#c09089" d="
  M 103.10 0.00
  L 104.24 0.00
  C 104.63 0.68 104.91 1.38 104.54 2.12
  Q 91.69 27.81 78.80 53.60
  Q 78.09 55.02 76.69 54.27
  L 61.51 46.15
  Q 61.04 45.90 60.68 46.27
  L 45.81 61.31
  A 1.36 1.36 0.0 0 1 43.49 60.51
  L 40.62 35.04
  Q 40.57 34.53 40.11 34.29
  Q 32.20 30.18 24.35 26.18
  Q 23.15 25.57 23.38 24.47
  A 1.11 1.10 87.8 0 1 24.13 23.65
  L 39.39 19.04
  Q 40.69 18.65 41.20 19.91
  Q 41.26 20.05 41.25 20.20
  Q 41.24 21.30 40.20 21.61
  L 29.01 24.98
  A 0.33 0.33 0.0 0 0 28.95 25.59
  L 41.38 31.86
  A 1.17 1.17 0.0 0 0 42.44 31.86
  Q 65.95 19.49 89.32 7.27
  Q 89.43 7.21 89.45 7.08
  Q 89.45 7.03 89.42 7.00
  Q 89.38 6.96 89.33 6.97
  Q 69.09 13.03 47.11 19.54
  Q 45.95 19.89 45.64 18.72
  L 45.50 18.22
  Q 45.29 17.43 46.07 17.19
  L 103.10 0.00
  Z
  M 82.16 17.82
  Q 81.56 17.01 82.34 16.37
  Q 85.97 13.43 89.78 10.50
  Q 89.95 10.38 89.83 10.20
  L 89.83 10.20
  Q 89.74 10.05 89.59 10.13
  Q 66.65 22.20 43.76 34.16
  Q 43.23 34.43 43.29 35.03
  L 45.58 54.72
  Q 45.67 55.49 45.98 54.78
  Q 48.94 48.06 52.15 41.19
  Q 52.88 39.64 54.05 38.71
  Q 64.93 30.08 76.91 20.65
  Q 77.71 20.02 78.57 20.58
  Q 79.10 20.92 79.12 21.77
  A 1.14 1.12 -19.8 0 1 78.68 22.68
  L 56.81 39.99
  A 0.35 0.35 0.0 0 0 56.86 40.57
  L 76.27 51.05
  A 0.75 0.74 27.2 0 0 77.29 50.73
  L 99.16 6.98
  Q 99.57 6.15 98.84 6.73
  L 84.06 18.42
  Q 83.14 19.14 82.45 18.21
  L 82.16 17.82
  Z
  M 55.07 42.64
  A 0.52 0.51 26.8 0 0 54.36 42.87
  L 49.68 52.99
  Q 49.02 54.42 50.11 53.29
  L 58.12 44.94
  A 0.42 0.41 -53.3 0 0 58.03 44.29
  L 55.07 42.64
  Z"
/>
<path fill="#c09089" d="
  M 35.53 74.65
  C 43.36 82.65 53.84 85.19 63.05 78.15
  Q 66.62 75.41 71.74 69.55
  C 77.48 62.98 86.16 58.72 94.91 60.93
  C 100.62 62.38 105.00 67.60 104.71 73.54
  C 104.31 81.54 97.26 86.00 89.92 86.22
  Q 85.29 86.36 80.31 85.89
  C 77.44 85.63 71.32 86.35 70.43 89.89
  Q 70.08 91.25 69.77 92.66
  A 0.97 0.96 -62.3 0 1 68.18 93.16
  Q 67.66 92.68 67.57 91.98
  C 66.68 85.35 74.46 82.96 79.66 83.19
  Q 83.50 83.36 87.49 83.62
  C 92.93 83.97 99.43 81.81 101.53 76.27
  C 103.88 70.06 99.03 64.09 92.94 63.20
  C 84.75 62.01 77.90 66.40 72.71 72.41
  C 69.74 75.86 66.63 79.39 62.75 81.74
  Q 52.71 87.81 41.68 82.51
  C 38.50 80.99 35.88 78.49 33.19 76.24
  Q 32.74 75.86 32.30 76.24
  Q 29.29 78.86 25.73 80.58
  C 21.55 82.61 14.80 83.07 12.73 77.93
  Q 11.75 75.50 12.55 73.00
  C 14.48 67.03 20.67 64.55 26.17 67.28
  Q 29.62 69.00 32.37 71.91
  A 0.67 0.67 0.0 0 0 33.30 71.96
  Q 36.64 69.12 39.18 65.85
  A 0.98 0.97 -58.0 0 1 40.39 65.57
  Q 40.83 65.79 41.13 66.18
  Q 41.85 67.10 41.04 67.94
  L 35.53 73.63
  Q 35.04 74.14 35.53 74.65
  Z
  M 18.88 69.47
  C 16.09 70.69 12.71 74.38 15.29 77.30
  C 19.42 81.97 26.66 77.60 30.49 74.36
  Q 30.86 74.05 30.52 73.71
  C 27.48 70.70 23.22 67.57 18.88 69.47
  Z"
/>
</svg>
