<?xml version="1.0" encoding="UTF-8" standalone="no"?>
<svg xmlns="http://www.w3.org/2000/svg" version="1.2" baseProfile="tiny" viewBox="0.00 0.00 512.00 512.00">
<path fill="#000000" d="
  M 342.09 0.00
  L 354.07 0.00
  Q 418.16 3.29 463.12 47.37
  C 516.03 99.24 526.82 181.10 490.26 245.50
  Q 488.21 249.12 486.08 250.36
  C 479.24 254.36 472.45 246.51 476.40 239.62
  C 520.01 163.60 491.03 66.31 410.72 28.83
  C 368.01 8.90 317.90 10.67 276.39 33.20
  C 272.80 35.15 268.02 38.69 264.22 38.58
  C 258.84 38.43 255.32 31.40 258.51 26.99
  Q 259.64 25.42 263.27 23.27
  Q 299.53 1.81 342.09 0.00
  Z"
/>
<path fill="#000000" d="
  M 215.12 297.09
  Q 235.84 291.70 256.49 286.02
  C 259.27 285.25 262.50 286.31 265.18 287.95
  C 269.34 290.50 273.66 293.32 277.75 295.46
  C 334.34 324.96 402.71 316.75 449.58 272.82
  C 452.02 270.53 456.63 265.09 459.75 264.47
  C 467.35 262.96 471.91 271.72 466.51 277.25
  Q 418.11 326.67 349.50 327.86
  C 317.21 328.42 285.58 318.90 258.44 301.44
  Q 258.01 301.17 257.53 301.30
  Q 236.16 307.00 214.89 312.71
  Q 209.76 314.09 207.53 313.87
  C 202.57 313.39 198.28 309.01 197.89 304.00
  Q 197.73 301.97 198.91 297.60
  Q 204.75 275.90 210.53 254.18
  Q 210.66 253.68 210.38 253.25
  C 168.89 189.25 176.75 104.84 229.82 49.91
  Q 233.31 46.30 235.86 45.54
  C 240.87 44.05 246.49 49.94 244.60 55.08
  Q 243.97 56.79 241.11 59.79
  C 191.73 111.33 185.00 187.57 224.39 247.37
  C 226.44 250.49 226.12 253.99 225.08 257.85
  Q 219.86 277.25 214.70 296.67
  Q 214.55 297.23 215.12 297.09
  Z"
/>
<path fill="#000000" d="
  M 310.5700 127.2100
  A 31.03 25.16 90.0 0 1 285.4100 96.1800
  A 31.03 25.16 90.0 0 1 310.5700 65.1500
  A 31.03 25.16 90.0 0 1 335.7300 96.1800
  A 31.03 25.16 90.0 0 1 310.5700 127.2100
  Z
  M 310.5700 112.0700
  A 15.88 10.01 90.0 0 0 320.5800 96.1900
  A 15.88 10.01 90.0 0 0 310.5700 80.3100
  A 15.88 10.01 90.0 0 0 300.5600 96.1900
  A 15.88 10.01 90.0 0 0 310.5700 112.0700
  Z"
/>
<path fill="#000000" d="
  M 381.3900 127.2100
  A 31.03 25.16 90.0 0 1 356.2300 96.1800
  A 31.03 25.16 90.0 0 1 381.3900 65.1500
  A 31.03 25.16 90.0 0 1 406.5500 96.1800
  A 31.03 25.16 90.0 0 1 381.3900 127.2100
  Z
  M 381.3900 112.0700
  A 15.88 10.01 90.0 0 0 391.4000 96.1900
  A 15.88 10.01 90.0 0 0 381.3900 80.3100
  A 15.88 10.01 90.0 0 0 371.3800 96.1900
  A 15.88 10.01 90.0 0 0 381.3900 112.0700
  Z"
/>
<path fill="#000000" d="
  M 252.0900 181.4900
  A 31.03 25.16 90.0 0 1 226.9300 150.4600
  A 31.03 25.16 90.0 0 1 252.0900 119.4300
  A 31.03 25.16 90.0 0 1 277.2500 150.4600
  A 31.03 25.16 90.0 0 1 252.0900 181.4900
  Z
  M 252.0900 166.3200
  A 15.86 10.01 90.0 0 0 262.1000 150.4600
  A 15.86 10.01 90.0 0 0 252.0900 134.6000
  A 15.86 10.01 90.0 0 0 242.0800 150.4600
  A 15.86 10.01 90.0 0 0 252.0900 166.3200
  Z"
/>
<path fill="#000000" d="
  M 439.8700 181.5000
  A 31.03 25.16 90.0 0 1 414.7100 150.4700
  A 31.03 25.16 90.0 0 1 439.8700 119.4400
  A 31.03 25.16 90.0 0 1 465.0300 150.4700
  A 31.03 25.16 90.0 0 1 439.8700 181.5000
  Z
  M 439.8700 166.3300
  A 15.86 10.01 90.0 0 0 449.8800 150.4700
  A 15.86 10.01 90.0 0 0 439.8700 134.6100
  A 15.86 10.01 90.0 0 0 429.8600 150.4700
  A 15.86 10.01 90.0 0 0 439.8700 166.3300
  Z"
/>
<path fill="#000000" d="
  M 345.60 243.54
  C 335.67 253.21 324.24 258.08 310.72 256.17
  C 294.46 253.87 280.94 241.97 277.25 225.77
  Q 273.76 210.42 281.26 197.47
  Q 284.17 192.45 294.25 182.38
  Q 314.49 162.15 334.71 141.91
  Q 339.77 136.85 342.74 135.89
  C 348.24 134.12 352.08 136.70 356.16 140.77
  Q 379.67 164.30 403.16 187.83
  C 422.03 206.73 419.35 237.51 395.93 251.16
  C 379.37 260.81 359.76 257.25 346.40 243.55
  Q 346.00 243.15 345.60 243.54
  Z
  M 350.39 227.72
  C 355.41 229.76 358.59 235.35 363.30 238.09
  C 372.56 243.48 383.79 242.52 391.99 235.72
  C 400.42 228.74 403.09 215.94 398.41 206.36
  Q 396.39 202.24 389.32 195.16
  Q 367.78 173.61 346.27 152.10
  Q 346.00 151.83 345.73 152.10
  Q 324.66 173.23 303.48 194.34
  Q 295.87 201.92 293.76 206.14
  C 282.48 228.74 309.34 251.32 329.97 237.28
  C 337.05 232.46 340.29 223.62 350.39 227.72
  Z"
/>
<path fill="#000000" d="
  M 236.64 512.00
  L 227.40 512.00
  Q 183.34 509.48 152.41 478.59
  Q 107.72 433.97 63.04 389.34
  Q 59.56 385.86 58.70 384.03
  C 55.28 376.73 65.06 370.12 70.72 375.78
  Q 117.46 422.54 164.21 469.27
  C 196.78 501.83 248.00 505.87 286.10 480.06
  Q 294.94 474.06 303.74 467.92
  A 0.34 0.34 0.0 0 0 303.79 467.40
  C 300.38 463.95 293.00 457.97 291.77 453.69
  C 290.33 448.72 295.80 443.25 300.90 444.76
  Q 302.95 445.37 305.85 448.25
  Q 316.12 458.45 326.30 468.68
  A 0.65 0.64 45.0 0 0 327.21 468.69
  L 338.44 457.47
  A 0.46 0.46 0.0 0 0 338.44 456.83
  L 244.26 362.66
  A 0.66 0.65 44.7 0 0 243.33 362.66
  L 232.24 373.75
  A 0.60 0.59 -45.3 0 0 232.24 374.60
  Q 254.97 397.36 277.85 420.20
  Q 280.52 422.88 281.25 424.60
  C 283.85 430.77 277.28 436.98 271.22 434.09
  Q 269.83 433.43 267.51 431.11
  Q 249.49 413.08 231.51 395.09
  A 0.53 0.53 0.0 0 0 230.85 395.02
  C 217.27 403.93 206.47 412.44 189.54 409.39
  Q 178.38 407.38 170.08 399.17
  Q 141.49 370.89 113.18 342.33
  C 103.18 332.24 99.64 317.77 103.97 304.27
  C 106.29 297.05 112.44 288.65 117.08 281.48
  Q 117.40 280.99 116.98 280.57
  L 44.82 208.40
  A 0.35 0.35 0.0 0 0 44.29 208.45
  Q 38.07 217.36 31.95 226.41
  C 5.14 266.02 11.10 316.04 44.90 350.01
  Q 47.41 352.53 48.00 354.79
  C 49.37 360.06 43.85 365.65 38.37 363.56
  Q 36.74 362.94 34.58 360.83
  C -3.17 324.02 -11.52 265.00 17.71 220.49
  Q 21.01 215.46 33.42 197.91
  Q 33.74 197.46 33.39 197.03
  C 28.96 191.56 26.74 186.75 29.32 180.01
  Q 30.55 176.78 34.89 172.42
  C 42.30 164.97 49.78 154.36 62.04 160.40
  C 65.34 162.03 68.28 165.47 71.09 168.27
  Q 71.48 168.65 71.93 168.35
  C 87.86 157.63 107.88 160.07 121.32 173.43
  Q 136.75 188.76 152.09 204.17
  Q 154.27 206.35 156.52 210.37
  C 164.02 223.69 163.20 238.81 155.08 251.74
  A 0.54 0.53 -52.8 0 0 155.16 252.40
  C 161.61 258.56 167.48 264.54 163.68 273.99
  Q 162.34 277.31 156.86 282.77
  C 149.03 290.57 141.43 300.49 128.82 292.10
  Q 128.31 291.77 127.98 292.28
  C 121.13 302.86 113.01 312.56 119.35 325.57
  Q 121.21 329.39 128.56 336.73
  Q 152.60 360.75 176.63 384.79
  Q 182.98 391.14 186.86 392.96
  C 199.78 398.99 209.41 391.12 219.91 384.23
  Q 220.37 383.93 220.08 383.47
  C 211.14 369.35 223.85 361.00 232.77 352.03
  C 238.96 345.80 248.50 346.03 254.69 352.06
  Q 257.25 354.56 259.88 357.00
  Q 260.26 357.35 260.69 357.06
  C 274.82 347.73 293.00 348.09 306.28 358.66
  Q 307.59 359.70 317.01 369.08
  Q 328.96 380.96 340.82 392.94
  Q 344.46 396.61 347.00 402.29
  C 352.64 414.92 351.50 428.68 343.90 440.31
  Q 343.62 440.74 343.97 441.11
  C 346.13 443.42 348.96 445.77 350.53 448.09
  Q 355.42 455.35 352.34 462.85
  Q 350.95 466.22 345.96 471.18
  C 341.98 475.14 337.44 480.69 332.70 482.67
  C 326.14 485.40 320.45 483.50 315.22 478.84
  Q 314.83 478.49 314.40 478.79
  Q 304.03 486.00 293.57 493.01
  Q 267.82 510.26 236.64 512.00
  Z
  M 55.4895 173.9011
  A 0.63 0.63 0.0 0 0 54.5986 173.9011
  L 43.5111 184.9886
  A 0.63 0.63 0.0 0 0 43.5111 185.8795
  L 137.5705 279.9389
  A 0.63 0.63 0.0 0 0 138.4614 279.9389
  L 149.5489 268.8514
  A 0.63 0.63 0.0 0 0 149.5489 267.9605
  L 55.4895 173.9011
  Z
  M 83.52 178.65
  Q 81.99 179.17 83.13 180.32
  L 143.51 240.69
  A 0.52 0.52 0.0 0 0 144.37 240.52
  Q 148.93 229.17 144.43 219.77
  Q 142.47 215.65 133.67 206.89
  Q 124.57 197.82 115.50 188.73
  Q 107.59 180.81 103.58 178.97
  Q 94.70 174.90 83.52 178.65
  Z
  M 333.12 429.33
  Q 337.73 418.09 333.37 408.79
  Q 331.44 404.67 322.41 395.65
  Q 312.10 385.34 301.76 375.05
  Q 296.08 369.40 292.31 367.63
  Q 282.67 363.12 271.69 367.81
  A 0.55 0.55 0.0 0 0 271.52 368.70
  L 332.30 429.49
  Q 332.83 430.02 333.12 429.33
  Z"
/>
</svg>
