<svg width="26" height="26" viewBox="0 0 26 26" fill="none" xmlns="http://www.w3.org/2000/svg">
<g clip-path="url(#clip0_35_468)">
<path d="M17.6491 0H18.1173C18.9359 0.0294531 19.6646 0.277266 20.3034 0.743438C20.3177 0.753594 20.3334 0.757826 20.3507 0.756133C20.5777 0.733281 20.9697 0.690625 21.1454 0.845C21.3135 0.992773 21.2927 1.3198 21.0941 1.4432C21.0386 1.47773 20.9528 1.49618 20.8366 1.49855C20.6457 1.50262 20.4551 1.51159 20.2648 1.52547C20.1181 1.53664 20.0216 1.51277 19.9165 1.42289C18.6855 0.372734 16.6573 0.700274 15.3832 1.44473C14.8109 1.77938 14.2422 2.36336 14.2904 3.0616C14.3006 3.20734 14.2747 3.40641 14.1726 3.48359C12.4587 4.77699 12.5243 7.18301 13.1859 8.97863C13.2428 9.13301 13.2819 9.28332 13.3261 9.43973C13.3335 9.46579 13.3462 9.46867 13.3642 9.44836L13.7242 9.04516C13.7293 9.03939 13.7332 9.03257 13.7356 9.02514C13.7379 9.01771 13.7387 9.00983 13.7379 9.00199C13.6323 8.11941 13.4261 5.37266 14.8363 5.26906C14.964 5.25958 15.15 5.287 15.3944 5.35133C15.8582 5.47286 16.3256 5.57951 16.7965 5.67125C17.6675 5.84086 18.5344 5.82326 19.397 5.61844C19.8093 5.5206 20.2218 5.42293 20.6345 5.32543C20.8481 5.27499 21.0078 5.25366 21.1134 5.26145C22.4779 5.36199 22.2854 8.12144 22.1864 8.98574C22.184 9.00741 22.1905 9.0262 22.2057 9.04211L22.5881 9.43668C22.6057 9.45462 22.6175 9.45141 22.6236 9.42703C22.6808 9.18802 22.7487 8.95223 22.8273 8.71965C23.0934 7.93356 23.2213 7.22008 23.2289 6.37305C23.2303 6.21596 23.2892 6.09189 23.4057 6.00082C23.5306 5.90281 23.7342 5.88199 23.8622 5.82105C24.1665 5.67684 24.3453 5.46034 24.3984 5.17156C24.5208 4.50785 23.9546 3.77 23.4173 3.42012C23.2335 3.30027 22.8217 3.13371 22.7998 2.89453C22.7755 2.62607 22.6764 2.39518 22.5028 2.20187C22.4357 2.12672 22.2153 1.96676 22.1803 1.86469C22.0488 1.48434 22.4378 1.17 22.7668 1.41832C23.1555 1.71184 23.408 2.09591 23.5245 2.57055C23.5285 2.58714 23.538 2.59966 23.5529 2.60812C24.3989 3.07633 25.1728 3.9716 25.1794 4.98266C25.1845 5.73574 24.7341 6.30246 24.014 6.57668C23.9961 6.58345 23.9869 6.59648 23.9866 6.61578C23.9798 6.96956 23.9473 7.32096 23.8891 7.67C23.8854 7.69099 23.8942 7.70216 23.9155 7.70352C24.5919 7.75227 25.0474 8.22758 25.25 8.85219C25.5463 9.76591 25.4953 10.6578 25.0972 11.5279C24.7534 12.2774 23.9937 12.6846 23.1903 12.3734C23.1727 12.3666 23.1616 12.3723 23.1568 12.3906C22.692 14.1693 21.6171 15.4187 19.9322 16.1388C19.9156 16.1459 19.9073 16.1586 19.9073 16.1769V17.0371C19.9073 17.0584 19.9173 17.0652 19.9373 17.0574C20.2471 16.933 20.5817 16.8751 20.8092 17.1001C21.1004 17.3892 21.3934 17.6768 21.6882 17.9629C21.7004 17.9747 21.715 17.9818 21.7319 17.9842C24.1252 18.3402 25.8442 20.2561 26.0001 22.6647V25.2144C25.9134 25.6562 25.6492 25.9181 25.2074 26H2.81335C2.6302 25.9516 2.52695 25.85 2.50359 25.6953C2.3895 24.9336 2.40084 24.1263 2.53761 23.2736C2.54134 23.2505 2.5327 23.2439 2.51171 23.2537C2.12002 23.4372 1.83717 23.5491 1.66316 23.5894C0.699838 23.8134 -0.0283648 23.1562 7.2667e-05 22.2021V21.5054C0.0386664 20.6062 0.146492 19.7165 0.323549 18.8363C0.349955 18.7049 0.384995 18.611 0.428666 18.5545C0.679018 18.2335 1.17515 18.4986 1.09339 18.8906C0.858784 20.0156 0.749604 21.1142 0.765854 22.1863C0.768901 22.3925 0.798523 22.543 0.854721 22.6378C1.02484 22.9252 1.31988 22.9029 1.61593 22.8023C2.32281 22.5616 2.96062 22.1721 3.39328 21.5521C3.39865 21.5443 3.40177 21.5351 3.40231 21.5257C3.40284 21.5162 3.40077 21.5067 3.39632 21.4982C2.49597 19.8509 2.54218 17.519 3.89398 16.1195C3.89576 16.1177 3.89712 16.1155 3.89797 16.1131C3.89882 16.1108 3.89914 16.1082 3.89889 16.1057C3.89865 16.1032 3.89786 16.1007 3.89657 16.0986C3.89528 16.0964 3.89353 16.0945 3.89144 16.0931C3.58371 15.8803 2.83062 15.5594 2.47464 15.7686C2.06179 16.0113 1.78046 16.6964 1.60882 17.1097C1.55262 17.2445 1.49423 17.3343 1.43363 17.3794C1.2239 17.5353 0.858784 17.3804 0.843041 17.1184C0.838302 17.0449 0.863523 16.934 0.918705 16.7857C1.09915 16.3006 1.35289 15.8571 1.67992 15.4553C2.00424 15.0571 2.42555 14.8909 2.94386 14.9566C3.54037 15.0328 4.05682 15.2432 4.4932 15.5878C4.50708 15.599 4.52147 15.5997 4.53636 15.5898C4.8854 15.36 5.1718 15.2066 5.39558 15.1298C7.19831 14.5133 9.51546 14.5173 11.1765 15.5858C11.1907 15.5949 11.2044 15.5944 11.2177 15.5843C11.652 15.242 12.152 15.0341 12.7177 14.9607C13.1714 14.9018 13.5492 15.006 13.8512 15.2735C14.3966 15.7564 14.7419 16.6278 14.9663 17.2905C14.9721 17.3074 14.9819 17.31 14.9958 17.2981C15.0652 17.2382 15.131 17.1803 15.1933 17.1245C15.4884 16.8573 15.7448 16.935 16.0723 17.0554C16.0906 17.0618 16.0998 17.0554 16.0998 17.0361V16.188C16.0998 16.1688 16.0908 16.1554 16.0728 16.1479C14.3835 15.4275 13.3083 14.1752 12.8472 12.3911C12.8425 12.3735 12.8315 12.3679 12.8142 12.3744C11.9159 12.7222 11.1628 12.1789 10.8353 11.3648C10.4686 10.4548 10.4321 9.20664 11.0039 8.34031C11.2459 7.97367 11.5938 7.76191 12.0474 7.70504C12.0647 7.70301 12.072 7.69319 12.0693 7.67559C11.9504 6.94027 11.9723 6.18685 12.1348 5.41531C12.3362 4.45758 12.7897 3.66421 13.4952 3.0352C13.5077 3.02402 13.5145 3.00997 13.5155 2.99305C13.6079 1.01156 16.0104 0.0863281 17.6491 0ZM14.493 8.92379C14.5509 9.45039 13.8745 10.0364 13.5094 10.3386C13.4962 10.3494 13.4896 10.3633 13.4896 10.3802C13.4886 10.8743 13.4673 11.4339 13.5272 11.8742C13.713 13.2371 14.5824 14.4478 15.7514 15.1374C17.0946 15.9306 18.7597 15.9346 20.1293 15.2014C21.5257 14.4534 22.4281 13.033 22.5155 11.438C22.5249 11.2626 22.5258 10.911 22.518 10.3832C22.518 10.3667 22.5112 10.3533 22.4977 10.3431C22.1321 10.0745 21.606 9.63473 21.4607 9.21629C21.4316 9.13369 21.4225 9.03111 21.4333 8.90855C21.4633 8.55766 21.6598 5.8627 20.9478 6.03383C20.4153 6.1618 20.0553 6.24999 19.8677 6.2984C18.6368 6.6173 17.404 6.62408 16.1693 6.31871C15.7695 6.21986 15.3694 6.12253 14.9689 6.02672C14.2676 5.85965 14.457 8.59168 14.493 8.92379ZM11.7432 11.4253C11.9855 11.7411 12.3709 11.8066 12.7132 11.5812C12.7198 11.5767 12.7253 11.5706 12.729 11.5635C12.7327 11.5564 12.7346 11.5485 12.7345 11.5405C12.7287 11.1885 12.7262 10.8362 12.7269 10.4838C12.7272 10.2983 12.7098 10.1282 12.6746 9.97344C12.5876 9.5919 12.4738 9.21815 12.3333 8.85219C12.2917 8.74402 12.2678 8.60488 12.2282 8.48402C12.2224 8.46642 12.2104 8.45863 12.1921 8.46066C11.9372 8.49215 11.7437 8.60827 11.6117 8.80902C11.1527 9.50574 11.2578 10.7915 11.7432 11.4253ZM23.5352 9.02383C23.4475 9.26589 23.3818 9.51336 23.3381 9.76625C23.2442 10.3066 23.2812 10.9591 23.2752 11.5436C23.275 11.5505 23.2767 11.5574 23.2801 11.5635C23.2835 11.5695 23.2885 11.5746 23.2944 11.5781C23.7051 11.8209 24.0414 11.7533 24.3035 11.3755C24.7488 10.7336 24.8021 9.71039 24.5035 9.00199C24.3631 8.66887 24.1124 8.48504 23.7515 8.45051C23.7322 8.44848 23.7198 8.45677 23.7144 8.47539C23.6589 8.66463 23.5991 8.84745 23.5352 9.02383ZM7.46542 18.7688C8.51507 18.62 9.76328 19.0552 9.63683 20.345C9.63514 20.3616 9.64191 20.3734 9.65714 20.3805C10.3122 20.6883 10.8356 21.1458 11.2273 21.7532C11.2364 21.7674 11.2459 21.7677 11.2557 21.7542C12.2927 20.3323 12.5801 18.1426 11.3502 16.739C10.3193 15.5639 8.3805 15.3451 6.93476 15.534C5.26863 15.7523 3.89804 16.5907 3.60808 18.3559C3.41105 19.5508 3.72894 20.7675 4.44242 21.7537C4.45359 21.7689 4.46425 21.7686 4.47441 21.7527C4.86847 21.1412 5.39592 20.6825 6.05675 20.3765C6.06331 20.3734 6.06868 20.3682 6.07207 20.3618C6.07546 20.3554 6.07667 20.3481 6.07554 20.3409C5.92523 19.4188 6.65089 18.884 7.46542 18.7688ZM11.8133 16.1276C13.1636 17.5312 13.2052 19.8418 12.3064 21.5028C12.3025 21.5098 12.3006 21.5178 12.3012 21.5258C12.3017 21.5338 12.3046 21.5415 12.3094 21.548C12.7903 22.1985 13.4398 22.622 14.2163 22.8379C14.3503 22.8751 14.4636 22.881 14.556 22.8556C14.8785 22.7678 14.9308 22.5113 14.9369 22.1823C14.965 20.5535 14.7227 18.9653 14.2102 17.4175C14.0705 16.995 13.5536 15.6939 13.0123 15.7051C12.5745 15.7136 12.1761 15.8421 11.8169 16.0905C11.8013 16.1014 11.8001 16.1137 11.8133 16.1276ZM16.8762 16.3815C16.8744 16.3811 16.8726 16.3812 16.8709 16.3816C16.8691 16.382 16.8675 16.3828 16.8661 16.3839C16.8647 16.385 16.8635 16.3864 16.8627 16.388C16.8619 16.3896 16.8615 16.3914 16.8615 16.3932L16.861 17.2042C16.861 17.2248 16.8713 17.2363 16.8919 17.2387C17.6327 17.3227 18.3734 17.3228 19.1141 17.2392C19.1351 17.2368 19.1456 17.225 19.1456 17.2037V16.4023C19.1456 16.3837 19.1366 16.3763 19.1187 16.38C18.3712 16.5391 17.6237 16.5396 16.8762 16.3815ZM18.9791 18.0111C17.8781 18.1025 16.7036 18.0995 15.6839 17.7272C15.6673 17.7211 15.6529 17.7243 15.6407 17.7369L15.269 18.1086C15.2514 18.1261 15.2383 18.1477 15.2309 18.1714C15.2234 18.1951 15.2218 18.2202 15.2262 18.2447C15.2306 18.2691 15.2409 18.2922 15.2561 18.3118C15.2713 18.3314 15.2911 18.3471 15.3137 18.3574C15.5488 18.4651 15.8128 18.558 16.0779 18.6149C17.4463 18.9091 18.81 18.8884 20.1689 18.5529C20.4136 18.4925 20.6543 18.3838 20.8793 18.2752C20.8822 18.2737 20.8847 18.2717 20.8866 18.2691C20.8886 18.2665 20.8899 18.2635 20.8904 18.2603C20.891 18.2572 20.8907 18.2539 20.8898 18.2508C20.8888 18.2478 20.8871 18.245 20.8849 18.2427L20.3766 17.7435C20.363 17.7303 20.3474 17.7269 20.3298 17.7333C19.9222 17.8775 19.472 17.9701 18.9791 18.0111ZM25.18 22.2214C24.8748 20.4298 23.4976 18.9861 21.6314 18.7413C21.6156 18.739 21.5996 18.7426 21.5862 18.7515C20.5599 19.4106 19.0923 19.5919 17.9 19.5802C17.0103 19.5718 16.2018 19.459 15.4746 19.242C15.4581 19.2373 15.4515 19.2434 15.4548 19.2603C15.6217 20.1825 15.7038 21.1115 15.7011 22.0472C15.7001 22.3972 15.6664 22.6589 15.6001 22.8323C15.4284 23.2807 14.9993 23.6077 14.4966 23.6392C14.0949 23.6641 13.6105 23.4569 13.1905 23.2522C13.1702 23.2424 13.1619 23.2487 13.1656 23.271C13.2736 23.9153 13.3002 24.5631 13.2453 25.2144C13.244 25.2303 13.2513 25.2383 13.2672 25.2383H25.0855C25.1884 25.2383 25.2397 25.1867 25.2394 25.0834C25.237 24.4673 25.237 23.8504 25.2394 23.2329C25.2411 22.802 25.2213 22.4648 25.18 22.2214ZM8.43281 19.596C8.06752 19.4673 7.70985 19.4584 7.3598 19.5691C6.35179 19.8875 6.94035 20.6751 7.57206 20.8848C8.04179 21.0412 8.55925 20.7528 8.81519 20.3648C9.04066 20.023 8.74562 19.7062 8.43281 19.596ZM9.6282 22.5093C10.04 22.4839 10.1457 23.0608 9.77242 23.2578C9.11971 23.6021 8.48613 23.5745 7.87167 23.175C7.85712 23.1656 7.84273 23.1657 7.82851 23.1755C7.26653 23.5496 6.67374 23.595 6.05015 23.3116C5.88765 23.2382 5.78846 23.1688 5.75257 23.1034C5.56417 22.7607 5.90898 22.3605 6.24261 22.553C6.6685 22.7984 7.07001 22.7862 7.44714 22.5164C7.46272 22.5052 7.4705 22.4902 7.4705 22.4712L7.47101 21.6729C7.47101 21.656 7.46272 21.6452 7.44613 21.6404C7.06358 21.5335 6.73519 21.3374 6.46097 21.0524C6.44845 21.0392 6.43406 21.0365 6.41781 21.0443C5.72617 21.3662 4.78316 22.1777 4.90402 23.0481C5.07515 24.2811 7.54769 24.3577 8.42976 24.2887C9.23667 24.2257 10.9414 23.9469 10.7952 22.7551C10.7032 22.0071 9.94203 21.3464 9.28136 21.0478C9.26511 21.0404 9.25089 21.0431 9.2387 21.0559C8.9655 21.339 8.63864 21.5335 8.25812 21.6394C8.25083 21.6414 8.2444 21.6458 8.23981 21.652C8.23522 21.6581 8.23274 21.6657 8.23273 21.6734L8.23222 22.4692C8.23222 22.4864 8.23933 22.5003 8.25355 22.5108C8.61511 22.7725 8.98395 22.8057 9.36007 22.6104C9.48263 22.5467 9.572 22.513 9.6282 22.5093ZM11.5487 22.6682C11.6427 23.397 11.3116 24.0343 10.6936 24.4171C10.4068 24.5949 10.1773 24.7088 10.005 24.7589C8.75815 25.1235 7.50757 25.1709 6.25328 24.9011C5.11882 24.6568 4.00417 24.0205 4.15499 22.6677C4.15664 22.6538 4.1528 22.6399 4.14433 22.6291L3.85488 22.2564C3.84235 22.2402 3.82932 22.2396 3.81578 22.2549C3.70101 22.3849 3.53089 22.5179 3.47757 22.685C3.21486 23.506 3.13158 24.3501 3.22773 25.2175C3.22824 25.2232 3.23092 25.2285 3.23525 25.2323C3.23958 25.2362 3.24523 25.2383 3.25109 25.2383H12.4532C12.467 25.2383 12.4747 25.2313 12.476 25.2175C12.5708 24.3576 12.489 23.5178 12.2307 22.6982C12.1749 22.5215 12.0098 22.39 11.8869 22.2539C11.8737 22.239 11.8609 22.2395 11.8484 22.2554L11.5599 22.6281C11.5511 22.6395 11.5471 22.6539 11.5487 22.6682Z" fill="#CC5946"/>
<path d="M15.3141 8.46174C15.0981 8.34325 15.032 8.18176 15.1156 7.97729C15.1907 7.79295 15.3223 7.76908 15.5015 7.7244C15.9897 7.60252 16.455 7.61742 16.8975 7.76908C17.3474 7.92295 17.1641 8.61662 16.638 8.479C16.4267 8.42348 16.2121 8.40097 15.9941 8.41147C15.7788 8.42162 15.4995 8.5633 15.3141 8.46174Z" fill="#CC5946"/>
<path d="M19.3695 8.48099C18.8424 8.62521 18.6332 7.90514 19.1801 7.74822C19.6483 7.6145 20.1265 7.61534 20.6147 7.75076C21.1438 7.89752 20.9569 8.62318 20.405 8.47693C20.06 8.38519 19.7148 8.38654 19.3695 8.48099Z" fill="#CC5946"/>
<path d="M15.8994 9.5257L15.8476 9.52552C15.6538 9.52484 15.4962 9.68139 15.4955 9.87519L15.4943 10.2225C15.4936 10.4163 15.6501 10.574 15.8439 10.5747L15.8957 10.5748C16.0895 10.5755 16.2472 10.419 16.2479 10.2252L16.2491 9.87782C16.2497 9.68402 16.0932 9.52637 15.8994 9.5257Z" fill="#CC5946"/>
<path d="M20.1659 9.52576L20.1141 9.5254C19.92 9.52405 19.7616 9.68028 19.7602 9.87435L19.7578 10.2207C19.7565 10.4147 19.9127 10.5732 20.1068 10.5745L20.1586 10.5749C20.3526 10.5762 20.5111 10.42 20.5124 10.2259L20.5148 9.87961C20.5162 9.68554 20.36 9.52712 20.1659 9.52576Z" fill="#CC5946"/>
<path d="M18.4489 12.4835C18.2239 12.5851 17.7948 12.5734 17.5739 12.4917C17.1397 12.3307 17.2844 11.6761 17.8126 11.7726C17.9432 11.7963 18.0739 11.7963 18.2046 11.7726C18.7048 11.6817 18.8754 12.2916 18.4489 12.4835Z" fill="#CC5946"/>
<path d="M17.4123 13.1371C17.7546 13.2755 18.0996 13.2963 18.4473 13.1995C18.5935 13.1589 18.7809 13.0416 18.9231 13.0152C19.1836 12.9675 19.3913 13.2676 19.3248 13.5037C19.2735 13.6835 19.0785 13.7845 18.9119 13.8485C18.2419 14.1058 17.5933 14.0838 16.966 13.7825C16.8441 13.7243 16.761 13.6604 16.7166 13.591C16.5658 13.3544 16.7588 13.0177 17.0411 13.0187C17.1554 13.0187 17.2981 13.0909 17.4123 13.1371Z" fill="#CC5946"/>
<path d="M6.62997 18.3895C6.33493 18.2305 6.18665 18.2777 5.8972 18.422C5.41478 18.6616 5.06591 17.9934 5.58439 17.7181C6.0922 17.4486 6.58613 17.4603 7.06618 17.7532C7.50849 18.0233 7.16825 18.6794 6.62997 18.3895Z" fill="#CC5946"/>
<path d="M9.08734 18.3782C8.90859 18.4706 8.7664 18.528 8.58816 18.397C8.2855 18.1741 8.4612 17.8303 8.75269 17.6896C9.25474 17.4476 9.72989 17.4682 10.1781 17.7516C10.5478 17.9852 10.3589 18.5412 9.93234 18.4661C9.90017 18.4606 9.83314 18.43 9.73124 18.3741C9.51796 18.2579 9.30214 18.2675 9.08734 18.3782Z" fill="#CC5946"/>
</g>
<defs>
<clipPath id="clip0_35_468">
<rect width="26" height="26" fill="white"/>
</clipPath>
</defs>
</svg>
